<svg xmlns="http://www.w3.org/2000/svg" xml:space="preserve" id="Layer_1" x="0" y="0" style="enable-background:new 0 0 1023 518" version="1.1" viewBox="0 0 1023 518"><style>.st0{fill:#b52065}.st1{fill:#c6236e}.st6{fill:#ffe4af}.st7{fill:#383838}.st8{fill:#fff}.st10{fill:#e7e7e7}.st12{fill:#8e6240}.st13{fill:#2a1d01}.st15{fill:#a7713f}.st18{fill:#744b20}.st20{fill:#333}.st21{fill:#1e1e1e}.st22,.st23{opacity:.1;fill:#fff;enable-background:new}.st23{fill:#e9d7bc}.st25{fill:#754b1d}.st26{fill:#54340a}</style><path d="M998 222.6 901.2 14.8c-2.6-5.5-6-10.5-10.1-14.8H567.8L445.9 174.3c-11.3 16.2-13.2 37.4-4.8 55.3l96.8 207.9c8.3 17.9 25.7 30.1 45.4 31.8l228.2 20c1.6.1 3.2.2 4.8.2 18 0 35-8.8 45.4-23.7l131.4-187.9c11.3-16.2 13.2-37.3 4.9-55.3z" class="st0"/><path d="M995.3 219.5 901.3 18c-3.2-6.9-7.6-13-12.9-18.1H567.9L447.8 171.6c-12.4 17.7-14.4 40.8-5.3 60.5l93.9 201.4c9.2 19.6 28.1 32.9 49.7 34.8l221.4 19.4c21.6 1.9 42.5-7.9 55-25.6L990 280c12.5-17.8 14.5-40.8 5.3-60.5z" class="st1"/><path d="m859.7 466 77.1-110.1L528.5 56.3l-82.3 117.8c-10.7 15.2-12.4 37.5-4.5 54.3L539.4 438c7.9 16.9 24.2 28.3 42.7 29.9l230.4 20.2c18.5 1.6 36.5-6.8 47.2-22.1z" style="fill:#b42065"/><g style="opacity:.56"><path d="m478.9 326.4-.1-4.6h2.3s3.9 0 10.1-.4l2.3-.1.2 4.6-2.3.1c-6.4.4-10.1.4-10.3.4h-2.2zm30.5-1.9-.5-4.6 2.3-.3c6.8-.8 13.5-1.6 19.8-2.7l2.3-.4.8 4.6-2.3.4c-6.5 1.1-13.2 2-20.1 2.7l-2.3.3zm40-6.3-1-4.5 2.3-.5c6.8-1.6 13.3-3.4 19.2-5.3l2.2-.7 1.5 4.4-2.2.7c-6 2-12.7 3.9-19.6 5.5l-2.4.4zm38.8-12.6-2.1-4.1 2.1-1c5.7-2.8 10.7-5.9 14.9-9.2l3.5-2.8 2.8 3.6-3.5 2.8c-4.4 3.5-9.7 6.7-15.7 9.6l-2 1.1zm33.5-23-2.8-3.6 1.8-1.4c4.2-3.3 9.9-7.7 16-12.4l1.8-1.4 2.8 3.7-1.8 1.4c-6 4.6-11.7 9-15.9 12.3l-1.9 1.4zm31.9-24.6-2.7-3.7 1.8-1.4c5.4-4 10.8-8 16.3-11.9l1.9-1.3 2.7 3.8-1.9 1.3c-5.3 3.7-10.6 7.6-16.3 11.8l-1.8 1.4zm32.7-23.2-2.6-3.9 1.9-1.3c5.8-3.9 11.5-7.5 17-10.9l2-1.2 2.4 3.9-2 1.2c-5.7 3.5-11.3 7.1-16.9 10.8l-1.8 1.4zm34-21.2-2.2-4.1 2-1.1c6.1-3.4 12.1-6.6 17.9-9.5l2.1-1 2.1 4.1-2.1 1c-5.8 2.8-11.7 6-17.7 9.4l-2.1 1.2zm35.8-18-1.7-4.3 2.2-.9c6-2.4 12.6-4.5 19.5-6.2l2.2-.5 1.1 4.5-2.2.5c-6.7 1.7-13 3.7-18.8 6.1l-2.3.8zm38.2-10.4-.7-4.6 2.3-.4c6.1-.9 12.7-1.7 20.1-2.3l2.3-.2.4 4.6-2.3.2c-7.4.7-13.9 1.4-19.9 2.3l-2.2.4zm39.9-3.9-.3-4.6 5.4-.3c5.7-.3 11.3-.7 17-1.1l2.3-.2.3 4.6-2.3.2c-5.6.4-11.2.8-17.1 1.2l-5.3.2zm40.3-3.3-.7-4.6 2.3-.3c7.3-1 13.7-2.4 19.4-4l2.2-.6 1.3 4.4-2.2.6c-5.9 1.7-12.4 3.1-20 4.1l-2.3.4zm39.4-11.3-2.3-4 2-1.2c1.8-1 3.5-2.2 5.2-3.4 4-2.9 7.7-5.6 11.1-8l1.9-1.4 2.7 3.8-1.9 1.4c-3.4 2.4-7 5.1-11 8-1.8 1.3-3.7 2.6-5.6 3.7l-2.1 1.1zm33.1-23.1-2.6-3.8 1.9-1.3c3.2-2.2 5.6-3.7 7.1-4.6 1.3-.7 3.1-1.8 4.4-.3.8.9.8 2.2 0 3.2l-1.5 1.8-.8-.7c-1 .6-3 1.8-6.7 4.3l-1.8 1.4z" style="fill:#fffffe"/></g><path d="M857.2 469.3c-14.7-47.6-36.8-116.9-38-119.8-3.8-9.3-75.2-35.2-80.7-47.3-2.2-4.8-3.1-9.8-2.7-14.8l4.1-47.4-30.5-2.7-.8-.1-4.2-.4-3.9 41.9-7.9-30.1-.8-.1-30.5-2.7-4.1 47.4c-.4 5.1-2.3 9.8-5.2 14.1-7.5 11-82.3 24.2-87.7 32.6-1.1 1.7-23 35.5-40.7 64.6l15.6 33.5c5.6 12 15.5 21.4 27.8 26.3l21.9-46.3 4.4 50.8.7.1 178.1 15.6 3-53.9 23.6 56.1c1.3 0 2.6.2 4 .5l9.6.8c17.3 1.6 34-5.5 44.9-18.7z" style="fill:#231f20"/><path d="M734.7 276.8c-.6 11.6 5.4 28.9-15.9 29.9-25.8 1.2-61.6-1.3-67.9 1.9 2.4.5 5.5 1.1 9.4 1.7 21.8 3.2 88.6-.3 82.4-3.3-8.4-4.1-6.1-29.9-6.1-29.9l-1.9-.3z"/><path d="M1011 128.2c-1.9 22-21.3 38.2-43.3 36.3-22-1.9-38.2-21.3-36.3-43.3 1.9-22 21.3-38.2 43.3-36.3 22 1.9 38.2 21.3 36.3 43.3" class="st6"/><path d="m996.9 125.6-2.9-.2c.2-2.3-1.5-4.4-3.8-4.6-2.3-.2-4.4 1.5-4.6 3.8l-2.9-.2c.3-3.9 3.8-6.8 7.7-6.5 3.9.3 6.8 3.8 6.5 7.7m-37-3.3-2.9-.2c.2-2.3-1.5-4.4-3.8-4.6-2.3-.2-4.4 1.5-4.6 3.8l-2.9-.2c.3-3.9 3.8-6.8 7.7-6.5 4 .4 6.9 3.8 6.5 7.7" class="st7"/><path d="m992.9 136.6-45.1-3.9c.1 2 .4 3.9 1 5.8l42.1 3.7c.8-1.7 1.5-3.5 2-5.6" class="st8"/><path d="M948.7 138.6c2.6 8.6 10.3 15.2 19.8 16s18.2-4.4 22.3-12.4l-42.1-3.6z" class="st1"/><path d="M846.6 175.9c-1.9 21.9-21.3 38.1-43.2 36.2-21.9-1.9-38.1-21.3-36.2-43.2 1.9-21.9 21.3-38.1 43.2-36.2 21.9 1.9 38.1 21.2 36.2 43.2" class="st6"/><path d="M831.5 169c-.3 3.1-3 5.4-6.2 5.2-3.1-.3-5.4-3-5.2-6.2.3-3.1 3-5.4 6.2-5.2 3.1.3 5.5 3.1 5.2 6.2m-36.9-3.2c-.3 3.1-3 5.4-6.2 5.2-3.1-.3-5.4-3-5.2-6.2.3-3.1 3-5.4 6.2-5.2 3.1.3 5.5 3.1 5.2 6.2" class="st7"/><path d="M851.5 143.3c-1.1.4-1.6 1.7-1.2 2.8l.5 1.4c.5 1.2-.8 2.3-1.9 1.8l-5.7-2.5-6.5-2.8c-1.1-.5-2.3 0-2.8 1.1s0 2.3 1.1 2.8l6.5 2.8c.7.3 1 1.1.7 1.8-.3.7-1.1 1-1.8.7l-9.8-4.3c-1.1-.5-2.3 0-2.8 1.1s0 2.3 1.1 2.8l9.8 4.3c.7.3 1 1.1.7 1.8-.3.7-1.1 1-1.8.7l-6.5-2.9c-1.1-.5-2.3 0-2.8 1.1s0 2.3 1.1 2.8l6.5 2.8c.7.3 1 1.1.7 1.8-.3.7-1.1 1-1.8.7l-3.9-1.7c-1.1-.5-2.3 0-2.8 1.1s0 2.3 1.1 2.8l3.9 1.7 6.5 2.8c4.3 1.9 9.3-.1 11.3-4.4l5.5-12.4c.9-2.1.9-4.4.2-6.5l-2-5.2c-.8-.7-2-1.2-3.1-.8" style="fill:#f9d398"/><path d="M813.5 194.9c-.3 3.9-3.8 6.8-7.7 6.5-3.9-.3-6.8-3.8-6.5-7.7.3-3.9 3.8-6.8 7.7-6.5 3.9.3 6.8 3.8 6.5 7.7" class="st1"/><path d="m806.9 198.7 14 11.4-9.6 6.1-4.4-17.5z" class="st10"/><path d="M808.2 211.4c1.6-1.1 3.7-.8 5.1.4.4-.4.8-.8 1.2-1.1.4-.3 1-.5 1.5-.7-.5-1.8.1-3.8 1.8-4.8 2-1.3 4.6-.7 5.9 1.3 1.3 2 .7 4.6-1.3 5.9 1.7 2.7.9 6.2-1.8 7.9-2.7 1.7-6.2.9-7.9-1.8-2 1.3-4.6.7-5.9-1.3-1.2-1.9-.6-4.6 1.4-5.8" class="st10"/><path d="m806.6 197.2 14 11.4-9.6 6.1-4.4-17.5z" class="st8"/><path d="M807.9 209.9c1.6-1.1 3.7-.8 5.1.4.4-.4.8-.8 1.2-1.1.5-.3 1-.5 1.5-.7-.5-1.8.1-3.8 1.8-4.8 2-1.3 4.6-.7 5.9 1.3 1.3 2 .7 4.6-1.3 5.9 1.7 2.7.9 6.2-1.8 7.9-2.7 1.7-6.2.9-7.9-1.8-2 1.3-4.6.7-5.9-1.3-1.1-1.9-.5-4.6 1.4-5.8" class="st8"/><g transform="rotate(5 471.608 6769.71)"><path d="M226.8 95.9c10.8 84.3-17.8 158.2-90.5 167.5-72.7 9.3-122-55.3-132.8-139.6C-7.3 39.5 33.2 25.6 105.9 16.3c72.6-9.4 110-4.7 120.9 79.6z" style="fill:#edcaa0"/><path d="M94.3 163c1.5 11.6-6.8 22.2-18.5 23.7s-22.4-6.7-23.9-18.2c-1.5-11.6 6.8-22.2 18.5-23.7 11.6-1.6 22.4 6.6 23.9 18.2z" class="st12"/><path d="M88.8 163.7c1 8.1-4.7 15.5-12.8 16.5-8.1 1-15.5-4.7-16.5-12.8-1-8.1 4.7-15.5 12.8-16.5 8.1-1 15.5 4.7 16.5 12.8z" class="st13"/><path d="M67 158.8c.3 2.3-1.3 4.5-3.7 4.8-2.4.3-4.5-1.4-4.8-3.7-.3-2.3 1.3-4.5 3.7-4.8 2.4-.3 4.5 1.3 4.8 3.7z" class="st8"/><path d="M87.5 217.3c13.9 6.2 28.3 9.2 42.3 7.3 14.1-1.8 26.8-9 39.3-17.7-4.2 6.4-9.7 12-16.2 16.4-6.6 4.5-14.2 7.4-22.1 8.5-8 1-16.1.3-23.6-2.3-7.4-2.6-14.4-6.6-19.7-12.2z" style="fill:#a7846f"/><path d="M151 155.7c1.5 11.6 12.2 19.8 23.9 18.2 11.7-1.5 20-12.1 18.5-23.7s-12.2-19.8-23.9-18.2c-11.6 1.5-19.9 12.1-18.5 23.7z" class="st12"/><path d="M156.5 155c1 8.1 8.4 13.8 16.5 12.8s13.8-8.4 12.8-16.5-8.4-13.8-16.5-12.8-13.8 8.4-12.8 16.5z" class="st13"/><path d="M156.4 147.3c.3 2.3 2.5 4 4.8 3.7 2.4-.3 4-2.5 3.7-4.8-.3-2.3-2.5-4-4.8-3.7-2.4.3-4.1 2.5-3.7 4.8z" class="st8"/><path d="M64.8 43.3c.2 1.5.5 3.1.9 4.6.4 1.5.8 3 1.3 4.4.6 1.4 1.1 2.9 1.9 4.2.8 1.3 1.7 2.5 2.8 3.6l-.7.3 1.2-5.8 1.3-5.8.2-1.1.6.9 6.8 9.3-.8.1 3.1-10.6.3-.9.6.8c1.7 2.4 3.5 4.7 5.1 7h-.7l3.9-5.8.2-.3.3.3 3.5 3.8h-.3L100 49l.1-.1.1.1c.4.5 1 1 1.5 1.4.6.4 1.2.8 1.8 1.1-.6-.3-1.3-.7-1.9-1-.6-.4-1.2-.8-1.6-1.4h.2l-3.5 3.4-.2.1-.2-.2-3.6-3.8h.5l-3.8 5.9-.3.5-.4-.5c-1.8-2.3-3.5-4.7-5.3-7l.8-.1L81.1 58l-.1 1.2-.6-.9-6.7-9.4.9-.2-1.3 5.8-1.4 5.8-.3.7-.5-.5c-2.3-2.3-3.7-5.2-4.6-8.2-.5-1.5-.8-3-1.1-4.5-.3-1.5-.5-3-.6-4.5z" class="st15"/><path d="M207.1 65c9.5 25.4 20.2 59.6 11.7 96.8-5.1 22.5-25.5 50.8-36.2 52.4-6.9 1.1-20.3-25.3-57.4-20.5-37.1 4.8-43.4 33.6-50.4 34.3-10.7 1.1-45.2-19.3-51.5-41.2-8.7-30.8-11.9-66.2-9-91.4 0 0-3.9 12.6-3.1 22 .8 9.4-7.9 19.8 1.7 56.6s15.4 59.9 44 86.7c19 17.8 38.6 21.1 47.6 23 8.5 5.7 19.9 8.2 33 6.6 13.2-1.7 23.5-7 30.3-14.7 8.1-4.1 26.4-12.2 40.3-34.3 20.9-33.1 21.8-56.4 21.8-94.3 0-38-11.8-43.4-13.3-57.3-1.5-13.7-9.5-24.7-9.5-24.7zm-76.6 170.5c-22.1 3.8-39.9-11.9-39.9-11.9s2.9-5 8.2-7.5c6.1-3 17.1 4.3 29.6 2.7 12.5-1.6 24.5-11.9 31.1-10.5 5.8 1.2 11.1 6.2 11.1 6.2s-17.7 19.1-40.1 21z" style="fill:#885929"/><path d="M113 249.2s.8 7.4 4.9 10l1-5.6s4.1 12.4 13.6 11.2c7.2-.9 10.4-8.4 10.6-14.2 0 0 2 3.1 3.4 8.8 0 0 2.1-4.5 2.7-9 0 0 .6-.6.8 1.7 0 0 2.9-2.9 1.6-9.3 0 0-9.5-1.9-13.5-1.8 0 0 .3 2-.9 2.6-1.2.6-2.1-.5-2.1-.5l-.1 4.2-.8-1.4s-1.5 2.2-3 .9c-1.4-1.3-2.4-3.8-2.4-3.8l.9 3.1s-2.4-.7-3.4-3.7c0 0-3.5 1-7.4 3.4-3.6 2.5-5.9 3.4-5.9 3.4z" style="fill:#9f6833"/><path d="M113.2 251.1c.2 4 1.7 8.9 5.8 10.4l-.5.3.5-3.4.2-1.7.6 1.6c2 5.2 6.3 11.2 12.5 10.7 6.3-.4 10.8-5 11.1-11.4l.1-3.1c1 3.3 2.4 7.1 1 10.6l-.6-.6c2.9-1.9 4.8-5.2 5.3-8.7.1-.5.1-1.2.2-1.8v-1.8c.2-.2.5 0 .6.1.2.5.3 1 .4 1.6 0-.4-.3-1.9-.8-1.6.1.9.1 1.9.1 2.7-.1 4-1.9 8-5.3 10.3l-1.2.8.6-1.3c.8-2.1.3-4.7-.3-6.9l1.1-.1c-.1 3.2-1.2 6.4-3.5 8.7-2.2 2.4-5.4 3.6-8.6 3.8-6.8.5-11.4-5.9-13.4-11.7h.8c0 .2-.6 3.8-.6 3.8-4.6-1.6-6.3-7-6.1-11.3z" class="st18"/><path d="m188.7 252.1-2-4.2s-.3 5.6-3.8 11.2-18.4 12.8-18.4 12.8l-1.5-3.3s-1.1 4.7-2.5 7.3c-1.5 2.6-5.2 3.2-5.2 3.2.1-8.8-1.4-12.6-1.4-12.6s.3 8.5-2.3 13.1c-2.6 4.6-13.5 4.7-13.5 4.7l-2-6.4c0 5.8-5.2 9.7-11.9 6.2-6.7-3.5-8.9-10.3-8.9-10.3 1.1 6.5 5.6 14 5.6 14-7.9-.6-10.4-8.2-10.4-8.2s-14.6-1.9-21.1-6.1l.7 3.8c5.9 3.5 10.9 5.7 14.6 6.5 8.5 5.7 19.9 8.2 33 6.6 13.2-1.7 23.5-7 30.3-14.7 5.4-2.7 13.2-9.7 21.6-20.5l-.9-3.1z" class="st18"/><path d="m102.7 281.5-8.8-4.1s-1.3 1.2-5.7-1c-4.4-2.3-14.7-14.4-14.7-14.4l2.1 9.6S58.9 260 56.2 256.4c-2.7-3.6-10-9.4-10.4-12.4-.4-3-1-7.9-1-7.9l-2.4 1.8s-6.4-4.2-6.9-8-7.3-17-7.3-17l-4.9-9.7-2.1.3c6.8 21.1 15.6 38 35.6 56.8 18.2 17.1 37.1 20.8 46.4 22.7.1 0-.5-1.5-.5-1.5zM208.1 241c11.4-18.2 16.9-33.4 19.4-49.7l-7.2 11.9s-5.9 23.1-9.3 26.2c-3.3 3-6.4.8-6.4.8l1.1 8.5-7.9 7.3-2.6-6-1 9.5-5 5.2L170 274l-.1.2c8.9-4.4 25.4-12.9 38.2-33.2z" class="st18"/><path d="M214.7 123.4h-3.8c-4.9 0-13.3 0-18 .3-8 .5-19.9 1.2-28.5 2.5-7.7 1.2-18.3 3.5-24.9 7.1-3.9 2.1-6.5 5.5-8 9.1-.5-1.2-1.4-2.1-1.8-2.4-1.6-1.2-6.5-2.1-11.1-1.6-4.6.6-9 2.8-10.4 4.3-.7.8-1.1 1.8-1.2 2.8-2.4-3.1-5.7-5.6-10-6.8-7.3-1.9-18.1-1.3-26-.6-8.6.8-20.4 3.2-28.2 4.7-4.6.9-12.7 3-17.5 4.2l-.9.2c-1.5.4-2.5.6-2.8.6-1.3.2-.8 2.8-.7 3.8.1 1 1.6 9.1 1.9 9.9.3.8 1.9.6 2.8.5.9-.1 4.1-.6 5.3 1.5v.1c1.4 5.8 3.9 12.4 6.6 17.7 3.8 7.3 7.8 11.9 11.9 13.6 2.2.9 5.6 1.2 10.6 1.1 3.8-.1 8.5-.5 13.9-1.2l1-.1c9-1.2 17.3-2.7 19.6-3.1 5.3-1.1 12-6.8 13.7-14.2 1.2-5.1 2-11.5 2.4-19.4v-.3c0-2.3.7-7 .7-7.9.1-1.2.1-5.5 7.5-6.4 7.4-1 8.5 3.1 8.9 4.3.3.9 2.1 5.2 2.7 7.4 0 .1.1.3.1.4s0 .1.1.2c2.4 7.5 4.7 13.5 7.2 18.2 3.5 6.7 11.5 10.6 16.8 10.2 2.3-.1 10.8-.7 19.8-1.9l1-.1c5.5-.7 10.1-1.5 13.8-2.4 4.9-1.1 8.1-2.4 10-3.8 3.6-2.7 6.3-8.1 8.1-16.2 1.3-5.9 2-12.9 1.9-18.8v-.1c.6-2.3 3.9-2.7 4.8-2.8.9-.1 2.5-.3 2.5-1.2.1-.9-.5-9.1-.6-10 .3-.9.1-3.6-1.2-3.4zm-109 33.4c-.3 8.1-1.1 14.6-2.3 19.7-.7 3.2-2.7 5.6-4.2 7-2.1 2-4.2 3-5.5 3.2-1.9.4-10.8 2.1-20.2 3.2-11.2 1.4-19.2 1.5-21.9.4-2.9-1.2-6.2-5.1-9.3-11.2-2.6-5.1-5-11.5-6.3-17l-.9-3.3c-.9-3.2-1.3-5.1-.7-6.2.8-1.4 4.1-2.9 10-4.5 6.4-1.7 14.3-3.2 22-4.2 1.7-.2 3.5-.4 5.1-.6 10.4-1 19-.9 24.2.5 3.9 1 6.2 3.5 7.5 5.3 1.7 2.5 2.6 5.3 2.5 7.7zm98.7-19.6v3.5c.1 5.7-.6 12.4-1.8 18.1-1.5 6.6-3.7 11.3-6.2 13.1-2.4 1.8-10.1 3.7-21.3 5.1-9.3 1.2-18.4 1.9-20.3 2-1.3.1-3.6-.4-6.2-1.8-1.8-1-4.3-2.8-5.8-5.7-2.5-4.6-4.8-10.7-7.2-18.5-.7-2.3-.6-5.3.4-7.9.8-2.2 2.5-5.1 6-7.1 4.6-2.6 12.9-4.9 23.3-6.5 1.7-.3 3.4-.5 5.1-.7 7.6-1 15.7-1.5 22.3-1.5 6.2 0 9.7.6 10.8 1.8.9.8 1 2.7.9 6.1z" style="fill:#111"/><path d="M134.5 143.4c.8-2.2 2.6-5.1 6.2-7.1 4.8-2.6 13.4-5 24.2-6.7 1.7-.3 3.5-.5 5.3-.7 8-1 16.3-1.6 23.2-1.6 6.4 0 11 .7 11.8 2.2 1.8 3.3-1.1 19.2-1.1 19.2s.3-10.5.3-11.5c0-3.3 0-5.3-.9-6.2-1.2-1.2-4.7-1.8-10.8-1.8-6.6 0-14.7.5-22.3 1.5-1.7.2-3.4.5-5.1.7-10.4 1.6-18.6 4-23.3 6.5-3.5 1.9-5.2 4.9-6 7.1-1 2.7-.6 5.3-.4 7.9 0 .1-2.1-6.8-1.1-9.5z"/><path d="M210.8 124.4h3.4c.3 0 .5.2.5.5s-.2.5-.5.5h-3.3l-.1-1z" class="st20"/><path d="M135.9 137.1c2.8-3.2 8.6-5.6 19.3-8.1 8.8-2.1 25.5-3.7 34.5-4.2 5.2-.3 16-.4 21.4-.4l.1 1c-5.3 0-16.2.1-21.5.4-9 .5-25.6 1.7-34.4 3.8-7 1.7-15.7 4-19.1 7.8-.1.1-.5.5-.6.4-.1-.3.1-.6.3-.7z" class="st20"/><path d="M204.7 157.1c0-.3-.5.1-.6.4-2.3 12.1-6.2 15.8-6.2 16.1.1.4 5.9-4.6 6.8-16.5z" class="st21"/><path d="M148.3 177c2.6 1.4 4.9 2 6.2 1.9 1.9-.1 11.2-.7 20.7-2 11.4-1.5 19.2-3.4 21.3-5 1.9-1.5 4.8-6.9 6.2-13.7.5-2.3.9-4.6 1.2-7.2-.3 3.3-.7 6.6-1.3 9.6-1.5 6.6-3.3 11.3-5.8 13.2-2.4 1.8-10.1 3.7-21.3 5.1-9.3 1.2-18.4 1.7-20.3 1.8-1.3.1-3.6-.1-6.2-1.5-1.8-1-4.3-2.8-5.8-5.7-1.7-3.3-3-7.4-4.7-12.3 1.4 3.9 2.8 7.2 4.3 10 1.2 2.5 3.1 4.5 5.5 5.8z"/><path d="M154.9 181.7c.1 0 .2-.1.2-.2s-.1-.2-.2-.2c-5.2-.1-7.5-1.9-10.2-4.6-2.6-2.6-5.1-10-5.1-10.1 0-.1 2.1 7.8 4.8 10.5 2.8 2.7 5.1 4.5 10.5 4.6z" class="st21"/><path d="M141.4 152.9s-2.8-6.9 1.1-10.5c1-.9 6.7-5.6 28.8-7.8l-12.9 7s-2.6-1.2-5.5-.2-6.3 2.3-5.2 4.2c1.1 1.9 1.9 2-.1 3.5-2.1 1.5-6.2 3.8-6.2 3.8z" class="st22"/><path d="m198.2 143.8-42.7 29.6s35.5-1.5 39.4-9.6c4.5-9.3 3.3-20 3.3-20z" class="st23"/><path d="M43.5 166.2s-3.1-9.5-2.5-11.1c.5-1.2 9.6-4.2 34.2-8.2l-12.9 7s-2.6-1.2-5.5-.2-6.3 2.3-5.2 4.2c1.1 1.9 1.9 2-.1 3.5-2.1 1.5-8 4.8-8 4.8z" class="st22"/><path d="M104.4 147.3c-1.9-2.7-4.7-4.5-7.8-5.3-5.3-1.3-14.2-1.4-25-.3-1.8.2-3.5.4-5.3.6-8 1-16.2 2.5-22.8 4.3-6.2 1.6-10.5 3.5-10.9 5.1-.9 3.7 5.9 18.3 5.9 18.3s-2.9-10.1-3.2-11.1c-.9-3.2-1.3-5.1-.7-6.2.8-1.4 4.1-2.9 10-4.5 6.4-1.7 14.3-3.2 22-4.2 1.7-.2 3.5-.4 5.1-.6 10.4-1 19-.9 24.2.5 3.9 1 6.2 3.5 7.5 5.3 1.6 2.3 2 5 2.4 7.6-.1 0 .3-7.2-1.4-9.5z"/><path d="m100.4 157.5-42.7 29.6s35.5-1.5 39.4-9.6c4.4-9.3 3.3-20 3.3-20z" class="st23"/><path d="M25.8 148.1c-1.3.3-3.4.8-3.5.8-.3 0-.4.3-.4.6s.3.4.6.4c0 0 2.1-.5 3.3-.8v-1z" class="st20"/><path d="M101.4 141.5c-3.5-2.4-9.7-3.3-20.7-3-9 .2-25.6 2.9-34.4 4.7-5.1 1.1-15.6 3.7-20.8 5l.1 1c5.2-1.3 15.7-4 20.9-5 8.8-1.8 25.2-4.9 34.2-5 7.2-.1 16.2-.1 20.4 2.7.1 0 .6.4.7.3.2-.4-.1-.6-.4-.7z" class="st20"/><path d="M99.5 183.3c-2.1 2-4.2 3.1-5.5 3.4-1.9.4-11 2.1-20.5 3.3-11.4 1.4-19.4 1.6-21.9.5-2.2-1-6.3-5.5-9.5-11.7-1.1-2.1-2-4.3-2.9-6.6 1.2 3.1 2.3 6.2 3.8 9 3.1 6 6.1 10.1 8.9 11.3 2.7 1.2 10.7 1 21.9-.4 9.3-1.2 18.2-3.1 20.1-3.4 1.3-.3 3.5-1 5.6-3.1 1.5-1.4 3.5-3.8 4.2-7 .8-3.6 1-7.9 1.4-13.1-.4 4.1-.9 7.7-1.6 10.8-.8 3.3-2.5 5.5-4 7z"/><path d="M94.3 189.5c-.1 0-.2 0-.3-.2 0-.1 0-.3.2-.3 5-1.4 6.7-3.7 8.7-7 1.9-3.1 2.5-11 2.5-11.1 0-.1 0 8.1-2 11.3-2.2 3.5-3.9 5.8-9.1 7.3z" class="st21"/><path d="M109.6 143.4h-.2c.1-.1 2.1-3.2 8.8-4.1 6.7-.9 9.8 1.1 9.9 1.1.1.1.1.2.1.3-.1.1-.4-.1-1.2-.3-.8-.2-2.7-1.2-8.7-.5-5.9.7-7.5 2.6-7.9 3-.3.4-.7.5-.8.5z" class="st20"/><ellipse cx="110.6" cy="143.5" rx="2" ry="1.1" style="opacity:.4;fill:#989898;enable-background:new" transform="rotate(143.784 110.598 143.514)"/><path d="M40 178.2c-.1-.3.5 0 .6.3 5.2 11.2 10 13.7 10 14 .1.3-6.8-3-10.6-14.3z" class="st21"/><path d="M195.8 20.2C151.9-4.4 68.6 8.5 27.8 35.9-17.7 66.4 3.7 141 15.4 174c0 0 .2-65.6 20-77.7 19.9-12.1 35.3-18.7 75.2-23.7s56.5-2.6 78.7 4c22.3 6.7 39.1 70.1 39.1 70.1 3-34.8 1.2-107.5-32.6-126.5z" class="st25"/><path d="M198.3 72.8c-4.4-4.8-12.9-7.8-23.8-9.6-2.5-.4-5.1-.7-7.8-1-1.3-.1-2.6-.2-3.8-.3-1.2-.1-2.3-.1-3.5-.2-1.6-.1-3.1-.1-4.7-.2-15.3-.5-32.4.6-48.1 2.6-2 .2-6.3-.3-6.3-.3L94.6 66l-6-.4-3.9 2.4-5.1-1.3-3.6 3.6-6.6-4.2s.4 6-.9 6.4C47.4 79 30.6 87.7 27 94.8c-2.4 4.7-8.2 22.5-8.2 22.5l-3.1 3.2 1.6 4.4-1.6 3.6s.5 11.9.6 13.9c.1 3.2.2 6.1.4 8.6 2-20 6.9-46.6 18.8-53.9C55.3 85 70.7 78.4 110.6 73.3c39.9-5.1 56.5-2.6 78.7 4 14.3 4.3 26.3 31.8 33.2 51.1-2.6-18.8-13.7-44-24.2-55.6z" class="st26"/><path d="M53.6 86.8h-2.1c-.5-.1-1-.2-1.3-.3-.4-.1-.8-.3-1.2-.4l-1-.5c-1.2-.7-2.4-1.5-3.4-2.5l-.7-.6-.6-.7-1.2-1.4c-.6-1-1.4-1.9-1.9-2.9-2.4-3.9-3.8-8.1-5-12.1-.6-2-1.2-4.1-1.6-6.1-.5-2-.9-4.1-1.2-6.2-.7-4.1-1.2-8.2-1.7-12.3 1.3 3.9 2.5 7.9 4 11.7.7 1.9 1.5 3.8 2.3 5.6.7 1.9 1.7 3.7 2.6 5.5 1.9 3.5 3.9 6.9 6.4 9.7.6.7 1.2 1.2 1.9 1.9l1 .8.5.4.5.3c.6.4 1.3.7 1.8.8.1 0 .3 0 .4.1h.5-.6c2.6-.4 5.1 1.4 5.5 4 .5 2.5-1.1 5-3.6 5.5-.1-.3-.2-.3-.3-.3z" class="st26"/><path d="M60.6 82.3c-.2 0-.4 0-.5-.1l-.3-.1c-.2 0-.4-.1-.5-.2-.3-.1-.6-.2-.8-.4-.5-.3-1-.6-1.4-.8-.5-.3-.8-.6-1.2-.9-.4-.3-.7-.6-1.1-1l-.9-1.1-.8-1.1c-.6-.7-.9-1.5-1.4-2.2-1.7-3-2.7-6.1-3.6-9.2-.8-3.1-1.4-6.2-1.8-9.3-.2-1.6-.4-3.1-.5-4.6l-.3-4.6 1.2 4.4c.4 1.5.9 2.9 1.4 4.4 1 2.9 2.2 5.7 3.4 8.4 1.4 2.6 2.9 5.2 4.7 7.3.5.5.9 1.1 1.4 1.4l.7.6.7.6c.2.2.5.3.7.5.2.1.5.3.7.3.2.1.4.1.6.2h.2-.2l-.4 7.5zm7.3-2.4c-.5-.2-.6-.2-.8-.4l-.6-.3c-.4-.2-.6-.5-1-.7-.6-.5-1.1-1-1.7-1.5-.6-.5-1-1.1-1.4-1.6-.4-.6-.8-1.2-1.2-1.7-1.4-2.4-2.3-4.9-2.8-7.3-.3-1.2-.4-2.5-.6-3.7-.1-1.2-.1-2.5-.2-3.7 0-1.2 0-2.4.1-3.6l.4-3.6.6 3.5c.2 1.2.5 2.3.8 3.4.3 1.1.6 2.2 1.1 3.3.5 1.1.8 2.1 1.4 3.1 1 2 2.2 3.7 3.7 5.1l1.1 1c.4.3.7.6 1.2.8l1.2.6c.2 0 .4.1.6.2h.2s.2 0 0 0l-2.1 7.1zm118.7-13.7.1-.1s.1-.2.2-.2l.4-.6c.3-.4.6-.8.8-1.2.6-.9 1-1.8 1.4-2.8.9-1.9 1.5-4.1 2-6.2.5-2.2.7-4.4.8-6.8.1-1.2 0-2.3 0-3.5 0-1.2-.1-2.3-.2-3.5l1.2 3.3c.3 1.2.7 2.3.9 3.4.6 2.4.9 4.8 1.1 7.2.1 2.5.1 5-.3 7.5-.2 1.2-.4 2.5-.8 3.8-.2.6-.4 1.3-.6 1.9-.1.3-.2.6-.4 1-.1.2-.1.3-.2.5s-.1.3-.3.6l-6.1-4.3zM179.1 66.5c.2-.2.5-.6.6-1l.7-1.1c.4-.8.9-1.6 1.2-2.4.8-1.7 1.5-3.4 2.1-5.1.6-1.8 1.1-3.6 1.4-5.5.4-1.9.6-3.8.8-5.7.5 1.9.9 3.8 1.1 5.8.3 1.9.4 4 .4 6s-.1 4-.4 6.1c-.1 1-.3 2-.5 3.1-.1.5-.2 1-.3 1.6-.1.6-.2 1-.5 1.7l-6.6-3.5zm32.4 29.3c-.1 0 0 0 0 0h.6c.3-.1.6-.2 1-.3.4-.1.7-.3 1-.5.3-.2.7-.4 1-.6 1.3-1 2.5-2.4 3.6-3.9.6-.7 1-1.6 1.4-2.5l1.2-2.7c.3-.9.7-1.9 1-2.8l.8-2.9.1 3.1c0 1 0 2-.1 3.1-.1 1-.2 2.1-.4 3.1s-.4 2.1-.7 3.1c-.6 2.1-1.5 4.2-2.8 6.2-.4.5-.7 1-1.1 1.4-.4.5-.8.9-1.3 1.3s-1 .8-1.6 1.2l-.9.6c-.2.1-.3.2-.5.3-.2.1-.3.1-.7.3l-1.6-7.5z" class="st26"/><path d="m29.7 35.6 1.7-17 5.5 6.4 11.4-12.2 1.1 8.6 14-12.7 2.4 5.6 9.5-4.3.2 4.4 18.7-12 2.1 8 5.9-6.6 2.7 5.1L133.6 0l.5 3.7 14.7-.1.4 2.8 7.4-1 .5 3.4 20.8-3.2 5.1 9.6 3.2.4.3 2.6 24.3 23.2 5.3-5 1.2 8.9 3.1-.4.8 12 2.5-.3 2.2 19.5-20.5-31.4L182 28.2l-54.1-14.1L70.6 32l-40.9 3.6zm-2.4 12.5s-2-8.8-7.9-13.6l-.2 8.5-4.9-.2-.4 6.2-3.1 1.2-.3 3.7 2 37.2 14.9-41.5c.1 0-.1-1.5-.1-1.5z" class="st25"/><path d="m25.4 102.9-8.7-9.8L29 97.6l-3.6 5.3z" class="st26"/><path d="m23.6 108.9-7.6-6.2 9.8.1-2.2 6.1z" class="st26"/><path d="M103.6 49.6c-.2-.3-.5-.5-.6-.8-.2-.3-.4-.6-.5-.8l-.2-.6-.7.4c-1.1.6-2.1 1.2-3.1 1.9-.7-1.2-1.5-2.4-2.2-3.5l-1-1.6-1.6 1.6c-1 .8-1.9 1.8-2.8 2.8-.9-1.7-1.9-3.5-2.8-5.2l-2.4-4.3-2 4.7c-.7 1.7-1.5 3.5-2.2 5.2-1.1-1.8-2.1-3.5-3.2-5.2l-3-4.8-1.6 5.2c-.6 1.9-1.2 3.8-1.7 5.7-.2.6-.4 1.3-.6 2 0-.1-.1-.1-.1-.2-.7-1.2-1.2-2.6-1.8-4.1-.5-1.4-.9-2.9-1.2-4.4-.4-1.5-.7-3-.9-4.6-.3 1.6-.4 3.1-.4 4.7s0 3.2.3 4.8c.2 1.6.6 3.2 1.1 4.8.6 1.6 1.3 3.2 2.4 4.6l2 2.6 1.3-3.2c.8-1.9 1.5-3.7 2.2-5.6l.1-.4c1 1.8 2 3.6 3.1 5.4l2.8 4.8 2-5.1c.7-1.9 1.5-3.8 2.3-5.8.7 1 1.3 2.1 2 3.1l1.8 2.6 1.7-2.4c1-1.4 1.9-2.8 2.9-4.2l2.1 2.2.9 1.1.7-.7c1.1-1 2.1-2 3.1-3.1l.3.3c.3.2.6.5.9.6.6.4 1.2.7 1.9 1-.3-.5-.8-1-1.3-1.5zM32.7 78.4c-.8-.6-1.6-1.8-2.4-3-.8-1.3-1.5-2.6-2.1-4l-2-4.2c-.7-1.5-1.4-2.9-2.1-4.4-.1 1.6 0 3.2.2 4.9.2 1.6.5 3.2.9 4.8.2 1.1.6 2.1 1 3.1-.3-.2-.7-.3-1-.5l-.2-.2c-.5-.3-1.2-.3-1.8 0-1 .5-1.4 1.6-.9 2.6.3.7.7 1.3 1.1 2 .9 1.5 1.8 2.9 3 4.2-.3 0-.5.1-.8.1h-1.5c-.5 0-1-.1-1.5-.2.8.7 1.8 1.2 2.8 1.6.6.1 1.1.3 1.7.3h.9c.3 0 .6 0 1-.2 0 0 .1 0 .2-.1.5-.3.6-1 .3-1.5l-.2-.3c-.5-.7-.8-1.5-1.2-2.3.2.1.4.2.6.2.6.2 1.2.5 1.9.7.8.3 1.8 0 2.4-.7.8-.9.6-2.2-.3-2.9zm182.8-20.8h-.6c-.1-1.8-.2-3.5-.4-5.3l-.4-3.9-1.7 2.4c-.1-.9-.3-1.8-.5-2.7l-.9-3.3c-.4-1.1-.8-2.2-1.6-3.4l-1-1.4-1 1.3-.6.8c-.1-.1-.1-.2-.2-.4-.4-.7-.8-1.3-1.2-1.9-.4-.6-.9-1.2-1.4-1.9-.5-.6-1-1.2-1.7-1.6.4.6.7 1.3 1 2 .3.7.6 1.3.8 2.1l.7 2.1.6 2.1.5 1.7 1.4-1.3.5-.5.3 1.2c.2 1 .5 2 .7 3.1.4 2.1.7 4.3 1.1 6.4l.6 4.3 1.7-2.8c.1.7.3 1.5.5 2.3l.2 1.2 1-.2c.3 0 .6-.1 1-.2.5 1.9 1 3.9 1.6 5.8.1-2.3.1-4.7 0-7v-.8l-1-.2z" class="st15"/></g><path d="M541 313.8c-1.9 21.8-21.2 38-43 36.1-21.8-1.9-38-21.2-36.1-43s21.2-38 43-36.1c21.8 1.9 38 21.1 36.1 43" style="fill:#ef5a24"/><path d="m513.5 299.5 17-8.5 1.3 2.5-17 8.5-1.3-2.5zm-38.7-11.3 1.8-2.2 14.8 11.9-1.8 2.2-14.8-11.9zm51 20c-.3 3.1-3 5.4-6.1 5.1-3.1-.3-5.4-3-5.1-6.1.3-3.1 3-5.4 6.1-5.1 3.1.2 5.4 2.9 5.1 6.1m-36.7-3.2c-.3 3.1-3 5.4-6.1 5.1-3.1-.3-5.4-3-5.1-6.1.3-3.1 3-5.4 6.1-5.1 3.1.2 5.4 2.9 5.1 6.1m42 39.2-64.2-5.6c-1.5-.1-2.7-1.5-2.6-3l1.5-17.7c.1-1.5 1.5-2.7 3-2.6l64.2 5.6c1.5.1 2.7 1.5 2.6 3l-1.5 17.7c0 1.6-1.4 2.7-3 2.6" class="st7"/><path d="M480.4 333.7c-1.5-.1-2.6-.5-3.2-1.1-.6-.6-.9-1.4-.8-2.5 0-.6.3-1.1.7-1.5.5-.4 1-.7 1.8-.9-.6-.2-1.1-.5-1.4-1-.3-.5-.4-1-.4-1.6.1-.9.5-1.6 1.2-2.2.7-.5 1.7-.8 2.9-.7.4 0 .8.1 1.1.1.3.1.6.1.9.3l-.3 1.7c-.3-.1-.6-.2-.9-.2-.3-.1-.6-.1-1-.1-.5 0-.9 0-1.2.2-.3.2-.5.5-.5.9 0 .5.1.8.5 1.2.3.3.9.5 1.8.6h.6l-.2 1.8-.7-.1c-.8-.1-1.5.1-1.9.3-.4.3-.7.7-.8 1.1 0 .5.1.8.5 1.1.4.3.9.5 1.7.5 1 .1 1.7-.2 2.4-.8.7-.6 1-1.5 1.1-2.7l-1.1-.1.1-1.6 4.1.4-.1 1.6-1-.1c-.2 1.8-.8 3.1-1.9 4.1-1 1-2.3 1.4-4 1.3m10.2 2.5.1-1.7c-.5 0-1-.1-1.4-.2-.4 0-.9-.2-1.4-.3l.2-1.9c.5.1 1 .3 1.5.4.5.1.9.1 1.4.2.7.1 1.4 0 1.7-.3.4-.2.7-.5.7-.9 0-.3 0-.6-.2-.9-.2-.2-.6-.5-1.3-.8l-1.3-.6c-.6-.3-1.1-.7-1.4-1.2-.3-.5-.4-1.1-.4-1.8.1-.8.4-1.5.9-2 .6-.5 1.3-.9 2.3-1l.2-1.8 1.5.1-.1 1.7c.4 0 .7.1 1.1.1l1.2.3-.3 1.8c-.4-.1-.8-.2-1.1-.3-.4-.1-.7-.1-1.2-.1-.7-.1-1.3 0-1.6.2s-.6.5-.6.9c0 .3 0 .6.3.8.2.2.5.5 1 .6l1.3.5c.8.4 1.4.8 1.7 1.3.3.5.5 1.1.4 1.8-.1.8-.4 1.5-1 2.1-.7.6-1.5 1-2.3 1.1l-.2 1.8-1.7.1zm7.9-12.2h2.4l-.6 5.1-.2 2.5-2.1-.1.5-7.5zm-1.1 9.6c0-.4.2-.8.4-1 .3-.3.6-.4 1-.3.5 0 .8.2 1 .5.2.2.3.7.3 1.1 0 .4-.2.7-.4 1-.3.3-.6.4-1.1.3-.5 0-.8-.2-1-.5-.1-.2-.2-.6-.2-1.1m8.8-4.7-.5 2.6 2.1.2.5-2.6-2.1-.2zm-3.5-.3.3-1.5 2 .2.6-2.8 1.5.1-.6 2.8 2.1.2.6-2.8 1.5.1-.7 2.8 2 .2-.3 1.5-2.1-.2-.5 2.6 2 .2-.3 1.5-2-.2-.6 2.8-1.5-.1.6-2.8-2.1-.2-.6 2.8-1.5-.1.6-2.8-2-.2.3-1.5 2.1.2.5-2.6-1.9-.2zm20.2 3.8c-.3 0-.5.1-.8.3s-.4.7-.4 1.3c-.1.7 0 1.2.2 1.4s.4.4.7.4c.3 0 .6-.1.8-.3.2-.2.4-.6.4-1.2.1-.7 0-1.3-.2-1.5-.2-.2-.4-.4-.7-.4m.2-1.5c.7.1 1.4.4 1.9.9.5.6.7 1.4.6 2.5-.1 1.1-.4 1.9-1.1 2.3-.6.5-1.3.7-2.1.6-.7-.1-1.4-.3-1.9-.8s-.7-1.3-.6-2.5c.1-1.1.4-1.9 1.1-2.4.7-.5 1.3-.7 2.1-.6m-1.8-5.4 1.3.7-5.5 11-1.3-.7 5.5-11zm-5.5 1.3c-.3 0-.5.1-.8.3-.3.2-.4.7-.4 1.3-.1.7 0 1.2.2 1.4.2.2.4.4.7.4.3 0 .6-.1.8-.3.2-.2.4-.6.4-1.2.1-.7 0-1.3-.1-1.5-.3-.3-.5-.4-.8-.4m.2-1.5c.7.1 1.4.4 1.9.9.5.6.7 1.4.6 2.5-.1 1.1-.4 1.9-1.1 2.4-.6.5-1.3.7-2.1.6-.7-.1-1.4-.3-1.9-.8s-.7-1.3-.6-2.5c.1-1.1.4-1.9 1.1-2.4.6-.5 1.3-.8 2.1-.7" class="st8"/><path d="m504.6 0-95.4 136.5C399 151 381.7 159.1 364 157.6l-209.2-18.3c-17.7-1.5-33.3-12.5-40.8-28.6L62.4 0h-1.1L113 111.1c7.7 16.4 23.6 27.6 41.6 29.2l209.2 18.3c1.5.1 2.9.2 4.4.2 16.5 0 32.1-8.1 41.7-21.7L505.8 0h-1.2z" class="st0"/></svg>