<svg xmlns="http://www.w3.org/2000/svg" xmlns:xlink="http://www.w3.org/1999/xlink" width="1023" height="518"><defs><path id="a" d="M0 1h1025v517H0z"/></defs><g fill="none" fill-rule="evenodd"><mask id="b" fill="#fff"><use xlink:href="#a"/></mask><path stroke="#E266A3" d="M833.502-28.028H604.024c-19.658 0-37.822 10.5-47.65 27.546l-114.74 198.995a55.157 55.157 0 0 0 0 55.094L556.374 452.6c9.828 17.046 27.992 27.548 47.65 27.548h229.478c19.657 0 37.822-10.502 47.65-27.548l114.74-198.993a55.157 55.157 0 0 0 0-55.094L881.151-.482c-9.828-17.045-27.993-27.546-47.65-27.546" mask="url(#b)" transform="rotate(5 718.763 226.06)"/><path stroke="#E266A3" d="M384.592-315.196H174.61c-17.987 0-34.609 9.61-43.602 25.206L26.019-107.902a50.47 50.47 0 0 0 0 50.413l104.99 182.086a50.335 50.335 0 0 0 43.602 25.207h209.98a50.335 50.335 0 0 0 43.603-25.207l104.99-182.086a50.47 50.47 0 0 0 0-50.413L428.194-289.99c-8.994-15.597-25.615-25.206-43.602-25.206" mask="url(#b)" transform="rotate(5 279.601 -82.696)"/><g fill-rule="nonzero" mask="url(#b)"><path fill="#C6236E" d="M851.64-16.726 630.21-36.1a60.706 60.706 0 0 0-54.98 25.625L447.783 171.623c-12.424 17.731-14.441 40.787-5.289 60.453l93.94 201.42a60.706 60.706 0 0 0 49.695 34.782l221.43 19.372a60.706 60.706 0 0 0 54.979-25.624l127.49-182.047c12.423-17.732 14.44-40.788 5.288-60.453l-93.982-201.47a60.706 60.706 0 0 0-49.695-34.782Z"/><path fill="#B42065" d="m859.677 466.05 77.1-110.114L528.5 56.296l-82.325 117.788c-10.673 15.236-12.387 37.482-4.522 54.34l97.731 209.604c7.865 16.858 24.151 28.273 42.688 29.894l230.375 20.156c18.537 1.621 36.558-6.792 47.23-22.028Z"/><path fill="#FFFFFE" d="m478.939 326.428-.062-4.605 2.326-.029c.046.004 3.86-.034 10.073-.42l2.287-.125.247 4.622-2.288.125c-6.352.373-10.12.416-10.258.403l-2.325.03Zm30.46-1.888-.48-4.596 2.299-.263c6.803-.753 13.476-1.61 19.842-2.679l2.262-.36.762 4.574-2.262.36c-6.459 1.061-13.228 1.956-20.077 2.704l-2.346.26Zm40.05-6.347-1.046-4.506 2.278-.544c6.83-1.586 13.307-3.39 19.192-5.337l2.202-.737 1.473 4.404-2.201.737c-6.032 2.028-12.652 3.865-19.624 5.485l-2.274.498Zm38.743-12.64-2.055-4.13 2.088-1.026c5.681-2.801 10.691-5.894 14.88-9.152l3.54-2.757 2.84 3.64-3.54 2.757c-4.439 3.468-9.695 6.726-15.666 9.642l-2.087 1.025Zm33.469-23-2.841-3.64 1.843-1.42c4.242-3.345 9.922-7.727 15.95-12.357l1.843-1.419 2.837 3.687-1.843 1.418c-5.977 4.589-11.662 9.017-15.9 12.316l-1.89 1.415Zm31.93-24.528-2.741-3.725 1.839-1.372a959.867 959.867 0 0 1 16.325-11.86l1.881-1.323 2.69 3.767-1.88 1.322c-5.252 3.722-10.607 7.575-16.275 11.819l-1.84 1.372Zm32.7-23.252-2.59-3.851 1.924-1.272c5.774-3.863 11.486-7.545 16.985-10.92l1.966-1.222 2.444 3.93-1.966 1.223a596.753 596.753 0 0 0-16.885 10.836l-1.877 1.276Zm34.054-21.183-2.247-4.053 2.003-1.126c6.057-3.373 12.051-6.565 17.93-9.49l2.087-1.025 2.055 4.13-2.088 1.025c-5.777 2.84-11.726 6.037-17.686 9.372l-2.054 1.167Zm35.724-17.97-1.716-4.285 2.168-.879c6.022-2.447 12.57-4.522 19.457-6.243l2.232-.548 1.142 4.468-2.231.548c-6.654 1.694-13.013 3.74-18.838 6.065l-2.214.875Zm38.222-10.409-.67-4.565 2.309-.356c6.073-.91 12.692-1.678 20.137-2.327l2.295-.218.389 4.588-2.296.217c-7.399.654-13.875 1.388-19.856 2.306l-2.308.355Zm39.887-3.945-.293-4.625 5.372-.32a1965.71 1965.71 0 0 0 17.01-1.114l2.292-.171.339 4.63-2.292.17c-5.614.439-11.174.789-17.06 1.157l-5.368.273Zm40.337-3.254-.67-4.566 2.305-.31c7.338-1.03 13.683-2.38 19.402-4.017l2.24-.64 1.285 4.433-2.24.64c-5.912 1.714-12.445 3.093-20.018 4.15l-2.304.31Zm39.367-11.286-2.343-4.015 2.007-1.172a57.962 57.962 0 0 0 5.223-3.4 1119.46 1119.46 0 0 1 11.062-8l1.885-1.368 2.69 3.767-1.885 1.369c-3.37 2.4-7.044 5.098-11.015 8.004-1.785 1.284-3.663 2.56-5.62 3.69l-2.004 1.125Zm33.104-23.077-2.594-3.805 1.928-1.318c3.21-2.182 5.573-3.694 7.091-4.584 1.272-.725 3.083-1.775 4.438-.262.807.86.828 2.21.048 3.164l-1.46 1.824-.824-.677c-1.03.607-2.995 1.83-6.699 4.34l-1.928 1.318Z" opacity=".56"/><path fill="#231F20" d="M857.16 469.315c-14.652-47.608-36.797-116.873-38.026-119.814-3.833-9.303-75.21-35.25-80.703-47.346-2.183-4.791-3.143-9.754-2.699-14.826l4.143-47.357-30.48-2.667-.783-.068-4.15-.363-3.902 41.941-7.864-30.146-.784-.069-30.48-2.667-4.143 47.357c-.444 5.073-2.255 9.84-5.232 14.132-7.515 11.006-82.313 24.163-87.698 32.613-1.08 1.718-22.992 35.486-40.683 64.558l15.611 33.473a52.113 52.113 0 0 0 27.76 26.312l21.895-46.315 4.426 50.848.692.06 178.13 15.585 2.994-53.87 23.575 56.101c1.3.021 2.632.184 4 .49l9.637.843c17.204 1.458 33.9-5.63 44.765-18.805Z"/><path fill="#000" d="M734.745 276.834c-.593 11.565 5.417 28.91-15.907 29.926-25.848 1.223-61.591-1.3-67.863 1.869 2.416.536 5.527 1.087 9.38 1.657 21.837 3.211 88.634-.284 82.442-3.335-8.42-4.129-6.115-29.947-6.115-29.947l-1.937-.17Z"/><path fill="#FFE4AF" d="M1010.969 128.244c-1.924 21.996-21.28 38.238-43.276 36.313-21.996-1.924-38.238-21.28-36.313-43.276 1.924-21.995 21.28-38.237 43.276-36.313 22 1.878 38.237 21.281 36.313 43.276"/><path fill="#383838" d="m996.891 125.572-2.858-.25a4.247 4.247 0 0 0-3.872-4.613 4.247 4.247 0 0 0-4.613 3.87l-2.859-.25a7.131 7.131 0 0 1 7.722-6.48 7.131 7.131 0 0 1 6.48 7.723m-36.981-3.235-2.86-.25a4.247 4.247 0 0 0-3.87-4.614 4.247 4.247 0 0 0-4.614 3.871l-2.859-.25a7.131 7.131 0 0 1 7.723-6.48 7.131 7.131 0 0 1 6.48 7.723"/><path fill="#FFF" d="m992.856 136.65-45.098-3.946c.057 2.003.445 3.942.98 5.801l42.1 3.683c.89-1.687 1.61-3.53 2.018-5.538"/><path fill="#C6236E" d="M948.734 138.551c2.635 8.64 10.285 15.211 19.83 16.046 9.545.835 18.177-4.357 22.316-12.359l-42.146-3.687Z"/><path fill="#FFE4AF" d="M846.59 175.894c-1.921 21.949-21.274 38.145-43.177 36.228-21.949-1.92-38.145-21.272-36.229-43.175 1.917-21.904 21.273-38.146 43.176-36.23 21.95 1.921 38.15 21.227 36.23 43.177"/><path fill="#383838" d="M831.483 169.043a5.69 5.69 0 0 1-6.168 5.175 5.69 5.69 0 0 1-5.175-6.168 5.69 5.69 0 0 1 6.168-5.175 5.69 5.69 0 0 1 5.175 6.168m-36.889-3.228a5.69 5.69 0 0 1-6.168 5.176 5.69 5.69 0 0 1-5.176-6.168 5.69 5.69 0 0 1 6.168-5.176 5.69 5.69 0 0 1 5.176 6.168"/><path fill="#F9D398" d="M851.482 143.332c-1.105.414-1.632 1.669-1.218 2.774l.529 1.394c.452 1.2-.764 2.349-1.88 1.833l-5.683-2.495-6.534-2.849c-1.075-.465-2.326.03-2.838 1.1-.466 1.074.029 2.325 1.1 2.837l6.534 2.849a1.394 1.394 0 0 1 .719 1.875 1.394 1.394 0 0 1-1.875.719l-9.754-4.292c-1.075-.466-2.326.029-2.838 1.1-.466 1.073.029 2.325 1.1 2.837l9.753 4.291a1.394 1.394 0 0 1 .719 1.875 1.394 1.394 0 0 1-1.875.72l-6.535-2.85c-1.074-.465-2.325.03-2.837 1.1-.466 1.074.029 2.326 1.099 2.838l6.535 2.848a1.394 1.394 0 0 1 .718 1.875 1.394 1.394 0 0 1-1.875.719l-3.936-1.739a2.124 2.124 0 0 0-2.792 1.104c-.466 1.074.029 2.326 1.1 2.837l3.89 1.735 6.535 2.848c4.34 1.913 9.345-.065 11.258-4.405l5.452-12.394c.923-2.056.945-4.424.154-6.538l-2.05-5.244c-.315-1.189-1.57-1.717-2.675-1.302"/><path fill="#C6236E" d="M813.467 194.927a7.131 7.131 0 0 1-7.722 6.48 7.131 7.131 0 0 1-6.48-7.722 7.131 7.131 0 0 1 7.722-6.48 7.102 7.102 0 0 1 6.48 7.722"/><path fill="#E7E7E7" d="m806.863 198.717 13.969 11.352-9.597 6.13z"/><path fill="#E7E7E7" d="M808.171 211.377c1.627-1.066 3.74-.788 5.123.402a9.01 9.01 0 0 1 1.212-1.102c.447-.333.974-.519 1.498-.66-.543-1.766.142-3.75 1.768-4.816 1.97-1.268 4.612-.665 5.88 1.304 1.268 1.97.666 4.612-1.304 5.88a5.739 5.739 0 0 1-1.758 7.885 5.739 5.739 0 0 1-7.885-1.759c-1.97 1.268-4.612.665-5.88-1.304-1.226-1.92-.623-4.562 1.346-5.83"/><path fill="#FFF" d="m806.623 197.21 14.015 11.355-9.644 6.126z"/><path fill="#FFF" d="M807.932 209.87c1.626-1.067 3.74-.789 5.122.401a9.01 9.01 0 0 1 1.212-1.102c.49-.283.974-.519 1.498-.659-.543-1.767.142-3.751 1.769-4.817 1.97-1.268 4.611-.665 5.88 1.304 1.268 1.97.665 4.612-1.305 5.88a5.739 5.739 0 0 1-1.758 7.885 5.739 5.739 0 0 1-7.885-1.759c-1.97 1.268-4.612.666-5.88-1.304-1.226-1.92-.623-4.562 1.347-5.83"/><g transform="rotate(5 471.608 6769.71)"><path fill="#EDCAA0" d="M226.777 95.909c10.785 84.29-17.82 158.166-90.493 167.516C63.612 272.73 14.315 208.111 3.53 123.821-7.301 39.53 33.2 25.597 105.873 16.293c72.626-9.35 110.073-4.721 120.904 79.616Z"/><path fill="#8E6240" d="M94.255 162.98c1.48 11.572-6.805 22.172-18.516 23.7-11.71 1.48-22.403-6.666-23.884-18.238-1.481-11.572 6.804-22.172 18.515-23.7 11.665-1.527 22.403 6.666 23.885 18.238Z"/><path fill="#2A1D01" d="M88.793 163.675c1.018 8.1-4.675 15.506-12.776 16.524-8.1 1.019-15.46-4.675-16.525-12.775-1.018-8.054 4.675-15.46 12.776-16.525 8.1-1.018 15.506 4.721 16.525 12.776Z"/><path fill="#FFF" d="M67.037 158.768c.278 2.314-1.342 4.49-3.703 4.768-2.36.277-4.49-1.389-4.767-3.703-.278-2.315 1.342-4.49 3.703-4.768a4.295 4.295 0 0 1 4.767 3.703Z"/><path fill="#A7846F" d="M87.543 217.322c13.886 6.157 28.328 9.212 42.26 7.268 14.072-1.806 26.848-8.98 39.346-17.729-4.166 6.434-9.72 12.035-16.247 16.386a52.9 52.9 0 0 1-22.126 8.471c-7.962 1.018-16.108.278-23.607-2.268-7.406-2.546-14.35-6.527-19.626-12.128Z"/><path fill="#8E6240" d="M151.05 155.713c1.481 11.572 12.174 19.765 23.885 18.238 11.71-1.482 19.996-12.128 18.515-23.7-1.481-11.572-12.174-19.765-23.885-18.237-11.71 1.48-19.996 12.127-18.515 23.699Z"/><path fill="#2A1D01" d="M156.512 154.972c1.018 8.1 8.425 13.794 16.525 12.776 8.1-1.018 13.794-8.425 12.775-16.525-1.018-8.054-8.424-13.794-16.524-12.775-8.1 1.064-13.794 8.47-12.776 16.524Z"/><path fill="#FFF" d="M156.373 147.289c.278 2.314 2.453 3.98 4.768 3.703 2.36-.278 3.98-2.454 3.703-4.768-.278-2.314-2.453-3.98-4.768-3.703-2.36.324-4.027 2.453-3.703 4.768Z"/><path fill="#A7713F" d="M64.77 43.326c.184 1.527.508 3.055.879 4.582.37 1.528.786 3.009 1.342 4.444.555 1.435 1.11 2.87 1.898 4.212.787 1.342 1.666 2.546 2.777 3.61l-.648.186 1.25-5.833 1.296-5.832.231-1.065.648.88 6.805 9.35-.926.185L83.47 47.4l.277-.926.556.787c1.712 2.36 3.471 4.675 5.138 7.036h-.695l3.935-5.786.231-.324.278.278 3.518 3.842h-.324l3.657-3.287.092-.093.093.093c.416.51.972.972 1.527 1.389.556.416 1.157.787 1.76 1.11a23.686 23.686 0 0 1-1.852-1.018c-.602-.37-1.157-.787-1.62-1.388h.185l-3.472 3.425-.185.139-.185-.185-3.61-3.75.509-.046-3.796 5.879-.324.509-.37-.463a916.665 916.665 0 0 1-5.277-6.99l.833-.138-3.055 10.646-.324 1.064-.648-.925-6.712-9.397.88-.185-1.343 5.832-1.388 5.833-.14.648-.462-.463c-2.268-2.268-3.657-5.23-4.629-8.193a38.131 38.131 0 0 1-1.11-4.536 27.599 27.599 0 0 1-.649-4.49Z"/><path fill="#885929" d="M207.105 65.035c9.489 25.412 20.182 59.619 11.71 96.834-5.137 22.543-25.55 50.778-36.196 52.445-6.944 1.11-20.275-25.274-57.398-20.506-37.123 4.768-43.418 33.605-50.361 34.3-10.739 1.064-45.224-19.256-51.472-41.243-8.749-30.782-11.85-66.238-8.98-91.373 0 0-3.935 12.59-3.102 22.033.834 9.443-7.869 19.812 1.713 56.564 9.582 36.753 15.414 59.897 43.974 86.652 18.978 17.82 38.65 21.06 47.584 22.958 8.517 5.694 19.857 8.24 33.003 6.573 13.192-1.666 23.468-6.99 30.273-14.673 8.146-4.073 26.384-12.174 40.27-34.253C229 208.204 229.88 184.967 229.88 147.01c0-38.003-11.758-43.418-13.285-57.258-1.481-13.748-9.49-24.718-9.49-24.718Zm-76.56 170.432c-22.08 3.842-39.9-11.896-39.9-11.896s2.869-4.953 8.192-7.545c6.064-2.962 17.127 4.305 29.578 2.731 12.452-1.573 24.533-11.85 31.106-10.507 5.832 1.203 11.063 6.156 11.063 6.156s-17.729 19.21-40.04 21.061Z"/><path fill="#9F6833" d="M113.001 249.169s.787 7.36 4.907 10.044l.972-5.6s4.073 12.404 13.609 11.155c7.174-.926 10.414-8.379 10.646-14.165 0 0 2.037 3.148 3.379 8.795 0 0 2.083-4.49 2.73-9.026 0 0 .556-.555.834 1.666 0 0 2.916-2.87 1.62-9.257 0 0-9.489-1.898-13.47-1.76 0 0 .324 2.038-.925 2.593-1.25.555-2.083-.463-2.083-.463l-.093 4.166-.787-1.389s-1.527 2.222-2.962.926c-1.435-1.296-2.361-3.75-2.361-3.75l.926 3.148s-2.407-.694-3.38-3.749c0 0-3.517 1.018-7.405 3.425-3.889 2.407-6.157 3.24-6.157 3.24Z"/><path fill="#744B20" d="M113.233 251.066c.185 4.027 1.666 8.888 5.832 10.369l-.463.278.463-3.426.231-1.666.602 1.574c2.037 5.23 6.295 11.155 12.498 10.739 6.341-.417 10.831-5 11.11-11.387l.138-3.148c.972 3.333 2.407 7.128.972 10.554l-.602-.556c2.916-1.851 4.768-5.23 5.277-8.656.093-.509.139-1.25.185-1.758v-1.806c.185-.185.463-.046.556.14.231.462.277 1.017.37 1.573-.046-.37-.324-1.852-.787-1.62l.046-.046c.093.879.14 1.851.093 2.684-.093 3.981-1.898 7.962-5.277 10.276l-1.203.787.601-1.342c.834-2.13.324-4.675-.277-6.85l1.064-.14c-.092 3.194-1.203 6.388-3.471 8.749-2.222 2.36-5.416 3.564-8.61 3.795-6.758.463-11.433-5.925-13.377-11.71l.833-.047c-.046.232-.648 3.75-.648 3.842-4.721-1.481-6.341-6.85-6.156-11.202Z"/><path fill="#744B20" d="m188.682 252.131-.092.093-1.898-4.305s-.324 5.647-3.842 11.248c-3.518 5.6-18.376 12.775-18.376 12.775l-1.482-3.286s-1.064 4.675-2.545 7.313c-1.482 2.639-5.185 3.24-5.185 3.24.093-8.794-1.435-12.59-1.435-12.59s.324 8.47-2.268 13.053c-2.592 4.583-13.516 4.676-13.516 4.676l-2.037-6.435c.047 5.786-5.184 9.721-11.896 6.203-6.711-3.518-8.887-10.322-8.887-10.322 1.065 6.526 5.601 13.979 5.601 13.979-7.869-.556-10.415-8.24-10.415-8.24s-14.58-1.851-21.107-6.11l.74 3.842c5.879 3.518 10.878 5.694 14.581 6.48 8.517 5.694 19.858 8.24 33.004 6.574 13.192-1.667 23.468-6.99 30.272-14.674 5.37-2.684 13.192-9.72 21.616-20.459l-.833-3.055Z"/><path fill="#744B20" d="m102.679 281.524-8.795-4.073s-1.296 1.25-5.74-1.019c-4.443-2.268-14.673-14.442-14.673-14.442l2.083 9.582s-16.664-11.618-19.44-15.182c-2.732-3.565-9.999-9.35-10.37-12.36-.37-3.008-1.018-7.915-1.018-7.915l-2.36 1.806s-6.434-4.166-6.897-8.008c-.463-3.842-7.267-17.034-7.267-17.034l-4.86-9.674-2.084.277c6.805 21.108 15.646 38.049 35.642 56.796 18.238 17.08 37.077 20.783 46.427 22.727l-.648-1.481Zm105.398-40.502c11.433-18.191 16.895-33.374 19.44-49.713l-7.174 11.942s-5.925 23.144-9.257 26.153c-3.287 3.008-6.388.833-6.388.833l1.11 8.517-7.868 7.313-2.592-5.97-.972 9.488-4.953 5.23-19.441 19.21-.093.185c8.934-4.397 25.412-12.868 38.188-33.188Z"/><path fill="#111" d="M214.696 123.358c-.278.046-1.342.046-2.87.046h-.925c-4.907.046-13.285.046-17.96.324-8.008.51-19.95 1.203-28.514 2.546-7.73 1.203-18.33 3.471-24.949 7.128-3.888 2.13-6.527 5.462-8.008 9.073-.509-1.204-1.435-2.083-1.805-2.407-1.62-1.25-6.527-2.13-11.11-1.574-4.582.602-8.979 2.777-10.368 4.305a5.203 5.203 0 0 0-1.157 2.777c-2.36-3.101-5.74-5.647-10.044-6.758-7.314-1.898-18.145-1.342-25.968-.602-8.61.833-20.367 3.194-28.236 4.722-4.629.879-12.729 3.008-17.497 4.212l-.88.231c-1.48.37-2.545.648-2.776.648-1.296.185-.834 2.824-.695 3.796.14.972 1.574 9.072 1.898 9.86.324.832 1.944.6 2.777.508.88-.092 4.12-.601 5.324 1.482 0 .046.046.046.046.092 1.435 5.786 3.888 12.405 6.619 17.728 3.75 7.314 7.776 11.896 11.896 13.563 2.176.88 5.647 1.25 10.6 1.11 3.796-.092 8.47-.508 13.933-1.156l.972-.14c8.98-1.156 17.312-2.684 19.58-3.147 5.276-1.065 11.988-6.804 13.7-14.164 1.204-5.138 1.991-11.48 2.362-19.395v-.185c0-.092 0-.185.046-.324.046-2.314.694-6.99.74-7.915.093-1.25.14-5.462 7.545-6.434 7.407-.972 8.517 3.101 8.934 4.305.324.88 2.083 5.184 2.731 7.406a3.2 3.2 0 0 0 .139.37c.046.093.046.139.092.185 2.361 7.545 4.722 13.516 7.175 18.191 3.518 6.712 11.48 10.554 16.849 10.23 2.314-.139 10.785-.74 19.765-1.898l.972-.139c5.462-.74 10.09-1.527 13.794-2.36 4.86-1.111 8.1-2.361 9.998-3.75 3.564-2.684 6.295-8.1 8.054-16.154 1.296-5.879 2.037-12.868 1.944-18.84 0-.046 0-.046.047-.092.648-2.314 3.934-2.685 4.767-2.777.88-.093 2.454-.324 2.546-1.204.093-.88-.509-9.072-.648-10.044.093-.833-.139-3.518-1.435-3.38Zm-109.008 33.466c-.324 8.147-1.111 14.58-2.268 19.719-.74 3.24-2.685 5.6-4.213 7.035-2.129 1.99-4.212 3.01-5.508 3.24-1.898.37-10.831 2.084-20.181 3.24-11.202 1.39-19.21 1.528-21.941.417-2.87-1.203-6.156-5.138-9.258-11.155-2.638-5.138-4.999-11.48-6.295-16.988a66.914 66.914 0 0 0-.88-3.333c-.879-3.24-1.342-5.138-.694-6.202.834-1.435 4.12-2.916 10.045-4.49 6.388-1.713 14.303-3.194 21.987-4.212 1.712-.232 3.471-.417 5.138-.602 10.415-1.018 19.024-.88 24.162.463 3.888 1.018 6.249 3.471 7.545 5.323 1.574 2.314 2.5 5.138 2.36 7.545Zm98.732-19.626v3.471c.14 5.694-.555 12.406-1.805 18.053-1.481 6.619-3.657 11.294-6.156 13.146-2.361 1.805-10.137 3.656-21.34 5.138-9.303 1.25-18.422 1.851-20.32 1.99-1.296.092-3.61-.37-6.156-1.759-1.805-1.018-4.305-2.824-5.832-5.74-2.453-4.629-4.768-10.692-7.175-18.469-.694-2.314-.555-5.277.417-7.915.787-2.175 2.453-5.138 5.97-7.082 4.63-2.592 12.915-4.907 23.284-6.527 1.666-.277 3.379-.509 5.138-.74 7.637-.972 15.691-1.528 22.31-1.481 6.157.046 9.675.601 10.832 1.805.833.787.88 2.73.833 6.11Z"/><path fill="#000" d="M134.525 143.447c.833-2.176 2.592-5.138 6.203-7.082 4.814-2.593 13.423-4.953 24.162-6.666 1.713-.278 3.518-.509 5.323-.74 7.962-1.019 16.294-1.62 23.19-1.62 6.388 0 11.017.74 11.804 2.221 1.805 3.287-1.064 19.164-1.064 19.164s.277-10.508.277-11.526c.047-3.333 0-5.277-.88-6.157-1.156-1.157-4.72-1.758-10.83-1.805-6.62-.046-14.674.51-22.312 1.481-1.712.232-3.425.463-5.137.741-10.369 1.62-18.608 3.98-23.283 6.527-3.518 1.944-5.185 4.906-5.972 7.082-.972 2.684-.648 5.277-.416 7.915.046 0-2.083-6.85-1.065-9.535Z"/><g fill="#333"><path d="M210.808 124.376c1.389 0 3.379-.046 3.425-.046.278 0 .51.231.51.463 0 .277-.232.462-.463.509-.047 0-1.99.046-3.333.046l-.139-.972Z"/><path d="M135.868 137.059c2.777-3.194 8.563-5.6 19.302-8.147 8.794-2.083 25.458-3.703 34.484-4.166 5.23-.277 16.016-.37 21.385-.416l.14.972c-5.324.046-16.248.139-21.478.416-8.98.463-25.644 1.667-34.392 3.75-6.99 1.666-15.692 3.98-19.071 7.776-.093.093-.51.51-.648.417-.139-.14.092-.417.278-.602Z"/></g><path fill="#1E1E1E" d="M204.652 157.102c0-.278-.51.139-.556.416-2.268 12.128-6.202 15.784-6.156 16.108.046.325 5.878-4.675 6.712-16.524Z"/><path fill="#000" d="M148.32 177.006c2.591 1.434 4.86 1.99 6.202 1.897 1.944-.092 11.201-.74 20.69-1.99 11.387-1.528 19.21-3.38 21.293-5.045 1.851-1.528 4.768-6.944 6.249-13.655a66.3 66.3 0 0 0 1.157-7.175c-.324 3.333-.694 6.62-1.342 9.628-1.482 6.619-3.333 11.34-5.833 13.192-2.36 1.805-10.137 3.657-21.338 5.138-9.304 1.25-18.423 1.666-20.32 1.759-1.297.092-3.611-.139-6.157-1.528-1.805-1.018-4.305-2.823-5.832-5.74-1.713-3.286-3.01-7.405-4.676-12.266 1.435 3.888 2.824 7.221 4.305 9.999a13.509 13.509 0 0 0 5.601 5.786Z"/><path fill="#1E1E1E" d="M154.938 181.727c.14 0 .232-.093.232-.232 0-.138-.093-.231-.232-.231-5.23-.139-7.452-1.898-10.23-4.629-2.638-2.592-5.137-10.044-5.137-10.09-.047-.14 2.083 7.776 4.814 10.46 2.823 2.778 5.091 4.583 10.553 4.722-.046 0 0 0 0 0Z"/><path fill="#FFF" d="M141.422 152.936s-2.777-6.943 1.065-10.461c.972-.88 6.712-5.648 28.837-7.823l-12.914 6.99s-2.639-1.25-5.508-.232c-2.87 1.018-6.342 2.268-5.23 4.212 1.11 1.944 1.85 1.99-.14 3.518-2.036 1.481-6.11 3.796-6.11 3.796Z" opacity=".1"/><path fill="#E9D7BC" d="m198.218 143.77-42.724 29.625s35.549-1.527 39.39-9.582c4.49-9.303 3.334-20.042 3.334-20.042Z" opacity=".1"/><path fill="#FFF" d="M43.523 166.22s-3.148-9.489-2.546-11.062c.463-1.204 9.628-4.166 34.207-8.24l-12.914 6.99s-2.639-1.25-5.509-.232c-2.87 1.019-6.341 2.268-5.23 4.213 1.11 1.944 1.851 1.99-.14 3.517-2.036 1.528-7.868 4.814-7.868 4.814Z" opacity=".1"/><path fill="#000" d="M104.392 147.289a13.281 13.281 0 0 0-7.823-5.277c-5.323-1.296-14.21-1.435-25.042-.324-1.759.185-3.518.37-5.323.601-7.961 1.019-16.154 2.546-22.82 4.305-6.156 1.62-10.461 3.472-10.878 5.138-.925 3.657 5.879 18.284 5.879 18.284s-2.916-10.09-3.194-11.063c-.88-3.24-1.342-5.138-.694-6.202.833-1.435 4.12-2.917 10.044-4.49 6.388-1.713 14.303-3.194 21.987-4.213 1.713-.231 3.472-.416 5.138-.601 10.415-1.019 19.024-.88 24.162.463 3.889 1.018 6.25 3.471 7.545 5.323 1.62 2.314 1.99 4.953 2.407 7.59-.092 0 .278-7.174-1.388-9.534Z"/><path fill="#E9D7BC" d="M100.365 157.472 57.64 187.096s35.549-1.527 39.39-9.581c4.49-9.304 3.334-20.043 3.334-20.043Z" opacity=".1"/><g fill="#333"><path d="M25.84 148.075c-1.341.324-3.424.834-3.47.834-.278.046-.417.324-.371.601.046.278.324.417.602.37.046 0 2.083-.509 3.332-.833l-.092-.972Z"/><path d="M101.43 141.456c-3.519-2.36-9.675-3.286-20.691-3.008-9.027.185-25.598 2.87-34.439 4.675-5.138 1.064-15.599 3.703-20.83 4.999l.14.972c5.184-1.296 15.737-3.981 20.875-5.046 8.841-1.805 25.227-4.86 34.207-5.045 7.175-.139 16.201-.139 20.413 2.731.093.046.648.37.74.278.14-.232-.184-.37-.416-.556Z"/></g><path fill="#000" d="M99.485 183.254c-2.13 2.037-4.212 3.148-5.508 3.38-1.898.37-11.017 2.082-20.506 3.286-11.387 1.435-19.44 1.574-21.894.463-2.176-.972-6.341-5.509-9.489-11.665-1.065-2.083-1.99-4.258-2.916-6.619 1.157 3.148 2.314 6.203 3.75 8.98 3.1 6.017 6.063 10.137 8.933 11.294 2.73 1.157 10.739.972 21.94-.416 9.35-1.158 18.238-3.055 20.136-3.426 1.296-.277 3.471-1.018 5.554-3.055 1.528-1.435 3.472-3.795 4.212-7.036.834-3.61 1.019-7.915 1.435-13.053-.416 4.12-.925 7.684-1.62 10.785-.787 3.38-2.5 5.647-4.027 7.082Z"/><path fill="#1E1E1E" d="M94.3 189.503c-.138.047-.23-.046-.277-.185-.046-.139.046-.278.185-.278 5.046-1.435 6.712-3.749 8.702-7.035 1.898-3.148 2.454-11.017 2.454-11.11 0-.138-.047 8.055-2.037 11.341-2.083 3.425-3.796 5.786-9.026 7.267Z"/><path fill="#333" d="M109.576 143.4c-.046 0-.278.047-.185-.046.092-.139 2.13-3.24 8.84-4.073 6.713-.88 9.768 1.064 9.906 1.11.093.093.14.232.093.325-.093.092-.37-.093-1.157-.278-.787-.185-2.731-1.204-8.702-.463-5.925.74-7.499 2.592-7.87 2.963-.37.37-.832.416-.925.462Z"/><ellipse cx="110.597" cy="143.513" fill="#989898" opacity=".4" rx="1.99" ry="1.111" transform="rotate(-36.214 110.597 143.513)"/><path fill="#1E1E1E" d="M40.005 178.209c-.093-.278.51 0 .648.278 5.23 11.201 9.998 13.701 10.045 14.025 0 .324-6.944-3.055-10.693-14.303Z"/><path fill="#754B1D" d="M195.764 20.228c-43.88-24.58-127.2-11.711-167.979 15.645-45.501 30.55-24.116 105.167-12.405 138.17 0 0 .185-65.59 20.042-77.671C55.28 84.29 70.694 77.718 110.594 72.626c39.9-5.092 56.472-2.638 78.736 4.027 22.265 6.665 39.067 70.126 39.067 70.126 2.963-34.9 1.25-107.573-32.633-126.551Z"/><path fill="#54340A" d="M198.31 72.765c-4.35-4.768-12.914-7.823-23.792-9.582-2.5-.416-5.092-.74-7.776-.972a99.076 99.076 0 0 0-3.842-.324c-1.157-.092-2.315-.139-3.472-.231a149.174 149.174 0 0 0-4.721-.185c-15.322-.51-32.402.601-48.093 2.592-1.99.231-6.342-.324-6.342-.324l-5.647 2.221-6.018-.37-3.888 2.453-5.091-1.296-3.657 3.518-6.62-4.212s.371 6.017-.879 6.388c-21.06 6.573-37.863 15.275-41.428 22.31-2.407 4.722-8.193 22.543-8.193 22.543l-3.147 3.194 1.574 4.397-1.62 3.564s.462 11.896.555 13.887c.139 3.194.185 6.063.37 8.61 1.99-20.043 6.943-46.613 18.84-53.88 19.857-12.081 35.27-18.654 75.17-23.746 39.9-5.091 56.472-2.638 78.736 4.027 14.257 4.259 26.338 31.8 33.189 51.056-2.639-18.793-13.701-44.02-24.209-55.638Z"/><path fill="#54340A" d="m53.614 86.836-.417.047h-.787l-.463-.047-.37-.046c-.463-.092-.972-.185-1.342-.324-.417-.139-.787-.278-1.204-.417l-1.018-.509a16.006 16.006 0 0 1-3.38-2.5l-.694-.647-.601-.695-1.204-1.435c-.648-.972-1.388-1.944-1.944-2.916-2.36-3.934-3.75-8.054-4.999-12.127-.555-2.037-1.157-4.073-1.574-6.11-.463-2.037-.926-4.074-1.203-6.156-.74-4.074-1.204-8.24-1.713-12.313 1.296 3.934 2.5 7.869 4.027 11.665.694 1.944 1.528 3.795 2.315 5.647.74 1.897 1.712 3.656 2.592 5.462 1.898 3.518 3.934 6.943 6.387 9.72.602.694 1.25 1.25 1.898 1.898l.972.787.463.37.51.278c.647.416 1.295.694 1.805.833.138.046.277.046.37.093h.278c.092.046.139-.047.185-.047 0 0 .046 0 0 0 0 0-.046 0-.046-.046h-.417c2.638-.417 5.092 1.389 5.508 4.027a4.642 4.642 0 0 1-3.934 5.508Z"/><path fill="#54340A" d="M60.603 82.346c-.185 0-.37-.046-.509-.092l-.278-.093c-.185-.046-.37-.092-.509-.185-.278-.139-.602-.231-.833-.37-.51-.278-1.018-.556-1.435-.833-.463-.278-.833-.602-1.203-.926-.37-.324-.741-.648-1.065-1.018l-.926-1.065-.787-1.065c-.555-.694-.926-1.48-1.388-2.222-1.667-3.008-2.685-6.063-3.565-9.165-.786-3.1-1.388-6.156-1.759-9.257-.185-1.574-.416-3.101-.509-4.629l-.324-4.629 1.25 4.444c.417 1.481.926 2.916 1.389 4.351.972 2.87 2.175 5.693 3.425 8.378 1.389 2.639 2.87 5.184 4.675 7.267.463.463.88 1.065 1.389 1.435l.74.648.741.556c.231.185.51.324.74.463.232.138.463.277.695.324.231.138.417.138.648.185.093.046.139 0 .231 0h.047s-.14-.047-.232-.047l-.648 7.545Zm7.314-2.453c-.463-.185-.556-.231-.787-.37-.185-.093-.37-.232-.556-.324-.37-.232-.648-.463-.972-.694a17.257 17.257 0 0 1-1.666-1.482c-.556-.509-.972-1.064-1.389-1.62-.416-.555-.787-1.157-1.157-1.712-1.389-2.361-2.268-4.86-2.777-7.314-.324-1.203-.417-2.453-.556-3.703-.092-1.203-.139-2.453-.185-3.657.046-1.203.046-2.407.14-3.61l.37-3.564.555 3.471c.231 1.157.509 2.268.787 3.426.324 1.11.648 2.221 1.064 3.286.463 1.065.834 2.13 1.389 3.055.972 1.99 2.222 3.75 3.703 5.138l1.111.972c.417.278.74.555 1.157.787.37.231.787.417 1.157.555.186.047.37.14.556.186.092 0 .185.046.231.046 0 0 .185.046.047-.046l-2.222 7.174ZM186.6 66.192c0 .046.092-.093.138-.139.046-.046.14-.185.232-.231l.416-.556c.278-.416.556-.787.833-1.25a19.67 19.67 0 0 0 1.435-2.777c.88-1.944 1.482-4.073 1.99-6.249.464-2.175.695-4.443.788-6.758.092-1.157 0-2.314 0-3.471-.047-1.158-.14-2.315-.232-3.472.37 1.11.787 2.222 1.157 3.333.324 1.157.695 2.268.926 3.425a40.629 40.629 0 0 1 1.065 7.175c.139 2.453.092 4.952-.278 7.498-.185 1.25-.417 2.546-.787 3.796-.185.648-.37 1.296-.602 1.944-.138.324-.231.648-.37.972-.092.185-.139.324-.231.51-.093.184-.14.323-.324.601l-6.157-4.351Z"/><path fill="#54340A" d="M179.147 66.47c.185-.186.463-.602.648-.972l.694-1.111c.417-.787.88-1.574 1.25-2.407a42.524 42.524 0 0 0 2.083-5.138c.555-1.76 1.111-3.61 1.435-5.462.37-1.852.602-3.75.787-5.694.463 1.898.88 3.796 1.11 5.786.279 1.944.371 3.981.417 5.971 0 2.037-.138 4.028-.37 6.11-.139 1.019-.278 2.037-.51 3.102-.092.509-.23 1.018-.323 1.574-.139.555-.232 1.018-.51 1.666l-6.711-3.425Zm32.402 29.3c-.186.046-.047.046-.047.046h.185c.14 0 .278-.046.463-.046.324-.093.648-.185.972-.324.37-.139.695-.324 1.019-.51.324-.23.694-.416 1.018-.647 1.342-.972 2.546-2.36 3.564-3.935.556-.74.972-1.62 1.435-2.453.417-.88.833-1.759 1.204-2.685.324-.925.694-1.851.972-2.823l.787-2.916.138 3.055c0 1.018-.046 2.036-.092 3.1-.093 1.02-.185 2.084-.37 3.102-.232 1.019-.37 2.083-.695 3.148-.601 2.083-1.48 4.212-2.823 6.156-.37.463-.74.972-1.111 1.435-.417.463-.833.926-1.343 1.342a13.95 13.95 0 0 1-1.573 1.204c-.324.185-.602.37-.926.555-.185.093-.324.185-.51.278-.23.093-.323.139-.74.278l-1.527-7.36Z"/><path fill="#754B1D" d="m29.683 35.642 1.712-16.988 5.509 6.388 11.387-12.174 1.11 8.563L63.38 8.702l2.361 5.555 9.536-4.259.231 4.444L94.162 2.361l2.129 7.961 5.925-6.619 2.685 5.092L133.553 0l.463 3.703 14.72-.093.37 2.778 7.36-.972.463 3.379 20.783-3.194 5.138 9.628 3.194.37.324 2.638 24.301 23.237 5.277-4.999 1.157 8.887 3.148-.37.833 12.035 2.453-.324 2.222 19.487L205.3 44.807l-23.376-16.525-54.064-14.118-57.212 17.821zm-2.407 12.451s-1.99-8.84-7.87-13.562l-.23 8.424-4.907-.185-.37 6.249-3.055 1.25-.278 3.657 1.99 37.169 14.905-41.52-.185-1.482Z"/><path fill="#54340A" d="m25.378 102.898-8.656-9.766 12.266 4.443z"/><path fill="#54340A" d="m23.573 108.916-7.638-6.157 9.813.093z"/><path fill="#A7713F" d="M103.605 49.575c-.232-.278-.463-.51-.648-.787-.185-.278-.417-.602-.463-.787l-.232-.602-.694.417c-1.064.601-2.083 1.25-3.147 1.851-.741-1.203-1.482-2.36-2.222-3.518l-1.019-1.62-1.573 1.574c-.926.926-1.806 1.898-2.685 2.87-.926-1.713-1.852-3.472-2.824-5.185l-2.407-4.304-2.036 4.675c-.74 1.712-1.482 3.471-2.222 5.184-1.065-1.759-2.083-3.518-3.194-5.23l-2.962-4.768-1.62 5.23c-.602 1.898-1.158 3.842-1.713 5.74-.185.648-.37 1.342-.556 1.99a.35.35 0 0 1-.092-.185c-.695-1.25-1.204-2.638-1.76-4.073-.508-1.435-.879-2.916-1.249-4.397a47.196 47.196 0 0 1-.926-4.583c-.277 1.574-.37 3.148-.37 4.721a28.273 28.273 0 0 0 .278 4.814c.185 1.62.555 3.194 1.11 4.814.556 1.574 1.297 3.194 2.408 4.63l1.99 2.591 1.342-3.24c.787-1.851 1.482-3.703 2.222-5.554l.139-.417c1.018 1.805 2.037 3.564 3.055 5.37l2.777 4.813 2.037-5.138c.74-1.944 1.527-3.841 2.268-5.786.694 1.019 1.342 2.083 2.037 3.102l1.759 2.592 1.712-2.36c1.019-1.39 1.944-2.778 2.917-4.167l2.082 2.222.926.926.74-.694a198.94 198.94 0 0 0 3.148-3.056c.093.093.232.186.324.278.278.232.602.463.926.648.602.37 1.25.74 1.898 1.019-.51-.602-1.018-1.111-1.481-1.62ZM32.691 78.366c-.786-.602-1.62-1.76-2.36-3.009a45.977 45.977 0 0 1-2.083-3.98l-1.99-4.213a122.12 122.12 0 0 0-2.084-4.351c-.092 1.62.047 3.24.186 4.86.185 1.62.463 3.194.88 4.768.23 1.064.6 2.083.971 3.101-.324-.185-.694-.324-1.018-.51l-.185-.092c-.51-.277-1.204-.324-1.76-.046-.971.463-1.388 1.62-.925 2.638.324.695.694 1.343 1.065 1.99a27.067 27.067 0 0 0 2.962 4.166c-.278.047-.51.093-.787.093a7.913 7.913 0 0 1-1.481 0 17.138 17.138 0 0 1-1.528-.231c.787.694 1.76 1.25 2.824 1.62.555.139 1.11.278 1.713.324h.925c.324-.046.602-.046 1.019-.231.046-.047.139-.047.185-.093.51-.324.648-.972.324-1.481l-.185-.278c-.463-.694-.833-1.481-1.204-2.268.185.093.37.185.556.231.648.232 1.25.463 1.944.695h.046c.833.277 1.805 0 2.36-.74a2.082 2.082 0 0 0-.37-2.963Zm182.792-20.737h-.648c-.093-1.76-.185-3.518-.37-5.277l-.37-3.935-1.667 2.361a54.74 54.74 0 0 0-.51-2.685c-.277-1.11-.555-2.222-.925-3.332-.37-1.111-.787-2.222-1.62-3.38l-1.018-1.434-1.019 1.296-.648.833a1.386 1.386 0 0 1-.185-.37 27.36 27.36 0 0 0-1.203-1.945c-.417-.648-.88-1.25-1.389-1.851-.51-.602-1.018-1.157-1.666-1.574.416.602.74 1.296 1.018 1.99.278.695.555 1.343.787 2.083l.74 2.083.649 2.083.509 1.667 1.388-1.296.51-.463c.138.37.231.787.324 1.203.231 1.019.462 2.037.694 3.102.416 2.129.74 4.258 1.065 6.387l.648 4.259 1.712-2.777c.14.74.324 1.527.463 2.268l.232 1.157 1.018-.232c.324-.046.648-.138.972-.231a89.466 89.466 0 0 0 1.574 5.786 70.5 70.5 0 0 0 .046-6.99l-.046-.833-1.065.047Z"/></g><path fill="#EF5A24" d="M540.96 313.78c-1.908 21.81-21.164 37.968-42.975 36.06-21.81-1.908-37.968-21.164-36.06-42.975 1.908-21.811 21.164-37.969 42.975-36.06 21.811 1.908 37.973 21.118 36.06 42.975"/><path fill="#383838" d="m513.47 299.471 17.013-8.517 1.264 2.526-17.013 8.516zm-38.703-11.233 1.768-2.203 14.835 11.91-1.768 2.202zm51.071 19.944a5.64 5.64 0 0 1-6.118 5.133 5.64 5.64 0 0 1-5.133-6.118 5.64 5.64 0 0 1 6.118-5.133c3.093.224 5.407 2.982 5.133 6.118m-36.705-3.212a5.64 5.64 0 0 1-6.118 5.134 5.64 5.64 0 0 1-5.133-6.118 5.64 5.64 0 0 1 6.118-5.133c3.093.224 5.407 2.982 5.133 6.118m42.011 39.221-64.188-5.616a2.805 2.805 0 0 1-2.566-3.059l1.549-17.707a2.805 2.805 0 0 1 3.059-2.567l64.188 5.616a2.805 2.805 0 0 1 2.566 3.059l-1.549 17.707a2.835 2.835 0 0 1-3.059 2.567"/><path fill="#FFF" d="M480.396 333.665c-1.521-.133-2.604-.507-3.247-1.12-.643-.614-.898-1.427-.805-2.487a2.32 2.32 0 0 1 .737-1.515c.455-.425 1.04-.746 1.845-.908l.004-.046c-.587-.19-1.07-.512-1.357-.955a2.428 2.428 0 0 1-.374-1.566c.077-.876.464-1.586 1.212-2.17.744-.54 1.74-.778 2.94-.673.415.036.784.069 1.102.143.32.074.638.149.906.265l-.291 1.74c-.319-.074-.588-.19-.91-.219-.273-.07-.642-.102-.965-.13-.507-.045-.93.011-1.227.217-.297.207-.51.513-.542.882-.04.461.112.846.503 1.16.345.308.932.5 1.762.572l.553.048-.157 1.799-.738-.065c-.83-.073-1.491.055-1.93.296-.444.286-.71.681-.751 1.142-.04.461.112.846.46 1.11.35.262.937.453 1.72.521.969.085 1.735-.173 2.395-.812.66-.64 1.017-1.538 1.122-2.737l-1.06-.092.14-1.614 4.059.355-.142 1.614-1.014-.09c-.157 1.8-.786 3.138-1.889 4.064-1.019 1.026-2.4 1.416-4.06 1.27m10.187 2.519.145-1.66-.046-.005a14.388 14.388 0 0 1-1.425-.17c-.415-.037-.914-.174-1.371-.26l.165-1.89c.545.14 1.044.277 1.455.359.458.086.919.127 1.38.167.738.065 1.35-.021 1.742-.266.44-.24.652-.547.684-.916.029-.322-.04-.607-.25-.858-.21-.25-.605-.517-1.277-.808l-1.343-.583c-.625-.287-1.104-.654-1.428-1.193-.283-.49-.415-1.105-.35-1.843.068-.784.36-1.455.915-1.964.556-.51 1.284-.864 2.268-.964l.161-1.844 1.522.133-.145 1.66a10.388 10.388 0 0 1 2.331.437l-.3 1.832c-.406-.129-.771-.207-1.136-.286-.365-.078-.734-.11-1.195-.15-.738-.065-1.303.025-1.646.227-.343.202-.556.51-.588.878-.028.323.04.608.254.812.21.25.517.464 1.012.646l1.348.536c.805.35 1.373.771 1.701 1.264.329.494.46 1.11.4 1.801-.073.83-.414 1.544-.977 2.145a4.443 4.443 0 0 1-2.327 1.097l-.157 1.799-1.522-.133Zm7.942-12.176 2.368.02-.636 5.15-.218 2.49-2.125-.14.657-7.516-.046-.004Zm-1.12 9.613c.037-.415.161-.776.416-1.033.255-.256.59-.366 1.05-.326.462.04.773.207 1.03.462.21.25.311.678.271 1.139-.036.415-.157.73-.411.986-.255.257-.59.367-1.051.326-.461-.04-.772-.207-1.028-.461-.21-.251-.321-.586-.277-1.093m8.827-4.757-.549 2.554 2.121.185.549-2.554-2.121-.185Zm-3.55-.311.267-1.463 2.029.177.615-2.78 1.521.133-.569 2.784 2.121.186.615-2.78 1.522.132-.66 2.777 2.028.177-.267 1.464-2.075-.182-.55 2.554 1.984.174-.268 1.463-2.029-.177-.569 2.784-1.521-.133.569-2.784-2.122-.186-.568 2.785-1.522-.133.569-2.785-1.983-.173.267-1.464 2.075.182.55-2.554-2.03-.178Zm20.203 3.812c-.277-.024-.52.094-.77.304s-.383.664-.44 1.31c-.06.691-.008 1.16.156 1.407.164.247.383.405.705.433.323.029.566-.09.817-.3.204-.214.379-.617.431-1.217.065-.737.017-1.253-.19-1.55-.168-.2-.386-.359-.709-.387m.221-1.467c.738.064 1.41.355 1.873.907.509.555.717 1.364.616 2.516-.093 1.06-.442 1.867-1.086 2.322-.648.5-1.314.675-2.098.606a3.17 3.17 0 0 1-1.88-.815c-.517-.463-.72-1.318-.616-2.517.097-1.106.446-1.912 1.094-2.413.644-.455 1.314-.675 2.097-.606m-1.85-5.413 1.336.675-5.52 11.04-1.335-.674 5.52-11.04Zm-5.455 1.289c-.277-.025-.52.093-.77.304-.251.21-.384.663-.44 1.309-.06.692-.009 1.16.155 1.407.165.247.43.41.706.434a.966.966 0 0 0 .77-.304c.205-.215.38-.618.432-1.217.064-.738.016-1.253-.144-1.546a1.092 1.092 0 0 0-.71-.387m.176-1.472c.738.065 1.363.352 1.872.907.509.556.717 1.364.616 2.517-.097 1.106-.442 1.866-1.09 2.367-.648.5-1.313.675-2.051.61a3.17 3.17 0 0 1-1.88-.815c-.517-.463-.722-1.317-.617-2.516.097-1.107.446-1.913 1.094-2.413a2.767 2.767 0 0 1 2.056-.657"/></g></g></svg>