<svg xmlns="http://www.w3.org/2000/svg" xmlns:xlink="http://www.w3.org/1999/xlink" xml:space="preserve" id="Layer_1" x="0" y="0" style="enable-background:new 0 0 1023 518" version="1.1" viewBox="0 0 1023 518"><style>.st3{fill:#fff}.st4{fill:#eaf1f1}.st6{fill:#bea373}.st9{fill:#896c4f}.st10{fill:#271f12}.st16{fill:#504c4a}.st20,.st21{fill-rule:evenodd;clip-rule:evenodd;fill:#009e9b}.st21{fill:#00aba8}.st22{fill:#013f4d}.st25{fill:#af9769}</style><path d="m505-.6-95.8 137C399 151 381.7 159.1 364 157.6l-209.2-18.3c-17.7-1.5-33.3-12.5-40.8-28.6L62.2-.6h-1.1l52 111.6c7.7 16.4 23.6 27.6 41.6 29.2l209.2 18.3c1.5.1 2.9.2 4.4.2 16.5 0 32.1-8.1 41.7-21.7L506.2-.6H505zM816 488c-1.6 0-3.2-.1-4.8-.2l-228.2-20c-19.7-1.7-37.1-13.9-45.4-31.8l-96.8-207.9c-8.3-17.9-6.5-39.1 4.8-55.3L577.1-15.1c11.3-16.2 30.6-25.2 50.2-23.5l228.2 20c19.7 1.7 37.1 13.9 45.4 31.8l96.8 207.9c8.3 17.9 6.5 39.1-4.8 55.3L861.5 464.3C851 479.2 834 488 816 488z" style="fill:#b52065"/><path d="M852.6-16.1 629.5-36c-21.7-1.9-42.9 7.7-55.5 25.3L445 169.8c-12.6 17.6-14.7 40.5-5.5 60l94.1 200.4c9.2 19.5 28.2 32.8 50 34.7l223.1 19.9c21.7 1.9 42.9-7.7 55.5-25.3l129-180.5c12.6-17.6 14.7-40.5 5.5-60L902.6 18.6c-9.2-19.5-28.2-32.8-50-34.7z" style="fill:#c42b78"/><defs><path id="SVGID_1_" d="M852.6-16.1 629.5-36c-21.7-1.9-42.9 7.7-55.5 25.3L445 169.8c-12.6 17.6-14.7 40.5-5.5 60l94.1 200.4c9.2 19.5 28.2 32.8 50 34.7l223.1 19.9c21.7 1.9 42.9-7.7 55.5-25.3l129-180.5c12.6-17.6 14.7-40.5 5.5-60L902.6 18.6c-9.2-19.5-28.2-32.8-50-34.7z"/></defs><clipPath id="SVGID_00000150077066030996841690000016455495577751551885_"><use xlink:href="#SVGID_1_" style="overflow:visible"/></clipPath><path d="m859.3 463.6 78-109.2L528 56.4l-89.6 94.7c-10.8 15.1-17.3 86.7-9.5 103.4l103 200c7.9 16.8 32.2 20.6 50.8 22.2l228.9 8.5c18.7 1.8 36.9-6.5 47.7-21.6z" style="clip-path:url(#SVGID_00000150077066030996841690000016455495577751551885_);fill:#b82166"/><path d="M445.5 66.9c0-1.2.1-2.3.2-3.5 1.9-21.1 19.1-37.1 39.6-37.8 1.7-.1 3.4 0 5.2.1.2 0 .4 0 .7.1 7.8-35.9 41-61.3 78.2-58C605.5-29 633 .2 635.6 35.5c9.1-6.5 20.5-10 32.4-8.9 26.6 2.4 46.3 26.1 43.8 53-.4 4.2-1.3 8.2-2.6 12 10.9 1.2 22.4 2.9 28.6 5.2 24.8 9.2 14.4 35.5.1 34.2l-254.2-22.7c-7.1-.5-38.2-41.4-38.2-41.4z" class="st3"/><path d="M709 72.9c-7-25.1-23.6-33.2-40.2-35.3-27.8-3.4-41.3 17-41.3 17 5.9-12.2 5.1-19.3 5.1-19.3 9.1-6.5 20.5-10 32.4-8.9 24.5 2.2 43 22.4 44 46.5z" class="st4"/><path d="M752.2 112.8s-1 12.6-6.8 12.1-229.3-18.5-251.8-22.4c-9.9-1.7-4.9-1.4-3.2-19.2.3-3.6-.4-11-2.5-12.9.1-5.4.4-10.7.7-14.9 1.3-14.5 27.6-29.4 63.4-6.7 0 0-10.9-24-43.3-28.8 20.6-23.4 49.7-40.1 82.8-46.5-6.9-3-14.5-5-22.4-5.7-34.9-3.1-66.3 19-76.5 51.5-37.3 2-46.2 34.4-47.1 44.1-.1 1.2-.2 2.4-.2 3.5 0 0-3.7 38.8 24.1 41.2L737.6 132c9.1.8 16.6-9.3 14.6-19.2z" class="st4"/><path d="M573-29.9c-34.4-3.1-64.6 20.2-67.6 52-.2 2.6-.3 5.2-.1 7.8-2-.6-4.2-1-6.4-1.2-20-1.8-37.8 13.2-39.6 33.3-1.8 20.2 12.9 38 32.9 39.8 18.2 1.6 34.4-10.5 38.7-27.9 8.9 6.1 19.7 10.1 31.5 11.2 34.4 3.1 64.6-20.2 67.6-52s-22.6-60-57-63z" class="st3"/><path d="M719.5 339.9s-4-36.4.6-39c4.6-2.7 59.3-5.6 81.8 5.6l-.1 40.7-74.8 25.7-7.5-33z" style="fill:#aeb0b3"/><path d="M866.7 373.6s-1.9-16.9-28.3-28.3C812 334 792.2 323.1 793.9 304s4.6-50.2 4.6-50.2l-32.9-2.9-32.9-2.9s-2.9 31.1-4.6 50.2c-1.7 19.1-23.3 26.3-51.3 32.8-28 6.5-33 22.8-33 22.8l10 74.1 189.6 16.9 23.3-71.2z" class="st6"/><path d="M897.5 117c-8.5 93-48.9 165.9-135 158.3-86-7.7-110.7-87.3-102.2-180.3S750.6-9.7 789.8-6.2 906 24 897.5 117z" style="fill:#d0b27d"/><path d="M725.2 215.6c12.3 9 26.2 11.3 40.3 12.4 14.2 1.3 28 .7 42.2-5-5.5 5.3-20.4 14.2-42.8 12.2-22.3-2.1-35.7-13.1-39.7-19.6z" style="fill:#494032"/><path d="M744.4 163.2c-1.2 12.8-12.8 22.2-25.8 21-13.1-1.2-22.7-12.5-21.6-25.2 1.2-12.8 12.7-22.2 25.8-21 13.1 1.2 22.8 12.4 21.6 25.2z" class="st9"/><path d="M738.3 162.7c-.8 8.9-8.8 15.5-17.9 14.7-9-.8-15.7-8.7-14.9-17.6.8-8.9 8.8-15.5 17.9-14.7 9.1.8 15.7 8.7 14.9 17.6z" class="st10"/><path d="M715.8 152.2c-.2 2.6-2.5 4.5-5.2 4.2-2.6-.2-4.5-2.5-4.3-5.1.2-2.6 2.5-4.5 5.2-4.2 2.6.3 4.5 2.6 4.3 5.1z" class="st3"/><path d="M802.4 168.4c-1.2 12.8 8.5 24.1 21.6 25.2 13.1 1.2 24.6-8.2 25.8-21 1.2-12.8-8.5-24.1-21.6-25.2-13-1.2-24.6 8.2-25.8 21z" class="st9"/><path d="M808.6 168.9c-.8 8.9 5.9 16.8 14.9 17.6 9 .8 17.1-5.8 17.9-14.7.8-8.9-5.8-16.8-14.9-17.6-9.2-.8-17.1 5.8-17.9 14.7z" class="st10"/><path d="M810.3 160.6c-.2 2.6 1.7 4.9 4.3 5.1 2.6.2 4.9-1.7 5.2-4.2.2-2.6-1.7-4.9-4.3-5.1-2.7-.2-5 1.7-5.2 4.2z" class="st3"/><path d="M886.8 371.1c-11.2-17.3-12.3-15.3-20.9-20.2-11.9-6.7-12-6.4-55.4-26l-54.8 33.3-47.9-42.5c-46.2 11.6-46.3 11.3-59.2 15.8-9.4 3.3-11.1 6.4-11.1 6.4L600 419.1l45.5 23.6 1.7-24.1 1.7 53.2 184.4 23.4 10.3-39.9.4.4 40.2-6.2c.1 0 13.7-61.1 2.6-78.4z" style="fill:#00aba8"/><path d="M719.5 300.9c-.1 14.7 36.6 57.1 36.6 57.1s45.7-30.8 45.8-51.6l18 24.9c-1.4 15.6-43.6 59.4-43.6 59.4l-20-31.9-24.9 29.1S697 339.4 699 317.8l20.5-16.9z" style="fill:#f3f2f3"/><path d="M819.7 331.3c-1.4 15.6-43.6 59.4-43.6 59.4l-20-31.9-24.9 29.1s-34.4-48.5-32.4-70.1" style="fill:none;stroke:#dadcdc;stroke-width:.4669;stroke-miterlimit:10"/><path d="M904.4 81.3c-.5-3.8-1.1-7.5-1.8-11.2-.7-3.5-1.2-11.2-1.2-11.2s-1.9-.6-2.2-1.5c-.8-2.1-1-8.6-1-8.6s-5.6-5.7-8.3-9.5c-1.9-2.7-7.6-10.9-7.6-10.9h-3l-7.3-6.2s-3.1-6.4-5.5-8.7c-.9-.8-3.3.6-4.2-.2-1.4-1.3-4.4-3.9-4.4-3.9l-3.1-4.7L844.6 1s-2.2-2.1-3.5-2.4c-2.4-.6-7.9-.1-7.9-.1l-2.7-2.8-9.6.4-6.4-4-2.9 1.8-6.3-1.4s-2.4-1.7-3.6-2c-1.9-.4-5.5.3-5.5.3s-4.5-1.9-6.3-2.1c-3.2-.3-12.2 1.1-12.2 1.1l-4.3-1.1-7.4 1.6s-3.6-1-5.4-.8c-2.1.2-6.2 1.7-6.2 1.7l-6.7-.5-3 1-5.8-1.3-4.9 1.8s-2.7-.6-4.1-.1c-.5.2-1.5-.6-1.5-.6l-7 4.4-5.9 3.5-2.9-.2s-2.1 3.4-3.6 4.5C707 5 702.6 6 700.8 7c-1.3.8-.4 1.8-1.9 2.7-.7.4-3.9.6-4.6 1-1.1.6.3 1.5-.8 2.2-4.2 2.6-8.3 5.4-11 8-1.8 1.7-3.5 3.6-5 5.5-3.1 3.8-5.8 7.8-8.1 12.1-.9 1.6-1.7 3.2-2.5 4.8-2.5 5.2-4.5 10.7-6.4 16.4-2.7 8.4-2 17.6-3.2 26.7-7 55.2 6 88.2 6 88.2 12.4-7.4 4-77.9 41.3-97.7 11.9-6.3 70.8-1.7 77.6-1.1 6.7.6 65.3 6.6 75.7 14.8 33.1 26 12 93.9 22.9 103.4 0 0 18.9-30.2 22-85.7.4-9.4 2.7-18.3 1.6-27z" style="fill:#262524"/><path d="M884.2 155.8s-1.8-3.7-1.9-11.1c0-19.1-1-54.4-7.9-61.1-9.5-9.3-30.2-6.3-35.3-7-5.1-.7-22.6-6.8-26.1-12.5 0 0-16.8 4-30.6 2.8s-21.1-7.2-21.1-7.2-14 5.7-18.2 5.3c-4.3-.4-10.4-4.3-10.4-4.3s-1 3.7-5.7 5.3c-8.3 2.9-27.9-3.6-32.1 1.1-4.3 4.7-17.6 17.3-20.5 41.7-2.9 24.4-5.6-3.1-5.3-5.6s6.7-38.1 8.3-39.1c1.6-1 7.6-3.6 7.6-3.6s-6-14.5 6.9-24.1c3.6-2.7 19.9 1.8 19.9 1.8s.1-19.5 7-22 14.8 5 24.6 1.3c15.5-5.9 19.6 14.4 25.1 11.4 5.5-3.1 8.9-20.3 20.6-12.8 23.3 14.9 14.6 1.1 31.4 4.8 16.8 3.7 10.1 11 21.9 19.1 12.2 8.4 22.5 3.8 25.9 8.1 3.4 4.3 2.9 20 18 27.6 15.1 7.6.8 62.8 1.1 66.8.2 4 .1 13.6-3.2 13.3z" style="fill:#393735"/><path d="M758.5 55.8s-12.5 6.3-17.1 5.7-10-9.5-9.8-18.7c0 0 5 12.8 8.4 13.9 3.4 1 3.7-7.1 6.7-5.3 3 1.8 5.2 3.1 6.9 2.3 4.3-2 1-31.8-6.8-47.6-.1 0 19.7 38.5 11.7 49.7zM816.4 40.3s-2.3 19.3-9.3 19.6 5.2-57 5.2-57-9.2 37-10 41.7c-.8 4.7-3.7 6.9-5.5 7-1.7 0-.3 7.4-2.5 8.2-2.2.8-8 1.7-8.8-6.7 0 0-1.1 8.2 4.9 9.9 6 1.7 20.4 0 23-2.5 2.7-2.6 4-14.8 3-20.2zM703.1 59c2.9.1 5.8.3 8.6.6s5.7.6 8.5.7c1.4.1 2.8.1 4-.1 1.1 0 1.9-.8 2.4-1.8.4-1.1.6-2.5.5-3.8 0-1.4-.2-2.8-.5-4.2.8 1.2 1.3 2.6 1.7 4 .3 1.4.5 3 .1 4.6-.3.8-.6 1.6-1.3 2.3-.4.3-.7.6-1.2.8-.4.2-.9.4-1.3.4-1.6.3-3.1.3-4.6.2-3-.2-5.8-.6-8.7-1.3-2.7-.5-5.5-1.3-8.2-2.4zM825.5 28c-1.1 6.5-2.1 12.9-2.8 19.4-.3 3.2-.5 6.5-.5 9.6 0 1.6.1 3.2.4 4.7.2 1.5.7 3 1.4 4.1.3.5.9 1 1.5 1.5s1.2.9 1.8 1.2c1.3.7 2.7.9 4.1.8.7 0 1.5-.2 2.3-.4.8-.2 1.6-.4 2.7-.4.2 0 .6.1.8.1s.6.2.9.4c.3.2.5.3.7.5l.6.6c.3.4.6 1.1.7 1.5s0 .2.2.4c.4.3 1.3.4 2 .6.8.1 1.6.2 2.4.4 1.5.2 3.2.1 4.7-.2 3.2-.6 6.3-1.8 9.1-3.6-2.5 2.2-5.5 3.8-8.8 4.7-1.6.5-3.4.7-5.2.6-.8 0-1.7-.1-2.5-.2-.9-.1-1.7-.2-2.7-.7-.3-.1-.5-.3-.8-.6-.1-.2-.2-.3-.3-.4l-.2-.4c-.1-.4-.2-.6-.4-.8l-.3-.3c-.1-.1-.3-.2-.4-.2-.1-.1-.2-.1-.3-.1-.1 0-.2-.1-.4 0-1.2 0-2.9.7-4.8.9-1.8.3-3.8-.2-5.5-1-.9-.4-1.6-1-2.3-1.5-.7-.6-1.3-1.1-1.9-2-1-1.7-1.4-3.4-1.7-5.1-.2-1.7-.4-3.4-.3-5.1.1-3.3.4-6.6.9-9.9 1.3-6.5 2.9-12.9 4.9-19.1z" class="st16"/><path d="M706.7 290.2s26.3-4.5 50.8-22.5c0 0 19.2-17.7 21.1-3.6 0 0 1.8 7.7-21.4 25.7l-50.5.4z" style="fill-rule:evenodd;clip-rule:evenodd;fill:#af9769"/><path d="M839.5 442.1c.2-.2-1.7-41.1-1.7-41.1s-2.6 39.6-4.3 46.5c-1.6 6.8-1.7 19.1-1.7 19.1l4.4-1.7 3.3-22.8z" style="fill:#009e9b"/><path d="M692.5 325.9s13-22.5 4.7-39.9c-1.9-4-9.1-11.4-7.2-14.4 0 0 4.7-7.9 15.7 5.3l8.4 11.3s23.4-4 45.2-20c0 0 17.1-15.7 18.8-3.2 0 0 1.6 6.8-19 22.8 0 0 6.7-4.3 10.3-.4 0 0 2.2 5.3-.9 8.3 0 0 3.4-.3 5.6 5 0 0 1.2 4.7-1.2 7.9 0 0 10.6 2.4 1.2 13.5 0 0-12.1 11.7-32.2 19.5 0 0-39.4 34.4-48.5 49.6 0 0-38.9 77.3-70.9 73.7 0 0-45.7-6.7-22.3-48.4 0 0 15.7-23.4 44.8-44.7.1-.1 44.9-41.4 47.5-45.9z" style="fill-rule:evenodd;clip-rule:evenodd;fill:#d0b27b"/><path d="m723.1 358.8-31.5-29.3c-9.5 10.3-45.2 43.2-45.2 43.2-29.1 21.3-44.8 44.7-44.8 44.7-23.4 41.6 22.3 48.4 22.3 48.4 32 3.6 70.9-73.7 70.9-73.7 4.8-8.1 16.8-22.4 28.3-33.3z" class="st20"/><path d="M720.5 356.3 689 327c-9.5 10.3-45.2 43.2-45.2 43.2-29.1 21.3-44.8 44.7-44.8 44.7-23.4 41.6 22.3 48.4 22.3 48.4 32 3.6 70.9-73.7 70.9-73.7 4.9-8.1 16.8-22.4 28.3-33.3z" class="st20"/><path d="m723.2 358.7-32.9-30.2c-9.5 10.3-45.2 43.2-45.2 43.2-29.1 21.3-44.8 44.7-44.8 44.7-23.4 41.6 22.3 48.4 22.3 48.4 32 3.6 70.9-73.7 70.9-73.7 4.8-8.1 18.2-21.6 29.7-32.4z" class="st21"/><path d="m642.2 483.1-39.6-30.8-4.4 6 40.9 32z" class="st22"/><path d="m599.7 456.1 35.8 28.2s-.5 1.3-1 2.5l-36.4-28.5 1.6-2.2z" style="fill:#012f3d"/><path d="m593.9 448.4 8.7 3.8s.2.9-1.1 1.6c0 0 .5 2-1.7 2.2 0 0-.1 2.4-1.6 2.2l-5.7-8c.6-.3 1.2-.9 1.4-1.8z" style="fill:#dccab2"/><path d="M593.9 448.4c-.2.9-.8 1.5-1.4 1.8l-2.5-3.5 3.9 1.7z"/><path d="M726.7 472c-26-.5-82.3-2.2-85.9-2.1-3.6.1-7.4.9-10.2 5.7-2.6 4.4-5 8.7-5.9 11-.6 1.8-2.1 11.2.5 16.3.9 1.7 5 2 7 1.8 3.6-.3 4.3-1.5 5.2-2.1 0 0 1.2 5.6 4.5 5.9 3.3.3 4.5-.4 4.5-.4s1.1 6 3.9 7.2c2.7 1.2 4.4 1 4.4 1 .1.3.2.6.4 1 .8 2.1 3.1 5.3 5.9 5.6 1.3.1 4.3.6 7.6-.2 4.7-.8 9.6-2.2 10.5-2.8 0 0 6.1-3.2 4.4-6.1-.9-1.6-1.2-2.2-1.3-2.3 6.7-.9 32.5-9.4 36.3-11.8 6.6-4.1 30.6-15.4 8.2-27.7zm-45.2 39.4h.5-.5zm.6-.1z" class="st6"/><path d="M646.3 508.1s.7-6.8.7-8.5c0-1.8.3-3.7.3-3.7s-1.3 5.7-1.3 7.5c0 1.8.3 4.7.3 4.7zM654.6 516.3s.7-6.8.7-8.5.3-3.7.3-3.7-1.3 5.7-1.3 7.5c-.1 1.7.3 4.7.3 4.7zM637.4 502.7s.7-6.8.7-8.5c0-1.8.3-3.7.3-3.7s-1.3 5.7-1.3 7.5c0 1.7.3 4.7.3 4.7zM666.4 514.1s-.8 1.7-.8 2.9c-.1 1.1 0 1.6 0 1.6s-.3-2.8 2.2-3.5c2.4-.7 13.5-2.5 14-2.9.5-.4.6-.9.6-.9l-16 2.8z" class="st25"/><path d="M889.1 417.4c-3.3-3.3-49.7 24.6-49.7 24.6l-3.3 22.8c-5.5-1.7-114.9 6.6-114.9 6.6-5.5.3-10.8-.1-15.2.5 3.3 7.3 8.9 21.3 12 27.9 45 7 104.4 15.5 104.4 15.5 71.6 16.5 67.3-97.3 66.7-97.9z" class="st21"/><path d="m706.1 471.8 128.4-7.2-.3-4.2z" class="st20"/><path d="M593.5 20.7c.1-2 .1-4 0-6l-.8.1c.2 2.1.2 6.6.2 6.6 0 .6 0 1.3-.1 1.9-.1 2.8-.4 5.7-.9 8.5.5-2.5.9-5 1.2-7.5l.4-3.6z" class="st22"/><path d="M606 62.2c1.8.5 4.5.7 7.8-1.2l1.5-.8L614 59c0-.1-2.7-2.9-3.5-12.1l.1-17.6c0-1.7 0-3.4-.1-5.1-.1-2-.2-4.1-.5-6.1-.2-2-.5-4.1-.9-6-.4-2-.8-4-1.4-5.9-.5-2-1.2-3.9-2-5.8s-1.7-3.7-2.8-5.5c-2.1-3.5-5-6.6-8.5-8.7 3.4 2.2 6.1 5.4 8.1 8.9 1 1.8 1.8 3.6 2.5 5.5s1.3 3.8 1.7 5.7.8 3.9 1.2 5.9c.3 2 .5 4 .6 6l.3 6v3.4l-1.1 16.9c.3 7.2 1.6 11.5 2.7 13.8-.6.1-1.1.1-1.7 0-.3 0-.5 0-.8-.1-.3-.1-.5-.1-.8-.2-.5-.2-1-.4-1.4-.7-.9-.6-1.5-1.6-2-2.6-.4-1-.7-2.2-.8-3.3 0 1.1.2 2.2.5 3.4s1 2.1 1.9 2.9c.4.4 1 .7 1.5 1 .3.1.5.2.9.3.3.1.6.1.9.2.7.1 1.5.1 2.3.1 0 .1.1.1.1.2-3.5 1.4-5.6-.2-5.7-.3l-2.3-1.8.1 2.9c.2 9.2 2.1 13.4 3.6 15.3-11.6 5.5-18.2-4.1-18.4-4.5l-1.8-2.7-.6 3.2c-.6 2.9-.3 5.6 0 7.2-6.4-.1-10-5-10.8-6.4l.1-1.6c.9-.1 1.8-.3 2.6-.4 2.1-.4 4.1-1 6-1.8 1.3-.5 2.6-1.2 3.9-1.9.2.3.3.6.5.9l.6.9.6.9c.2.3.4.6.7.9l.7.8.8.8c.5.5 1 .9 1.6 1.4 1.1.8 2.4 1.6 3.7 2.1-1.3-.6-2.5-1.4-3.5-2.3-.5-.5-1-.9-1.5-1.4l-.7-.8-.6-.8c-.2-.3-.4-.6-.6-.8-.2-.3-.4-.6-.5-.9l-.5-.9c-.2-.3-.3-.6-.4-.9v-.1c.3-.2.7-.4 1-.7 1.7-1.2 3.4-2.5 4.9-4l.6-.6.5-.6c.4-.4.7-.8 1.1-1.2.6-.8 1.3-1.6 1.9-2.5l.9-1.3.5-1.6.4-.7c.1-.2.2-.4.3-.7l.7-1.4c.2-.4.4-.9.7-1.4l.6-1.4c.4-.9.7-1.9 1-2.9-1.5 3.8-3.5 7.5-5.9 10.8l-.4.6c-.2.2-.3.4-.5.6l-1 1.2c-.3.4-.7.8-1 1.1l-.5.6-.6.5c-1.5 1.5-3 2.8-4.7 3.9l-.9.6c-.2-.4-.3-.8-.4-1.1l-.1-.2-.1-.2-.1-.3c2.1-1.4 4-3.1 5.8-5.1 4.2-4.6 7.3-10.7 9.4-17.8l2.7-15.1c1-12.8-1.1-22.9-6.2-29.9-2.7-3.6-6.2-6.6-10.5-8.6-4.2-2.1-9.4-3.3-15.2-3.9-11.9-1.1-21.5 1.5-28.5 7.5-7.1 6.2-11.3 16-12.5 29.2-1.2 13.4 1 25.1 6.4 33.7 3.8 5.9 8.9 10.2 15.3 12.9l-.6 6.9c-.4 4.2-3.7 6.4-12.1 8.4-8.4 1.9-9.1 3.1-9.4 3.5l-5.6 11.4 2.1 1.8 5.8-11.6c.4-.2 2.1-1.1 7.7-2.4 1-.2 1.9-.5 2.9-.7l2.6 4.7 3.1.2-1.2 2 12.6 9.9-.4 8.4h.3l1.1-8.3.6-.3-.8 8.7 1.3-9 .5-.3-.5 6 1-6.2 12.1-6.5-.8-2.2 3 .4 3.1-3.7c.2.1.5.2.7.3l-.9 1.1c-.1-.1-.2-.1-.3-.1l.3.1-1.9 2.4 2.1-2.4 1.6.8c.3.2.7.3 1 .5s.7.3 1 .6c.7.4 1.3.7 1.9 1.1l.9.6c.1.1.3.2.4.3l.2.2.1.1c.3 1.3.7 2.7 1.1 4 .4 1.3.8 2.7 1.2 4 .2.7.4 1.3.6 2 .2.7.4 1.3.7 2 .4 1.3.9 2.6 1.4 3.9-.3-1.4-.6-2.8-.9-4.1-.2-.7-.3-1.3-.5-2s-.3-1.3-.5-2c-.3-1.3-.7-2.7-1.1-4.1-.4-1.3-.8-2.7-1.2-4-.1-.1-.1-.1-.1-.2s-.1-.1-.1-.1l-.2-.2c-.2-.1-.3-.3-.5-.4-.3-.2-.7-.4-1-.6-.7-.4-1.3-.7-2-1-1.2-.6-2.5-1.1-3.7-1.5l1-1.1c.2.1.3.2.5.2 5.3 2.3 6.8 3.4 7.2 3.8l5.8 20.2 2.9.3-6.1-21.4v-.1c-.1-.4-.7-1.6-8.6-5.1-7.1-3.1-10.1-5.6-10.4-9.2 2 2.1 5.3 4.6 9.9 5 .9.1 1.9.1 3 0l1.6-.2-.5-1.5s-.6-2-.6-4.6c1 1 2.4 2.1 4.1 3 3.7 2 9.8 3.5 17.5-1l3.4-1.8-3.6-.6c-.7-.6-3.4-2.5-4-12.6zm-18.6 3.5c-3 1.8-6.3 3.1-9.7 3.8-.8.2-1.6.4-2.5.5l.2-1.8c4.1-.8 7.8-2.2 11.2-4.4l.1.2.1.2c.2.7.4 1.1.6 1.5zm-20.9-2 1.5.1v-.5l-1.5-.1.6-6.2c1.9-.1 3.8-.5 5.6-1.1 2.3-.9 4.4-2.2 6.1-3.9-3.8 1.6-7.7 2.8-11.5 2.8l1.6-17.5c2.9.2 5.8.4 8.7.4.7 2.2 2.7 3.8 5.1 4 2.9.3 5.5-1.6 6.3-4.3 2.1-.1 4.2-.3 6.2-.6-.5 1.9-1 3.7-1.6 5.5.7-1.8 1.3-3.7 1.8-5.6 1.2-.1 2.3-.3 3.4-.5-.1.5-.2.9-.4 1.3-.5 1.8-1 3.6-1.7 5.3-.6 1.8-1.4 3.5-2.2 5.2-.8 1.7-1.7 3.3-2.8 4.9 2.3-3 4.1-6.3 5.5-9.8.9-2.3 1.7-4.6 2.2-7l1.9-12.9c0-.7 0-1.5.1-2.2.1-3.8-.3-7.6-1.1-11.2.1.9.3 1.9.3 2.8.1.9.2 1.9.2 2.8.1 1.9 0 3.7 0 5.6 0 .9-.1 1.8-.2 2.7v.2L599 35.1c-1.1.2-2.3.4-3.4.5 0 0 0-.1.1-.1.1-.5.3-1.1.4-1.6l1.6-11.1c.2-2.9.2-5.7 0-8.6l-.8.1c.3 2.7.3 5.3.2 8l-.7 7.1c-.3 2-.6 4-1.1 6 0 .1 0 .1-.1.2-2 .3-4.1.5-6.2.6.2-3.2-2.1-6.1-5.4-6.3s-6.2 2.1-6.5 5.3v1.3c-2.7-.1-5.6-.2-8.4-.4l.6-6.7 1.5.1V29l-1.5-.1.6-6.6 2.3.2.1-.9-2.3-.2.6-6.6 2.1.2v-.5l-2.1-.2.1-1.4c1.5.1 3 .2 4.6.3 1.9.1 3.8.1 5.7.1 1.9 0 3.8-.1 5.7-.2 1.9-.2 3.8-.3 5.6-.6-1.9.2-3.8.3-5.6.3-1.9.1-3.8.1-5.7.1-3.4-.1-6.8-.2-10.2-.5l.4-4.6 2.3.2.1-.9-2-.1.6-6.6 1.5.1V0h-1.4l.6-6.6 2.3.2.1-.9-2.3-.3.6-6.8c21.3 2.1 30.8 14.9 29.1 38.9 0 0-.4 5.5-.8 8.3s-1.4 5-1.4 5c-2 7.6-5.1 13.9-9.4 18.6-6.4 7.1-14.7 10.3-25 9.6l.4-2.3zm15.1-30.5c.6-.4 1.3-.5 2-.5 1.8.2 3.1 1.7 3 3.5v.4c-2.1.1-4.2.1-6.4.1-.1-.3-.1-.7-.1-1.1 0-.1 0-.3.1-.5.2.3.6.6 1 .6.7.1 1.4-.5 1.4-1.2 0-.5-.4-1.1-1-1.3zm4.5 4.5c-.7 1-1.8 1.6-3.1 1.5-1-.1-1.8-.6-2.4-1.4 1.9 0 3.7 0 5.5-.1zm-51-17.9c1.1-12.5 5.1-21.7 11.6-27.5 6.3-5.4 14.9-7.7 25.8-6.9l-.5 6.9-2.3-.2-.1.9 2.3.2-.6 6.6-1.5-.1v.5l1.5.1-.6 6.6-2.3-.2-.1.9 2.3.2-.4 4.6c-3.8-.3-7.5-.8-11.3-1.4-1.9-.3-3.7-.7-5.6-1-1.9-.4-3.7-.8-5.5-1.3 1.8.6 3.6 1.1 5.4 1.6 1.8.4 3.7.8 5.6 1.2 3.7.7 7.5 1.2 11.2 1.5l-.1 1.4-2.1-.2v.5l2.1.2-.6 6.6-2.3-.2-.1.9 2.3.2-.6 6.6-1.5-.1v.5l1.5.1-.6 6.7h-.2c-3.2-.3-6.4-.7-9.5-1.2.1-.4.2-.8.3-1.3.3-3.2-2.1-6.1-5.4-6.4s-6.1 2.1-6.5 5.3c-2.1-.6-4.2-1.1-6.2-1.8 0-.8-.1-1.7 0-2.6v-.4h-.8v.4c0 .8 0 1.5.1 2.3-.7-.2-1.4-.4-2-.7 0-1.1-.1-2.1 0-3.2v-2.8c0-.9.1-1.9.2-2.8.1-1.9.3-3.7.6-5.6.3-1.8.6-3.7 1-5.5.2-.9.4-1.8.7-2.7.3-.9.5-1.8.8-2.7-1.5 3.5-2.5 7.1-3.1 10.8-.2.9-.3 1.9-.4 2.8-.1.9-.2 1.9-.3 2.8-.1.9-.1 1.9-.2 2.8v2.8c0 1 0 2 .1 2.9-.7-.2-1.3-.5-2-.8-.5-2.6-.4-5.6-.1-8.8zm14.2 13.5v-.4c0-.1 0-.3.1-.5.2.3.6.6 1 .6.7.1 1.4-.5 1.4-1.2.1-.6-.4-1.2-1-1.4.6-.4 1.3-.5 2-.5 1.8.2 3.1 1.7 3 3.5 0 .4-.1.7-.3 1-2.1-.2-4.2-.6-6.2-1.1zm5.5 2.2c-.7.6-1.6 1-2.6.9-1.3-.1-2.3-.9-2.7-2 1.8.5 3.5.8 5.3 1.1zm-13.6 16.4c-3.7-5.9-5.9-13.3-6.3-21.8.6.2 1.3.5 2 .7.2 2.4.5 4.8.9 7.2.7 3.7 1.9 7.3 3.6 10.7-.7-1.7-1.3-3.5-1.8-5.3s-.9-3.6-1.2-5.5c-.3-1.8-.6-3.7-.7-5.6 0-.4-.1-.8-.1-1.2.7.2 1.3.4 2 .7.1 1 .2 1.9.3 2.9l.1.4.8-.1-.1-.4c-.1-.8-.2-1.7-.2-2.6 2 .6 4 1.2 6.1 1.7.3 2.8 2.5 5.1 5.4 5.3 2.4.2 4.7-1.1 5.8-3.1 3.2.5 6.5.9 9.9 1.2h.2l-1.6 17.5c-.2 0-.4 0-.7-.1-4.4-.3-8.6-2.2-12.4-5 1.2 2.1 3.1 3.7 5.2 5s4.6 2 7.1 2.3h.7l-.6 6.1-1.5-.1v.5l1.5.1-.2 2.5c-10.7-.9-19-5.7-24.2-14zm9.7 37.9 1.6-2.7-4.2-.2-2.2-4c1.6-.5 3.1-1.1 4.5-1.8l10.1 16.4-9.8-7.7zm11.8 9.1L554.1 85c2.9 1.2 6 2 9.1 2.3 3.1.3 6.3 0 9.4-.7l-9.9 12.3zm13.7-15.4c1.3 1 3 2 5.2 3.1l-2.5 3.1-4.2-.5 1.1 2.9-11.2 6 11.6-14.6zm-1.2-1.1c.1.2.3.3.4.4l-1.8 2.2h-.1c-3.4 1-6.9 1.3-10.4 1-3.5-.3-6.9-1.3-10.1-2.8 0 0-.1-.1-.2-.1l-1.6-2.6c2.7-1.7 4.5-3.9 4.8-7.3l.6-6.2c2.6.8 5.4 1.4 8.3 1.6 2.6.2 5.1.2 7.6 0l-.2 1.8c-.3 0-.6 0-.9.1-2.1.1-4.2.1-6.2-.1 1 .2 2 .3 3.1.4 1 .1 2.1.1 3.2.1h.9l-.3 3.8c-.4 3 .6 5.5 2.9 7.7z" class="st22"/><path d="M600.8 147.9c-18.6-4.7-23.4-28.5-8.1-39.9 10.1-7.5 24.4-5.5 32 4.5 13 17-3 40.6-23.9 35.4z" class="st4"/><ellipse cx="609.6" cy="122.9" class="st3" rx="19.8" ry="19.6"/><path d="M630.7 174.7c-12.6-3.2-15.8-19.3-5.5-27 6.8-5.1 16.5-3.7 21.7 3 8.8 11.5-2 27.5-16.2 24z" class="st4"/><ellipse cx="637.3" cy="157.1" class="st3" rx="11.8" ry="11.6"/></svg>