<svg xmlns="http://www.w3.org/2000/svg" xml:space="preserve" id="Layer_1" x="0" y="0" style="enable-background:new 0 0 1023 518" version="1.1" viewBox="0 0 1023 518"><style>.st0{fill:#b52065}.st2{fill-rule:evenodd;clip-rule:evenodd}.st2,.st7{fill:#fff}.st8{fill:#eaf1f1}.st10{fill:#bea373}.st13{fill:#896c4f}.st14{fill:#271f12}.st24,.st25{fill-rule:evenodd;clip-rule:evenodd;fill:#009e9b}.st25{fill:#00aba8}.st26{fill:#013f4d}</style><path d="m505-.6-95.8 137C399 151 381.7 159.1 364 157.6l-209.2-18.3c-17.7-1.5-33.3-12.5-40.8-28.6L62.2-.6h-1.1l52 111.6c7.7 16.4 23.6 27.6 41.6 29.2l209.2 18.3c1.5.1 2.9.2 4.4.2 16.5 0 32.1-8.1 41.7-21.7L506.2-.6H505z" class="st0"/><defs><filter id="Adobe_OpacityMaskFilter" width="567.2" height="526.7" x="435.7" y="-38.8" filterUnits="userSpaceOnUse"><feColorMatrix values="1 0 0 0 0 0 1 0 0 0 0 0 1 0 0 0 0 0 1 0"/></filter></defs><mask id="b_00000069369981186456203530000015562981597667730074_" width="567.2" height="526.7" x="435.7" y="-38.8" maskUnits="userSpaceOnUse"><g style="filter:url(#Adobe_OpacityMaskFilter)"><path id="a_00000106120250540312398700000003960645869587629209_" d="M0 1h1025v517H0V1z" class="st2"/></g></mask><path d="M816 488c-1.6 0-3.2-.1-4.8-.2l-228.2-20c-19.7-1.7-37.1-13.9-45.4-31.8l-96.8-207.9c-8.3-17.9-6.5-39.1 4.8-55.3L577.1-15.1c11.3-16.2 30.6-25.2 50.2-23.5l228.2 20c19.7 1.7 37.1 13.9 45.4 31.8l96.8 207.9c8.3 17.9 6.5 39.1-4.8 55.3L861.5 464.3C851 479.2 834 488 816 488z" class="st0" style="mask:url(#b_00000069369981186456203530000015562981597667730074_)"/><g transform="rotate(5 817.017 5230.797)"><path d="M394.2 0H171.8c-21.7 0-41.7 11.6-52.6 30.3L8.1 222.9a60.91 60.91 0 0 0 0 60.7l111.2 192.6c10.8 18.8 30.9 30.4 52.6 30.3h222.3c21.7 0 41.7-11.6 52.6-30.3L558 283.6a60.91 60.91 0 0 0 0-60.7L446.7 30.3C435.8 11.6 415.8 0 394.2 0z" style="fill:#c42b78"/><defs><filter id="Adobe_OpacityMaskFilter_00000072245340706589511720000005947818716676298641_" width="468.8" height="474" x="16.5" y="66.3" filterUnits="userSpaceOnUse"><feColorMatrix values="1 0 0 0 0 0 1 0 0 0 0 0 1 0 0 0 0 0 1 0"/></filter></defs><mask id="d_00000070110430989897666530000018250279707109458583_" width="468.8" height="474" x="16.5" y="66.3" maskUnits="userSpaceOnUse"><g style="filter:url(#Adobe_OpacityMaskFilter_00000072245340706589511720000005947818716676298641_)"><path id="c_00000065069851929818562380000001105507478822880191_" d="M394.2 0H171.8c-21.7 0-41.7 11.6-52.6 30.3L8.1 222.9a60.91 60.91 0 0 0 0 60.7l111.2 192.6c10.8 18.8 30.9 30.4 52.6 30.3h222.3c21.7 0 41.7-11.6 52.6-30.3L558 283.6a60.91 60.91 0 0 0 0-60.7L446.7 30.3C435.8 11.6 415.8 0 394.2 0z" class="st2"/></g></mask><path d="M444.2 480.5 511.4 364 79.8 101.7l-79.9 103c-9.3 16.1-9.3 88.5 0 104.6l119.9 191.4c9.3 16.1 33.7 17.7 52.3 17.7l227-11.9c18.6.1 35.8-9.9 45.1-26z" style="mask:url(#d_00000070110430989897666530000018250279707109458583_);fill:#b82166"/><path d="M.1 118.9c-.1-1.2-.1-2.4-.1-3.6C0 94 15.5 76.5 35.7 73.9c1.7-.2 3.4-.3 5.1-.3h.7c4.4-36.7 35-65.1 72.1-65.1 36.1 0 65.9 26.8 71.7 62 8.4-7.4 19.3-11.8 31.2-11.8 26.6 0 48.1 22 48.1 49.2 0 4.2-.5 8.3-1.5 12.3 10.9.2 22.5.9 28.8 2.7 25.4 7 17.4 34.3 3.2 34.3H41.6C34.7 157.1.1 118.9.1 118.9z" class="st7"/><path d="M260.4 101.9c-9.1-24.4-26.3-31.1-42.8-31.6-27.8-.9-39.2 20.6-39.2 20.6 4.7-12.7 3.3-19.7 3.3-19.7 8.4-7.3 19.3-11.8 31.2-11.8 24.3 0 44.3 18.5 47.5 42.5z" class="st8"/><path d="M307.8 138s.2 12.7-5.6 12.7-228.5 1.9-251.2 0c-10-.8-5-.9-5-18.9 0-3.6-1.4-10.9-3.6-12.6-.4-5.4-.6-10.7-.6-14.9 0-14.6 24.6-31.7 62.1-12.3 0 0-12.9-22.9-45.4-24.8C76.7 42 104 22.9 136.2 13.5c-7.3-2.4-15-3.7-22.7-3.7-34.8 0-63.9 24.8-71 58.1C5.8 73.3 0 106.3 0 116c0 1.2 0 2.4.1 3.5 0 0-.1 38.9 27.6 38.9h267.5c8.9 0 15.4-10.7 12.6-20.4z" class="st8"/><path d="M116.4 11.3c-34.2 0-61.9 25.9-61.9 57.9 0 2.6.2 5.2.6 7.8-2-.4-4.2-.6-6.4-.6-19.9 0-36 16.5-36 36.8 0 20.3 16.1 36.8 36 36.8 18 0 33-13.6 35.6-31.3 9.3 5.3 20.3 8.4 32 8.4 34.2 0 61.9-25.9 61.9-57.9.1-32-27.6-57.9-61.8-57.9z" class="st7"/><path d="M294.4 369.3s-7.3-36.2-3-39.3c4.3-3.1 58.1-10.9 81.3-1.7l3.6 40.9-71.6 32.5-10.3-32.4z" style="fill:#aeb0b3"/><path d="M444.3 389s-3.4-16.8-30.5-25.9c-27.1-9.1-47.8-18.3-47.8-37.6v-50.9h-65.6v50.9c0 19.4-20.7 28.6-47.8 37.6-27.1 9-30.5 25.9-30.5 25.9l16.6 73.7h189.1l16.5-73.7z" class="st10"/><path d="M451.4 129.9c0 94.4-33.3 171.5-119 171.5-85.6 0-117.3-78-117.3-172.4S294.8 15.6 333.9 15.6c39 0 117.5 19.9 117.5 114.3z" style="fill:#d0b27d"/><path d="M288.7 243.4c13 7.6 26.9 8.7 40.9 8.6 14.1 0 27.7-1.7 41.2-8.6-4.9 5.7-18.9 15.6-41.1 15.6-22.2-.1-36.5-9.6-41-15.6z" style="fill:#494032"/><path d="M304.2 190.3c0 12.9-10.5 23.3-23.3 23.3-12.9 0-23.3-10.4-23.3-23.3S268 167 280.9 167s23.3 10.4 23.3 23.3z" class="st13"/><path d="M298.6 190.3c0 9-7.3 16.3-16.3 16.3s-16.3-7.3-16.3-16.3 7.3-16.2 16.3-16.2c9-.1 16.3 7.2 16.3 16.2z" class="st14"/><path d="M274.5 181.8c0 2.7-2.2 4.9-4.9 5-2.7 0-5-2.3-5-5s2.2-4.9 4.9-5c2.8.1 5 2.3 5 5z" class="st7"/><path d="M362.2 190.3c0 12.9 10.5 23.3 23.3 23.3 12.9 0 23.3-10.4 23.3-23.3S398.4 167 385.5 167c-12.8 0-23.3 10.4-23.3 23.3z" class="st13"/><path d="M367.9 190.3c0 9 7.3 16.3 16.3 16.3s16.3-7.3 16.3-16.3-7.3-16.2-16.3-16.2c-9-.1-16.3 7.2-16.3 16.2z" class="st14"/><path d="M367.9 181.8c0 2.7 2.2 4.9 4.9 5 2.7 0 5-2.3 5-5s-2.2-4.9-4.9-5c-2.8.1-5 2.3-5 5z" class="st7"/><path d="M464 384.9c-12.6-16.4-13.6-14.4-22.6-18.5-12.4-5.7-12.5-5.4-57.3-21.2l-51.4 38.6-51.4-38.6c-44.8 15.9-44.9 15.5-57.3 21.2-9 4.1-10.4 7.5-10.4 7.5L184 459.2l47.3 19.7-.5-24.4 6.6 53.5 185 7 6.6-41.2.4.3 39.3-9.9c0 .1 8-62.8-4.7-79.3z" style="fill:#00aba8"/><path d="M291.9 330.1c1.2 14.7 41.1 53.8 41.1 53.8s42.2-34.9 40.4-55.6l20 23.3c0 15.7-37.6 63.2-37.6 63.2l-22.6-30.1-21.9 31.3s-38.2-45.4-38.2-67.2l18.8-18.7z" style="fill:#f3f2f3"/><path d="M393.4 350.9c0 15.9-37.6 63.9-37.6 63.9l-22.6-30.4-21.9 31.6s-38.2-45.9-38.2-67.9" style="fill:none;stroke:#dadcdc"/><path d="M454.6 92.7c-.8-3.8-1.7-7.5-2.8-11.1-1-3.4-2.2-11.2-2.2-11.2s-2-.4-2.3-1.3c-.9-2.1-1.8-8.6-1.8-8.6s-6-5.2-9-8.8c-2.1-2.5-8.5-10.3-8.5-10.3l-2.9.3-7.8-5.6s-3.6-6.2-6.2-8.3c-.9-.7-3.2.9-4.1.1-1.5-1.2-4.7-3.5-4.7-3.5l-3.5-4.5-10.4-2.8s-2.4-1.9-3.6-2.1c-2.5-.4-7.8.6-7.8.6l-2.9-2.6-9.5 1.3-6.7-3.4-2.7 2.1-6.3-.8s-2.5-1.5-3.8-1.6c-1.9-.2-5.4.7-5.4.7s-4.6-1.5-6.4-1.5c-3.2 0-12 2.2-12 2.2l-4.3-.7-7.1 2.3s-3.7-.7-5.5-.3c-2.1.4-5.9 2.3-5.9 2.3l-6.6.1-2.8 1.3-5.9-.8-4.7 2.2s-2.7-.3-4 .3c-.5.2-1.5-.5-1.5-.5l-6.5 5.1-5.5 4h-2.8s-1.7 3.6-3.2 4.8c-1.8 1.5-6.1 2.9-7.8 4.1-1.3.9-.2 1.9-1.6 2.9-.7.5-3.8.9-4.4 1.4-1 .7.4 1.5-.6 2.3-3.9 2.9-7.7 6.1-10.2 9-1.6 1.9-3.1 3.9-4.5 5.9-2.7 4.1-5 8.4-6.9 12.9-.7 1.7-1.4 3.4-2 5.1-2 5.5-3.5 11.2-4.8 17.1-1.9 8.7-.4 17.8-.7 27.1C209.2 176.1 225 208 225 208c11.6-8.6-3.1-78.7 31.9-101.9 11.1-7.4 69.8-8.1 76.5-8.1 6.7 0 65.1.7 76.1 8.1 35 23.2 20.4 93.3 31.9 101.9 0 0 15.9-32 13.9-88.1-.2-9.4 1.2-18.5-.7-27.2z" style="fill:#262524"/><path d="M441.8 168.4s-2.1-3.6-2.8-11c-1.7-19.1-5.9-54.5-13.3-60.6-10.2-8.5-30.3-3.6-35.5-3.9-5.1-.2-22.9-4.8-26.8-10.2 0 0-16.2 5.6-29.9 5.6s-21.4-5.4-21.4-5.4-13.3 7-17.5 7c-4.2 0-10.7-3.4-10.7-3.4s-.7 3.8-5.1 5.8c-7.9 3.6-27.8-1.1-31.5 4-3.8 5.1-15.8 19-16.5 43.7-.7 24.7-5.8-2.7-5.8-5.1 0-2.5 3.1-38.8 4.7-39.9 1.5-1.1 7.1-4.2 7.1-4.2s-7.2-14 4.7-24.7c3.4-3 19.8 0 19.8 0s-1.7-19.6 4.9-22.7c6.6-3.1 15 3.7 24.4-.9 14.8-7.3 20.7 12.7 25.8 9.2 5.1-3.5 6.9-21.2 19.1-14.7 24.3 12.9 14.5-.2 31.4 2s11 10.1 23.3 17.2c12.8 7.3 22.5 1.8 26.2 5.8s4.7 19.8 20.2 26.1c15.5 6.3 6.5 62.9 7.1 66.9.6 3.8 1.4 13.4-1.9 13.4z" style="fill:#393735"/><path d="M308.6 80.4s-11.5 7.5-16 7.3c-4.5-.2-10.5-8.7-11.1-18.1 0 0 5.9 12.5 9.3 13.3 3.4.8 3-7.5 6-6s5.3 2.7 6.9 1.7c4-2.4-1.8-32.3-10.8-47.5 0 0 22.4 37.2 15.7 49.3zm55.5-19.8s-.5 20-7.3 20.9c-6.8.9 0-58.8 0-58.8s-5.6 38.7-6 43.5c-.3 4.9-3 7.4-4.7 7.6-1.6.2.3 7.6-1.6 8.6-2 1-7.6 2.4-9.1-6 0 0-.3 8.5 5.6 9.7 6 1.2 19.8-1.9 22.1-4.7s2.5-15.4 1-20.8zM253.3 88.3c2.9-.2 5.8-.2 8.7-.2h8.5c1.4 0 2.8-.1 4-.4 1.1-.1 1.8-.9 2.2-2 .3-1.1.4-2.5.2-3.8-.1-1.4-.5-2.7-.9-4.1.9 1.1 1.6 2.4 2.1 3.8s.8 2.9.5 4.5c-.2.8-.5 1.6-1.1 2.3-.3.3-.7.6-1.1.9-.4.2-.9.5-1.3.5-1.6.5-3.1.5-4.6.6-2.9.1-5.9-.1-8.8-.5-2.8-.2-5.6-.8-8.4-1.6zM371 48.1c-.5 6.4-.9 12.8-1 19.1 0 3.2 0 6.4.4 9.5.2 1.5.4 3.1.8 4.5.4 1.5.9 2.9 1.7 3.9.4.5 1 .9 1.6 1.4.6.4 1.3.8 1.9 1 1.3.5 2.7.7 4.2.5.7-.1 1.5-.3 2.3-.5.8-.2 1.6-.5 2.7-.6h.8c.3 0 .6.1.9.3.3.1.5.3.7.4.2.1.4.3.6.5.4.4.7 1 .8 1.4.1.4 0 .2.3.4.5.2 1.3.3 2.1.4l2.4.1c1.5 0 3.1-.2 4.7-.6 3.1-.8 6-2.3 8.7-4.3-2.3 2.4-5.2 4.2-8.3 5.4-1.6.6-3.3 1-5.1 1h-2.5c-.9 0-1.7 0-2.8-.4-.3-.1-.6-.3-.8-.5-.1-.1-.2-.3-.3-.4l-.2-.4c-.2-.4-.3-.5-.5-.7l-.3-.3c-.1-.1-.3-.2-.4-.2-.1 0-.2-.1-.3-.1h-.4c-1.2.1-2.9 1-4.6 1.3-1.8.4-3.8.2-5.5-.5-.9-.3-1.6-.8-2.4-1.3-.7-.5-1.4-1-2.1-1.8-1.2-1.5-1.7-3.2-2.2-4.9-.4-1.6-.7-3.3-.8-4.9-.2-3.2-.2-6.5 0-9.7.4-6.4 1.4-12.7 2.9-19z" style="fill:#504c4a"/><path d="M277.3 319.8s25.8-6.7 48.5-26.5c0 0 17.5-19 20.7-5.3 0 0 2.5 7.3-19 27l-50.2 4.8z" style="fill-rule:evenodd;clip-rule:evenodd;fill:#af9769"/><path d="M423.1 461.5c.2-.2-5.2-41.2-5.2-41.2s1 40.1 0 47.1 0 19.4 0 19.4l4.1-2.1 1.1-23.2z" style="fill:#009e9b"/><path d="M267.4 357.9s10.8-23.8 1-40.6c-2.2-3.8-10-10.7-8.4-13.8 0 0 4-8.4 16 3.9l9.3 10.6s22.7-6.1 42.8-24.2c0 0 15.5-17.3 18.3-4.9 0 0 2.2 6.7-16.7 24.6 0 0 6.3-5 10.2-1.3 0 0 2.7 5.1-.1 8.4 0 0 3.4-.6 6 4.5 0 0 1.6 4.6-.5 8.1 0 0 10.7 1.5 2.4 13.5 0 0-10.9 12.9-30 22.5 0 0-35.8 38.1-43.4 54.2 0 0-31.4 81.1-63.4 80.4 0 0-45.7-2.7-26.4-46.6 0 0 13.4-24.9 40.2-48.9 0-.1 40.6-45.7 42.7-50.4z" style="fill-rule:evenodd;clip-rule:evenodd;fill:#d0b27b"/><path d="m301.4 387.4-33.6-26.6c-8.4 11.2-40.5 47.5-40.5 47.5-26.6 24-40 48.9-40 48.9-19.2 43.9 26.3 46.6 26.3 46.6 31.8.7 63-80.4 63-80.4 4-8.6 14.5-24 24.8-36z" class="st24"/><path d="M298.6 384.6 265 358c-8.4 11.2-40.5 47.5-40.5 47.5-26.6 24-40 48.9-40 48.9-19.2 43.9 26.3 46.6 26.3 46.6 31.8.7 63-80.4 63-80.4 4-8.6 14.5-24 24.8-36z" class="st24"/><path d="m301.4 386.8-35.1-27.3c-8.4 11.2-40.5 47.5-40.5 47.5-26.6 24-40 48.9-40 48.9-19.2 43.9 26.2 46.6 26.2 46.6 31.8.7 63-80.4 63-80.4 4.2-8.7 16.1-23.4 26.4-35.3z" class="st25"/><path d="m232.1 519.1-41.5-26.7-3.7 6.2 42.9 27.7 2.3-7.2z" class="st26"/><path d="M188.1 496.7 225 521l-.7 2.5-37.5-24.6 1.3-2.2z" style="fill:#012f3d"/><path d="m182.2 488.2 8.8 3.2s.3.9-1 1.8c0 0 .6 2-1.4 2.5 0 0 .1 2.5-1.4 2.4l-6.3-7.9c.7-.4 1.2-1 1.3-2z" style="fill:#dccab2"/><path d="M182.2 488.2c-.1.9-.6 1.6-1.2 2l-2.7-3.5 3.9 1.5z"/><path d="M315.1 499.5c-25.8 1.9-81.7 5.2-85.3 5.7-3.6.5-7.2 1.6-9.6 6.7-2.2 4.8-4.2 9.4-4.8 11.8-.5 1.9-1.1 11.7 2 16.6 1 1.7 5.1 1.6 7.1 1.2 3.6-.7 4.1-1.9 5-2.6 0 0 1.7 5.7 5 5.7s4.4-.8 4.4-.8 1.7 6.1 4.5 7c2.8 1 4.4.6 4.4.6.1.3.3.6.5 1 1 2.1 3.6 5.1 6.4 5.1 1.3 0 4.3.2 7.5-.9 4.5-1.3 9.3-3.1 10.1-3.9 0 0 5.7-3.8 3.8-6.7-1-1.6-1.4-2.1-1.5-2.2 6.5-1.6 31.3-12.6 34.9-15.3 6.3-4.7 29-18.5 5.6-29zM274 543.9c.1 0 .3 0 .5-.1l-.5.1c0 .1 0 0 0 0z" class="st10"/><path d="M238.9 543.8s.1-7 0-8.8c-.1-1.8 0-3.9 0-3.9s-.7 6-.7 7.8c.1 1.9.7 4.9.7 4.9zm8.9 7.6s.1-7 0-8.8c-.1-1.8 0-3.9 0-3.9s-.7 6-.7 7.8c.1 1.9.7 4.9.7 4.9zM229.5 539s.1-7 0-8.8c-.1-1.8 0-3.9 0-3.9s-.7 6-.7 7.8c.1 1.9.7 4.9.7 4.9zm29.8 9.1s-.6 1.9-.6 3 .1 1.6.1 1.6-.5-2.9 1.8-3.8c2.3-1 13.1-3.8 13.6-4.3s.5-1 .5-1l-15.4 4.5z" style="fill:#af9769"/><path d="M469.6 431.8c-3.6-3-47.1 29.1-47.1 29.1l-1.2 23c-5.6-1.2-113.5 16.8-113.5 16.8-5.4.7-10.7.9-15 1.9 4 7 10.8 20.5 14.5 26.9 45.3 3 105.1 6.2 105.1 6.2 72.4 10.1 57.8-103.4 57.2-103.9z" class="st25"/><path d="m294.3 502.3 125.9-18.5-.7-4.1-125.2 22.6z" class="st24"/><path d="M143 58.9c-.1-2-.2-4-.5-6l-.8.1c.4 2.1.8 6.6.8 6.6 0 .6.1 1.3.1 1.9.1 2.9.1 5.7-.1 8.6.3-2.5.4-5.1.5-7.6v-3.6z" class="st26"/><path d="M159.2 99.5c1.8.4 4.5.3 7.7-1.9l1.5-1-1.4-1.1s-2.9-2.7-4.6-11.9l-1.6-17.7c-.1-1.7-.3-3.4-.6-5.1-.3-2-.6-4.1-1-6.1s-.9-4-1.5-6-1.2-3.9-1.9-5.8-1.5-3.8-2.5-5.6c-.9-1.8-2-3.6-3.2-5.2-2.4-3.3-5.6-6.2-9.2-8 3.6 1.9 6.6 4.9 8.9 8.2 1.1 1.7 2.1 3.5 3 5.3.9 1.8 1.6 3.7 2.3 5.6.7 1.9 1.2 3.9 1.7 5.8.5 2 .9 3.9 1.2 5.9.3 2 .6 4 .8 6 .1.8.1 1.7.2 2.6v.8l.4 17.1c1 7.2 2.7 11.4 4 13.7-.6.1-1.1.2-1.7.2h-.8c-.3 0-.5-.1-.8-.1-.5-.1-1-.3-1.5-.6-.9-.6-1.6-1.4-2.2-2.4-.5-1-.9-2.1-1.1-3.2.1 1.1.4 2.2.8 3.3s1.2 2.1 2.2 2.8c.5.4 1 .7 1.6.8.3.1.6.2.9.2.3 0 .6.1.9.1.8 0 1.6 0 2.3-.1 0 0 .1.1.1.2-3.3 1.7-5.7.3-5.7.2l-2.4-1.6.3 2.9c1.1 9.3 3.3 13.3 5 15.1-11 6.6-18.5-2.5-18.8-2.9l-2.1-2.6-.3 3.3c-.3 2.9.2 5.6.7 7.2-6.4.5-10.4-4.1-11.4-5.4v-1.6c.9-.2 1.7-.4 2.6-.7 2-.6 4-1.4 5.8-2.4 1.3-.7 2.5-1.4 3.7-2.3l.6.9.7.8c.2.3.5.6.7.8.2.3.5.6.8.8l.8.7.8.7c.6.4 1.1.8 1.7 1.2 1.2.7 2.5 1.4 3.9 1.7-1.4-.5-2.6-1.2-3.7-2-.6-.4-1.1-.8-1.6-1.3l-.8-.7-.7-.7c-.2-.2-.4-.6-.7-.8-.2-.3-.4-.6-.6-.8l-.6-.9c-.2-.3-.3-.6-.5-.9.3-.2.6-.5.9-.7 1.6-1.4 3.2-2.8 4.5-4.4l.5-.6.5-.7c.3-.4.6-.8.9-1.3.6-.9 1.2-1.7 1.6-2.7l.8-1.4.7-1.4.3-.7c.1-.2.2-.5.3-.7l.6-1.4c.2-.5.3-1 .5-1.5l.5-1.5c.3-1 .5-2 .8-3-1.2 4-2.8 7.8-4.9 11.4l-.4.7c-.1.2-.3.4-.4.7l-.8 1.3-.9 1.2-.5.6-.5.6c-1.3 1.6-2.8 3-4.4 4.3-.3.2-.5.4-.8.7-.2-.4-.3-.7-.5-1.1l-.1-.2-.1-.2-.1-.3c1.9-1.6 3.7-3.5 5.3-5.7 3.7-5 6.3-11.4 7.8-18.8l1.3-15.4c-.1-13-3.2-22.9-9-29.5-3-3.4-6.8-6-11.3-7.7-4.4-1.7-9.7-2.5-15.5-2.5-12 0-21.3 3.4-27.7 10.1-6.5 6.9-9.8 17.1-9.8 30.5 0 13.6 3.3 25.1 9.5 33.3 4.3 5.6 9.8 9.5 16.4 11.6v7c0 4.2-3.1 6.8-11.3 9.5-8.2 2.7-8.8 3.9-9 4.3l-4.6 11.9c.7.6 1.5 1.1 2.3 1.6l4.7-12.2c.4-.3 2-1.3 7.5-3.1.9-.3 1.9-.7 2.8-1l3.1 4.5 3.1-.1-1 2.1 13.5 8.8.3 8.5h.3l.3-8.5.6-.4v8.8l.5-9.2.5-.3.1 6 .4-6.4 11.5-7.6-1-2.1 3.1.1 2.7-4c.2.1.5.2.8.3l-.8 1.2c-.1 0-.2 0-.3-.1l.3.1-1.7 2.6 1.8-2.6 1.6.7c.3.1.7.3 1 .4.3.1.7.3 1 .5.7.3 1.4.6 2 1 .3.2.7.4.9.6l.4.3c.1 0 .1.1.2.1l.1.1 1.5 3.9 1.6 3.9c.3.7.5 1.3.8 2l.8 2c.6 1.3 1.1 2.6 1.7 3.8-.4-1.3-.8-2.7-1.3-4-.2-.7-.5-1.3-.7-2-.2-.7-.5-1.3-.7-2-.5-1.3-1-2.6-1.5-4-.5-1.3-1-2.6-1.6-3.9-.1-.1-.1-.1-.1-.2l-.1-.1c-.1-.1-.2-.1-.2-.2-.2-.1-.3-.2-.5-.3-.3-.2-.7-.4-1-.5-.7-.3-1.4-.6-2.1-.8-1.3-.5-2.6-.8-3.9-1.2l.8-1.2c.2 0 .3.1.5.2 5.5 1.8 7.1 2.8 7.5 3.1l7.6 19.7h2.9l-8.1-21v-.1c-.2-.4-.8-1.6-9-4.4-7.4-2.4-10.6-4.8-11.2-8.3 2.2 1.9 5.7 4.1 10.4 4.1.9 0 1.9-.1 3-.3l1.6-.3-.6-1.5s-.8-1.9-1-4.5c1.3 1.1 2.8 2 4.3 2.7 3.9 1.7 10.1 2.6 17.4-2.6l3.2-2.1-3.7-.3c-.7-.3-3.5-2-5.1-12.1zm-18.2 5.2c-2.8 2.1-6 3.6-9.3 4.7-.8.3-1.6.5-2.4.7v-1.8c3.9-1.1 7.6-2.9 10.8-5.4l.1.2.1.2.7 1.4zm-21-.2h1.5v-.5H120v-6.3c1.9-.2 3.7-.8 5.5-1.6 2.2-1.1 4.1-2.6 5.7-4.4-3.7 1.9-7.4 3.5-11.2 3.8V77.8c2.9 0 5.8-.1 8.7-.3.9 2.1 3 3.6 5.5 3.6 2.9 0 5.3-2 5.9-4.9 2.1-.3 4.1-.7 6.1-1.2-.3 1.9-.7 3.8-1.1 5.7.5-1.9 1-3.8 1.3-5.8 1.2-.2 2.3-.5 3.4-.8-.1.5-.1.9-.2 1.4-.3 1.9-.7 3.7-1.2 5.5-.5 1.8-1 3.6-1.7 5.4-.7 1.8-1.4 3.5-2.3 5.2 2-3.2 3.5-6.7 4.6-10.4.7-2.4 1.2-4.8 1.6-7.3l.7-13.1c0-.7-.1-1.5-.1-2.2-.3-3.8-.9-7.6-2.1-11.2.2.9.4 1.9.6 2.8.2.9.3 1.9.4 2.8.2 1.9.4 3.7.5 5.6 0 .9 0 1.8.1 2.7v.2l-.8 11.5c-1.1.3-2.2.6-3.3.8v-.1c.1-.6.2-1.1.2-1.7l.6-11.3c0-2.9-.3-5.8-.8-8.7l-.8.1c.5 2.7.8 5.3.9 8v7.2c-.1 2.1-.2 4.1-.5 6.2v.2c-2 .5-4.1.8-6.2 1.2 0-3.2-2.7-5.9-6-5.9s-6 2.7-6 5.9c0 .4 0 .9.1 1.3-2.7.2-5.6.3-8.4.3v-6.8h1.5v-.5H120v-6.7h2.3v-.9H120V55h2.1v-.5H120v-1.4c1.5 0 3.1 0 4.6-.1 1.9-.1 3.8-.2 5.7-.4 1.9-.2 3.8-.4 5.7-.7 1.9-.3 3.7-.7 5.6-1.1-1.9.3-3.7.6-5.6.8l-5.7.6c-3.4.2-6.8.4-10.2.4V48h2.3v-.9H120v-6.7h1.5V40H120v-6.7h2.3v-.9H120v-6.9c21.4.2 32.1 12.2 32.6 36.5 0 0 .1 5.5 0 8.4-.1 2.9-.9 5.1-.9 5.1-1.3 7.8-3.8 14.5-7.6 19.6-5.7 7.7-13.8 11.7-24 11.9l-.1-2.5zm12.2-31.9c.6-.4 1.2-.7 1.9-.7 1.8 0 3.3 1.4 3.3 3.3v.4c-2.1.3-4.2.5-6.4.7-.1-.3-.2-.7-.2-1.1v-.5c.2.3.6.5 1 .5.8 0 1.3-.6 1.3-1.4.2-.6-.2-1.1-.9-1.2zm4.9 4.1c-.6 1-1.6 1.8-2.9 1.8-1 0-1.9-.5-2.5-1.2 1.9-.2 3.7-.4 5.4-.6zM84.7 63.2c0-12.6 3.1-22.3 9.1-28.6 5.7-6 14.2-9.1 25.2-9.2v6.9h-2.3v.9h2.3v6.7h-1.5v.5h1.5v6.7h-2.3v.9h2.3v4.7c-3.8 0-7.5-.1-11.4-.4-1.9-.1-3.8-.3-5.7-.5-1.9-.2-3.8-.5-5.6-.8 1.8.5 3.7.8 5.6 1.1 1.9.3 3.8.5 5.7.7 3.8.4 7.6.5 11.4.5v1.4h-2.1v.5h2.1v6.6h-2.3v.9h2.3v6.7h-1.5v.5h1.5v6.8h-.2c-3.2 0-6.5-.1-9.6-.3.1-.4.1-.8.1-1.3 0-3.3-2.7-5.9-6-5.9s-5.9 2.6-6 5.9c-2.2-.4-4.3-.7-6.3-1.2-.1-.8-.2-1.7-.3-2.6v-.4h-.8v.4c.1.8.1 1.5.3 2.3-.7-.2-1.4-.3-2.1-.5-.1-1.1-.3-2.2-.3-3.2v-1.4c0-.5 0-.9-.1-1.4-.1-.9-.1-1.9-.1-2.8v-5.7c.1-1.9.2-3.7.5-5.6.1-.9.2-1.9.4-2.8.2-.9.4-1.9.6-2.8-1.2 3.6-1.8 7.4-2.1 11.2-.1.9-.1 1.9-.1 2.9v2.9c0 .9 0 1.9.1 2.9 0 .5 0 .9.1 1.4 0 .5 0 .9.1 1.4.1 1 .2 2 .3 2.9l-2.1-.6c-.6-2.9-.7-6-.7-9.2zM100 75.5v-.9c.2.3.6.5 1 .5.8 0 1.3-.6 1.3-1.4 0-.7-.5-1.2-1.1-1.3.6-.4 1.2-.7 1.9-.7 1.8 0 3.3 1.4 3.3 3.3 0 .4 0 .7-.2 1.1-1.9 0-4.1-.3-6.2-.6zm5.8 1.8c-.6.7-1.5 1.1-2.5 1.1-1.2 0-2.3-.7-2.9-1.7 1.7.2 3.5.4 5.4.6zM93.7 94.9c-4.2-5.6-7.1-12.8-8.3-21.3l2.1.6c.4 2.4.9 4.8 1.6 7.1 1 3.7 2.6 7.2 4.6 10.4-.8-1.7-1.6-3.4-2.3-5.2-.7-1.8-1.2-3.6-1.7-5.4-.5-1.8-.9-3.7-1.2-5.5 0-.4-.1-.8-.2-1.2.7.2 1.4.3 2.1.5.1 1 .3 1.9.5 2.9l.1.4.8-.1-.1-.4c-.2-.9-.3-1.7-.5-2.6 2 .4 4.1.8 6.3 1.2.5 2.8 3 4.9 5.9 4.9 2.4 0 4.6-1.5 5.5-3.6 3.3.2 6.6.3 9.9.3h.2v17.8h-.7c-4.4 0-8.8-1.4-12.9-3.9 1.4 2 3.4 3.5 5.7 4.5 2.2 1.1 4.8 1.6 7.3 1.6h.7v6.2h-1.5v.5h1.5v2.5c-10.7-.2-19.5-4.3-25.4-12.2zm13.1 37.3 1.3-2.9-4.2.1-2.6-3.8c1.6-.7 3-1.4 4.3-2.2l11.6 15.6c0 .1-10.4-6.8-10.4-6.8zm12.6 8.1-9.9-13.2c3 1 6.1 1.5 9.3 1.5s6.3-.5 9.3-1.5c0-.1-8.7 13.2-8.7 13.2zm12.3-16.7c1.4.9 3.2 1.8 5.5 2.7l-2.3 3.3-4.2-.1 1.3 2.9-10.6 7 10.3-15.8zm-1.3-1c.1.1.3.2.5.4l-1.6 2.4h-.1c-3.3 1.3-6.8 1.9-10.3 1.9s-7-.7-10.4-1.9h-.2l-1.8-2.4c2.5-1.9 4.1-4.3 4.1-7.8v-6.3c2.7.6 5.5.9 8.5.9 2.6 0 5.1-.2 7.5-.7v1.8c-.3 0-.6.1-.9.1-2.1.3-4.1.5-6.2.5 1 .1 2.1.1 3.2.1 1 0 2.1-.1 3.2-.2.3 0 .6-.1.9-.1v3.8c-.2 3 1.1 5.4 3.6 7.5z" class="st26"/><path d="M160.5 186.5c-18.7-3-25.6-26.4-11.5-39.1 9.2-8.4 23.6-7.6 31.9 1.6 14.3 15.8.7 40.9-20.4 37.5z" class="st8"/><circle cx="166.3" cy="160.6" r="19.1" class="st7"/><g transform="translate(181.12 181.12)"><path d="M12.5 29.5C.2 27.5-4.3 12.2 4.9 3.8c6.1-5.5 15.4-5 20.9 1.1 9.4 10.4.5 26.9-13.3 24.6z" class="st8"/><circle cx="17.2" cy="11.9" r="11.3" class="st7" transform="rotate(90 17.159 11.906)"/></g></g></svg>