<svg xmlns="http://www.w3.org/2000/svg" xml:space="preserve" id="Layer_1" x="0" y="0" style="enable-background:new 0 0 1023 518" version="1.1" viewBox="0 0 1023 518"><style>.st0{fill:#27a737}</style><path d="m530.4 0-107 153c-10.6 15.1-28.5 23.5-46.8 21.9l-216.8-19c-18.3-1.6-34.6-13-42.3-29.7L58.6 0h-1.1l59 126.6c7.9 17 24.5 28.6 43.2 30.3l216.8 19c1.5.1 3 .2 4.6.2 17.1 0 33.3-8.4 43.2-22.5L531.6 0h-1.2zM879.7 32c-7.9-17-24.5-28.6-43.2-30.3L817 0h-11.5l30.9 2.7c18.3 1.6 34.6 13 42.3 29.7l92 197.5c7.8 16.7 6 36.5-4.5 51.6L841.4 460c-10.6 15.1-28.5 23.5-46.8 21.9l-216.8-19c-18.3-1.6-34.6-13-42.3-29.7l-92-197.5c-7.8-16.7-6-36.5 4.5-51.6L572.8 5.6c1.4-2 2.9-3.9 4.6-5.6H576c-1.4 1.6-2.8 3.3-4 5L447.1 183.6c-10.8 15.4-12.5 35.5-4.6 52.6l92 197.5c7.9 17 24.5 28.6 43.2 30.3l216.8 19c1.5.1 3 .2 4.6.2 17.1 0 33.3-8.4 43.2-22.5L967.1 282c10.8-15.4 12.5-35.5 4.6-52.6L879.7 32z" class="st0"/></svg>