<svg xmlns="http://www.w3.org/2000/svg" xmlns:xlink="http://www.w3.org/1999/xlink" xml:space="preserve" id="Laag_1" x="0" y="0" style="enable-background:new 0 0 1023 518" version="1.1" viewBox="0 0 1023 518"><style>.st1{fill:#e18a00}.st3{fill:#f8dbd6}.st4{fill:#82b033}.st5{fill:#291c00}.st6{fill:#fff}.st7{fill:#fa9e1c}.st9{fill:#ffd14f}.st10{fill:#e8c7ab}.st11{fill:#633b08}.st13{fill:#402600}.st14{fill:#2b1700}.st16{fill:none}.st19{fill:#997040}.st20{fill:#c79961}.st21{fill:#d4a36b}</style><path d="M851.9-16.9 630.7-36.3c-21.5-1.9-42.5 7.9-52.6 25.9L450.8 171.8c-14.7 17.6-16.7 40.6-5.3 60.5l93.8 201.5c6.8 19.4 25.7 32.7 47.3 34.6l221.1 19.3c21.5 1.9 42.5-7.9 54.9-25.7L990 279.9c12.4-17.8 14.4-40.8 5.3-60.5L901.5 17.9c-9.1-19.7-28-33-49.6-34.8z" style="fill:#f49400"/><path d="m859.1 466.1 77.1-110.2L531.7 57.3l-85.9 119.1c-10.6 15.2-12.4 35-2.2 52.1l97.7 209.6c5.5 16.6 26.6 26.6 40.3 29.7l230.3 20.1c18.5 1.8 36.5-6.6 47.2-21.8zM504.6 0l-95.4 136.5C399 151 381.7 159.1 364 157.6l-209.2-18.3c-17.7-1.5-33.3-12.5-40.8-28.6L62.4 0h-1.1L113 111.1c7.7 16.4 23.6 27.6 41.6 29.2l209.2 18.3c1.5.1 2.9.2 4.4.2 16.5 0 32.1-8.1 41.7-21.7L505.8 0h-1.2z" class="st1"/><path d="M734.9 339s-2.4-39.2-1.2-40.2c4.1-3.1 63.7-4.2 85.7 6.5l-4.8 39.7-72 26.3-7.7-32.3z" style="fill:#401f5c"/><path d="M883.6 372.4s-2.1-16.5-27.7-27.3c-25.6-10.8-48.6-21.4-47.1-40.1l3.7-49.2-31.9-2.4h-.1l-.9-.1h-.2l-.9-.1h-.1l-31.9-2.4-3.7 49.2c-1.4 18.7-25.7 25.8-52.6 32.6-27 6.8-31.5 22.8-31.5 22.8l8.5 68.6 197.6 15 18.8-66.6z" class="st3"/><path d="M905.6 120.4c-6.9 91.2-44.8 163.2-128 156.9-83.1-6.3-108.2-83.9-101.3-175.1s85-94.8 122.9-91.9c37.9 2.8 113.2 18.9 106.4 110.1" class="st3"/><path d="M759.6 168.1c-.9 12.5-12 21.9-24.6 20.9-12.7-1-22.2-11.9-21.2-24.4.9-12.5 12-21.9 24.6-20.9 12.7.9 22.2 11.8 21.2 24.4" class="st4"/><path d="M753.7 167.6c-.7 8.7-8.3 15.3-17 14.6s-15.3-8.3-14.6-17 8.3-15.3 17-14.6c8.7.6 15.3 8.3 14.6 17" class="st5"/><path d="M731.9 157.7c-.2 2.5-2.4 4.4-4.9 4.2s-4.4-2.4-4.2-4.9 2.4-4.4 4.9-4.2 4.4 2.4 4.2 4.9" class="st6"/><path d="M732.2 216.5c15 10.7 31.3 17.8 48.4 18.9 17.1 1.3 34-4.1 51-11.4-6.5 6.6-14.5 11.9-23.3 15.5s-18.6 5.3-28.3 4.7c-9.7-.7-19.2-3.6-27.4-8.5-8.2-4.8-15.5-11.3-20.4-19.2" class="st7"/><path d="M815.7 172.3c-.9 12.5 8.6 23.5 21.2 24.4 12.7 1 23.7-8.4 24.6-20.9.9-12.5-8.5-23.4-21.2-24.4-12.6-1-23.6 8.4-24.6 20.9" class="st4"/><path d="M821.6 172.7c-.7 8.7 5.9 16.4 14.6 17 8.7.7 16.4-5.9 17-14.6.7-8.7-5.9-16.4-14.6-17-8.7-.7-16.3 5.9-17 14.6" class="st5"/><path d="M823.1 164.6c-.2 2.5 1.7 4.7 4.2 4.9s4.7-1.7 4.9-4.2-1.7-4.7-4.2-4.9c-2.5-.2-4.7 1.7-4.9 4.2M731.5 328s38.4 38.8 85.7 6.5l-37.1 86.9-48.6-93.4z" class="st6"/><path d="M731.4 61.4s7.6 30.2 52.8 37.2 81.6.8 98.8 11.1 4.4 96.4 4.4 96.4 22.9-65.6 22.5-96.1c-.2-13.9 2.3-55.8-21.7-81.5-28.9-30.9-80.6-38.4-97.7-37-44 3.6-56 16.4-56 16.4s-18.1-.2-23.6 3.6c-30.3 21-54.3 76.7-27.6 187.3.1-.1-11.9-103.3 48.1-137.4" style="fill:#fcba63"/><path d="M884.3 104.4c-13.9-9.6-68.4-8.8-96-12.6-27.5-3.9-51.6-17.4-47.2-52 0 0 7.6 18.5 26.3 19.9 0 0-11-8.9-21.2-40.2 0 0 31.3-21.9 98.2 6.5 0 0-42.9-37.3-111-15.6 0 0-10.2 27.9-25.6 42-14.6 13.3-33.6 41.4-24.4 101.5 3.1-32.3 14.1-73.4 47.9-92.5 0 0 7.6 30.2 52.8 37.2s81.6.8 98.8 11.1c5.1 3.1 7.6 12.8 8.5 25.1l.4-.2s2.8-23.1-7.5-30.2" class="st7"/><path d="M820.5 86.3c-2 0-4.1-.3-6.1-.5l-6.1-.5c-2-.1-4-.5-6-.7l-6-.8c-2-.3-4-.8-5.9-1.1l-3-.6-1.5-.3-1.4-.4-5.8-1.5c-1.9-.5-3.8-1.3-5.7-2-1.9-.6-3.7-1.5-5.5-2.3l-2.7-1.2-2.6-1.5c-.9-.5-1.8-.9-2.6-1.5l-2.5-1.7c-.4-.3-.8-.5-1.2-.9l-1.1-1c-.8-.7-1.6-1.3-2.3-2l-2.1-2.1c-.7-.7-1.3-1.5-1.9-2.3-1.2-1.6-2.4-3.3-3.1-5.2.4 2 1.3 3.9 2.3 5.8.5.9 1.1 1.8 1.7 2.6l1.9 2.5c2.8 3.1 5.9 5.9 9.5 8.1 7 4.6 14.9 7.6 23 9.6l1.5.4 1.5.3 3.1.6c2 .3 4.1.8 6.1 1l6.2.6c2.1.2 4.1.4 6.2.4 4.1 0 8.2.2 12.3 0 4.1-.3 8.2-.6 12.3-1-4.4-.4-8.5-.6-12.5-.8M769.4 45.2c4.8 4.2 10.2 7.5 15.8 10.2 5.7 2.6 11.5 4.7 17.5 6.4 6 1.6 12 3 18.1 3.8-6-1.4-11.9-3-17.7-5.1-5.8-2-11.5-4.4-16.8-7.2-5.4-2.8-10.5-6.1-14.8-10.3-3.2-3-5.9-6.6-7.6-10.5l20 12.1 11.4 6.9-9.1-9.6-10-10.6c-2.8-3-5.7-5.9-8.5-8.9.4-.2.9-.3 1.3-.4 1.2-.4 2.4-.6 3.6-.8 1.2-.2 2.5-.4 3.8-.5s2.5-.2 3.8-.2c5.1-.1 10.3.3 15.5 1 2.6.4 5.1.8 7.7 1.3 2.6.5 5.1 1 7.7 1.6 2.5.6 5.1 1.2 7.6 1.9s5.1 1.4 7.6 2.1c-2.5-.9-4.9-1.9-7.4-2.7-2.5-.9-5-1.6-7.5-2.4s-5.1-1.4-7.6-2.2c-2.6-.6-5.1-1.2-7.7-1.7-5.2-1-10.5-1.6-15.9-1.7-1.3 0-2.7 0-4 .1-1.3 0-2.7.2-4 .4-1.3.2-2.7.4-4 .8-.7.2-1.3.4-2 .6-.7.3-1.3.5-2.1 1l-1.6 1 1.4 1.5c3.3 3.6 6.6 7.2 9.9 10.7l1.3 1.4-13.2-7.9-3.5-2.1 1 4c1.4 6.3 5.3 11.8 10 16" class="st9"/><path d="m874.6 17.4-4.1-2.8-2-1.4c-.7-.5-1.4-.9-2.1-1.3l-4.2-2.6c-1.4-.9-2.9-1.6-4.3-2.4-1.5-.8-2.9-1.6-4.4-2.3L849 2.4c-1.5-.7-3-1.3-4.6-2-1.5-.6-3.1-1.3-4.6-1.9-3.1-1.1-6.2-2.2-9.5-3.1-3.2-1-6.4-1.7-9.7-2.4-3.3-.6-6.5-1.2-9.8-1.6-6.6-.8-13.3-1.2-19.9-.9-6.7.3-13.3 1-19.8 2.3-6.5 1.2-13 3-19.3 5.2-6.1 2.2-12 4.7-17.7 8-4.1-.5-8.2-.4-12.2.4-4.2.8-8.2 2.6-11.8 4.9s-6.8 5.1-9.7 8.1c-2.9 3.1-5.4 6.4-7.7 9.9-4.5 7-8.1 14.5-11.1 22.2-2.9 7.7-5.3 15.6-6.9 23.7 2.2-7.9 5-15.6 8.2-23.1 3.3-7.4 7.1-14.7 11.8-21.3 2.3-3.3 4.9-6.4 7.7-9.3 2.8-2.8 6-5.4 9.3-7.4 3.4-2 7-3.6 10.9-4.3 3.8-.7 7.8-.7 11.6-.1l.6.1.6-.3c5.5-3.2 11.5-5.7 17.6-7.9 6.1-2.1 12.4-3.8 18.7-5.1 6.4-1.2 12.8-2 19.3-2.3 6.5-.4 13-.1 19.4.6 3.2.3 6.4.9 9.6 1.3 3.2.7 6.4 1.2 9.5 2.1 3.2.7 6.2 1.8 9.4 2.7 1.5.5 3.1 1.1 4.6 1.7s3.1 1.1 4.6 1.8l4.5 1.9c1.5.6 2.9 1.4 4.4 2.1s3 1.4 4.4 2.2l4.3 2.4 2.1 1.2 2.1 1.3 4.2 2.6c2.7 1.8 5.4 3.7 8.2 5.5-2.5-2.1-5.1-4.2-7.7-6.2" class="st7"/><path d="M726.6 15.1c-1.9.2-3.5.7-5.2 1.2-1.6.6-3.2 1.2-4.8 2-1.6.7-3 1.7-4.5 2.6s-2.8 2-4.1 3c-5.3 4.3-9.5 9.7-13 15.5-3.6 5.7-6 12-8.2 18.3-.9 3.2-1.8 6.4-2.5 9.6-.6 3.3-1.2 6.5-1.7 9.8 1-3.2 1.9-6.3 2.9-9.5 1.1-3.1 2.3-6.2 3.3-9.2l2-4.5c.7-1.5 1.2-3 2-4.4l2.3-4.3.6-1.1.7-1 1.3-2c3.5-5.4 7.6-10.4 12.5-14.4l1.9-1.4c.6-.5 1.2-1 1.9-1.4 1.3-.8 2.7-1.7 4.1-2.4 1.4-.8 2.8-1.3 4.3-1.9.4-.1.7-.2 1.1-.4-1.1 2.3-2.3 4.5-3.6 6.7-1.9 3.2-4 6.3-6.2 9.4-2.2 3.1-4.6 6-7 8.8-2.5 2.8-5.1 5.6-7.9 8.2 3.1-2.2 6.1-4.6 8.9-7.2 2.8-2.6 5.4-5.4 7.9-8.4 2.5-2.9 4.8-6 6.9-9.2 2.2-3.2 4-6.6 5.7-10l1.4-2.8-3 .4z" class="st9"/><path d="M796.4 191.1c-.2 2.1-2 3.7-4.2 3.6-2.1-.2-3.7-2-3.6-4.2.2-2.1 2-3.7 4.2-3.6s3.8 2.1 3.6 4.2M772.8 197.9c-.2 2.2-2.1 3.9-4.3 3.7s-3.9-2.1-3.7-4.3 2.1-3.9 4.3-3.7c2.2.2 3.9 2.1 3.7 4.3M791.3 159.5c-.2 2.2-2.1 3.9-4.3 3.7s-3.9-2.1-3.7-4.3 2.1-3.9 4.3-3.7 3.9 2.1 3.7 4.3M804.6 172.1c-.2 2.2-2.1 3.9-4.3 3.7s-3.9-2.1-3.7-4.3 2.1-3.9 4.3-3.7c2.2.1 3.9 2.1 3.7 4.3M776.6 169.4c-.1 1.4-1.4 2.5-2.8 2.4-1.4-.1-2.5-1.4-2.4-2.8.1-1.4 1.4-2.5 2.8-2.4 1.4.1 2.5 1.4 2.4 2.8M810.3 208.6c-.1 1.4-1.4 2.5-2.8 2.4-1.4-.1-2.5-1.4-2.4-2.8.1-1.4 1.4-2.5 2.8-2.4 1.4.1 2.5 1.4 2.4 2.8M792.7 211.1c-.2 2.2-2.1 3.9-4.3 3.7s-3.9-2.1-3.7-4.3 2.1-3.9 4.3-3.7 3.9 2.1 3.7 4.3M753.3 199.4c-.1 1.4-1.4 2.5-2.8 2.4-1.4-.1-2.5-1.4-2.4-2.8.1-1.4 1.4-2.5 2.8-2.4 1.5.1 2.5 1.4 2.4 2.8M820.6 202.8c-.1 1.4-1.4 2.5-2.8 2.4-1.4-.1-2.5-1.4-2.4-2.8.1-1.4 1.4-2.5 2.8-2.4 1.4.1 2.5 1.4 2.4 2.8M776.3 182.8c-.1 1-.9 1.7-1.9 1.6-1-.1-1.7-.9-1.6-1.9.1-1 .9-1.7 1.9-1.6.9.1 1.7 1 1.6 1.9M785.9 174.6c-.1 1-.9 1.7-1.9 1.6-1-.1-1.7-.9-1.6-1.9.1-1 .9-1.7 1.9-1.6.9.1 1.7.9 1.6 1.9" class="st10"/><path d="M674.4 126.9h4.5l.1-1.6h-1.3l-3.4.1c-.3 0-.6 0-1 .1s-.8.3-1 .6c-.6.6-.7 1.3-.8 1.9l-.1 9.7V144.9c0 .4-.1.8.2 1.3.3.4 1.4.6 1.4.6-.4-.1-1-.4-1.2-.7s-.1-.7 0-1.1l.2-2.4.3-4.8.6-9.6c.1-.5.2-.9.5-1.1.1-.1.5-.2 1-.2M776.7 137.4c-.4-.4-1-.9-1.5-1.2-1-.6-2-1.1-3.1-1.5-2.1-.9-4.3-1.5-6.5-2.1-4.4-1.1-8.9-2-13.3-2.7-9-1.5-18-2.4-27-3.3-9-.8-18.1-1.4-27.2-1.4h-13.6l-5.5.1-.1 1.6h19.2c9-.2 18.1.2 27.1.8 9 .7 18 1.6 27 2.8 4.5.6 8.9 1.4 13.3 2.4 2.2.5 4.4 1.1 6.5 1.9 1.1.4 2.1.9 3 1.4.9.6 2 1.3 2.2 2.3 0 .3-.1-.7-.5-1.1" class="st11"/><path d="M904.3 145.8c0-2.3-1.4-2.2-2.6-2.5-.3 0-1.8-.3-3.9-.6h.1c-7.7-1.2-22.4-3.5-22.4-3.5l-.4-.1c-7.5-1.1-17-2.1-28.1-2.7-29.7-1.7-46.8-.4-48.2 4 0 0-1.7 4.2-4.8 4.3-1.1 0-8.7-.5-6.4-.3 2.4.2-5.3-.5-6.3-.6-3-.5-4.1-4.9-4.1-4.9-.7-4.6-17.4-8.4-47-11.2-11.1-1-20.7-1.5-28.2-1.6h-.4s-26.2.1-26.5.1c-1.2 0-2.6-.2-2.9 2-.3 2.2-.7 16.5-.7 17.5s.6 1.1 2.1 1.4c1.5.3 7.3-.1 7.9 2.6.9 51.1 24.5 48.5 37.9 49.5 17.3 1.3 40.6-3.7 49.1-18.4 1.6-2.8 3.4-7.7 5-13.2.1-.1.2-.2.3-.5 2-6.3 8.4-8 10-8.2.9-.1 2-.2 2.9-.2.8.1 1.9.3 2.8.6 1.5.5 7.7 3.2 8.7 9.7 0 .2.1.4.2.5.7 5.7 1.7 10.8 2.9 13.8 6.2 15.8 28.5 24.3 45.8 25.6 13.4 1 36.3 7.1 44.9-43.2 1.1-2.5 6.7-1.3 8.2-1.3 1.5-.1 2.1 0 2.2-1.1.1-1.1 1.9-15.2 1.9-17.5" style="fill:#1c1c1c"/><path d="M800 142.4c-1.6 2.2-4.1 4.8-7.2 4.4-1.1 0-4.1-.2-5.3-.2-1.1-.1-4.1-.5-5.2-.6-3.1 0-5.2-2.9-6.5-5.4 1.2 1.9 2.7 3.9 4.9 4.7 2.2.4 4.6.5 6.9.8 2.3.1 4.7.3 6.9.3 2.2-.6 4-2.4 5.5-4M902.3 144.2l-3.4-.5-1.1-.2.1-1.6 1.3.2 3.3.6c.3.1.6.1 1 .3.3.1.7.4.9.7.5.7.5 1.4.5 2l-1.3 9.6-.7 4.8-.4 2.4c-.1.4-.1.8-.4 1.2-.3.4-1.5.4-1.5.4.4 0 1.1-.3 1.3-.5.2-.3.2-.7.2-1.1l.2-2.4.4-4.8.8-9.6c0-.5-.1-.9-.3-1.2 0-.1-.4-.3-.9-.3M799.6 139.1c.5-.4 1.1-.7 1.6-.9 1-.5 2.1-.8 3.2-1.1 2.2-.5 4.5-.8 6.7-1.1 4.5-.5 9.1-.6 13.6-.7 9.1-.1 18.1.3 27.2.8 9 .6 18.1 1.3 27.1 2.7 4.5.7 9 1.4 13.4 2.1l5.4.9-.1 1.6-5.6-.8c-4.5-.7-8.9-1.3-13.4-2.1-8.9-1.6-17.9-2.5-26.9-3.2s-18.1-1.1-27.1-1.3c-4.5 0-9 0-13.5.4-2.2.2-4.5.4-6.7.9-1.1.2-2.2.5-3.2 1-1 .4-2.1.9-2.5 2 .1.1.4-.8.8-1.2" class="st11"/><path d="M760.8 137.6c4 .9 9.1 2.5 9.2 8.7.2 6.2-3.6 24.2-7 30.8-3.5 6.6-17 16-37.4 15.9-20.4 0-27.7-3.8-33-15.4-4.5-9.7-4.3-40.1-4-41.6s.4-3.1 6.2-3.4c5.8-.3 34.3-2.1 66 5" class="st13"/><path d="M728.3 133.8c-11-.8-30.9-.3-33.3.1-1.8.3-4.6 1-4.8 4-.1 1.2.5 32.2 4.9 41.6 4.6 9.9 11.5 11.9 30.3 13 20.8 1.2 33.7-8.9 36.9-15 3.4-6.4 7.2-24.2 7-30.6-.2-5.6-4.4-7.3-8.9-8.3-10.2-2.4-21-4-32.1-4.8m-11.2 59.8c-14.1-1.1-20.4-5.2-25.1-15.4-4.4-9.6-4.4-40.1-4-41.8v-.2c.4-1.9 1.1-3.3 6.6-3.6h.2c22.6-1.3 45.4.4 65.9 5 4.6 1 9.4 2.9 9.6 9.1.2 6.4-3.6 24.5-7.1 31-3.3 6.3-16.5 16.2-37.8 16.1-3.1.1-5.8 0-8.3-.2" class="st11"/><path d="M697.5 152.5s-1.4-11.3-.3-12.9c.8-1.3 11.7-2.4 39.9-1.4l-16 4.8s-2.6-2-6.1-1.5c-3.4.5-7.6 1.1-6.8 3.5s1.6 2.6-1 3.9c-2.4 1.2-9.7 3.6-9.7 3.6" class="st11"/><path d="m762.7 148.7-57 30.8s-1.2 5.8 9.2 6.6 33.9-.5 40.7-10.1c6.9-9.6 7.1-27.3 7.1-27.3" class="st14"/><path d="M815.9 141.8c-4.1.3-9.3 1.1-10.5 7.2-1.1 6.1-.1 24.5 2.3 31.5 2.5 7 14.4 18.3 34.6 21.4 20.2 3 27.9.4 35-10.3 5.9-8.9 10.3-39 10.2-40.5s0-3.1-5.6-4.3c-5.7-1.2-33.6-7.3-66-5" class="st13"/><path d="M816.1 142.7c-4.6.3-9 1.4-10.1 6.9-1.2 6.2-.1 24.4 2.3 31.3 2.3 6.5 13.4 18.4 34.2 20.4 18.7 1.8 25.8.8 31.9-8.3 5.8-8.6 11.1-39.2 11.1-40.4.2-3-2.4-4.1-4.1-4.7-2.3-.7-21.9-4.2-32.9-5.1-11-.8-21.9-.9-32.4-.1m26.4 60.1c-21-3.1-32.6-14.9-34.9-21.6-2.4-7-3.5-25.4-2.3-31.7 1.1-6.1 6.1-7.3 10.8-7.6 21-1.5 43.7.2 65.9 5h.2c5.3 1.1 5.9 2.7 6 4.6v.2c.1 1.8-4.4 32-10.2 40.8-6.2 9.3-13.1 12.5-27.1 11.4-2.7-.4-5.4-.7-8.4-1.1" class="st11"/><path d="m876.9 157.3-53.2 29.8s6.2 3.6 14.1 5.3c11.3 2.5 25.5 2.8 29.3-2.9 6-8.5 9.8-32.2 9.8-32.2" class="st14"/><path d="M812.1 163.5s-1.1-9.9.6-12.7c1.7-2.8 21.7-3.5 34-2.5l-18.5 6.3s1.2 3.6-1.1 5.3c-2.2 1.7-15 3.6-15 3.6" class="st11"/><path d="m730.5 340.2-3.4-20.6-1.4-1.8S667 333.7 662 335.7c0 0 4.5 2.9 8.2 22.5l60.3-18z" style="fill:#4a2b63"/><path d="m424.382 560.018 44.934-594.63 530.91 40.119-44.935 594.63z" class="st16"/><path d="M720.5 422.4h93.6v3.2h-93.6z" style="fill:#331747" transform="matrix(.07535 -.9972 .9972 .07535 286.704 1157.231)"/><path d="M662.6 332.6c.6-25.2-10.3-48.1-27.9-63.5-6.8-7.8-16.4-13.7-29.8-16.7-7.1-2.2-14.6-3.5-22.5-3.7-16-.4-31 3.9-43.8 11.5-15.4 8.5-26.5 21.5-32.8 36.5-4.5 9.8-7.1 20.7-7.4 32.2-.7 29.6 5.5 56 31.9 73 0 0 2.4 1.7 2.5 3.2 0 .2.1.3.2.4 13.5 40.1 47.6 21.8 47.6 21.8s38.6 24.3 50.4-25.1l2.7-1.8c24.2-16.4 28.3-40.3 28.9-67.8" style="fill:#e0ba82"/><path d="M556.4 362.8c-.2 10.1-8.7 18.1-18.9 17.9s-18.3-8.6-18.1-18.7 8.7-18.1 18.9-17.9c10.2.2 18.3 8.6 18.1 18.7" class="st19"/><path d="M551.6 362.7c-.2 7-6 12.6-13.1 12.5-7.1-.2-12.6-6-12.5-13.1.2-7 6-12.6 13.1-12.5 7.1.2 12.7 6 12.5 13.1" class="st5"/><path d="M533.6 355.6c0 2-1.7 3.7-3.8 3.6-2 0-3.7-1.8-3.6-3.8 0-2 1.7-3.6 3.8-3.6 2.1.1 3.7 1.8 3.6 3.8" class="st6"/><path d="M609.4 364.7c-.2 10.1-8.7 18.1-18.9 17.9s-18.3-8.6-18.1-18.7 8.7-18.1 18.9-17.9c10.2.2 18.3 8.6 18.1 18.7" class="st19"/><path d="M604.6 364.6c-.2 7-6 12.6-13.1 12.5-7.1-.2-12.6-6-12.5-13.1.2-7 6-12.6 13.1-12.5 7.1.2 12.7 6 12.5 13.1" class="st5"/><path d="M586.6 357.5c0 2-1.7 3.7-3.8 3.6-2 0-3.7-1.8-3.6-3.8 0-2 1.7-3.6 3.8-3.6 2.1.1 3.7 1.8 3.6 3.8" class="st6"/><path d="M537 402.9c-2.6-2.6.3-6.1 5-6l17.3.4c4.7.1 7.4 3.7 4.7 6.2 0 0-3.2 1.9-5.6 4-3 2.8-6.5 6-8.1 5.9-1.7-.1-5.3-3.6-8.2-6.5-2.1-2.1-5.1-4-5.1-4" class="st19"/><path d="M512.3 275.5c-7.6 1.3-18.8 21.5-31.2 24.2-20 4.4 7.3 62.5 14 68.2s24.3-35.4 27.3-56.9c3-21.4-2.5-36.7-10.1-35.5" class="st20"/><path d="M512.3 275.5c-2.4.4-5.2 2.8-8.3 5.9 0 0 7.4-1.1 9.2 2 1.8 3.1 2.6 27.1-3.4 44.9-5.9 17.7-14.3 32.1-16.3 33.3-.5.3-1.4.4-2.6.4 1.7 2.9 3.2 5 4.3 5.9 6.7 5.7 24.3-35.4 27.3-56.9 2.9-21.4-2.6-36.7-10.2-35.5" class="st21"/><path d="M619.1 278.7c7.5 1.6 17.8 22.3 30 25.6 19.8 5.3-10.2 62.1-17.1 67.5-6.9 5.4-22.7-36.5-24.7-58.1s4.3-36.6 11.8-35" class="st20"/><path d="M649.1 304.2c-12.3-3.3-22.6-24-30-25.6-4.4-.9-8.4 3.9-10.5 12.4.3-.2 5.2-5.3 10.5-3.7 4 1.2 18.8 19.5 24.2 21.5 5.3 2 13.1 7.8 11.6 14.5 1.9-9.5.9-17.3-5.8-19.1" class="st21"/><defs><path id="SVGID_1_" d="M851.9-16.9 630.7-36.3c-21.5-1.9-42.5 7.9-52.6 25.9L450.8 171.8c-14.7 17.6-16.7 40.6-5.3 60.5l93.8 201.5c6.8 19.4 25.7 32.7 47.3 34.6l221.1 19.3c21.5 1.9 42.5-7.9 54.9-25.7L990 279.9c12.4-17.8 14.4-40.8 5.3-60.5L901.5 17.9c-9.1-19.7-28-33-49.6-34.8z"/></defs><clipPath id="SVGID_00000106850491391011347310000001132105866184461988_"><use xlink:href="#SVGID_1_" style="overflow:visible"/></clipPath><path d="m622.5 523.1 44-85.3s-4.8 60.8-5 99.3l186.9 11.3c5.6-38.1 15.1-95.7 15.1-95.7l30.7 86.9 64.5 13.1c-29.3-66.9-72.3-198.2-75.6-200.2-4.6-2.7-60.2-27.3-60.2-27.3l-52.1 52.3-45-59.6s-58.7 15.9-63.7 17.9c-3.6 1.5-26.7 60.6-65.7 122.3l26.1 65z" style="clip-path:url(#SVGID_00000106850491391011347310000001132105866184461988_);fill:#401f59"/><path d="m424.382 560.018 44.934-594.63 530.91 40.119-44.935 594.63z" class="st16"/><defs><path id="SVGID_00000016070005021098897010000011130732854750622107_" d="M851.9-16.9 630.7-36.3c-21.5-1.9-42.5 7.9-52.6 25.9L450.8 171.8c-14.7 17.6-16.7 40.6-5.3 60.5l93.8 201.5c6.8 19.4 25.7 32.7 47.3 34.6l221.1 19.3c21.5 1.9 42.5-7.9 54.9-25.7L990 279.9c12.4-17.8 14.4-40.8 5.3-60.5L901.5 17.9c-9.1-19.7-28-33-49.6-34.8z"/></defs><clipPath id="SVGID_00000180368791748917283180000009175961662378294695_"><use xlink:href="#SVGID_00000016070005021098897010000011130732854750622107_" style="overflow:visible"/></clipPath><g style="clip-path:url(#SVGID_00000180368791748917283180000009175961662378294695_)"><defs><path id="SVGID_00000178892572306545554400000002777079742420975291_" d="M414.1 16.6h596.3V549H414.1z" transform="matrix(.07535 -.9972 .9972 .07535 376.624 971.708)"/></defs><clipPath id="SVGID_00000062891240342269323270000016838815686100062640_"><use xlink:href="#SVGID_00000178892572306545554400000002777079742420975291_" style="overflow:visible"/></clipPath><path d="m820.9 341.5 56.1 21.8 68.3 186.9 11.3-4.6c-29.3-66.9-70.1-191.2-73.4-193.2-3.3-2-32.5-15-49-22.3l-13.3 11.4z" style="clip-path:url(#SVGID_00000062891240342269323270000016838815686100062640_);fill:#4a2b63"/><defs><path id="SVGID_00000150068805059981772410000003190330602168351663_" d="M414.1 16.6h596.3V549H414.1z" transform="matrix(.07535 -.9972 .9972 .07535 376.624 971.708)"/></defs><clipPath id="SVGID_00000070798621030964087630000008104558975825692297_"><use xlink:href="#SVGID_00000150068805059981772410000003190330602168351663_" style="overflow:visible"/></clipPath><path d="M819.4 305.1c.3 20.4-48.5 72.3-48.5 72.3l20.5 33.3s42.9-66.3 44-80l-16-25.6z" style="clip-path:url(#SVGID_00000070798621030964087630000008104558975825692297_);fill:#54366b"/><defs><path id="SVGID_00000116920760943352807500000005003607927500435383_" d="M414.1 16.6h596.3V549H414.1z" transform="matrix(.07535 -.9972 .9972 .07535 376.624 971.708)"/></defs><clipPath id="SVGID_00000058565029467403966390000009764272051010937778_"><use xlink:href="#SVGID_00000116920760943352807500000005003607927500435383_" style="overflow:visible"/></clipPath><path d="M733.7 298.6c-3.3 20.1 37.1 78.8 37.1 78.8l-25.3 29.8s-32.5-72-31.5-85.7l19.7-22.9z" style="clip-path:url(#SVGID_00000058565029467403966390000009764272051010937778_);fill:#54366b"/><defs><path id="SVGID_00000115499907871652704170000017158449233390923197_" d="M414.1 16.6h596.3V549H414.1z" transform="matrix(.07535 -.9972 .9972 .07535 376.624 971.708)"/></defs><clipPath id="SVGID_00000155114588784118640640000002460707989509596846_"><use xlink:href="#SVGID_00000115499907871652704170000017158449233390923197_" style="overflow:visible"/></clipPath><path d="m836.9 535.2 14.5 1.1c5.6-38.1 11.8-83.7 11.8-83.7l-8.3-18.5-18 101.1z" style="clip-path:url(#SVGID_00000155114588784118640640000002460707989509596846_);fill:#331747"/><defs><path id="SVGID_00000085224203150486301760000010814748458537587644_" d="M414.1 16.6h596.3V549H414.1z" transform="matrix(.07535 -.9972 .9972 .07535 376.624 971.708)"/></defs><clipPath id="SVGID_00000064314814691495114330000007420490164891687576_"><use xlink:href="#SVGID_00000085224203150486301760000010814748458537587644_" style="overflow:visible"/></clipPath><path d="m733.7 298.6-19.6 22.9c-.2 2.4.7 6.7 2.3 12.1l18.8-22.6c-1.4-4.8-2-9.1-1.5-12.4" style="clip-path:url(#SVGID_00000064314814691495114330000007420490164891687576_);fill:#5c4073"/><defs><path id="SVGID_00000147189859656032013570000005746313229414387079_" d="M414.1 16.6h596.3V549H414.1z" transform="matrix(.07535 -.9972 .9972 .07535 376.624 971.708)"/></defs><clipPath id="SVGID_00000181074934777658909560000012454570791129700019_"><use xlink:href="#SVGID_00000147189859656032013570000005746313229414387079_" style="overflow:visible"/></clipPath><path d="M833.3 337.6c1.2-2.9 1.9-5.3 2-6.9l-15.9-25.6c0 2-.4 4.3-1.3 6.9l15.2 25.6z" style="clip-path:url(#SVGID_00000181074934777658909560000012454570791129700019_);fill:#5c4073"/><defs><path id="SVGID_00000176014581404568138300000013380088380303810994_" d="M414.1 16.6h596.3V549H414.1z" transform="matrix(.07535 -.9972 .9972 .07535 376.624 971.708)"/></defs><clipPath id="SVGID_00000182528032583754924400000012963985941776627347_"><use xlink:href="#SVGID_00000176014581404568138300000013380088380303810994_" style="overflow:visible"/></clipPath><path d="m635 461-12.5 62.1 43.7-85.4c.1-9 .8-24.9.8-24.9L635 461z" style="clip-path:url(#SVGID_00000182528032583754924400000012963985941776627347_);fill:#331747"/><defs><path id="SVGID_00000171702217672519290310000003370319254178037165_" d="M414.1 16.6h596.3V549H414.1z" transform="matrix(.07535 -.9972 .9972 .07535 376.624 971.708)"/></defs><clipPath id="SVGID_00000151507592570366926880000014500084172309982607_"><use xlink:href="#SVGID_00000171702217672519290310000003370319254178037165_" style="overflow:visible"/></clipPath><path d="M783.2 413.8c-.2 2-1.9 3.6-4 3.4-2-.2-3.6-1.9-3.4-4 .2-2 1.9-3.6 4-3.4 2.1.2 3.6 1.9 3.4 4" style="clip-path:url(#SVGID_00000151507592570366926880000014500084172309982607_);fill:#331747"/><defs><path id="SVGID_00000173879245191059320450000013810012616915946649_" d="M414.1 16.6h596.3V549H414.1z" transform="matrix(.07535 -.9972 .9972 .07535 376.624 971.708)"/></defs><clipPath id="SVGID_00000064317602190679089780000006428868500334167179_"><use xlink:href="#SVGID_00000173879245191059320450000013810012616915946649_" style="overflow:visible"/></clipPath><path d="M781.3 440.1c-.2 2-1.9 3.6-4 3.4-2-.2-3.6-1.9-3.4-4 .2-2 1.9-3.6 4-3.4 2 .2 3.5 2 3.4 4" style="clip-path:url(#SVGID_00000064317602190679089780000006428868500334167179_);fill:#331747"/><defs><path id="SVGID_00000087372665195264129450000015770254622908191375_" d="M414.1 16.6h596.3V549H414.1z" transform="matrix(.07535 -.9972 .9972 .07535 376.624 971.708)"/></defs><clipPath id="SVGID_00000128474046272728201030000010674802359047354277_"><use xlink:href="#SVGID_00000087372665195264129450000015770254622908191375_" style="overflow:visible"/></clipPath><path d="M779.3 466.4c-.2 2-1.9 3.6-4 3.4-2-.2-3.6-1.9-3.4-4 .2-2 1.9-3.6 4-3.4 2 .2 3.5 2 3.4 4" style="clip-path:url(#SVGID_00000128474046272728201030000010674802359047354277_);fill:#331747"/><defs><path id="SVGID_00000047769312209440613440000012770932960869020835_" d="M414.1 16.6h596.3V549H414.1z" transform="matrix(.07535 -.9972 .9972 .07535 376.624 971.708)"/></defs><clipPath id="SVGID_00000142892713306080630430000010981485495259996584_"><use xlink:href="#SVGID_00000047769312209440613440000012770932960869020835_" style="overflow:visible"/></clipPath><path d="m867 591.4 15.4 3.3 70.5-334.3c.7-3.2-1.3-6.4-4.5-7.2-3.4-.9-6.8 1.2-7.5 4.6L867 591.4z" style="clip-path:url(#SVGID_00000142892713306080630430000010981485495259996584_);fill:#f2ebe3"/><defs><path id="SVGID_00000128465243110518043260000007110840133114411930_" d="M414.1 16.6h596.3V549H414.1z" transform="matrix(.07535 -.9972 .9972 .07535 376.624 971.708)"/></defs><clipPath id="SVGID_00000102510789607281249980000011208165453894916523_"><use xlink:href="#SVGID_00000128465243110518043260000007110840133114411930_" style="overflow:visible"/></clipPath><path d="m952.9 260.4-58.7 278.7-6.6-2 63.1-282.9c1.8 1.5 2.7 3.8 2.2 6.2" style="clip-path:url(#SVGID_00000102510789607281249980000011208165453894916523_);fill:#ebe0d9"/><defs><path id="SVGID_00000122704926555472330590000008733465250472763797_" d="M414.1 16.6h596.3V549H414.1z" transform="matrix(.07535 -.9972 .9972 .07535 376.624 971.708)"/></defs><clipPath id="SVGID_00000135675573652288712140000001694202946071327618_"><use xlink:href="#SVGID_00000122704926555472330590000008733465250472763797_" style="overflow:visible"/></clipPath><path d="M941 257.6c.8-3.3 4.2-5.3 7.5-4.4 3.2.8 5.1 4 4.5 7.2l-.1.6h-2.1c-3.9-.3-7.2-1.5-9.8-3.4" style="clip-path:url(#SVGID_00000135675573652288712140000001694202946071327618_);fill:#00404d"/><defs><path id="SVGID_00000035497029304586390180000016403197361089206947_" d="M414.1 16.6h596.3V549H414.1z" transform="matrix(.07535 -.9972 .9972 .07535 376.624 971.708)"/></defs><clipPath id="SVGID_00000128463161430408037290000009834317357203782814_"><use xlink:href="#SVGID_00000035497029304586390180000016403197361089206947_" style="overflow:visible"/></clipPath><path d="M950.7 254.3c1.8 1.4 2.8 3.7 2.3 6.1l-.1.6h-2.1c-.5 0-1-.1-1.5-.2l1.4-6.5z" style="clip-path:url(#SVGID_00000128463161430408037290000009834317357203782814_);fill:#002e3d"/><defs><path id="SVGID_00000120523013079668564520000009382334257255025029_" d="M414.1 16.6h596.3V549H414.1z" transform="matrix(.07535 -.9972 .9972 .07535 376.624 971.708)"/></defs><clipPath id="SVGID_00000141430879150014757320000010764068848506399901_"><use xlink:href="#SVGID_00000120523013079668564520000009382334257255025029_" style="overflow:visible"/></clipPath><path d="M919.5 354.5c7.1 5.5 13 2.6 13 2.6L909.1 468c-8.8 2-14.1-3.2-14.1-3.2l24.5-110.3z" style="clip-path:url(#SVGID_00000141430879150014757320000010764068848506399901_);fill:#bf0d0d"/><defs><path id="SVGID_00000101788142615344166900000000501337194389432492_" d="M414.1 16.6h596.3V549H414.1z" transform="matrix(.07535 -.9972 .9972 .07535 376.624 971.708)"/></defs><clipPath id="SVGID_00000138530901122121616150000015516535501598896043_"><use xlink:href="#SVGID_00000101788142615344166900000000501337194389432492_" style="overflow:visible"/></clipPath><path d="M927.6 357.9c3 .2 4.9-.7 5-.7L909.2 468c-2.3.5-4.4.6-6.2.3l24.6-110.4z" style="clip-path:url(#SVGID_00000138530901122121616150000015516535501598896043_);fill:#ab1714"/><defs><path id="SVGID_00000106116642400805037860000005008334115299674277_" d="M414.1 16.6h596.3V549H414.1z" transform="matrix(.07535 -.9972 .9972 .07535 376.624 971.708)"/></defs><clipPath id="SVGID_00000008865885508755048590000002736883813912728489_"><use xlink:href="#SVGID_00000106116642400805037860000005008334115299674277_" style="overflow:visible"/></clipPath><path d="m484.9 420.7-1.4-9.4s-.3-1.3 7.8-2c8.2-.6 115.8-1.2 119.9 9.6 4.1 10.8-46.9 20-46.9 20l-67-10.1-12.4-8.1z" style="clip-path:url(#SVGID_00000008865885508755048590000002736883813912728489_);fill:#001a24"/><defs><path id="SVGID_00000008867566410696796750000005865797148573178758_" d="M414.1 16.6h596.3V549H414.1z" transform="matrix(.07535 -.9972 .9972 .07535 376.624 971.708)"/></defs><clipPath id="SVGID_00000124855852991964725640000018092216805843757454_"><use xlink:href="#SVGID_00000008867566410696796750000005865797148573178758_" style="overflow:visible"/></clipPath><path d="M652.1 519.8c-9.5-17.9-11.3-153.9-11.3-153.9l-56.9-31.6.3-5.2-5.1 2.6-5-2.8.1 5.2-58.3 29s1.8 33.4-.7 59.5c-1.1 11.1-2.9 20.9-6 26.1-10.3 17.5-17.5 64.7-17.5 64.7s169.9 24.4 160.4 6.4" style="clip-path:url(#SVGID_00000124855852991964725640000018092216805843757454_);fill:#cfa370"/><defs><path id="SVGID_00000070824996521458037350000006655450250888412055_" d="M414.1 16.6h596.3V549H414.1z" transform="matrix(.07535 -.9972 .9972 .07535 376.624 971.708)"/></defs><clipPath id="SVGID_00000111881683842761438500000007989592474193791880_"><use xlink:href="#SVGID_00000070824996521458037350000006655450250888412055_" style="overflow:visible"/></clipPath><path d="M591.6 426s34 .5 37.9 18.5c.9 4.1 21.7 80.2 23 84.7 9.6-4.1-4-80.6-7.1-86.4-4.9-9.3-5.5-32.1-4.9-51.9l-29.1-1.2-19.8 36.3z" style="clip-path:url(#SVGID_00000111881683842761438500000007989592474193791880_);fill:#c29466"/><defs><path id="SVGID_00000141419340204684712780000008963356631187796144_" d="M414.1 16.6h596.3V549H414.1z" transform="matrix(.07535 -.9972 .9972 .07535 376.624 971.708)"/></defs><clipPath id="SVGID_00000134934074632797432480000011927305267610820011_"><use xlink:href="#SVGID_00000141419340204684712780000008963356631187796144_" style="overflow:visible"/></clipPath><path d="M514.3 411.3s-1 9.6-2.4 15.6c6.4 12 40.5 23.9 66.7 23.1 26.2-.8 47.8-5.9 66.4-17.8-.1-.2-2.5-9.9-3-13.3-5.3 7.5-33.2 18.7-63.4 18.8-44.9.2-63.7-22.7-64.3-26.4z" style="clip-path:url(#SVGID_00000134934074632797432480000011927305267610820011_);fill:#002e3d"/><defs><path id="SVGID_00000167384333513672385020000009135998573743314836_" d="M414.1 16.6h596.3V549H414.1z" transform="matrix(.07535 -.9972 .9972 .07535 376.624 971.708)"/></defs><clipPath id="SVGID_00000057147941753284226990000001223474334824316074_"><use xlink:href="#SVGID_00000167384333513672385020000009135998573743314836_" style="overflow:visible"/></clipPath><path d="M567.6 421.4s-.9 26.4 11.4 26.7c12.3.3 12.8-26.1 12.8-26.1l-24.2-.6z" style="clip-path:url(#SVGID_00000057147941753284226990000001223474334824316074_);fill:#d98f99"/><defs><path id="SVGID_00000085966754105237884720000004128183270025980339_" d="M414.1 16.6h596.3V549H414.1z" transform="matrix(.07535 -.9972 .9972 .07535 376.624 971.708)"/></defs><clipPath id="SVGID_00000130638428910603641900000012379759178060759427_"><use xlink:href="#SVGID_00000085966754105237884720000004128183270025980339_" style="overflow:visible"/></clipPath><path d="M662.6 332.6c.6-25.2-10.3-48.1-27.9-63.5-6.8-7.8-16.4-13.7-29.8-16.7-7.1-2.2-14.6-3.5-22.5-3.7-16-.4-31 3.9-43.8 11.5-15.4 8.5-26.5 21.5-32.8 36.5-4.5 9.8-7.1 20.7-7.4 32.2-.7 29.6 5.5 56 31.9 73 0 0 2.4 1.7 2.5 3.2 0 .2.1.3.2.4 13.5 40.1 47.6 21.8 47.6 21.8s38.6 24.3 50.4-25.1l2.7-1.8c24.2-16.4 28.3-40.3 28.9-67.8" style="clip-path:url(#SVGID_00000130638428910603641900000012379759178060759427_);fill:#e0ba82"/><defs><path id="SVGID_00000163779884952665377280000001114775700763948698_" d="M414.1 16.6h596.3V549H414.1z" transform="matrix(.07535 -.9972 .9972 .07535 376.624 971.708)"/></defs><clipPath id="SVGID_00000018924324294002427700000006138682208627077770_"><use xlink:href="#SVGID_00000163779884952665377280000001114775700763948698_" style="overflow:visible"/></clipPath><path d="M556.4 362.8c-.2 10.1-8.7 18.1-18.9 17.9s-18.3-8.6-18.1-18.7 8.7-18.1 18.9-17.9c10.2.2 18.3 8.6 18.1 18.7" style="clip-path:url(#SVGID_00000018924324294002427700000006138682208627077770_);fill:#997040"/><defs><path id="SVGID_00000140702423781120877370000016426677786936604815_" d="M414.1 16.6h596.3V549H414.1z" transform="matrix(.07535 -.9972 .9972 .07535 376.624 971.708)"/></defs><clipPath id="SVGID_00000108283172359805499780000010665843473114734003_"><use xlink:href="#SVGID_00000140702423781120877370000016426677786936604815_" style="overflow:visible"/></clipPath><path d="M551.6 362.7c-.2 7-6 12.6-13.1 12.5-7.1-.2-12.6-6-12.5-13.1.2-7 6-12.6 13.1-12.5 7.1.2 12.7 6 12.5 13.1" style="clip-path:url(#SVGID_00000108283172359805499780000010665843473114734003_);fill:#291c00"/><defs><path id="SVGID_00000004526076132757363880000017025210621958607517_" d="M414.1 16.6h596.3V549H414.1z" transform="matrix(.07535 -.9972 .9972 .07535 376.624 971.708)"/></defs><clipPath id="SVGID_00000029752821663254706850000001879002530734943385_"><use xlink:href="#SVGID_00000004526076132757363880000017025210621958607517_" style="overflow:visible"/></clipPath><path d="M533.6 355.6c0 2-1.7 3.7-3.8 3.6-2 0-3.7-1.8-3.6-3.8 0-2 1.7-3.6 3.8-3.6 2.1.1 3.7 1.8 3.6 3.8" style="clip-path:url(#SVGID_00000029752821663254706850000001879002530734943385_);fill:#fff"/><defs><path id="SVGID_00000114043230797792277910000010047910158663423655_" d="M414.1 16.6h596.3V549H414.1z" transform="matrix(.07535 -.9972 .9972 .07535 376.624 971.708)"/></defs><clipPath id="SVGID_00000025404768118171884210000012875015304095581590_"><use xlink:href="#SVGID_00000114043230797792277910000010047910158663423655_" style="overflow:visible"/></clipPath><path d="M640.2 364.7c-.2 10.1-8.7 18.1-18.9 17.9s-18.3-8.6-18.1-18.7 8.7-18.1 18.9-17.9c10.2.2 18.3 8.6 18.1 18.7" style="clip-path:url(#SVGID_00000025404768118171884210000012875015304095581590_);fill:#997040"/><defs><path id="SVGID_00000066483375594896096970000000615016414073958324_" d="M414.1 16.6h596.3V549H414.1z" transform="matrix(.07535 -.9972 .9972 .07535 376.624 971.708)"/></defs><clipPath id="SVGID_00000145045245888285663510000015531590931503740572_"><use xlink:href="#SVGID_00000066483375594896096970000000615016414073958324_" style="overflow:visible"/></clipPath><path d="M635.5 364.6c-.2 7-6 12.6-13.1 12.5-7.1-.2-12.6-6-12.5-13.1.2-7 6-12.6 13.1-12.5 7 .2 12.6 6 12.5 13.1" style="clip-path:url(#SVGID_00000145045245888285663510000015531590931503740572_);fill:#291c00"/><defs><path id="SVGID_00000153706226964506317870000015492465137018274999_" d="M414.1 16.6h596.3V549H414.1z" transform="matrix(.07535 -.9972 .9972 .07535 376.624 971.708)"/></defs><clipPath id="SVGID_00000073708577870377182880000004263698686739339139_"><use xlink:href="#SVGID_00000153706226964506317870000015492465137018274999_" style="overflow:visible"/></clipPath><path d="M617.5 357.5c0 2-1.7 3.7-3.8 3.6-2 0-3.7-1.8-3.6-3.8 0-2 1.7-3.6 3.8-3.6 2 .1 3.6 1.8 3.6 3.8" style="clip-path:url(#SVGID_00000073708577870377182880000004263698686739339139_);fill:#fff"/><defs><path id="SVGID_00000140731544247146166750000013167695732482632100_" d="M414.1 16.6h596.3V549H414.1z" transform="matrix(.07535 -.9972 .9972 .07535 376.624 971.708)"/></defs><clipPath id="SVGID_00000043424467618057693630000014761854342763595661_"><use xlink:href="#SVGID_00000140731544247146166750000013167695732482632100_" style="overflow:visible"/></clipPath><path d="M567.8 402.9c-2.6-2.6.3-6.1 5-6l17.3.4c4.7.1 7.4 3.7 4.7 6.2 0 0-3.2 1.9-5.6 4-3 2.8-6.5 6-8.1 5.9-1.7-.1-5.3-3.6-8.2-6.5-2.1-2.1-5.1-4-5.1-4" style="clip-path:url(#SVGID_00000043424467618057693630000014761854342763595661_);fill:#997040"/><defs><path id="SVGID_00000021079946728630728960000012952882931134171054_" d="M414.1 16.6h596.3V549H414.1z" transform="matrix(.07535 -.9972 .9972 .07535 376.624 971.708)"/></defs><clipPath id="SVGID_00000044138588217610321190000013031316086109039266_"><use xlink:href="#SVGID_00000021079946728630728960000012952882931134171054_" style="overflow:visible"/></clipPath><path d="M634.5 269.1c-6.8-7.8-16.4-13.7-29.8-16.7-7.1-2.2-14.6-3.5-22.5-3.7-16-.4-31 3.9-43.8 11.5-15.4 8.5-26.5 21.5-32.8 36.5-.3.6-.5 1.3-.8 1.9l6.3 7.9s22.5-44.8 71.2-42.9 64.9 45 64.9 45l10.7-4.4c-4.6-13.7-12.8-25.8-23.4-35.1" style="clip-path:url(#SVGID_00000044138588217610321190000013031316086109039266_);fill:#e5c294"/><defs><path id="SVGID_00000093895536148936479090000016716523606171293617_" d="M414.1 16.6h596.3V549H414.1z" transform="matrix(.07535 -.9972 .9972 .07535 376.624 971.708)"/></defs><clipPath id="SVGID_00000078008581663206006180000011689801984677929088_"><use xlink:href="#SVGID_00000093895536148936479090000016716523606171293617_" style="overflow:visible"/></clipPath><path d="M512.3 275.5c-7.6 1.3-18.8 21.5-31.2 24.2-20 4.4 7.3 62.5 14 68.2s24.3-35.4 27.3-56.9c3-21.4-2.5-36.7-10.1-35.5" style="clip-path:url(#SVGID_00000078008581663206006180000011689801984677929088_);fill:#c79961"/><defs><path id="SVGID_00000089567797999819586780000010212052671159352756_" d="M414.1 16.6h596.3V549H414.1z" transform="matrix(.07535 -.9972 .9972 .07535 376.624 971.708)"/></defs><clipPath id="SVGID_00000074408347302267559770000011101698244229830809_"><use xlink:href="#SVGID_00000089567797999819586780000010212052671159352756_" style="overflow:visible"/></clipPath><path d="M512.3 275.5c-2.4.4-5.2 2.8-8.3 5.9 0 0 7.4-1.1 9.2 2s2.6 27.1-3.4 44.9c-5.9 17.7-14.3 32.1-16.3 33.3-.5.3-1.4.4-2.6.4 1.7 2.9 3.2 5 4.3 5.9 6.7 5.7 24.3-35.4 27.3-56.9 2.9-21.4-2.6-36.7-10.2-35.5" style="clip-path:url(#SVGID_00000074408347302267559770000011101698244229830809_);fill:#d4a36b"/><defs><path id="SVGID_00000157286900180387588530000002709028004351786382_" d="M414.1 16.6h596.3V549H414.1z" transform="matrix(.07535 -.9972 .9972 .07535 376.624 971.708)"/></defs><clipPath id="SVGID_00000107580756479730064100000007196613677875317640_"><use xlink:href="#SVGID_00000157286900180387588530000002709028004351786382_" style="overflow:visible"/></clipPath><path d="M649.9 278.7c7.5 1.6 17.8 22.3 30 25.6 19.8 5.3-10.2 62.1-17.1 67.5-6.9 5.4-22.7-36.5-24.7-58.1s4.3-36.6 11.8-35" style="clip-path:url(#SVGID_00000107580756479730064100000007196613677875317640_);fill:#c79961"/><defs><path id="SVGID_00000087377261479269974160000008053300797370807485_" d="M414.1 16.6h596.3V549H414.1z" transform="matrix(.07535 -.9972 .9972 .07535 376.624 971.708)"/></defs><clipPath id="SVGID_00000108305312959615087520000011257054930446738329_"><use xlink:href="#SVGID_00000087377261479269974160000008053300797370807485_" style="overflow:visible"/></clipPath><path d="M679.9 304.2c-12.3-3.3-22.6-24-30-25.6-4.4-.9-8.4 3.9-10.5 12.4.3-.2 5.2-5.3 10.5-3.7 4 1.2 18.8 19.5 24.2 21.5 5.3 2 13.1 7.8 11.6 14.5 1.9-9.5.9-17.3-5.8-19.1" style="clip-path:url(#SVGID_00000108305312959615087520000011257054930446738329_);fill:#d4a36b"/></g></svg>