<svg xmlns="http://www.w3.org/2000/svg" xmlns:xlink="http://www.w3.org/1999/xlink" xml:space="preserve" id="Layer_1" x="0" y="0" style="enable-background:new 0 0 1023 518" version="1.1" viewBox="0 0 1023 518"><style>.st1{fill:#009f9c}.st6{fill:#a3c5e9}.st9{fill:#8e692d}.st10{fill:#261f14}.st11{fill:#fff}.st12{opacity:.3;fill:#002f3d}.st13{fill:#013f4d}</style><path d="M851.9-16.9 630.7-36.3c-21.5-1.9-42.5 7.9-52.6 25.9L450.8 171.8c-14.7 17.6-16.7 40.6-5.3 60.5l93.8 201.5c6.8 19.4 25.7 32.7 47.3 34.6l221.1 19.3c21.5 1.9 42.5-7.9 54.9-25.7L990 279.9c12.4-17.8 14.4-40.8 5.3-60.5L901.5 17.9c-9.1-19.7-28-33-49.6-34.8z" style="fill:#00aba8"/><path d="m859.1 466.1 77.1-110.2L531.7 57.3l-85.9 119.1c-10.6 15.2-12.4 35-2.2 52.1l97.7 209.6c5.5 16.6 21.8 28.1 40.3 29.7l230.3 20.1c18.5 1.8 36.5-6.6 47.2-21.8zM504.6 0l-95.4 136.5C399 151 381.7 159.1 364 157.6l-209.2-18.3c-17.7-1.5-33.3-12.5-40.8-28.6L62.4 0h-1.1L113 111.1c7.7 16.4 23.6 27.6 41.6 29.2l209.2 18.3c1.5.1 2.9.2 4.4.2 16.5 0 32.1-8.1 41.7-21.7L505.8 0h-1.2z" class="st1"/><defs><path id="SVGID_1_" d="M851.9-16.9 630.7-36.3c-21.5-1.9-42.5 7.9-52.6 25.9L450.8 171.8c-14.7 17.6-16.7 40.6-5.3 60.5l93.8 201.5c6.8 19.4 25.7 32.7 47.3 34.6l221.1 19.3c21.5 1.9 42.5-7.9 54.9-25.7L990 279.9c12.4-17.8 14.4-40.8 5.3-60.5L901.5 17.9c-9.1-19.7-28-33-49.6-34.8z"/></defs><clipPath id="SVGID_00000157996647600691588970000008252060780708903846_"><use xlink:href="#SVGID_1_" style="overflow:visible"/></clipPath><g style="clip-path:url(#SVGID_00000157996647600691588970000008252060780708903846_)"><path d="M786.5 391.8s-1.7-16.1-25.4-26.8-44.9-21.3-43.3-39.5c1.6-18.2 4.2-48 4.2-48l-28.3-2.4-28.3-2.4s-2.6 29.8-4.2 48-24.3 25-49.5 31.5c-25.2 6.4-29.7 22.1-29.7 22.1l-78.8 155.8 42.4 3.7 58-91.9 7.4 97.5 59.3 5.3 59.4 4.9 24-94.8L795 555.1l42.4 3.7-50.9-167z" style="fill:#4c3a1f"/><path d="M784 378.8c-9.3-7.2-39.8-27.1-39.8-27.1-7.5 14.6-49 24.6-49 24.6l-13.3 31.4-7.8-33.2s-39.2-17-44.1-32.6c0 0-33.5 14.3-43.9 19.8-6.6 3.5-64.3 123.6-64.3 123.6l43.9 28.1 31.9-47 5.6 72.4 133.3 11.5 18-70.4 23.4 51.8 48.1-20.2c.1 0-36.1-128.1-42-132.7z" style="fill:#dce8f7"/><path d="m798.9 523 27.2-11.4S789.9 383.5 784 378.9c-9.3-7.2-39.8-27.1-39.8-27.1-2.9 5.6-10.7 10.4-19.3 14.4l43.4 27 39.4 107.3c0-.1 5.1 14.6-8.8 22.5z" style="fill:#e3ecf9"/><path d="m676.4 388-.5-2.1c-24.8-4.3-45.8-18.5-59.3-38.2-.6.2-1.1.5-1.7.7 13.9 20.6 35.7 35.4 61.5 39.6zM757.9 360.8c-.5-.3-1-.7-1.6-1-16.7 17.1-39.8 27.5-65 27.5l-.9 2c26.2.2 50.3-10.7 67.5-28.5z" class="st6"/><path d="M635.2 489.2S610 478 608.3 464c-1.7-14-4-51.9-4-51.9l-53.5 91.7 15 9.6 31.9-47 5.6 72.4 31.6 2.7.3-52.3z" style="fill:#d3e2f5"/><path d="M812.7 152.1C805 241.4 768.5 311.7 690.9 305c-77.5-6.7-99.9-83-92.1-172.3 7.7-89.3 80.7-92.3 116.1-89.3s105.5 19.4 97.8 108.7z" style="fill:#60492d"/><path d="M682.4 198.5c-1.1 12.3-11.5 21.4-23.3 20.4s-20.5-11.8-19.5-24.1c1.1-12.3 11.5-21.4 23.3-20.4s20.5 11.8 19.5 24.1z" class="st9"/><path d="M676.9 198c-.7 8.6-8 14.9-16.1 14.2-8.2-.7-14.2-8.2-13.4-16.8.7-8.5 7.9-14.9 16.1-14.2 8.1.7 14.1 8.3 13.4 16.8z" class="st10"/><path d="M656.6 188.2c-.2 2.5-2.3 4.3-4.7 4.1-2.4-.2-4.1-2.4-3.9-4.9.2-2.5 2.3-4.3 4.7-4.1 2.4.2 4.1 2.4 3.9 4.9z" class="st11"/><path d="M649.4 245.2c13.8 10.6 29 17.7 44.9 18.8 16 1.4 31.8-3.8 47.8-10.8-6.2 6.4-13.7 11.6-22 15-8.3 3.5-17.4 5-26.5 4.4-9-.8-17.9-3.7-25.5-8.5-7.5-4.7-14.2-11.1-18.7-18.9z" class="st10"/><path d="M721.4 201.9c-1.1 12.3 7.7 23 19.5 24.1 11.8 1 22.2-8.1 23.3-20.4 1.1-12.3-7.6-23-19.5-24.1-11.8-1-22.3 8.1-23.3 20.4z" class="st9"/><path d="M726.9 202.3c-.7 8.6 5.3 16.1 13.4 16.8 8.2.7 15.4-5.7 16.1-14.2.7-8.5-5.3-16.1-13.4-16.8-8.2-.7-15.4 5.7-16.1 14.2z" class="st10"/><path d="M728.4 194.4c-.2 2.5 1.5 4.7 3.9 4.9 2.4.2 4.5-1.7 4.7-4.1.2-2.5-1.5-4.6-3.9-4.8-2.4-.3-4.5 1.5-4.7 4z" class="st11"/><path d="M846.4 140.5c.9-9.9-5.4-18.7-14.4-20.9-.1-.5-.1-1-.1-1.5 4.1-4.5 6.8-10.5 7.3-17.2 1-11-4.2-21.1-12.5-26.7-1.2-1.5-2.4-2.9-3.8-4.2-5-4.7-11-8-17.3-10.2-1.9-.7-3.9-.9-5.9-1.1-1.7-3-4.7-5.1-8.3-5.4h-.6l-4.2 1.2c-3.3-4.8-2.7-12.7-11.3-13.5-2.5-.2-4.9.5-6.9 1.9.1-2.3-.4-4.6-1.4-6.5-.1-1.6-.2-3.2-.6-4.9-2.2-10.1-11.6-17.8-21.5-17.7-6.2.1-12.3-4.4-17.7-7.6-3.7-2.2-7.2-10-11.4-11.6-13.9-5.3-24.6 3.7-24.6 3.7-4.1-8.1-11.9-14-21.3-14.8-12.5-1.1-23.7 7-27.7 18.8-4-3.3-8.9-5.5-14.3-5.9-14.7-1.3-27.8 10.2-29.1 25.7-.3 3-.1 6 .6 8.8-.4-.1-.9-.1-1.3-.1-14.7-1.3-27.7 10.2-29.1 25.7-.3 4 .1 7.9 1.3 11.5-8.3 2.3-14.8 9.9-15.6 19.4-.5 5.2.9 10.2 3.5 14.2-3.8.3-6.9 3.4-7.3 7.5-.2 2.3.5 4.4 1.8 6-4.2 4.5-7.1 10.5-7.6 17.3-.7 8.1 2 15.7 6.8 21.3-4.2 2.8-10.8 4.8-11.8 15.5-1.7 19 7.6 17.9 10.2 25 6 16.4-10.8 18.8-8.5 34.6.9 6.4 11.1 12.9 9.5 19.1-1.5 5.8-8.1 9.5-8.6 15.5-.5 6.2 5.7 10.9 5.9 17.1.2 5.3-3.5 11.3-3.6 16.7-.3 12.5 9.7 11.6 9.3 11.5-4.5-2.9-2.6-10.2.6-14.7 3.2-4.4 7.4-9.5 5.8-14.7-.8-2.7-3.1-4.8-3.6-7.5-1.2-6.8 8-10.2 11-16.4 4.8-9.9-7.6-22.7-1.8-32 2.5-3.9 6.1-9.2 10.5-9.1-5.5.4-5.7 12.8-3 17.8s7.8 8.3 10.4 13.4c3.4 6.6 1.8 15.7-3.7 20.6 1.5-1.3 5.1-1.4 7-2.9 2.5-2 4.4-4.8 5.4-7.9 2.5-8-2.5-11.4-4.2-18.6-.9-3.7-.3-8.1 2.5-10.7 2.3-2.2 5.8-2.8 8-5.1 4.3-4.7 1.1-12.9 3.9-18.8 2.7-5.8 10.3-7.6 13-13.4 2.6-5.7-.5-13.3 3.4-18.1 1.9-2.3 5-3.2 7.1-5.3 5-4.8 2-13.3-3.5-15.8 1.7-5.3 8.2-5.4 12-8.5 3.3-2.7 4.3-8 2.2-11.8-.5-1-1.3-2-1.5-3.1 1.5-.8 2.8-2.1 3.4-3.7 1.4-.2 2.8-.1 4.2-.2 4.6-.5 8.5-4.8 9.1-9.6 12.6-2.3 30.8-2.9 58.1-.6 17.1 1.5 30.8 3.9 41.7 7 2.2 1.5 4.3 3 6.5 4.6 2.3 1.6 4.9 4.1 4.1 6.9-.3 1.1-1.2 2-1.8 3-2.9 5.2 2.1 11.1 6.6 14.8-5.1 3.5-6.6 11.7-2.9 16.8 2.2 3 5.8 7.1 3.2 9.7 1.5 1.7 4.5.1 5-2.2.5-2.3-.6-4.6-1.5-6.7-.9-2.1-1.8-4.6-.8-6.8.7-1.6 2.3-2.6 3.4-3.9 2.5-2.9 2.6-7.7.2-10.6-1-1.3-2.5-2.3-3.1-3.9-1.3-3.5 2.2-6.9 3.1-10.6.2-.7.2-1.4.2-2.1 1.2.7 2.4 1.4 3.5 2.2.4 2.1 2 3.7 4.1 3.9h.2c0 .3-.1.5-.1.8-.4 4.1 2.5 7.7 6.4 8 .8.1 1.6 0 2.3-.2.1.1.2.2.3.4-.2.5-.3 1-.3 1.6-.3 3.7 2 7 5.4 7.8.3.7.6 1.5.9 2.2 7.7 20.7-.2 72.7-.2 72.7.6-1.9 1.8-3.8 3.3-5.7-1.2 3.3-2.7 7-.9 9.9.8 1.3 2.2 2.2 3 3.5 1.9 3.1-.1 7.3-2.4 10.2-2.4 2.8-3.3 6.8-2 10.3 1.7 4.7 5.6 16.1-2.7 13.5 1.8 2.2 5.5.9 6.9-1.7 1.3-2.6 1-5.7.7-8.6-.2-2.9-.2-6.1 1.7-8.3 1.1-1.3 2.6-2 3.8-3.2 3-3.3 2.1-8.5 1.4-12.9-.7-4.5-.3-10.2 3.7-11.9-.3 4 4.5 6.1 5.8 9.8 2.7 7.4-9.2 14.9-5.8 22 1.6 3.4 6.5 5 6.6 8.8.1 2.4-1.9 4.3-3.1 6.4-4 6.9-4.4 17.7 5.9 21.2-5.7-3.3-6.9-12.6-2.3-17.5 2.8-2.9 7.3-4.6 8.2-8.6 1-4.2-2.8-7.8-4.4-11.8-1.9-4.6-.5-10.5 3.1-13.8 1.8-1.6 4.1-2.8 4.9-5.1 1-3.1-1.4-6.2-3.4-8.7-2-2.5-3.7-6.5-1.4-8.9 1.4-1.5 3.7-1.5 5.4-2.6 3.6-2.4 2.9-8.1 1.3-12.2-1.7-4.1-3.9-8.8-1.9-12.7 2.2-4.4 8.5-5.3 10.2-9.9 2.9-7.4-8.8-13-8.8-21 6.6-2.8 11.9-9.3 12.6-17.4z" class="st10"/></g><path d="m987.2 12.8 18.7 1.6-14.3 165.4L866 169l-65.6 28.1 2.9-33.6-17.2-1.5 2-23.2L800.4-3.4z" class="st12"/><path d="M989.1-.3 975.2 161l-122.4-10.6-64 27.4 2.8-32.7-16.7-1.4 13.9-161.3z" class="st11"/><path d="m893.41 41.525 1.12-12.952 54.995 4.752-1.119 12.952zM817.148 34.928l1.12-12.952 60.973 5.268-1.12 12.952zM887.523 109.898l1.12-12.951 54.995 4.751-1.12 12.952zM811.26 103.302l1.12-12.952 60.973 5.268-1.119 12.952zM814.241 69.117l1.12-12.952 34.67 2.996-1.119 12.952zM866.382 73.605l1.119-12.952 79.106 6.836-1.12 12.952z" class="st13"/><path d="m651.4 362.7-43.9-3.8 6.9-80-16.8-1.5-61.1-5.3L414 261.6l-14 161.3 200.4 17.3 2.5-28.3z" class="st12"/><path d="m641.5 351-43.9-3.8 7-80-16.8-1.5-61.2-5.2-122.4-10.6-14 161.3 200.4 17.3 2.5-28.3z" class="st11"/><path d="M508.2 386.6c-5.2-.5-10.8-1-16.4-1.6-45.8-5-55.2-11.2-58.3-15.5-2.6-3.5-1.8-6.3-1.1-7.7 2.4-4.8 10.8-6.5 26.5-7.1-.4-2.6.1-5.2 1.3-7.7.6-1.1 1.2-2.2 1.9-3.4-15.2-1.6-22.5-5-23.6-10.9-1.4-7.5 8.2-14.5 22.8-22.2-4.8-.6-9.2-1-12.8-1.3-5.3-.5-17.9-1.5-17.2-9 .8-9.2 27.2-14.6 40.3-13.5 7.1.6 14.2 4.5 20.6 9.6 18.2-4.9 39.3-1.5 60.8 10.2 2.6 1.4 7.9 4.3 6.5 8.7-1.7 5.1-10.2 5.8-48.2 1.4 2.1 2.8 3.7 5.2 4.7 6.7 7.5.3 16 1.2 25.7 2.9 16.5 2.8 21.6 5.2 21 10-.4 2.8-.9 7.1-35.2 8.8-18.1.9-39.1.6-57.3-.7-1.8 2.3-2.8 4.4-3.6 5.9-.7 1.4-.8 2.8-.4 4.2 6.1-.1 13.1-.1 21.1-.1 15.3 0 31.1 0 45.5-1 17.8-1.2 22.6-.4 23.3 3.9.7 4.1-2.9 6.3-17.6 11-1.9.6-4 1.2-6.1 1.9l23.5 2.9c.4.1.9.2 1.3.4 3.7 2 5.3 4.4 4.7 7.1-.3 1.6-1.3 6.4-21.1 8h-.5c-.1.2-14.3-.4-32.1-1.9zm-12.8-8.5c15.3 1.6 31.4 2.8 45.1 3.4 3.7-.3 7.5-.9 10.4-1.6l-33.9-4.2c-.6-.1-1.1-.3-1.5-.5-1.8.5-3.6 1-5.3 1.4-5 1.3-10 1.7-14.8 1.5zm-56.2-13.2c.1.1.1.2.2.3 3.7 5 25.2 9.2 50.1 12.2-11.3-1.9-21.4-7.4-26.6-13.8-.4-.5-.8-1.1-1.2-1.6-10.8.3-20 1.1-22.5 2.9zm32.1-3.1c8.1 6.9 23.4 11.4 36.9 7.8 14.1-3.8 24.6-6.9 31.6-9.2-1.8.1-4 .2-6.5.4-14.7 1-31.3 1-46 1-5-.1-10.5-.1-16 0zm2.9-49.6c-6.1 3-12.9 6.5-18.6 10.1-10.2 6.5-10 9.3-10 9.3s1.2 3.7 20.2 5.3c.5 0 1 .1 1.5.1 7-7.1 18.6-13 39.7-13.6-1.6-2.2-3.7-5-6.1-7.8-5.4-.6-11.2-1.4-17.6-2.2-3-.4-6.1-.8-9.1-1.2zm38.8 18.4c-17.6-.4-28.3 2.9-35.1 7.1 30.9 1.8 60.5.1 72.8-2.1-2.3-.6-5.6-1.3-10.2-2.1-9.8-1.7-18.2-2.5-25.5-2.8-.7.2-1.4.1-2-.1zm-8.3-21.9c16.8 2 34.8 3.9 43.7 3.8-20.6-11-37.2-12.4-49.6-10.1 2.1 2 4.1 4.2 5.9 6.3zm-18.6-2.3c2.3.3 4.8.6 7.4.9-1-1-2-1.9-2.9-2.7-1.6.5-3.1 1.1-4.5 1.8zm-46.5-6c1.5.5 4.3 1.2 9.5 1.6 6.2.5 14.6 1.5 23.8 2.7l2.4-1.2c2.2-1.1 4.1-2 5.8-2.8.9-.5 1.9-.9 2.8-1.3-4.7-3.1-9-4.9-13-5.3-12.1-1.1-26.8 3.4-31.3 6.3z" class="st13"/></svg>