<svg xmlns="http://www.w3.org/2000/svg" xmlns:xlink="http://www.w3.org/1999/xlink" xml:space="preserve" id="Layer_1" x="0" y="0" style="enable-background:new 0 0 1023 518" version="1.1" viewBox="0 0 1023 518"><style>.st2{fill:#f49400}.st4{opacity:.1;fill:#fff;enable-background:new}.st5{fill:#014151}.st6{fill:#094c5f}.st13{fill:#342253}.st21{fill:#1d0809}.st22{fill:#3d2929}.st26{fill:#c0bbb5}.st33{fill:#8b5e51}.st34{fill:#a07d4c}.st35{fill:#271f12}.st36{fill:#fff}.st37{fill:#f6e2d0}.st38{fill:#2d2825}.st39{opacity:.25;enable-background:new}</style><defs><path id="SVGID_1_" d="M0 .4h1023V518H0z"/></defs><clipPath id="SVGID_00000015315740643977000560000012300793184486310811_"><use xlink:href="#SVGID_1_" style="overflow:visible"/></clipPath><g style="clip-path:url(#SVGID_00000015315740643977000560000012300793184486310811_)"><path d="m504.6 0-95.4 136.5C399 151 381.7 159.1 364 157.6l-209.2-18.3c-17.7-1.5-33.3-12.5-40.8-28.6L62.4 0h-1.1L113 111.1c7.7 16.4 23.6 27.6 41.6 29.2l209.2 18.3c1.5.1 2.9.2 4.4.2 16.5 0 32.1-8.1 41.7-21.7L505.8 0h-1.2z" style="fill:#f99d1c"/><path d="M858-10.2 615.4-31.4c-13.6-1.2-26.8 5-34.6 16.1L441 184.2c-7.8 11.1-9.1 25.6-3.3 38.1l102.9 220.8c5.7 12.3 17.7 20.7 31.3 21.9l242.6 21.2c13.6 1.2 26.8-5 34.6-16.1l139.8-199.5c7.8-11.1 9.1-25.6 3.3-38.1L889.3 11.8C883.5-.6 871.5-9 858-10.2z" class="st2"/><defs><path id="SVGID_00000171690547722962371930000016086258420885845153_" d="M858-10.2 615.4-31.4c-13.6-1.2-26.8 5-34.6 16.1L441 184.2c-7.8 11.1-9.1 25.6-3.3 38.1l102.9 220.8c5.7 12.3 17.7 20.7 31.3 21.9l242.6 21.2c13.6 1.2 26.8-5 34.6-16.1l139.8-199.5c7.8-11.1 9.1-25.6 3.3-38.1L889.3 11.8C883.5-.6 871.5-9 858-10.2z"/></defs><clipPath id="SVGID_00000075146229859569701340000007843327007439590540_"><use xlink:href="#SVGID_00000171690547722962371930000016086258420885845153_" style="overflow:visible"/></clipPath><path d="m861.9 474.5 67.4-119-400.5-294-94.7 111.7c-10.6 15-6.8 44.8.9 61.4l98.1 217.8c7.7 16.6 29.5 23.7 47.8 25.4l231.6 20.3c18.3 1.4 39-8.6 49.4-23.6z" style="clip-path:url(#SVGID_00000075146229859569701340000007843327007439590540_);fill:#e08900"/><path d="m499.516 273.112 23.658-270.07 433.547 37.98-23.66 270.07z" class="st2"/><path d="m933.5 198.4 6.4-153.5-165.8-20zM736.6 23.7l23-.6-27.5-3.3-30.7.9 229 249.3 1.5-33.6z" class="st4"/><path d="m934.3 51.2-20.8 237.5-397.3-34.8L537 16.4l397.3 34.8M937 20 539.7-14.8c-17.2-1.5-32.3 11.2-33.8 28.5L485 251.1c-1.5 17.2 11.2 32.3 28.5 33.8l397.3 34.8c17.2 1.5 32.3-11.2 33.8-28.5l20.8-237.5c1.6-17-11.1-32.2-28.4-33.7zM774.7 381.4s-40.2-20.6-36.8-59.8l-54.4-4.8c-3.5 39.3-46.7 52.6-46.7 52.6l-1.3 14.6 138 12.2 1.2-14.8z" class="st5"/><path d="m709.9 31.5 224.4 19.7-17.8 203.5 28.6 31.6L965.5 54c1.5-17.2-11.2-32.3-28.5-33.8L678.4-2.6l31.5 34.1zM634.426 383.469l1.187-13.549 139.468 12.218-1.187 13.548z" class="st6"/><defs><path id="SVGID_00000076563274124624380040000005608109175964686006_" d="M606-47.2h238.3V352H606z" transform="matrix(.08727 -.9962 .9962 .08727 510.05 861.536)"/></defs><clipPath id="SVGID_00000158741988833938859660000017928152548908399033_"><use xlink:href="#SVGID_00000076563274124624380040000005608109175964686006_" style="overflow:visible"/></clipPath><path d="M718.3 281.1c-50.7-6.1-86.8 9.2-86.8 9.2l-13-53.3-2.2-31.9L835 245.8l-31.2 59.8c.1-.2-20.6-16.6-85.5-24.5z" style="clip-path:url(#SVGID_00000158741988833938859660000017928152548908399033_);fill:#18181c"/><defs><path id="SVGID_00000132808426991085911710000002470180579565407628_" d="M606-47.2h238.3V352H606z" transform="matrix(.08727 -.9962 .9962 .08727 510.05 861.536)"/></defs><clipPath id="SVGID_00000121239462923569317230000004509161244783168911_"><use xlink:href="#SVGID_00000132808426991085911710000002470180579565407628_" style="overflow:visible"/></clipPath><path d="M805.9 387.3s-1.4-3.9-24.8-14.4c-23.4-10.6-40.2-23.7-38.6-41.7 1.6-18.1 4.1-47.5 4.1-47.5l-55.5-4.9s-2.5 29.5-4.1 47.5c-1.6 18.1-20.5 28.1-45.3 34.4-24.9 6.3-26.9 9.9-26.9 9.9l13.3 70.1 152.7 13.4 67 82.9-41.9-149.7z" style="clip-path:url(#SVGID_00000121239462923569317230000004509161244783168911_);fill:#eed5c1"/><defs><path id="SVGID_00000147187242267231991200000004701256467413573289_" d="M606-47.2h238.3V352H606z" transform="matrix(.08727 -.9962 .9962 .08727 510.05 861.536)"/></defs><clipPath id="SVGID_00000148639466791872513560000000986974654746241450_"><use xlink:href="#SVGID_00000147187242267231991200000004701256467413573289_" style="overflow:visible"/></clipPath><path d="M846.7 156.4c-7.7 88-53.2 156.8-129.1 150.1s-111.7-83.3-104-171.3S665.5 42 741.5 48.6c75.8 6.7 112.9 19.8 105.2 107.8z" style="clip-path:url(#SVGID_00000148639466791872513560000000986974654746241450_);fill:#f6e2d0"/><defs><path id="SVGID_00000035489062135000469710000018241310075940865713_" d="M606-47.2h238.3V352H606z" transform="matrix(.08727 -.9962 .9962 .08727 510.05 861.536)"/></defs><clipPath id="SVGID_00000144319051175877902530000013579154028617664396_"><use xlink:href="#SVGID_00000035489062135000469710000018241310075940865713_" style="overflow:visible"/></clipPath><defs><path id="SVGID_00000145774593648157393760000011652473908822919070_" d="M606-47.2h238.3V352H606z" transform="matrix(.08727 -.9962 .9962 .08727 510.05 861.536)"/></defs><clipPath id="SVGID_00000018952879833153751430000016422351952792024508_"><use xlink:href="#SVGID_00000145774593648157393760000011652473908822919070_" style="overflow:visible"/></clipPath><path d="M807.5 385.4c-9-6.1-38.8-23-38.8-23-7.2 12-47.2 19.8-47.2 19.8l-13.4 27.6-8.4-29.5s-38.2-14.6-43.1-27.7c0 0-32.2 11.4-42.3 15.9-6.3 2.8-51 101.8-51 101.8l31.9 23 31.5-52.8 8.8 77.8 58.2 5.1 2.6.2h.3l1.3.1 1.3.1h.3l2.6.2 58.2 5.1 22.1-75.1 21.9 57.4 35.4-17.2c.5.4-26.3-104.9-32.2-108.8z" style="clip-path:url(#SVGID_00000018952879833153751430000016422351952792024508_);fill:#4d2b74"/><defs><path id="SVGID_00000173147714931249515350000009520201696023815351_" d="M606-47.2h238.3V352H606z" transform="matrix(.08727 -.9962 .9962 .08727 510.05 861.536)"/></defs><clipPath id="SVGID_00000098197810720655395830000005905592707257306263_"><use xlink:href="#SVGID_00000173147714931249515350000009520201696023815351_" style="overflow:visible"/></clipPath><g style="clip-path:url(#SVGID_00000098197810720655395830000005905592707257306263_)"><path d="m702.7 391.3-.5-1.8c-24-4-44.6-16-57.9-32.6-.6.2-1.1.4-1.6.6 13.8 17.3 35.1 29.9 60 33.8zM781.4 369.7c-.6-.3-1-.6-1.5-.8-15.9 14-38.3 22.3-62.6 22.1l-.8 1.6c25.3.4 48.4-8.3 64.9-22.9z" class="st13"/></g><defs><path id="SVGID_00000116937512073182209970000017847104279587625136_" d="M606-47.2h238.3V352H606z" transform="matrix(.08727 -.9962 .9962 .08727 510.05 861.536)"/></defs><clipPath id="SVGID_00000120520868093166917360000006653309451769291150_"><use xlink:href="#SVGID_00000116937512073182209970000017847104279587625136_" style="overflow:visible"/></clipPath><radialGradient id="SVGID_00000008145730804830549560000010340042183478436504_" cx="800.342" cy="80.225" r="20.678" gradientTransform="matrix(.9962 .08727 .08727 -.9962 -14.903 251.873)" gradientUnits="userSpaceOnUse"><stop offset="0" style="stop-color:#efc2a8"/><stop offset="1" style="stop-color:#f6e2d0"/></radialGradient><path d="M810 243.6c-1 11.3-11 19.8-22.4 18.8-11.3-1-19.8-11-18.8-22.4s11-19.8 22.4-18.8c11.3 1 19.7 11.1 18.8 22.4z" style="clip-path:url(#SVGID_00000120520868093166917360000006653309451769291150_);fill:url(#SVGID_00000008145730804830549560000010340042183478436504_)"/><defs><path id="SVGID_00000049191226717623459740000013702759101926822334_" d="M606-47.2h238.3V352H606z" transform="matrix(.08727 -.9962 .9962 .08727 510.05 861.536)"/></defs><clipPath id="SVGID_00000085214226227475328310000012426415480302148542_"><use xlink:href="#SVGID_00000049191226717623459740000013702759101926822334_" style="overflow:visible"/></clipPath><radialGradient id="SVGID_00000106106796585718931800000001607779893629288127_" cx="668.443" cy="80.214" r="20.7" gradientTransform="matrix(.9962 .08727 .08727 -.9962 -14.903 251.873)" gradientUnits="userSpaceOnUse"><stop offset="0" style="stop-color:#efc2a8"/><stop offset="1" style="stop-color:#f6e2d0"/></radialGradient><path d="M678.6 232.1c-1 11.3-11 19.8-22.4 18.8-11.3-1-19.8-11-18.8-22.4s11-19.8 22.4-18.8 19.9 11 18.8 22.4z" style="clip-path:url(#SVGID_00000085214226227475328310000012426415480302148542_);fill:url(#SVGID_00000106106796585718931800000001607779893629288127_)"/><defs><path id="SVGID_00000174579797758702874180000013473870332144729477_" d="M606-47.2h238.3V352H606z" transform="matrix(.08727 -.9962 .9962 .08727 510.05 861.536)"/></defs><clipPath id="SVGID_00000042728093001469561820000001147331149084167301_"><use xlink:href="#SVGID_00000174579797758702874180000013473870332144729477_" style="overflow:visible"/></clipPath><path d="M869.1 198.6c6.9-78.4-16.9-169.7-127.5-179.3S591.7 95.4 584.8 173.7c-3.9 44.6 12.9 122.6 46.8 116.8-7.2-31.9-7-76.1-4.5-104 6.9-78.4 51.8-82 106.6-77.2s98.4 16.2 91.5 94.5c-2.5 27.7-10 71.4-22.5 101.6" style="clip-path:url(#SVGID_00000042728093001469561820000001147331149084167301_);fill:#302d2e"/><defs><path id="SVGID_00000104690524168499545920000011412124228698436531_" d="M606-47.2h238.3V352H606z" transform="matrix(.08727 -.9962 .9962 .08727 510.05 861.536)"/></defs><clipPath id="SVGID_00000097478433488065312320000007555051414529996937_"><use xlink:href="#SVGID_00000104690524168499545920000011412124228698436531_" style="overflow:visible"/></clipPath><path d="M611.8 130.5s42.1 27.2 115.2 33.6 136.5-11.6 136.5-11.6l-88.2-52.2-91-8-60.3 6.6" style="clip-path:url(#SVGID_00000097478433488065312320000007555051414529996937_);fill:#2d2d31"/><defs><path id="SVGID_00000006669264677283652320000012953904575029830322_" d="M606-47.2h238.3V352H606z" transform="matrix(.08727 -.9962 .9962 .08727 510.05 861.536)"/></defs><clipPath id="SVGID_00000177467924946108616930000018303098056861173406_"><use xlink:href="#SVGID_00000006669264677283652320000012953904575029830322_" style="overflow:visible"/></clipPath><path d="M588.2 147.5s-17.4 77.8 15.2 154.7c0 0 16.1-8.6 26.9-12 0 0-9.5-52.5-4.3-110.8l-37.8-31.9z" style="clip-path:url(#SVGID_00000177467924946108616930000018303098056861173406_);fill:#2d2d31"/><defs><path id="SVGID_00000122705695870947337760000013221406371964743567_" d="M606-47.2h238.3V352H606z" transform="matrix(.08727 -.9962 .9962 .08727 510.05 861.536)"/></defs><clipPath id="SVGID_00000067194778715402462750000004324097375189691825_"><use xlink:href="#SVGID_00000122705695870947337760000013221406371964743567_" style="overflow:visible"/></clipPath><path d="M870 172.2s3.6 79.6-41.8 149.7c0 0-14.4-11.2-24.4-16.4 0 0 18.5-49.9 23.6-108.4l42.6-24.9z" style="clip-path:url(#SVGID_00000067194778715402462750000004324097375189691825_);fill:#2d2d31"/><defs><path id="SVGID_00000170993185529691111120000007653972136350003130_" d="M606-47.2h238.3V352H606z" transform="matrix(.08727 -.9962 .9962 .08727 510.05 861.536)"/></defs><clipPath id="SVGID_00000005247525344445730440000010720377524175278012_"><use xlink:href="#SVGID_00000170993185529691111120000007653972136350003130_" style="overflow:visible"/></clipPath><g style="clip-path:url(#SVGID_00000005247525344445730440000010720377524175278012_)"><path d="M669.1 521.3c2.5-122 .6-177.7-10.7-171.8-18.7 9.8-51.1 15.1-51.1 15.1l-63.1 145.8 43.4 3.8 29.5-54.8 7 58 45 3.9z" class="st21"/><path d="M616.7 459.3c.8-8.2 1.5-16.4 1.8-24.6.4-8.2.6-16.4.3-24.6-.2-4.1-.4-8.2-.8-12.2-.5-4.1-.8-8-1.5-12.1-.3-2-.7-4-1-5.8-.5-2-.9-3.9-1.6-5.7-1.3-3.7-3.2-7.3-6.6-9.5l.2-.4c2.1.6 4 1.8 5.5 3.4s2.8 3.4 3.8 5.3c2.1 3.9 3.3 8 4.2 12.1 1.8 8.3 1.6 16.7 1.5 25-.2 8.3-.8 16.6-1.7 24.8-.9 8.2-2.1 16.4-3.6 24.5l-.5-.2z" class="st22"/></g><defs><path id="SVGID_00000170251571234859433490000014669271489890192014_" d="M606-47.2h238.3V352H606z" transform="matrix(.08727 -.9962 .9962 .08727 510.05 861.536)"/></defs><clipPath id="SVGID_00000049223778058945660310000009021178215413472681_"><use xlink:href="#SVGID_00000170251571234859433490000014669271489890192014_" style="overflow:visible"/></clipPath><g style="clip-path:url(#SVGID_00000049223778058945660310000009021178215413472681_)"><path d="M726.4 526.3c18.8-120.6 30.3-175.1 40.5-167.3 16.7 12.9 47.6 23.7 47.6 23.7l36.8 154.6-43.4-3.8-19.5-59.2-17 55.9-45-3.9z" class="st21"/><path d="M788.8 474.4c.7-8.2 1.4-16.4 2.5-24.5 1-8.1 2.3-16.3 4-24.3.8-4 1.8-8 2.9-11.9 1.1-3.9 2.3-7.7 3.6-11.6.7-1.9 1.3-3.8 2.1-5.6.8-1.8 1.6-3.6 2.5-5.4 2-3.4 4.3-6.6 8.2-8.2l-.1-.5c-2.1.2-4.2 1.1-6 2.4s-3.4 2.8-4.6 4.5c-2.7 3.4-4.6 7.3-6.2 11.1-3.2 7.8-4.5 16.2-5.8 24.3-1.3 8.2-2.1 16.4-2.6 24.7-.5 8.2-.8 16.5-.8 24.8l.3.2z" class="st22"/></g><defs><path id="SVGID_00000059272708361146566110000015063190871334727572_" d="M606-47.2h238.3V352H606z" transform="matrix(.08727 -.9962 .9962 .08727 510.05 861.536)"/></defs><clipPath id="SVGID_00000102509971742525903110000011430896817694149271_"><use xlink:href="#SVGID_00000059272708361146566110000015063190871334727572_" style="overflow:visible"/></clipPath><defs><path id="SVGID_00000139289655796227421140000011261487896031481508_" d="M606-47.2h238.3V352H606z" transform="matrix(.08727 -.9962 .9962 .08727 510.05 861.536)"/></defs><clipPath id="SVGID_00000013183119671227528240000004585251165759727018_"><use xlink:href="#SVGID_00000139289655796227421140000011261487896031481508_" style="overflow:visible"/></clipPath><path d="M711.4 370.5c-7.5-.7-13.2-7.4-12.5-15 .7-7.5 7.4-13.2 15-12.5 7.5.7 13.2 7.4 12.5 15s-7.4 13.2-15 12.5zm1.9-21.9c-4.5-.4-8.6 2.9-9 7.5-.4 4.5 2.9 8.6 7.5 9 4.5.4 8.6-2.9 9-7.5.4-4.7-2.9-8.6-7.5-9z" class="st26" style="clip-path:url(#SVGID_00000013183119671227528240000004585251165759727018_)"/><defs><path id="SVGID_00000090276525484163531860000010923031696310408888_" d="M606-47.2h238.3V352H606z" transform="matrix(.08727 -.9962 .9962 .08727 510.05 861.536)"/></defs><clipPath id="SVGID_00000159452908149721731740000003589384482664690076_"><use xlink:href="#SVGID_00000090276525484163531860000010923031696310408888_" style="overflow:visible"/></clipPath><path d="M701 355.6c.6-6.4 6.2-11.1 12.6-10.6s11.1 6.2 10.6 12.6" style="clip-path:url(#SVGID_00000159452908149721731740000003589384482664690076_);fill:none;stroke:#d5d7d8;stroke-width:1.0849;stroke-miterlimit:10"/><defs><path id="SVGID_00000139288889777565053140000008571271050788494473_" d="M606-47.2h238.3V352H606z" transform="matrix(.08727 -.9962 .9962 .08727 510.05 861.536)"/></defs><clipPath id="SVGID_00000032649054177634212770000007767082986601435049_"><use xlink:href="#SVGID_00000139288889777565053140000008571271050788494473_" style="overflow:visible"/></clipPath><path d="M722.3 362.1c-2 3-5.6 4.9-9.4 4.5-3.9-.4-7.1-2.8-8.5-6.1" style="clip-path:url(#SVGID_00000032649054177634212770000007767082986601435049_);fill:none;stroke:#d5d7d8;stroke-width:1.0849;stroke-linecap:round;stroke-miterlimit:10"/><defs><path id="SVGID_00000057143605158406062860000003469275853094349234_" d="M606-47.2h238.3V352H606z" transform="matrix(.08727 -.9962 .9962 .08727 510.05 861.536)"/></defs><clipPath id="SVGID_00000147923218889865164830000014200596641306519175_"><use xlink:href="#SVGID_00000057143605158406062860000003469275853094349234_" style="overflow:visible"/></clipPath><path d="M707.7 351c-5.4-1-24.1-9.1-26.3-13.2 0 0-5 6.2-6.5 7 0 0 16.2 12.6 30.4 13.9.1 0-.4-4.5 2.4-7.7z" style="clip-path:url(#SVGID_00000147923218889865164830000014200596641306519175_);fill:#494746"/><defs><path id="SVGID_00000121971631643472393830000012414970055723118486_" d="M606-47.2h238.3V352H606z" transform="matrix(.08727 -.9962 .9962 .08727 510.05 861.536)"/></defs><clipPath id="SVGID_00000072984487109308383920000001368391910929660842_"><use xlink:href="#SVGID_00000121971631643472393830000012414970055723118486_" style="overflow:visible"/></clipPath><path d="M717.8 352c5.6-.1 25.4-4.8 28.2-8.4 0 0 3.9 7 5.2 7.9 0 0-18.2 9.6-32.4 8.3 0 0 1.2-4.3-1-7.8z" style="clip-path:url(#SVGID_00000072984487109308383920000001368391910929660842_);fill:#494746"/><defs><path id="SVGID_00000121273362888909707190000004548241267434984872_" d="M606-47.2h238.3V352H606z" transform="matrix(.08727 -.9962 .9962 .08727 510.05 861.536)"/></defs><clipPath id="SVGID_00000180356302496876410160000011999291660346981539_"><use xlink:href="#SVGID_00000121273362888909707190000004548241267434984872_" style="overflow:visible"/></clipPath><path d="m840.3 157.8-2-8.7c-.8-2.9-1.5-5.7-2.3-8.6l-1.2-4.2c-.4-1.4-.8-2.9-1.3-4.2-.6-1.4-1.1-2.8-1.7-4.1-.6-1.4-1.2-2.7-1.8-4.1-2.5-5.5-5.3-10.7-8.5-15.7-1.6-2.5-3.3-4.9-5.2-7.3-1.9-2.3-3.9-4.5-6.2-6.3 3.9 4.4 6.4 9.7 8.8 15 2.3 5.4 4.3 10.7 5.8 16.3.9 2.7 1.5 5.6 2.4 8.4.8 2.7 1.8 5.5 2.5 8.3l2.2 8.4 1.1 4.9c-16.4 2.1-33.2 3.3-49.8 3.8-17.9.6-35.7.3-53.5-.9-8.9-.7-17.8-1.6-26.6-2.8-8.9-1.3-17.6-2.8-26.2-4.7-8.7-2-17.2-4.2-25.6-7.2-7.4-2.6-14.7-5.6-21.8-9 .5-1.3.9-2.6 1.5-3.9.5-1.1.9-2.2 1.4-3.3.5-1 1-2.2 1.5-3.2 1.7-4.5 3.7-8.9 5.8-13.2 1-2.2 2.3-4.3 3.4-6.4 1.2-2.1 2.5-4.2 3.8-6.2 2.5-4.1 5.5-8.1 8.5-12-3.6 3.3-7.3 6.7-10.5 10.5-1.7 1.9-3.2 3.8-4.8 5.7-1.5 2-3 4-4.4 6-2.8 4.1-5.5 8.4-7.9 12.8-1.1 2.3-2 4.6-2.9 6.9-.9 2.4-1.8 4.6-2.6 7.2l-.8 2.7 2.5 1.3c8.2 4.1 16.7 7.5 25.4 10.6 8.7 2.9 17.4 5.3 26.3 7.4 8.9 2 17.8 3.6 26.8 4.8s18 2.2 27 2.8c18.1 1.3 36.2 1.6 54.3 1s36-1.9 54.1-4.2l3.6-.5-1.1-4.1z" style="clip-path:url(#SVGID_00000180356302496876410160000011999291660346981539_);fill:#423d3f"/><defs><path id="SVGID_00000093895107874708891430000015093179717226722689_" d="M606-47.2h238.3V352H606z" transform="matrix(.08727 -.9962 .9962 .08727 510.05 861.536)"/></defs><clipPath id="SVGID_00000006700911622554405540000014843081668874863253_"><use xlink:href="#SVGID_00000093895107874708891430000015093179717226722689_" style="overflow:visible"/></clipPath><g style="clip-path:url(#SVGID_00000006700911622554405540000014843081668874863253_)"><path d="M683 254.4c11.1 8.1 23.4 13.7 36.2 14.6 12.8 1.1 25.6-2.7 38.5-8.1-5 4.9-10.9 8.8-17.6 11.4-6.7 2.6-14 3.8-21.3 3.3-7.3-.7-14.4-2.9-20.5-6.6-6.2-3.6-11.6-8.4-15.3-14.6z" class="st33"/><path d="M693.5 198.6c-.8 10-9.8 17.3-19.8 16.5-10.1-.8-17.5-9.7-16.7-19.7s9.8-17.3 19.8-16.5c10.1.9 17.6 9.8 16.7 19.7z" class="st34"/><path d="M688.8 198.2c-.6 7-6.8 12.1-13.7 11.5s-12.1-6.8-11.5-13.7c.6-7 6.8-12.1 13.7-11.5 7 .6 12.1 6.7 11.5 13.7z" class="st35"/><path d="M671.2 193.5c-.2 2-2 3.5-4 3.3s-3.5-2-3.3-4 2-3.5 4-3.3c2 .1 3.5 1.9 3.3 4z" class="st36"/><path d="M704.3 206.9S690.4 184 667.5 185s-26.6 11.6-26.6 11.6l3.8-31.9 15 2.5 56.6 17.5-12 22.2z" class="st37"/><path d="M702.3 204.2c-3.7-3.9-7.5-7.4-11.7-10.3-4.1-2.9-8.6-5.3-13.3-6.6-2.4-.7-4.8-1.1-7.2-1.3-2.5-.2-4.9-.1-7.4.2-5 .7-9.9 2.2-14.9 4.1 4-3.6 8.9-6.1 14.1-7.5 2.7-.7 5.5-1 8.2-1 2.7.1 5.6.5 8.3 1.3 5.4 1.5 10.2 4.5 14.2 8.2 4.2 3.6 7.6 8 9.7 12.9z" class="st38"/><path d="M757.1 204.1c-.8 10 6.6 18.8 16.7 19.7 10.1.9 18.9-6.5 19.8-16.5s-6.6-18.8-16.7-19.7c-10-.7-18.9 6.6-19.8 16.5z" class="st34"/><path d="M761.8 204.6c-.6 7 4.5 13.1 11.5 13.7 7 .6 13.1-4.5 13.7-11.5s-4.5-13.1-11.5-13.7c-7-.6-13.1 4.5-13.7 11.5z" class="st35"/><path d="M762.2 201.4c-.2 2 1.3 3.8 3.3 4s3.8-1.3 4-3.3-1.3-3.8-3.3-4-3.8 1.3-4 3.3z" class="st36"/><path d="M745.2 210.4s17.6-20.1 40.1-15.1 24.1 16 24.1 16l1.9-32.1-15.2-.2-58.8 7.4 7.9 24z" class="st37"/><path d="M747.5 208.2c2.9-4.4 7-8.1 11.6-11.1 4.6-2.9 9.9-5 15.5-5.6 2.7-.3 5.7-.2 8.4.2 2.8.5 5.5 1.3 7.9 2.5 5 2.4 9.3 5.7 12.6 9.9-4.5-2.7-9.1-5.2-13.9-6.6-2.4-.7-4.8-1.2-7.3-1.5-2.5-.2-4.9-.3-7.4.1-4.9.5-9.7 2.1-14.2 4.2-4.5 1.9-8.9 4.7-13.2 7.9z" class="st38"/></g><path d="M754.5 167.4c.3-3.2-.2-6.3-1.2-9.1-.4-.9-.7-1.7-1.1-2.5-.8-1.4-1.6-2.7-2.6-4-.2-.3-.5-.5-.7-.8-.9-1-2-1.9-3.1-2.7-1.7-1.2-3.6-2.2-5.6-2.9-.7-.3-1.3-.5-2.1-.6-1-.3-2.2-.4-4.5-.7l-138.8-12.2-23.2-2.1c-11.8-1-22.2 7.7-23.3 19.5l-19.4 221.3c-1 11.8 7.7 22.2 19.5 23.3l163.2 14.3c11.8 1 22.2-7.7 23.3-19.5l8.5-96.7 11.1-124.6z" class="st39"/><path d="M531.466 388.416 552.42 149.23l182.404 15.979-20.953 239.187z" class="st2"/><path d="M535.6 341.4 725.9 293l-8.3 116.6-186.1-21.1z" style="fill:#e08a04"/><defs><path id="SVGID_00000086654722046733975850000016169955630569120384_" d="m704.5 405.9-169.1-22.6 20-228.4 169.8 21.4z"/></defs><clipPath id="SVGID_00000085935751133452096680000010201894482433114256_"><use xlink:href="#SVGID_00000086654722046733975850000016169955630569120384_" style="overflow:visible"/></clipPath><path d="M718.2 284.7c-51.3-6.1-87.7 9.3-87.7 9.3l-13.1-53.9-2.2-32.3 220.9 41.1-31.5 60.3c.1 0-20.8-16.7-86.4-24.5z" style="clip-path:url(#SVGID_00000085935751133452096680000010201894482433114256_);fill:#18181c"/><defs><path id="SVGID_00000143617890786355447450000000473609468815560894_" d="m704.5 405.9-169.1-22.6 20-228.4 169.8 21.4z"/></defs><clipPath id="SVGID_00000061447537616450306430000006265546737252669323_"><use xlink:href="#SVGID_00000143617890786355447450000000473609468815560894_" style="overflow:visible"/></clipPath><path d="M806.7 391.9s-1.4-3.9-25-14.5c-23.7-10.6-40.7-23.9-39.1-42.1 1.6-18.3 4.2-48 4.2-48l-56.1-4.9s-2.6 29.8-4.2 48c-1.6 18.3-20.6 28.4-45.8 34.8s-27.1 10-27.1 10L627 446l154.2 13.5 67.8 83.8-42.3-151.4z" style="clip-path:url(#SVGID_00000061447537616450306430000006265546737252669323_);fill:#eed5c1"/><defs><path id="SVGID_00000104668009749690111200000013182972160509727920_" d="m704.5 405.9-169.1-22.6 20-228.4 169.8 21.4z"/></defs><clipPath id="SVGID_00000031193550214113841250000018248253756726243993_"><use xlink:href="#SVGID_00000104668009749690111200000013182972160509727920_" style="overflow:visible"/></clipPath><path d="M847.9 158.8c-7.8 89-53.7 158.3-130.4 151.6-76.7-6.7-112.8-84.1-105.1-173 7.8-89 52.5-94.1 129.2-87.5 76.7 6.7 114.1 19.9 106.3 108.9z" style="clip-path:url(#SVGID_00000031193550214113841250000018248253756726243993_);fill:#f6e2d0"/><defs><path id="SVGID_00000013174061476285036680000013223858112607353255_" d="m704.5 405.9-169.1-22.6 20-228.4 169.8 21.4z"/></defs><clipPath id="SVGID_00000087386766887720197420000013367942940309079223_"><use xlink:href="#SVGID_00000013174061476285036680000013223858112607353255_" style="overflow:visible"/></clipPath><defs><path id="SVGID_00000009557178264774013760000004451363461485645970_" d="m704.5 405.9-169.1-22.6 20-228.4 169.8 21.4z"/></defs><clipPath id="SVGID_00000183947673224748587840000008635600884518377390_"><use xlink:href="#SVGID_00000009557178264774013760000004451363461485645970_" style="overflow:visible"/></clipPath><path d="M808.4 390c-9.1-6.2-39.3-23.3-39.3-23.3-7.2 12.1-47.7 20-47.7 20l-13.6 27.9-8.5-29.8s-38.5-14.8-43.5-28c0 0-32.6 11.5-42.7 16.1-6.4 2.8-51.6 102.8-51.6 102.8l32.3 23.3 31.9-53.2 8.9 78.6 58.8 5.2 2.6.2h.3l1.3.1 1.3.1h.3l2.6.2 58.8 5.2 22.4-75.9 22.1 58 35.9-17.2c.3-.1-26.8-106.4-32.6-110.3z" style="clip-path:url(#SVGID_00000183947673224748587840000008635600884518377390_);fill:#4d2b74"/><defs><path id="SVGID_00000165212496268368035620000013168737596393510044_" d="m704.5 405.9-169.1-22.6 20-228.4 169.8 21.4z"/></defs><clipPath id="SVGID_00000007415732402810294230000001986972882324936579_"><use xlink:href="#SVGID_00000165212496268368035620000013168737596393510044_" style="overflow:visible"/></clipPath><g style="clip-path:url(#SVGID_00000007415732402810294230000001986972882324936579_)"><path d="m702.6 395.9-.5-1.8c-24.3-4-45-16.2-58.4-32.9-.6.2-1.1.4-1.7.6 13.7 17.5 35.3 30.2 60.6 34.1zM782 374.1c-.6-.3-1-.6-1.5-.8-16.1 14.1-38.6 22.6-63.2 22.2l-.8 1.7c25.4.5 48.8-8.3 65.5-23.1z" class="st13"/></g><defs><path id="SVGID_00000028290127037974090780000007707559604914590654_" d="m704.5 405.9-169.1-22.6 20-228.4 169.8 21.4z"/></defs><clipPath id="SVGID_00000068673588581939177950000016646797051149890207_"><use xlink:href="#SVGID_00000028290127037974090780000007707559604914590654_" style="overflow:visible"/></clipPath><radialGradient id="SVGID_00000006683847406713830400000003210641830933768882_" cx="801.508" cy="77.14" r="20.885" gradientTransform="matrix(.9966 .0873 .08727 -.9962 -15.515 251.82)" gradientUnits="userSpaceOnUse"><stop offset="0" style="stop-color:#efc2a8"/><stop offset="1" style="stop-color:#f6e2d0"/></radialGradient><path d="M810.8 246.8c-1 11.5-11.1 20-22.6 18.9s-20-11.1-19-22.6 11.1-20 22.6-18.9c11.5.9 20 11.1 19 22.6z" style="clip-path:url(#SVGID_00000068673588581939177950000016646797051149890207_);fill:url(#SVGID_00000006683847406713830400000003210641830933768882_)"/><defs><path id="SVGID_00000023966371445030243630000016108234107654961572_" d="m704.5 405.9-169.1-22.6 20-228.4 169.8 21.4z"/></defs><clipPath id="SVGID_00000126306267298923486110000009201181876361587386_"><use xlink:href="#SVGID_00000023966371445030243630000016108234107654961572_" style="overflow:visible"/></clipPath><radialGradient id="SVGID_00000110432383555159967920000015594077522042361253_" cx="668.349" cy="77.214" r="20.851" gradientTransform="matrix(.9966 .0873 .08727 -.9962 -15.515 251.82)" gradientUnits="userSpaceOnUse"><stop offset="0" style="stop-color:#efc2a8"/><stop offset="1" style="stop-color:#f6e2d0"/></radialGradient><path d="M678.1 235.1c-1 11.5-11.1 20-22.6 18.9s-20-11.1-19-22.6 11.1-20 22.6-18.9 20.1 11.1 19 22.6z" style="clip-path:url(#SVGID_00000126306267298923486110000009201181876361587386_);fill:url(#SVGID_00000110432383555159967920000015594077522042361253_)"/><defs><path id="SVGID_00000013893493952654256240000016660566800066313605_" d="m704.5 405.9-169.1-22.6 20-228.4 169.8 21.4z"/></defs><clipPath id="SVGID_00000115498772964169042580000008334895253483070101_"><use xlink:href="#SVGID_00000013893493952654256240000016660566800066313605_" style="overflow:visible"/></clipPath><path d="M870.5 201.3c7-79.2-17.1-171.4-128.8-181.2S590.1 97 583.2 176.1c-4 45 13 123.8 47.3 117.9-7.2-32.1-7-76.9-4.5-105 7-79.2 52.4-82.8 107.7-77.9 55.2 4.8 99.4 16.3 92.5 95.5-2.5 28-10.1 72.2-22.7 102.5" style="clip-path:url(#SVGID_00000115498772964169042580000008334895253483070101_);fill:#302d2e"/><defs><path id="SVGID_00000059275806975067893790000002221196397179642801_" d="m704.5 405.9-169.1-22.6 20-228.4 169.8 21.4z"/></defs><clipPath id="SVGID_00000106118198287132889180000001356463485156599949_"><use xlink:href="#SVGID_00000059275806975067893790000002221196397179642801_" style="overflow:visible"/></clipPath><path d="M610.6 132.5s42.6 27.5 116.3 34 137.9-11.7 137.9-11.7l-89.2-52.7-91.9-8-60.9 6.6" style="clip-path:url(#SVGID_00000106118198287132889180000001356463485156599949_);fill:#2d2d31"/><defs><path id="SVGID_00000045599791112877579100000017873014064517103758_" d="m704.5 405.9-169.1-22.6 20-228.4 169.8 21.4z"/></defs><clipPath id="SVGID_00000145016970437997700560000009353464903168836526_"><use xlink:href="#SVGID_00000045599791112877579100000017873014064517103758_" style="overflow:visible"/></clipPath><path d="M586.8 149.7s-17.6 78.5 15.3 156.3c0 0 16.3-8.7 27.1-12.1 0 0-9.7-53-4.4-112l-38-32.2z" style="clip-path:url(#SVGID_00000145016970437997700560000009353464903168836526_);fill:#2d2d31"/><defs><path id="SVGID_00000057843641344622551760000008097172173811035574_" d="m704.5 405.9-169.1-22.6 20-228.4 169.8 21.4z"/></defs><clipPath id="SVGID_00000022533514036954478410000002238988681549113785_"><use xlink:href="#SVGID_00000057843641344622551760000008097172173811035574_" style="overflow:visible"/></clipPath><path d="M871.5 174.6s3.7 80.4-42.2 151.2c0 0-14.5-11.4-24.6-16.6 0 0 18.8-50.5 23.8-109.5l43-25.1z" style="clip-path:url(#SVGID_00000022533514036954478410000002238988681549113785_);fill:#2d2d31"/><defs><path id="SVGID_00000031203515313077489880000006052905333895739267_" d="m704.5 405.9-169.1-22.6 20-228.4 169.8 21.4z"/></defs><clipPath id="SVGID_00000092442773029882896750000016781261096288238751_"><use xlink:href="#SVGID_00000031203515313077489880000006052905333895739267_" style="overflow:visible"/></clipPath><g style="clip-path:url(#SVGID_00000092442773029882896750000016781261096288238751_)"><path d="M668.5 527.3c2.5-123.3.6-179.5-10.9-173.5C638.8 363.7 606 369 606 369l-63.8 147.3 43.8 3.9 29.8-55.3 7.1 58.6 45.6 3.8z" class="st21"/><path d="M615.6 464.6c.8-8.3 1.5-16.6 1.8-24.9.4-8.3.6-16.6.3-24.8-.2-4.1-.4-8.2-.8-12.3-.5-4.1-.9-8.1-1.5-12.2-.3-2-.7-4-1.1-5.9-.5-2-.9-3.9-1.6-5.7-1.3-3.8-3.2-7.4-6.7-9.6l.2-.4c2.1.6 4.1 1.8 5.6 3.4s2.8 3.4 3.9 5.4c2.1 3.9 3.3 8 4.2 12.2 1.9 8.4 1.7 16.9 1.5 25.3s-.8 16.8-1.7 25.1c-.9 8.3-2.1 16.6-3.7 24.8l-.4-.4z" class="st22"/></g><defs><path id="SVGID_00000058547500014819496680000013242961698460688006_" d="m704.5 405.9-169.1-22.6 20-228.4 169.8 21.4z"/></defs><clipPath id="SVGID_00000100354866521197487710000005447047741417188762_"><use xlink:href="#SVGID_00000058547500014819496680000013242961698460688006_" style="overflow:visible"/></clipPath><g style="clip-path:url(#SVGID_00000100354866521197487710000005447047741417188762_)"><path d="M726.4 532.3c19-121.8 30.7-176.9 40.9-169 16.8 13 48.2 23.9 48.2 23.9l37.2 156.1-43.8-3.9-19.7-59.7-17.2 56.5-45.6-3.9z" class="st21"/><path d="M789.4 479.9c.7-8.3 1.4-16.6 2.5-24.8 1-8.2 2.4-16.4 4-24.5.8-4.1 1.8-8 3-12 1.1-4 2.3-7.8 3.6-11.7.7-2 1.3-3.8 2.1-5.7.8-1.9 1.6-3.7 2.6-5.4 2-3.4 4.4-6.7 8.3-8.3l-.1-.5c-2.2.2-4.2 1.1-6 2.4s-3.4 2.8-4.7 4.6c-2.7 3.4-4.7 7.4-6.3 11.2-3.3 7.9-4.6 16.4-5.9 24.6-1.3 8.3-2.1 16.6-2.7 25-.5 8.3-.8 16.7-.8 25.1h.4z" class="st22"/></g><defs><path id="SVGID_00000036958189974130662320000011735276939345946812_" d="m704.5 405.9-169.1-22.6 20-228.4 169.8 21.4z"/></defs><clipPath id="SVGID_00000143581829769300768960000014759215610714079124_"><use xlink:href="#SVGID_00000036958189974130662320000011735276939345946812_" style="overflow:visible"/></clipPath><defs><path id="SVGID_00000101065131307007058330000007634670939103748756_" d="m704.5 405.9-169.1-22.6 20-228.4 169.8 21.4z"/></defs><clipPath id="SVGID_00000174593328510795440470000007165859211350123675_"><use xlink:href="#SVGID_00000101065131307007058330000007634670939103748756_" style="overflow:visible"/></clipPath><path d="M711.2 374.9c-7.6-.7-13.4-7.4-12.7-15.1s7.4-13.3 15.2-12.6c7.7.7 13.4 7.4 12.7 15.1-.8 7.6-7.4 13.2-15.2 12.6zm2-22.2c-4.5-.4-8.6 3-9 7.5s3 8.6 7.5 9 8.6-3 9-7.5c.4-4.5-3-8.6-7.5-9z" class="st26" style="clip-path:url(#SVGID_00000174593328510795440470000007165859211350123675_)"/><defs><path id="SVGID_00000089555894559444600870000003775360724377843371_" d="m704.5 405.9-169.1-22.6 20-228.4 169.8 21.4z"/></defs><clipPath id="SVGID_00000025425005425710966000000014369253877348302227_"><use xlink:href="#SVGID_00000089555894559444600870000003775360724377843371_" style="overflow:visible"/></clipPath><path d="M700.8 359.8c.6-6.5 6.2-11.2 12.7-10.6s11.2 6.2 10.6 12.7" style="clip-path:url(#SVGID_00000025425005425710966000000014369253877348302227_);fill:none;stroke:#d5d7d8;stroke-width:1.0849;stroke-miterlimit:10"/><defs><path id="SVGID_00000117650010813505363580000011715647524505463706_" d="m704.5 405.9-169.1-22.6 20-228.4 169.8 21.4z"/></defs><clipPath id="SVGID_00000011749547090546257180000007991658911507987852_"><use xlink:href="#SVGID_00000117650010813505363580000011715647524505463706_" style="overflow:visible"/></clipPath><path d="M722.3 366.4c-2.1 3-5.7 4.9-9.5 4.6-3.9-.4-7.1-2.8-8.6-6.1" style="clip-path:url(#SVGID_00000011749547090546257180000007991658911507987852_);fill:none;stroke:#d5d7d8;stroke-width:1.0849;stroke-linecap:round;stroke-miterlimit:10"/><defs><path id="SVGID_00000018915268340112898290000008404881162933737399_" d="m704.5 405.9-169.1-22.6 20-228.4 169.8 21.4z"/></defs><clipPath id="SVGID_00000016054998860212445560000009867708299520307618_"><use xlink:href="#SVGID_00000018915268340112898290000008404881162933737399_" style="overflow:visible"/></clipPath><path d="M707.6 355.3c-5.5-1-24.4-9.1-26.6-13.3 0 0-5.1 6.3-6.5 7 0 0 16.3 12.7 30.7 13.9 0 0-.5-4.5 2.4-7.6z" style="clip-path:url(#SVGID_00000016054998860212445560000009867708299520307618_);fill:#494746"/><defs><path id="SVGID_00000156553658747486347840000007828015851809323169_" d="m704.5 405.9-169.1-22.6 20-228.4 169.8 21.4z"/></defs><clipPath id="SVGID_00000147222433806504976960000008928977256978538114_"><use xlink:href="#SVGID_00000156553658747486347840000007828015851809323169_" style="overflow:visible"/></clipPath><path d="M717.6 356.1c5.6-.1 25.6-4.8 28.5-8.5 0 0 4 7.1 5.2 8 0 0-18.3 9.7-32.7 8.4.1.1 1.3-4.3-1-7.9z" style="clip-path:url(#SVGID_00000147222433806504976960000008928977256978538114_);fill:#494746"/><defs><path id="SVGID_00000085227711859618652270000007140022863496816015_" d="m704.5 405.9-169.1-22.6 20-228.4 169.8 21.4z"/></defs><clipPath id="SVGID_00000043436641384406675290000007518997156380023740_"><use xlink:href="#SVGID_00000085227711859618652270000007140022863496816015_" style="overflow:visible"/></clipPath><path d="m841.5 160.2-2-8.8c-.8-2.9-1.5-5.7-2.3-8.8l-1.2-4.3c-.4-1.4-.8-2.9-1.3-4.3-.6-1.4-1.1-2.8-1.7-4.1-.6-1.4-1.2-2.8-1.9-4.1-2.5-5.5-5.3-10.8-8.6-15.9-1.6-2.5-3.4-5-5.3-7.4-1.9-2.3-3.9-4.5-6.3-6.3 3.9 4.5 6.5 9.8 8.9 15.2 2.3 5.4 4.3 10.8 5.9 16.4.9 2.7 1.5 5.7 2.4 8.5.8 2.8 1.8 5.6 2.6 8.3l2.3 8.5 1.1 5c-16.6 2.1-33.5 3.3-50.3 3.9-18.1.6-36.1.3-54.1-1-9-.7-18-1.6-26.9-2.8-9-1.3-17.7-2.8-26.5-4.8s-17.4-4.3-25.9-7.3c-7.5-2.6-14.9-5.7-22.1-9 .5-1.3.9-2.6 1.5-4 .5-1.1.9-2.3 1.4-3.3s1-2.2 1.5-3.3c1.7-4.5 3.7-9 5.8-13.3 1-2.3 2.3-4.3 3.4-6.5 1.2-2.1 2.5-4.2 3.8-6.3 2.5-4.1 5.5-8.2 8.6-12.2-3.7 3.3-7.4 6.8-10.6 10.6-1.7 1.9-3.2 3.9-4.8 5.7-1.5 2-3 4-4.4 6.1-2.8 4.1-5.6 8.5-8 12.9-1.1 2.3-2 4.6-3 7-.9 2.4-1.9 4.7-2.6 7.3l-.8 2.7 2.5 1.3c8.3 4.1 16.9 7.6 25.6 10.6 8.8 3 17.6 5.4 26.6 7.4 9 2.1 18 3.6 27 4.9 9 1.2 18.2 2.2 27.3 2.8 18.3 1.3 36.6 1.6 54.8 1 18.3-.7 36.5-1.9 54.7-4.3l3.6-.5-.7-3.5z" style="clip-path:url(#SVGID_00000043436641384406675290000007518997156380023740_);fill:#423d3f"/><defs><path id="SVGID_00000034806903297012759920000013256706345595159948_" d="m704.5 405.9-169.1-22.6 20-228.4 169.8 21.4z"/></defs><clipPath id="SVGID_00000026851441947087085140000003722140286974404788_"><use xlink:href="#SVGID_00000034806903297012759920000013256706345595159948_" style="overflow:visible"/></clipPath><g style="clip-path:url(#SVGID_00000026851441947087085140000003722140286974404788_)"><path d="M682.9 254.6c11.3 8.3 23.6 13.9 36.6 14.8 13 1.1 25.9-2.7 38.8-8.2-5 5-11.1 8.9-17.8 11.5-6.7 2.7-14.1 3.8-21.6 3.3-7.4-.7-14.5-2.9-20.7-6.7-6.2-3.6-11.7-8.6-15.3-14.7z" class="st33"/><path d="M693.4 198.2c-.8 10.1-9.9 17.5-20 16.6-10.2-.8-17.7-9.8-16.9-19.9.8-10.1 9.8-17.5 20-16.6s17.8 9.8 16.9 19.9z" class="st34"/><path d="M688.7 197.7c-.7 7.1-6.8 12.3-13.9 11.6s-12.3-6.8-11.6-13.9c.7-7.1 6.8-12.3 13.9-11.6 7 .7 12.2 6.9 11.6 13.9z" class="st35"/><path d="M670.9 192.9c-.2 2-2 3.5-4 3.4-2-.2-3.5-2-3.4-4 .2-2 2-3.5 4-3.4 2.1.1 3.6 2 3.4 4z" class="st36"/><path d="M704.3 206.5s-14-23.1-37.2-22.1c-23.3 1-26.9 11.7-26.9 11.7l3.8-32.2 15.2 2.5 57.2 17.7-12.1 22.4z" class="st37"/><path d="M702.3 203.7c-3.7-3.9-7.6-7.4-11.8-10.4-4.1-2.9-8.7-5.3-13.5-6.7-2.4-.7-4.8-1.1-7.3-1.3s-4.9-.1-7.4.2c-5 .7-10 2.3-15 4.1 4.1-3.6 9-6.2 14.3-7.6 2.7-.7 5.5-1 8.3-.9s5.7.5 8.4 1.3c5.4 1.6 10.4 4.5 14.3 8.3 4.1 3.7 7.6 8.1 9.7 13z" class="st38"/><path d="M757.7 203.8c-.8 10.1 6.7 18.9 16.9 19.9 10.2.8 19.1-6.6 20-16.6.8-10-6.6-18.9-16.9-19.9s-19.1 6.6-20 16.6z" class="st34"/><path d="M762.5 204.2c-.7 7.1 4.6 13.2 11.6 13.9 7.1.7 13.2-4.6 13.9-11.6.7-7.1-4.6-13.2-11.6-13.9-7.1-.6-13.3 4.5-13.9 11.6z" class="st35"/><path d="M762.9 200.9c-.2 2 1.3 3.9 3.4 4 2 .2 3.9-1.3 4-3.4.2-2-1.3-3.9-3.4-4-2-.1-3.9 1.4-4 3.4z" class="st36"/><path d="M745.6 210.1s17.8-20.3 40.5-15.3c22.7 5.1 24.4 16.2 24.4 16.2l1.9-32.4-15.4-.2-59.5 7.5 8.1 24.2z" class="st37"/><path d="M748 207.8c3-4.5 7.1-8.2 11.7-11.2 4.6-2.9 10-5.1 15.6-5.7 2.8-.3 5.7-.3 8.5.2s5.5 1.3 8 2.5c5 2.4 9.4 5.8 12.8 10-4.6-2.7-9.2-5.2-14-6.7-2.5-.7-4.8-1.2-7.4-1.5-2.5-.2-4.9-.2-7.4 0-4.9.6-9.8 2.1-14.4 4.2-4.7 2.3-9.1 5-13.4 8.2z" class="st38"/></g><path d="m636.3 154.3-30.7.9L729 289.5l3.3-128.8z" class="st4"/><path d="m561.9 161.8 163.3 14.3-18.4 209.6-163.2-14.3m-2.7-215.1-19.4 221.3c-1 11.8 7.7 22.2 19.5 23.3l163.2 14.3c11.8 1 22.2-7.7 23.3-19.5l19.4-221.3c1-11.8-7.7-22.2-19.5-23.3l-163.2-14.3c-11.9-1-22.2 7.8-23.3 19.5z" class="st5"/><path d="m736 299 10.9-124.6c1-11.8-7.7-22.2-19.5-23.3L588.6 139l25.5 27.2 111.1 9.9-8.9 101.6L736 299z" class="st6"/><circle cx="622.9" cy="392.9" r="8.3" style="fill:#012f3d"/><path d="m809.2 239.6-2.2-.2-65.4-5.7-17.4-1.5c-9.9-.8-18.7 6.4-19.5 16.3l-16 182.5c-.9 11.1 7.3 20.9 18.4 21.9l5.3.5 75.4 6.6c11.1.9 20.9-7.3 21.9-18.4l7.8-89.8 1-12.3 7.1-80.4c.8-9.9-6.6-18.6-16.4-19.5z" class="st39"/><path d="m795 437.8-106.2-9.3 16.3-185.9 106.8 9.4z" class="st2"/><defs><path id="SVGID_00000172436912607323679250000012116577643058299287_" d="M660.3 291.1h178.3V391H660.3z" transform="matrix(.08727 -.9962 .9962 .08727 344.255 1057.83)"/></defs><clipPath id="SVGID_00000132801459896352677790000011086677109730544820_"><use xlink:href="#SVGID_00000172436912607323679250000012116577643058299287_" style="overflow:visible"/></clipPath><path d="M716.8 285.1c-49.6-5.9-84.8 9-84.8 9L619.3 242l-2.2-31.2 213.6 39.8-30.3 58.4c0-.1-20.2-16.2-83.6-23.9z" style="clip-path:url(#SVGID_00000132801459896352677790000011086677109730544820_);fill:#18181c"/><defs><path id="SVGID_00000171697319508091421860000016471737093216136598_" d="M660.3 291.1h178.3V391H660.3z" transform="matrix(.08727 -.9962 .9962 .08727 344.255 1057.83)"/></defs><clipPath id="SVGID_00000115480470927848263380000010493027928973498772_"><use xlink:href="#SVGID_00000171697319508091421860000016471737093216136598_" style="overflow:visible"/></clipPath><path d="M802.5 387s-1.3-3.8-24.2-14c-22.8-10.4-39.4-23.2-37.8-40.8 1.5-17.6 4.1-46.5 4.1-46.5l-54.3-4.7s-2.5 28.8-4.1 46.5-20 27.4-44.3 33.6-26.3 9.6-26.3 9.6l13 68.5 149.2 13.1 65.5 81L802.5 387z" style="clip-path:url(#SVGID_00000115480470927848263380000010493027928973498772_);fill:#eed5c1"/><defs><path id="SVGID_00000127016256255294915310000016769317787932383650_" d="M660.3 291.1h178.3V391H660.3z" transform="matrix(.08727 -.9962 .9962 .08727 344.255 1057.83)"/></defs><clipPath id="SVGID_00000018236404129948050350000008587724532471057025_"><use xlink:href="#SVGID_00000127016256255294915310000016769317787932383650_" style="overflow:visible"/></clipPath><path d="M842.2 163.3c-7.5 86-52 153.2-126.2 146.7s-109.1-81.3-101.6-167.5c7.5-86 50.8-91.1 125-84.6 74.2 6.6 110.4 19.4 102.8 105.4z" style="clip-path:url(#SVGID_00000018236404129948050350000008587724532471057025_);fill:#f6e2d0"/><defs><path id="SVGID_00000086693208055707730710000011201755722005723534_" d="M660.3 291.1h178.3V391H660.3z" transform="matrix(.08727 -.9962 .9962 .08727 344.255 1057.83)"/></defs><clipPath id="SVGID_00000076595103764824792340000000551250641825651851_"><use xlink:href="#SVGID_00000086693208055707730710000011201755722005723534_" style="overflow:visible"/></clipPath><defs><path id="SVGID_00000026875351412565954460000002433779267963475086_" d="M660.3 291.1h178.3V391H660.3z" transform="matrix(.08727 -.9962 .9962 .08727 344.255 1057.83)"/></defs><clipPath id="SVGID_00000047029023335358305460000005459756355014152352_"><use xlink:href="#SVGID_00000026875351412565954460000002433779267963475086_" style="overflow:visible"/></clipPath><path d="M804 387c-8.9-6-38-22.5-38-22.5-7 11.8-46.1 19.3-46.1 19.3l-13.1 27-8.2-28.8s-37.3-14.3-42-27c0 0-31.6 11.2-41.3 15.6-6.2 2.8-49.9 99.4-49.9 99.4l31.2 22.5 30.7-51.5 8.6 76.1 56.9 5 2.5.2h.3l1.3.1 1.3.1h.3l2.5.2 56.9 5 21.7-73.4 21.3 56.1 34.7-16.8c.1 0-26-102.8-31.6-106.6z" style="clip-path:url(#SVGID_00000047029023335358305460000005459756355014152352_);fill:#4d2b74"/><defs><path id="SVGID_00000065776712452659452140000014878634630998557105_" d="M660.3 291.1h178.3V391H660.3z" transform="matrix(.08727 -.9962 .9962 .08727 344.255 1057.83)"/></defs><clipPath id="SVGID_00000001621337183876699070000013465584825198943125_"><use xlink:href="#SVGID_00000065776712452659452140000014878634630998557105_" style="overflow:visible"/></clipPath><g style="clip-path:url(#SVGID_00000001621337183876699070000013465584825198943125_)"><path d="m701.6 392.8-.5-1.7c-23.5-3.9-43.5-15.6-56.5-31.9-.6.2-1 .4-1.6.6 13.3 16.9 34.1 29.2 58.6 33zM778.4 371.7c-.5-.3-1-.6-1.5-.8-15.6 13.7-37.4 21.9-61.3 21.5l-.8 1.6c24.9.5 47.5-8 63.6-22.3z" class="st13"/></g><defs><path id="SVGID_00000065041832028473478590000005863929830269641091_" d="M660.3 291.1h178.3V391H660.3z" transform="matrix(.08727 -.9962 .9962 .08727 344.255 1057.83)"/></defs><clipPath id="SVGID_00000100346891871211758130000004315035449968230804_"><use xlink:href="#SVGID_00000065041832028473478590000005863929830269641091_" style="overflow:visible"/></clipPath><radialGradient id="SVGID_00000124850746327521973430000008466400274632726696_" cx="797.586" cy="75.063" r="20.175" gradientTransform="matrix(.9962 .08727 .08727 -.9962 -14.903 251.873)" gradientUnits="userSpaceOnUse"><stop offset="0" style="stop-color:#efc2a8"/><stop offset="1" style="stop-color:#f6e2d0"/></radialGradient><path d="M806.3 248.5c-.9 11.1-10.7 19.3-21.9 18.4-11.1-.9-19.3-10.7-18.4-21.9.9-11.2 10.7-19.3 21.9-18.4 11.2 1 19.4 10.8 18.4 21.9z" style="clip-path:url(#SVGID_00000100346891871211758130000004315035449968230804_);fill:url(#SVGID_00000124850746327521973430000008466400274632726696_)"/><defs><path id="SVGID_00000037653464617877780860000006647819567974569897_" d="M660.3 291.1h178.3V391H660.3z" transform="matrix(.08727 -.9962 .9962 .08727 344.255 1057.83)"/></defs><clipPath id="SVGID_00000099620701043012857610000014058631279729159596_"><use xlink:href="#SVGID_00000037653464617877780860000006647819567974569897_" style="overflow:visible"/></clipPath><radialGradient id="SVGID_00000152964628807941189020000005811322106323857038_" cx="668.742" cy="75.07" r="20.226" gradientTransform="matrix(.9962 .08727 .08727 -.9962 -14.903 251.873)" gradientUnits="userSpaceOnUse"><stop offset="0" style="stop-color:#efc2a8"/><stop offset="1" style="stop-color:#f6e2d0"/></radialGradient><path d="M678 237.2c-.9 11.1-10.7 19.3-21.9 18.4-11.2-.9-19.3-10.7-18.4-21.9.9-11.1 10.7-19.3 21.9-18.4 11.2 1 19.4 10.8 18.4 21.9z" style="clip-path:url(#SVGID_00000099620701043012857610000014058631279729159596_);fill:url(#SVGID_00000152964628807941189020000005811322106323857038_)"/><defs><path id="SVGID_00000133527340070930159680000006974503395368971430_" d="M660.3 291.1h178.3V391H660.3z" transform="matrix(.08727 -.9962 .9962 .08727 344.255 1057.83)"/></defs><clipPath id="SVGID_00000183227650779198321240000013180312701338021786_"><use xlink:href="#SVGID_00000133527340070930159680000006974503395368971430_" style="overflow:visible"/></clipPath><path d="M864 204.4c6.7-76.6-16.5-165.9-124.6-175.3s-146.5 74.5-153.2 151c-3.8 43.5 12.6 119.9 45.7 114.1-7-31.1-6.8-74.5-4.4-101.6 6.7-76.6 50.7-80.1 104.1-75.4 53.4 4.7 96.1 15.8 89.4 92.4-2.4 27.1-9.7 69.8-22 99.2" style="clip-path:url(#SVGID_00000183227650779198321240000013180312701338021786_);fill:#302d2e"/><defs><path id="SVGID_00000040548790312150266000000007194606331778814127_" d="M660.3 291.1h178.3V391H660.3z" transform="matrix(.08727 -.9962 .9962 .08727 344.255 1057.83)"/></defs><clipPath id="SVGID_00000060711078916385945460000012204099697547615364_"><use xlink:href="#SVGID_00000040548790312150266000000007194606331778814127_" style="overflow:visible"/></clipPath><path d="M612.6 137.9s41.2 26.7 112.5 32.9 133.4-11.4 133.4-11.4l-86.1-51-89-7.8-58.8 6.4" style="clip-path:url(#SVGID_00000060711078916385945460000012204099697547615364_);fill:#2d2d31"/><defs><path id="SVGID_00000152258237467400633010000014661463661749690496_" d="M660.3 291.1h178.3V391H660.3z" transform="matrix(.08727 -.9962 .9962 .08727 344.255 1057.83)"/></defs><clipPath id="SVGID_00000057858570169730848710000003867846726030207382_"><use xlink:href="#SVGID_00000152258237467400633010000014661463661749690496_" style="overflow:visible"/></clipPath><path d="M589.7 154.5s-17.1 76 14.8 151.2c0 0 15.7-8.4 26.3-11.7 0 0-9.3-51.3-4.2-108.3l-36.9-31.2z" style="clip-path:url(#SVGID_00000057858570169730848710000003867846726030207382_);fill:#2d2d31"/><defs><path id="SVGID_00000111883618424672373980000004745526902602411165_" d="M660.3 291.1h178.3V391H660.3z" transform="matrix(.08727 -.9962 .9962 .08727 344.255 1057.83)"/></defs><clipPath id="SVGID_00000114788196980170297880000009765079373586273720_"><use xlink:href="#SVGID_00000111883618424672373980000004745526902602411165_" style="overflow:visible"/></clipPath><path d="M865 178.7s3.6 77.8-40.8 146.3c0 0-14-11-23.8-16 0 0 18.1-48.9 23-105.9l41.6-24.4z" style="clip-path:url(#SVGID_00000114788196980170297880000009765079373586273720_);fill:#2d2d31"/><defs><path id="SVGID_00000124871238083613384910000014170124379816653960_" d="M660.3 291.1h178.3V391H660.3z" transform="matrix(.08727 -.9962 .9962 .08727 344.255 1057.83)"/></defs><clipPath id="SVGID_00000163044441096789556350000003831440261570325896_"><use xlink:href="#SVGID_00000124871238083613384910000014170124379816653960_" style="overflow:visible"/></clipPath><g style="clip-path:url(#SVGID_00000163044441096789556350000003831440261570325896_)"><path d="M668.6 519.8c2.4-119.2.6-173.7-10.6-167.8-18.3 9.5-49.9 14.7-49.9 14.7l-61.7 142.5 42.3 3.7 28.8-53.5 6.9 56.6 44.2 3.8z" class="st21"/><path d="M617.5 459.3c.8-8 1.4-16 1.8-24 .5-8 .6-16 .3-24-.2-4-.4-8-.8-12s-.8-7.8-1.4-11.8c-.3-1.9-.7-3.9-1-5.7-.4-1.9-.9-3.8-1.5-5.6-1.3-3.6-3.1-7.1-6.4-9.3l.2-.4c2 .6 3.9 1.8 5.4 3.3s2.7 3.3 3.7 5.2c2 3.8 3.2 7.8 4.1 11.8 1.8 8.1 1.6 16.3 1.5 24.4-.2 8.1-.8 16.2-1.6 24.2-.9 8-2 16-3.5 23.9h-.8z" class="st22"/></g><defs><path id="SVGID_00000019680150372060772540000004298087059670756278_" d="M660.3 291.1h178.3V391H660.3z" transform="matrix(.08727 -.9962 .9962 .08727 344.255 1057.83)"/></defs><clipPath id="SVGID_00000023272322017140632600000010805877627182902974_"><use xlink:href="#SVGID_00000019680150372060772540000004298087059670756278_" style="overflow:visible"/></clipPath><g style="clip-path:url(#SVGID_00000023272322017140632600000010805877627182902974_)"><path d="M724.6 524.7c18.4-117.9 29.7-171.1 39.6-163.5 16.3 12.6 46.6 23.2 46.6 23.2l36 151.1-42.3-3.7-19-57.8-16.6 54.6-44.3-3.9z" class="st21"/><path d="M785.6 474c.6-8 1.3-16 2.5-24 .9-8 2.3-15.9 3.9-23.7.8-3.9 1.8-7.8 2.9-11.6 1-3.8 2.3-7.5 3.5-11.3.7-1.9 1.3-3.7 2.1-5.5s1.6-3.5 2.5-5.3c1.9-3.3 4.3-6.4 8-8l-.1-.5c-2.1.2-4.1 1-5.8 2.4-1.7 1.2-3.3 2.7-4.5 4.4-2.6 3.3-4.5 7.1-6.1 10.9-3.2 7.7-4.4 15.8-5.7 23.8-1.2 8-2.1 16-2.6 24.1s-.8 16.1-.7 24.2l.1.1z" class="st22"/></g><defs><path id="SVGID_00000060010931844381144110000016014761584972777608_" d="M660.3 291.1h178.3V391H660.3z" transform="matrix(.08727 -.9962 .9962 .08727 344.255 1057.83)"/></defs><clipPath id="SVGID_00000135684106477060493160000009684138763902200707_"><use xlink:href="#SVGID_00000060010931844381144110000016014761584972777608_" style="overflow:visible"/></clipPath><defs><path id="SVGID_00000152973069585545200940000009325207990736780475_" d="M660.3 291.1h178.3V391H660.3z" transform="matrix(.08727 -.9962 .9962 .08727 344.255 1057.83)"/></defs><clipPath id="SVGID_00000018223360416842298060000010392787736909319854_"><use xlink:href="#SVGID_00000152973069585545200940000009325207990736780475_" style="overflow:visible"/></clipPath><path d="M710 372.4c-7.4-.7-12.9-7.2-12.3-14.6.7-7.4 7.2-12.9 14.6-12.3 7.4.7 12.9 7.2 12.3 14.6-.6 7.4-7.2 13-14.6 12.3zm1.9-21.4c-4.4-.4-8.3 2.9-8.7 7.3s2.9 8.3 7.3 8.7c4.4.4 8.3-2.9 8.7-7.3.4-4.4-2.9-8.4-7.3-8.7z" class="st26" style="clip-path:url(#SVGID_00000018223360416842298060000010392787736909319854_)"/><defs><path id="SVGID_00000084529961790772194820000005594175088774527672_" d="M660.3 291.1h178.3V391H660.3z" transform="matrix(.08727 -.9962 .9962 .08727 344.255 1057.83)"/></defs><clipPath id="SVGID_00000177454526321503632490000007444707861012253844_"><use xlink:href="#SVGID_00000084529961790772194820000005594175088774527672_" style="overflow:visible"/></clipPath><path d="M699.9 357.8c.6-6.2 6-10.9 12.3-10.4 6.2.6 10.9 6 10.4 12.3" style="clip-path:url(#SVGID_00000177454526321503632490000007444707861012253844_);fill:none;stroke:#d5d7d8;stroke-width:1.0849;stroke-miterlimit:10"/><defs><path id="SVGID_00000051347116088330204330000015036508451555477651_" d="M660.3 291.1h178.3V391H660.3z" transform="matrix(.08727 -.9962 .9962 .08727 344.255 1057.83)"/></defs><clipPath id="SVGID_00000112591147122161282000000009229251578986326965_"><use xlink:href="#SVGID_00000051347116088330204330000015036508451555477651_" style="overflow:visible"/></clipPath><path d="M720.7 364.2c-2 2.9-5.4 4.7-9.1 4.4-3.8-.3-6.9-2.7-8.3-5.9" style="clip-path:url(#SVGID_00000112591147122161282000000009229251578986326965_);fill:none;stroke:#d5d7d8;stroke-width:1.0849;stroke-linecap:round;stroke-miterlimit:10"/><defs><path id="SVGID_00000006703023778183182640000018401382952195588491_" d="M660.3 291.1h178.3V391H660.3z" transform="matrix(.08727 -.9962 .9962 .08727 344.255 1057.83)"/></defs><clipPath id="SVGID_00000018949261057766499310000014069459289849045169_"><use xlink:href="#SVGID_00000006703023778183182640000018401382952195588491_" style="overflow:visible"/></clipPath><path d="M706.4 353.5c-5.3-1-23.6-8.9-25.7-12.8 0 0-4.9 6.1-6.3 6.8 0 0 15.8 12.3 29.8 13.6-.1-.3-.5-4.7 2.2-7.6z" style="clip-path:url(#SVGID_00000018949261057766499310000014069459289849045169_);fill:#494746"/><defs><path id="SVGID_00000053530367715830844320000002680355689074217353_" d="M660.3 291.1h178.3V391H660.3z" transform="matrix(.08727 -.9962 .9962 .08727 344.255 1057.83)"/></defs><clipPath id="SVGID_00000167395836871456494820000008303434633415741356_"><use xlink:href="#SVGID_00000053530367715830844320000002680355689074217353_" style="overflow:visible"/></clipPath><path d="M716.2 354.3c5.4-.1 24.8-4.6 27.5-8.2 0 0 3.8 6.9 5.1 7.7 0 0-17.7 9.4-31.7 8.2.1 0 1.3-4.3-.9-7.7z" style="clip-path:url(#SVGID_00000167395836871456494820000008303434633415741356_);fill:#494746"/><defs><path id="SVGID_00000072971556862887052450000004957279377744001214_" d="M660.3 291.1h178.3V391H660.3z" transform="matrix(.08727 -.9962 .9962 .08727 344.255 1057.83)"/></defs><clipPath id="SVGID_00000132066083678880595680000011998659293379858078_"><use xlink:href="#SVGID_00000072971556862887052450000004957279377744001214_" style="overflow:visible"/></clipPath><path d="m835.9 164.6-2-8.5c-.8-2.8-1.4-5.6-2.2-8.4l-1.2-4.1c-.4-1.4-.8-2.8-1.2-4.1-.6-1.3-1.1-2.7-1.7-4.1-.6-1.3-1.1-2.7-1.8-4-2.5-5.3-5.2-10.5-8.3-15.4-1.5-2.5-3.3-4.8-5.1-7.1-1.9-2.2-3.8-4.4-6.1-6.1 3.8 4.3 6.3 9.5 8.6 14.6 2.3 5.2 4.1 10.5 5.7 15.9.8 2.6 1.5 5.5 2.3 8.2s1.8 5.4 2.5 8.1l2.2 8.2 1.1 4.8c-16 2-32.3 3.2-48.6 3.7-17.4.6-35 .3-52.3-.9-8.7-.7-17.3-1.5-26-2.7-8.6-1.2-17.2-2.7-25.6-4.6-8.5-2-16.9-4.2-25.1-7-7.3-2.5-14.4-5.5-21.3-8.8.5-1.2.9-2.5 1.4-3.8.4-1 .8-2.2 1.4-3.2.5-1 1-2.2 1.4-3.2 1.7-4.4 3.6-8.7 5.7-12.9 1-2.2 2.3-4.1 3.3-6.3 1.2-2 2.4-4.1 3.7-6.1 2.5-4.1 5.3-7.9 8.3-11.7-3.5 3.2-7.1 6.6-10.3 10.2-1.6 1.8-3.1 3.7-4.6 5.7s-2.9 3.9-4.3 5.9c-2.7 4.1-5.4 8.1-7.7 12.4-1 2.2-1.9 4.5-2.8 6.8-.8 2.3-1.8 4.5-2.5 7.1l-.8 2.6 2.5 1.2c8 4 16.3 7.4 24.8 10.3 8.5 2.8 17.1 5.2 25.7 7.2 8.7 2 17.4 3.5 26.2 4.7s17.6 2.1 26.4 2.7c17.6 1.2 35.3 1.5 53 .9s35.2-1.8 52.9-4.2l3.5-.5-1.1-3.5z" style="clip-path:url(#SVGID_00000132066083678880595680000011998659293379858078_);fill:#423d3f"/><defs><path id="SVGID_00000109738899963460093240000001011277716288252314_" d="M660.3 291.1h178.3V391H660.3z" transform="matrix(.08727 -.9962 .9962 .08727 344.255 1057.83)"/></defs><clipPath id="SVGID_00000002368156296982462680000002319926186969848495_"><use xlink:href="#SVGID_00000109738899963460093240000001011277716288252314_" style="overflow:visible"/></clipPath><g style="clip-path:url(#SVGID_00000002368156296982462680000002319926186969848495_)"><path d="M682.6 256c10.9 8 22.8 13.4 35.3 14.3 12.5 1.1 25-2.7 37.5-7.9-4.9 4.8-10.7 8.6-17.2 11.2-6.5 2.5-13.7 3.7-20.8 3.2-7.2-.7-14-2.8-20.1-6.5-6-3.6-11.2-8.4-14.7-14.3z" class="st33"/><path d="M692.8 201.4c-.8 9.7-9.5 17-19.4 16.1-9.8-.8-17.2-9.4-16.3-19.2s9.5-17 19.4-16.1c9.8.9 17.1 9.5 16.3 19.2z" class="st34"/><path d="M688.1 201c-.6 6.8-6.6 11.9-13.4 11.2-6.8-.7-11.9-6.6-11.2-13.4.6-6.8 6.6-11.9 13.4-11.2s11.9 6.6 11.2 13.4z" class="st35"/><path d="M670.9 196.3c-.2 2-1.9 3.5-3.9 3.3s-3.5-1.9-3.3-3.9 1.9-3.4 3.9-3.2c2.1.1 3.5 1.9 3.3 3.8z" class="st36"/><path d="M703.2 209.5s-13.6-22.3-36-21.4c-22.5 1-26 11.3-26 11.3l3.7-31.2 14.6 2.4 55.3 17.2-11.6 21.7z" class="st37"/><path d="M701.3 206.9c-3.6-3.8-7.4-7.2-11.4-10-4.1-2.8-8.4-5.1-13-6.5-2.3-.7-4.7-1.1-7.1-1.2-2.4-.2-4.8-.1-7.3.2-4.9.7-9.7 2.2-14.5 4.1 4-3.5 8.7-6 13.9-7.4 2.6-.7 5.3-1 8-.9s5.5.5 8.1 1.2c5.3 1.5 10 4.4 13.9 8 4.1 3.4 7.4 7.6 9.4 12.5z" class="st38"/><path d="M755 206.9c-.8 9.7 6.4 18.4 16.3 19.2 9.8.8 18.5-6.3 19.4-16.1.8-9.7-6.4-18.4-16.3-19.2-9.9-.8-18.6 6.3-19.4 16.1z" class="st34"/><path d="M759.5 207.2c-.6 6.8 4.4 12.8 11.2 13.4s12.8-4.4 13.4-11.2c.6-6.8-4.4-12.8-11.2-13.4-6.8-.5-12.8 4.4-13.4 11.2z" class="st35"/><path d="M760 204.1c-.2 2 1.3 3.8 3.2 3.9 2 .2 3.8-1.3 3.9-3.3.2-2-1.3-3.7-3.3-3.9-2-.1-3.8 1.4-3.8 3.3z" class="st36"/><path d="M743.2 213s17.2-19.6 39.2-14.8 23.7 15.6 23.7 15.6l1.8-31.4-14.8-.2-57.5 7.3 7.6 23.5z" class="st37"/><path d="M745.5 210.7c2.9-4.3 6.9-7.9 11.3-10.8 4.4-2.8 9.6-4.9 15.1-5.5 2.7-.3 5.5-.2 8.2.2s5.3 1.2 7.7 2.4c4.9 2.3 9.1 5.7 12.3 9.7-4.4-2.7-9-5-13.6-6.5-2.4-.7-4.7-1.2-7.1-1.4-2.4-.2-4.8-.2-7.2 0-4.8.5-9.4 2-13.9 4.1-4.3 2.1-8.6 4.7-12.8 7.8z" class="st38"/></g><path d="m803.8 375.5 3.3-26.1-92.9 99 84.1 5.9z" class="st4"/><path d="m801.5 243.6-2.3-.2-66.3-5.8-17.7-1.5c-10-.8-18.9 6.5-19.8 16.6L679.2 438c-1 11.3 7.4 21.2 18.7 22.2l81.9 7.2c11.3 1 21.2-7.4 22.2-18.7l8-91.3 8.2-94.1c.7-10-6.6-18.8-16.7-19.7zM737.2 455c-4.6-.4-8.1-4.5-7.6-9.1.4-4.6 4.5-8.1 9.1-7.6 4.6.4 8.1 4.5 7.6 9.1-.3 4.6-4.4 8-9.1 7.6zm54.6-24.5c-.1 1.2-1.2 2.2-2.5 2.1l-95.1-8.3c-1.2-.1-2.2-1.2-2.1-2.5l15.1-172.2c.2-.8.8-1.7 2.3-1.7l31.5 2.7 63.6 5.6c1.2.1 2.2 1.2 2.1 2.5l-7.4 84.1-7.5 87.7z" class="st5"/><path d="M727.2 434.2h22.7V463h-22.7z" style="fill:#013f4d" transform="matrix(.08727 -.9962 .9962 .08727 227.23 1145.127)"/><path d="m703 460.6 76.6 6.7c11.3 1 21.2-7.4 22.2-18.7l8-91.2 1.1-12.5-12.9 13.9-6.3 71.7c-.1 1.2-1.2 2.2-2.5 2.1l-55.5-4.9-30.7 32.9zm43.4-13.2c-.4 4.6-4.5 8.1-9.1 7.6-4.6-.4-8.1-4.5-7.6-9.1.4-4.6 4.5-8.1 9.1-7.6 4.6.3 8 4.4 7.6 9.1z" class="st6"/></g></svg>