<svg xmlns="http://www.w3.org/2000/svg" xml:space="preserve" id="Layer_1" x="0" y="0" style="enable-background:new 0 0 1023 518" version="1.1" viewBox="0 0 1023 518"><style>.st1{fill-rule:evenodd;clip-rule:evenodd;fill:#fff}.st3{fill:#27a737}.st69{fill:#004752}.st71{fill:#c8c8c8}.st74{fill:#fff}</style><defs><filter id="Adobe_OpacityMaskFilter" width="564.2" height="552.3" x="436.8" y="-36.5" filterUnits="userSpaceOnUse"><feColorMatrix values="1 0 0 0 0 0 1 0 0 0 0 0 1 0 0 0 0 0 1 0"/></filter></defs><mask id="b_00000010300768160160190620000015637479942345983373_" width="564.2" height="552.3" x="436.8" y="-36.5" maskUnits="userSpaceOnUse"><g style="filter:url(#Adobe_OpacityMaskFilter)"><path id="a_00000154403477418201084390000012746972230640438207_" d="M0 1h1025v517H0V1z" class="st1"/></g></mask><g style="mask:url(#b_00000010300768160160190620000015637479942345983373_)"><path d="M851.9-16.9 630.7-36.3c-21.5-1.9-42.5 7.9-52.6 25.9L450.8 171.8c-14.7 17.6-16.7 40.6-5.3 60.5l93.8 201.5c6.8 19.4 25.7 32.7 47.3 34.6l221.1 19.3c21.5 1.9 42.5-7.9 54.9-25.7L990 279.9c12.4-17.8 14.4-40.8 5.3-60.5L901.5 17.9c-9.1-19.7-28-33-49.6-34.8z" class="st3"/><path d="m859.1 466.1 77.1-110.2L531.7 57.3l-85.9 119.1c-10.6 15.2-12.4 35-2.2 52.1l97.7 209.6c5.5 16.6 21.8 28.1 40.3 29.7l230.3 20.1c18.5 1.8 36.5-6.6 47.2-21.8z" style="fill:#259631"/><g transform="rotate(5 816.309 5247.002)"><defs><filter id="Adobe_OpacityMaskFilter_00000021818372503834075430000008288451875624506757_" width="95.1" height="96.3" x="89.9" y="436" filterUnits="userSpaceOnUse"><feColorMatrix values="1 0 0 0 0 0 1 0 0 0 0 0 1 0 0 0 0 0 1 0"/></filter></defs><mask id="d_00000106840422980507555420000010268043732373425575_" width="95.1" height="96.3" x="89.9" y="436" maskUnits="userSpaceOnUse"><g style="filter:url(#Adobe_OpacityMaskFilter_00000021818372503834075430000008288451875624506757_)"><path id="c_00000160877555587066416070000013509050296997859731_" d="M393 0H171c-21.6 0-41.7 11.6-50.1 30.3L9.9 222.8c-13.1 18.8-13.1 41.9 0 60.7l89.3 244.9c3.9 8.7 77.4 13.5 94.6 4.7 21.7-11.2-4.2-26.6 7.5-26.6l191.7-.2c21.6 0 41.7-11.6 52.5-30.3l111-192.5a60.91 60.91 0 0 0 0-60.7l-111-192.5C434.6 11.5 414.6 0 393 0z" class="st1"/></g></mask><path d="M83.3 456.9s20.6 72.4 40.2 72.4c33.9 0 62.7-79 62.7-79l-78.3-7.5-24.6 14.1z" style="mask:url(#d_00000106840422980507555420000010268043732373425575_);fill:#004152"/></g><g transform="rotate(5 816.309 5247.002)"><defs><filter id="Adobe_OpacityMaskFilter_00000019669616870707671590000007494483216386073776_" width="95.8" height="87.7" x="89.9" y="447.3" filterUnits="userSpaceOnUse"><feColorMatrix values="1 0 0 0 0 0 1 0 0 0 0 0 1 0 0 0 0 0 1 0"/></filter></defs><mask id="f_00000012471825904351873110000018246501151366453695_" width="95.8" height="87.7" x="89.9" y="447.3" maskUnits="userSpaceOnUse"><g style="filter:url(#Adobe_OpacityMaskFilter_00000019669616870707671590000007494483216386073776_)"><path id="e_00000180353250307628886200000009878283376241415554_" d="M393 0H171c-21.6 0-41.7 11.6-50.1 30.3L9.9 222.8c-13.1 18.8-13.1 41.9 0 60.7l89.3 244.9c3.9 8.7 77.4 13.5 94.6 4.7 21.7-11.2-4.2-26.6 7.5-26.6l191.7-.2c21.6 0 41.7-11.6 52.5-30.3l111-192.5a60.91 60.91 0 0 0 0-60.7l-111-192.5C434.6 11.5 414.6 0 393 0z" class="st1"/></g></mask><path d="M127.7 519c-15.3 0-31.2-43.9-37.5-63.3l-7 4s20.6 72.4 40.2 72.4c33.9 0 62.7-79 62.7-79l-1.1-.1c-9.7 22.3-32.1 66-57.3 66z" style="mask:url(#f_00000012471825904351873110000018246501151366453695_);fill:#015163"/></g><g transform="rotate(5 816.309 5247.002)"><defs><filter id="Adobe_OpacityMaskFilter_00000066490069523369306000000007004996330917416895_" width="219.1" height="411.6" x="177.8" y="6.5" filterUnits="userSpaceOnUse"><feColorMatrix values="1 0 0 0 0 0 1 0 0 0 0 0 1 0 0 0 0 0 1 0"/></filter></defs><mask id="h_00000006686983659202871310000001289516447674742431_" width="219.1" height="411.6" x="177.8" y="6.5" maskUnits="userSpaceOnUse"><g style="filter:url(#Adobe_OpacityMaskFilter_00000066490069523369306000000007004996330917416895_)"><path id="g_00000006672181189905094390000012874539103467768754_" d="M393 0H171c-21.6 0-41.7 11.6-50.1 30.3L9.9 222.8c-13.1 18.8-13.1 41.9 0 60.7l89.3 244.9c3.9 8.7 77.4 13.5 94.6 4.7 21.7-11.2-4.2-26.6 7.5-26.6l191.7-.2c21.6 0 41.7-11.6 52.5-30.3l111-192.5a60.91 60.91 0 0 0 0-60.7l-111-192.5C434.6 11.5 414.6 0 393 0z" class="st1"/></g></mask><path d="M180.8 381.3s3.5-15.2 27.8-23.3c24.3-8.1 50.3-18.4 50.3-35.6 0-7.7-1.1-18.8-1.1-27.3-57.9-13.8-79-75.7-79-150 0-84.4 70.4-101.3 105.4-101.3h1.1c35 0 75.8 21 75.8 105.3 0 73.2 6.3 115.2-49.9 130.2 0 8.8-12.1 35.5-12.1 43.4 0 17.3 37.8 27.4 62.1 35.5 13.8 4.6 20 36.9 23.6 41.9 11.3-66.8 35.1-246.8 18-299.5-22.1-68.1-60.4-72-60.4-72L288 16.2s-86.1 0-114.4 71.7c-24 60.8-3.6 247.7 3.1 302.8l4.1-9.4z" style="mask:url(#h_00000006686983659202871310000001289516447674742431_);fill:#f99d1c"/></g><g transform="rotate(5 816.309 5247.002)"><defs><filter id="Adobe_OpacityMaskFilter_00000155139848620973583800000014495941409107987643_" width="245.1" height="292.2" x="179" y="261.3" filterUnits="userSpaceOnUse"><feColorMatrix values="1 0 0 0 0 0 1 0 0 0 0 0 1 0 0 0 0 0 1 0"/></filter></defs><mask id="k_00000063635684693707812210000011982788029049612454_" width="245.1" height="292.2" x="179" y="261.3" maskUnits="userSpaceOnUse"><g style="filter:url(#Adobe_OpacityMaskFilter_00000155139848620973583800000014495941409107987643_)"><path id="i_00000155834650975952940870000016507143322056774564_" d="M393 0H171c-21.6 0-41.7 11.6-50.1 30.3L9.9 222.8c-13.1 18.8-13.1 41.9 0 60.7l89.3 244.9c3.9 8.7 77.4 13.5 94.6 4.7 21.7-11.2-4.2-26.6 7.5-26.6l191.7-.2c21.6 0 41.7-11.6 52.5-30.3l111-192.5a60.91 60.91 0 0 0 0-60.7l-111-192.5C434.6 11.5 414.6 0 393 0z" class="st1"/></g></mask><linearGradient id="SVGID_1_" x1="-315.345" x2="-314.345" y1="637.686" y2="637.686" gradientTransform="matrix(279.7903 -22.1411 -24.4786 -253.0722 104006.953 154801.625)" gradientUnits="userSpaceOnUse"><stop offset="0" style="stop-color:#fddfd8"/><stop offset="1" style="stop-color:#edcac7"/></linearGradient><path d="M383.5 377.9s-3.1-15-27.2-23c-24.1-8.1-45.9-16.2-45.9-33.5v-45.3h-56v45.3c0 17.2-21.7 25.4-45.9 33.5-24.2 8.1-27.2 23-27.2 23L166.7 413l33.1 33.6 8.4-7.3 15.5 90.7 58.7.2 58.7-.2 20-101.1L405.7 530h41.9l-64.1-152.1z" style="mask:url(#k_00000063635684693707812210000011982788029049612454_);fill:url(#SVGID_1_)"/></g><g transform="rotate(5 816.309 5247.002)"><defs><filter id="Adobe_OpacityMaskFilter_00000080169283969666815030000006163357901885497502_" width="257.4" height="233.2" x="177.5" y="320.2" filterUnits="userSpaceOnUse"><feColorMatrix values="1 0 0 0 0 0 1 0 0 0 0 0 1 0 0 0 0 0 1 0"/></filter></defs><mask id="m_00000041295782908888133940000004679572420463375771_" width="257.4" height="233.2" x="177.5" y="320.2" maskUnits="userSpaceOnUse"><g style="filter:url(#Adobe_OpacityMaskFilter_00000080169283969666815030000006163357901885497502_)"><path id="l_00000057106265843815115920000002368877448440228492_" d="M393 0H171c-21.6 0-41.7 11.6-50.1 30.3L9.9 222.8c-13.1 18.8-13.1 41.9 0 60.7l89.3 244.9c3.9 8.7 77.4 13.5 94.6 4.7 21.7-11.2-4.2-26.6 7.5-26.6l191.7-.2c21.6 0 41.7-11.6 52.5-30.3l111-192.5a60.91 60.91 0 0 0 0-60.7l-111-192.5C434.6 11.5 414.6 0 393 0z" class="st1"/></g></mask><path d="m198 452.3 5.8 77h155.6l5.8-76.9 38.1 76.9h49.9l-65.3-166s-1.3-2.9-9.3-6.6c-11-5-11.1-4.8-51.2-18.9 0 0-18.3 22.2-45.9 22.2-27.6 0-45.9-22.2-45.9-22.2-40 14.1-40.1 13.9-51.2 18.9-8 3.7-9.3 6.6-9.3 6.6l-11.7 30.3 34.6 58.7z" style="mask:url(#m_00000041295782908888133940000004679572420463375771_);fill:#98d0e8"/></g><g transform="rotate(5 816.309 5247.002)"><defs><filter id="Adobe_OpacityMaskFilter_00000027601796484018902030000016684620406091536306_" width="65.3" height="181.9" x="372.5" y="354.3" filterUnits="userSpaceOnUse"><feColorMatrix values="1 0 0 0 0 0 1 0 0 0 0 0 1 0 0 0 0 0 1 0"/></filter></defs><mask id="o_00000026151670376924455030000016220872562243695544_" width="65.3" height="181.9" x="372.5" y="354.3" maskUnits="userSpaceOnUse"><g style="filter:url(#Adobe_OpacityMaskFilter_00000027601796484018902030000016684620406091536306_)"><path id="n_00000115507349867828262050000008082264876744394667_" d="M393 0H171c-21.6 0-41.7 11.6-50.1 30.3L9.9 222.8c-13.1 18.8-13.1 41.9 0 60.7l89.3 244.9c3.9 8.7 77.4 13.5 94.6 4.7 21.7-11.2-4.2-26.6 7.5-26.6l191.7-.2c21.6 0 41.7-11.6 52.5-30.3l111-192.5a60.91 60.91 0 0 0 0-60.7l-111-192.5C434.6 11.5 414.6 0 393 0z" class="st1"/></g></mask><path d="m453.1 529.2-65.3-166s-.7-1.7-4.5-4.1c0 0-17.3 11.9-18.2 93.2l38.1 76.9h49.9z" style="mask:url(#o_00000026151670376924455030000016220872562243695544_);fill:#004152"/></g><g transform="rotate(5 816.309 5247.002)"><defs><filter id="Adobe_OpacityMaskFilter_00000023966382705002306370000015798517372967402134_" width="45.7" height="180.2" x="392.2" y="354.3" filterUnits="userSpaceOnUse"><feColorMatrix values="1 0 0 0 0 0 1 0 0 0 0 0 1 0 0 0 0 0 1 0"/></filter></defs><mask id="q_00000069375867144158473400000000001743150751045823_" width="45.7" height="180.2" x="392.2" y="354.3" maskUnits="userSpaceOnUse"><g style="filter:url(#Adobe_OpacityMaskFilter_00000023966382705002306370000015798517372967402134_)"><path id="p_00000106115451542250604630000006368345600989007036_" d="M393 0H171c-21.6 0-41.7 11.6-50.1 30.3L9.9 222.8c-13.1 18.8-13.1 41.9 0 60.7l89.3 244.9c3.9 8.7 77.4 13.5 94.6 4.7 21.7-11.2-4.2-26.6 7.5-26.6l191.7-.2c21.6 0 41.7-11.6 52.5-30.3l111-192.5a60.91 60.91 0 0 0 0-60.7l-111-192.5C434.6 11.5 414.6 0 393 0z" class="st1"/></g></mask><path d="M383.4 359.1s-2.6 1.8-5.8 8.6l66.3 161.5h9.3l-65.3-166s-.8-1.7-4.5-4.1z" style="mask:url(#q_00000069375867144158473400000000001743150751045823_);fill:#015163"/></g><g transform="rotate(5 816.309 5247.002)"><defs><filter id="Adobe_OpacityMaskFilter_00000034083297429048713140000013286791221586813596_" width="60" height="39.7" x="321.1" y="332.9" filterUnits="userSpaceOnUse"><feColorMatrix values="1 0 0 0 0 0 1 0 0 0 0 0 1 0 0 0 0 0 1 0"/></filter></defs><mask id="s_00000125593407498463934000000008022563383416172735_" width="60" height="39.7" x="321.1" y="332.9" maskUnits="userSpaceOnUse"><g style="filter:url(#Adobe_OpacityMaskFilter_00000034083297429048713140000013286791221586813596_)"><path id="r_00000030465490828811381750000003384550936211403934_" d="M393 0H171c-21.6 0-41.7 11.6-50.1 30.3L9.9 222.8c-13.1 18.8-13.1 41.9 0 60.7l89.3 244.9c3.9 8.7 77.4 13.5 94.6 4.7 21.7-11.2-4.2-26.6 7.5-26.6l191.7-.2c21.6 0 41.7-11.6 52.5-30.3l111-192.5a60.91 60.91 0 0 0 0-60.7l-111-192.5C434.6 11.5 414.6 0 393 0z" class="st1"/></g></mask><path d="M383.4 359.1c-1.3-.8-2.8-1.6-4.8-2.6-11-5-11.1-4.8-51.2-18.9 0 0-3.1 3.7-8.6 8.2l58.7 21.9c2.7-6.1 5.9-8.6 5.9-8.6z" style="mask:url(#s_00000125593407498463934000000008022563383416172735_);fill:#9ed5e8"/></g><g transform="rotate(5 816.309 5247.002)"><defs><filter id="Adobe_OpacityMaskFilter_00000051381959387493106940000002980366183405567133_" width="63" height="31.2" x="180.6" y="336.9" filterUnits="userSpaceOnUse"><feColorMatrix values="1 0 0 0 0 0 1 0 0 0 0 0 1 0 0 0 0 0 1 0"/></filter></defs><mask id="u_00000142160272875416858350000003310337080430568636_" width="63" height="31.2" x="180.6" y="336.9" maskUnits="userSpaceOnUse"><g style="filter:url(#Adobe_OpacityMaskFilter_00000051381959387493106940000002980366183405567133_)"><path id="t_00000130640537077755083690000004636501724070427839_" d="M393 0H171c-21.6 0-41.7 11.6-50.1 30.3L9.9 222.8c-13.1 18.8-13.1 41.9 0 60.7l89.3 244.9c3.9 8.7 77.4 13.5 94.6 4.7 21.7-11.2-4.2-26.6 7.5-26.6l191.7-.2c21.6 0 41.7-11.6 52.5-30.3l111-192.5a60.91 60.91 0 0 0 0-60.7l-111-192.5C434.6 11.5 414.6 0 393 0z" class="st1"/></g></mask><path d="M179.8 359.1c1.3-.8 2.8-1.6 4.8-2.6 11-5 11.1-4.8 51.2-18.9 0 0 3.1 3.7 8.6 8.2l-58.7 21.9c-2.8-6.1-5.9-8.6-5.9-8.6z" style="mask:url(#u_00000142160272875416858350000003310337080430568636_);fill:#9ed5e8"/></g><g transform="rotate(5 816.309 5247.002)"><defs><filter id="Adobe_OpacityMaskFilter_00000030468480604622442270000018173409801133996678_" width="123.7" height="168.1" x="219.2" y="371" filterUnits="userSpaceOnUse"><feColorMatrix values="1 0 0 0 0 0 1 0 0 0 0 0 1 0 0 0 0 0 1 0"/></filter></defs><mask id="w_00000178911772760522550080000005341989678053004425_" width="123.7" height="168.1" x="219.2" y="371" maskUnits="userSpaceOnUse"><g style="filter:url(#Adobe_OpacityMaskFilter_00000030468480604622442270000018173409801133996678_)"><path id="v_00000083089593894903869830000017785695839037144460_" d="M393 0H171c-21.6 0-41.7 11.6-50.1 30.3L9.9 222.8c-13.1 18.8-13.1 41.9 0 60.7l89.3 244.9c3.9 8.7 77.4 13.5 94.6 4.7 21.7-11.2-4.2-26.6 7.5-26.6l191.7-.2c21.6 0 41.7-11.6 52.5-30.3l111-192.5a60.91 60.91 0 0 0 0-60.7l-111-192.5C434.6 11.5 414.6 0 393 0z" class="st1"/></g></mask><path d="M314 387.4c-15.6-9.8-44.3-16.3-62.5-2.8-18.2 13.6-9.3 50.8 16.7 78.6 18.2 19.5-2.8 39-27.6 31-21.8-7-32.7 9.7-15.7 35.7h98.7c-.1-3-.6-6.2-1.8-9.5-6.6-17.9-32.2-64.7-32.2-64.7s48.5 12.3 57.2 0c8.6-12.2-5-50.6-32.8-68.3z" style="mask:url(#w_00000178911772760522550080000005341989678053004425_);fill:#abdced"/></g><g transform="rotate(5 816.309 5247.002)"><defs><filter id="Adobe_OpacityMaskFilter_00000044139041835036395680000000733519331052929459_" width="189.5" height="263.4" x="190" y="43.6" filterUnits="userSpaceOnUse"><feColorMatrix values="1 0 0 0 0 0 1 0 0 0 0 0 1 0 0 0 0 0 1 0"/></filter></defs><mask id="y_00000093139810217917292370000013785231776280465553_" width="189.5" height="263.4" x="190" y="43.6" maskUnits="userSpaceOnUse"><g style="filter:url(#Adobe_OpacityMaskFilter_00000044139041835036395680000000733519331052929459_)"><path id="x_00000080915977434258829280000018429464071889173895_" d="M393 0H171c-21.6 0-41.7 11.6-50.1 30.3L9.9 222.8c-13.1 18.8-13.1 41.9 0 60.7l89.3 244.9c3.9 8.7 77.4 13.5 94.6 4.7 21.7-11.2-4.2-26.6 7.5-26.6l191.7-.2c21.6 0 41.7-11.6 52.5-30.3l111-192.5a60.91 60.91 0 0 0 0-60.7l-111-192.5C434.6 11.5 414.6 0 393 0z" class="st1"/></g></mask><path d="M388 146.2c0 83.9-29.7 152.3-106.1 152.3-76.4 0-104.6-69.3-104.6-153.2 0-83.9 71.1-92.6 105.9-92.6 34.8.1 104.8 9.6 104.8 93.5z" style="mask:url(#y_00000093139810217917292370000013785231776280465553_);fill:#fddfd8"/></g><g transform="rotate(5 816.309 5247.002)"><defs><filter id="Adobe_OpacityMaskFilter_00000178168981394086709380000008874302069199423397_" width="38.3" height="45.2" x="217.7" y="177.3" filterUnits="userSpaceOnUse"><feColorMatrix values="1 0 0 0 0 0 1 0 0 0 0 0 1 0 0 0 0 0 1 0"/></filter></defs><mask id="A_00000125581805867546304100000011987195890494428295_" width="38.3" height="45.2" x="217.7" y="177.3" maskUnits="userSpaceOnUse"><g style="filter:url(#Adobe_OpacityMaskFilter_00000178168981394086709380000008874302069199423397_)"><path id="z_00000149342496581233581560000000984675930306859676_" d="M393 0H171c-21.6 0-41.7 11.6-50.1 30.3L9.9 222.8c-13.1 18.8-13.1 41.9 0 60.7l89.3 244.9c3.9 8.7 77.4 13.5 94.6 4.7 21.7-11.2-4.2-26.6 7.5-26.6l191.7-.2c21.6 0 41.7-11.6 52.5-30.3l111-192.5a60.91 60.91 0 0 0 0-60.7l-111-192.5C434.6 11.5 414.6 0 393 0z" class="st1"/></g></mask><path d="M257.9 199.9c0 11.5-9.5 20.9-21.1 20.9-11.7 0-21.1-9.3-21.1-20.9 0-11.5 9.4-20.9 21.1-20.9 11.7 0 21.1 9.3 21.1 20.9z" style="mask:url(#A_00000125581805867546304100000011987195890494428295_);fill:#82b034"/></g><g transform="rotate(5 816.309 5247.002)"><defs><filter id="Adobe_OpacityMaskFilter_00000113335059140884295090000016851414660216681602_" width="26.4" height="31.5" x="224.7" y="184.1" filterUnits="userSpaceOnUse"><feColorMatrix values="1 0 0 0 0 0 1 0 0 0 0 0 1 0 0 0 0 0 1 0"/></filter></defs><mask id="C_00000106851986903040660330000013784507648989704095_" width="26.4" height="31.5" x="224.7" y="184.1" maskUnits="userSpaceOnUse"><g style="filter:url(#Adobe_OpacityMaskFilter_00000113335059140884295090000016851414660216681602_)"><path id="B_00000062884450107952548550000010460556890656908717_" d="M393 0H171c-21.6 0-41.7 11.6-50.1 30.3L9.9 222.8c-13.1 18.8-13.1 41.9 0 60.7l89.3 244.9c3.9 8.7 77.4 13.5 94.6 4.7 21.7-11.2-4.2-26.6 7.5-26.6l191.7-.2c21.6 0 41.7-11.6 52.5-30.3l111-192.5a60.91 60.91 0 0 0 0-60.7l-111-192.5C434.6 11.5 414.6 0 393 0z" class="st1"/></g></mask><path d="M252.5 199.9c0 8-6.5 14.6-14.5 14.6s-14.5-6.5-14.5-14.6 6.5-14.6 14.5-14.6 14.5 6.5 14.5 14.6z" style="mask:url(#C_00000106851986903040660330000013784507648989704095_);fill:#2a1d01"/></g><g transform="rotate(5 816.309 5247.002)"><defs><filter id="Adobe_OpacityMaskFilter_00000076588570188186160130000000965939541020416412_" width="7.6" height="9.1" x="223.8" y="187.8" filterUnits="userSpaceOnUse"><feColorMatrix values="1 0 0 0 0 0 1 0 0 0 0 0 1 0 0 0 0 0 1 0"/></filter></defs><mask id="E_00000131357566960401482880000003005915431627936689_" width="7.6" height="9.1" x="223.8" y="187.8" maskUnits="userSpaceOnUse"><g style="filter:url(#Adobe_OpacityMaskFilter_00000076588570188186160130000000965939541020416412_)"><path id="D_00000120542429283262135750000005432426720331519641_" d="M393 0H171c-21.6 0-41.7 11.6-50.1 30.3L9.9 222.8c-13.1 18.8-13.1 41.9 0 60.7l89.3 244.9c3.9 8.7 77.4 13.5 94.6 4.7 21.7-11.2-4.2-26.6 7.5-26.6l191.7-.2c21.6 0 41.7-11.6 52.5-30.3l111-192.5a60.91 60.91 0 0 0 0-60.7l-111-192.5C434.6 11.5 414.6 0 393 0z" class="st1"/></g></mask><path d="M231.8 192.3c0 2.3-1.9 4.2-4.2 4.2-2.3 0-4.2-1.9-4.2-4.2 0-2.3 1.9-4.2 4.2-4.2 2.3 0 4.2 1.9 4.2 4.2z" style="mask:url(#E_00000131357566960401482880000003005915431627936689_);fill:#fff"/></g><g transform="rotate(5 816.309 5247.002)"><defs><filter id="Adobe_OpacityMaskFilter_00000112623087356029969740000001056948229019726473_" width="88.3" height="33.9" x="238.5" y="238.1" filterUnits="userSpaceOnUse"><feColorMatrix values="1 0 0 0 0 0 1 0 0 0 0 0 1 0 0 0 0 0 1 0"/></filter></defs><mask id="G_00000056405837161242214900000007847783268664739752_" width="88.3" height="33.9" x="238.5" y="238.1" maskUnits="userSpaceOnUse"><g style="filter:url(#Adobe_OpacityMaskFilter_00000112623087356029969740000001056948229019726473_)"><path id="F_00000153690936472260680030000010543296468301307810_" d="M393 0H171c-21.6 0-41.7 11.6-50.1 30.3L9.9 222.8c-13.1 18.8-13.1 41.9 0 60.7l89.3 244.9c3.9 8.7 77.4 13.5 94.6 4.7 21.7-11.2-4.2-26.6 7.5-26.6l191.7-.2c21.6 0 41.7-11.6 52.5-30.3l111-192.5a60.91 60.91 0 0 0 0-60.7l-111-192.5C434.6 11.5 414.6 0 393 0z" class="st1"/></g></mask><path d="M236.2 246.1c14.4 8.8 29.8 14.1 45.5 13.9 15.8 0 30.8-6.1 45.8-13.9-5.5 6.5-12.4 11.9-20.2 15.8-7.8 4-16.6 6.1-25.5 6.3-8.9 0-17.8-2-25.6-5.8-7.9-4-15-9.4-20-16.3z" style="mask:url(#G_00000056405837161242214900000007847783268664739752_);fill:#f6a8b9"/></g><g transform="rotate(5 816.309 5247.002)"><defs><filter id="Adobe_OpacityMaskFilter_00000155119857778457900490000006235102522972446107_" width="38.3" height="45.2" x="311.4" y="177.3" filterUnits="userSpaceOnUse"><feColorMatrix values="1 0 0 0 0 0 1 0 0 0 0 0 1 0 0 0 0 0 1 0"/></filter></defs><mask id="I_00000019652013942844350940000012909414233199820163_" width="38.3" height="45.2" x="311.4" y="177.3" maskUnits="userSpaceOnUse"><g style="filter:url(#Adobe_OpacityMaskFilter_00000155119857778457900490000006235102522972446107_)"><path id="H_00000091706994868304412960000004774550804239851190_" d="M393 0H171c-21.6 0-41.7 11.6-50.1 30.3L9.9 222.8c-13.1 18.8-13.1 41.9 0 60.7l89.3 244.9c3.9 8.7 77.4 13.5 94.6 4.7 21.7-11.2-4.2-26.6 7.5-26.6l191.7-.2c21.6 0 41.7-11.6 52.5-30.3l111-192.5a60.91 60.91 0 0 0 0-60.7l-111-192.5C434.6 11.5 414.6 0 393 0z" class="st1"/></g></mask><path d="M309.5 199.9c0 11.5 9.5 20.9 21.1 20.9 11.7 0 21.1-9.3 21.1-20.9 0-11.5-9.4-20.9-21.1-20.9-11.7 0-21.1 9.3-21.1 20.9z" style="mask:url(#I_00000019652013942844350940000012909414233199820163_);fill:#82b034"/></g><g transform="rotate(5 816.309 5247.002)"><defs><filter id="Adobe_OpacityMaskFilter_00000113335277210646913660000008093079729965101969_" width="26.4" height="31.5" x="316.2" y="184.1" filterUnits="userSpaceOnUse"><feColorMatrix values="1 0 0 0 0 0 1 0 0 0 0 0 1 0 0 0 0 0 1 0"/></filter></defs><mask id="K_00000065075990150675971050000006631809133413231782_" width="26.4" height="31.5" x="316.2" y="184.1" maskUnits="userSpaceOnUse"><g style="filter:url(#Adobe_OpacityMaskFilter_00000113335277210646913660000008093079729965101969_)"><path id="J_00000159463457355791237020000013861819125804236962_" d="M393 0H171c-21.6 0-41.7 11.6-50.1 30.3L9.9 222.8c-13.1 18.8-13.1 41.9 0 60.7l89.3 244.9c3.9 8.7 77.4 13.5 94.6 4.7 21.7-11.2-4.2-26.6 7.5-26.6l191.7-.2c21.6 0 41.7-11.6 52.5-30.3l111-192.5a60.91 60.91 0 0 0 0-60.7l-111-192.5C434.6 11.5 414.6 0 393 0z" class="st1"/></g></mask><path d="M314.9 199.9c0 8 6.5 14.6 14.5 14.6s14.5-6.5 14.5-14.6-6.5-14.6-14.5-14.6-14.5 6.5-14.5 14.6z" style="mask:url(#K_00000065075990150675971050000006631809133413231782_);fill:#2a1d01"/></g><g transform="rotate(5 816.309 5247.002)"><defs><filter id="Adobe_OpacityMaskFilter_00000165196980944171109740000008094724424804467850_" width="7.6" height="9.1" x="316.1" y="187.8" filterUnits="userSpaceOnUse"><feColorMatrix values="1 0 0 0 0 0 1 0 0 0 0 0 1 0 0 0 0 0 1 0"/></filter></defs><mask id="M_00000090975874109798798630000014806580250162248363_" width="7.6" height="9.1" x="316.1" y="187.8" maskUnits="userSpaceOnUse"><g style="filter:url(#Adobe_OpacityMaskFilter_00000165196980944171109740000008094724424804467850_)"><path id="L_00000054961944160110819130000002180854548373868448_" d="M393 0H171c-21.6 0-41.7 11.6-50.1 30.3L9.9 222.8c-13.1 18.8-13.1 41.9 0 60.7l89.3 244.9c3.9 8.7 77.4 13.5 94.6 4.7 21.7-11.2-4.2-26.6 7.5-26.6l191.7-.2c21.6 0 41.7-11.6 52.5-30.3l111-192.5a60.91 60.91 0 0 0 0-60.7l-111-192.5C434.6 11.5 414.6 0 393 0z" class="st1"/></g></mask><path d="M315.7 192.3c0 2.3 1.9 4.2 4.2 4.2 2.3 0 4.2-1.9 4.2-4.2 0-2.3-1.9-4.2-4.2-4.2-2.3 0-4.2 1.9-4.2 4.2z" style="mask:url(#M_00000090975874109798798630000014806580250162248363_);fill:#fff"/></g><g transform="rotate(5 816.309 5247.002)"><defs><filter id="Adobe_OpacityMaskFilter_00000137850267653403195780000011414874040552545955_" width="6.4" height="7.7" x="286.3" y="214.6" filterUnits="userSpaceOnUse"><feColorMatrix values="1 0 0 0 0 0 1 0 0 0 0 0 1 0 0 0 0 0 1 0"/></filter></defs><mask id="O_00000103951488204037673040000013726550311699139716_" width="6.4" height="7.7" x="286.3" y="214.6" maskUnits="userSpaceOnUse"><g style="filter:url(#Adobe_OpacityMaskFilter_00000137850267653403195780000011414874040552545955_)"><path id="N_00000159451708939627178150000014379000778060907452_" d="M393 0H171c-21.6 0-41.7 11.6-50.1 30.3L9.9 222.8c-13.1 18.8-13.1 41.9 0 60.7l89.3 244.9c3.9 8.7 77.4 13.5 94.6 4.7 21.7-11.2-4.2-26.6 7.5-26.6l191.7-.2c21.6 0 41.7-11.6 52.5-30.3l111-192.5a60.91 60.91 0 0 0 0-60.7l-111-192.5C434.6 11.5 414.6 0 393 0z" class="st1"/></g></mask><circle cx="289.6" cy="218.4" r="3.5" style="mask:url(#O_00000103951488204037673040000013726550311699139716_);fill:#e8c6ac" transform="rotate(90 289.552 218.394)"/></g><g transform="rotate(5 816.309 5247.002)"><defs><filter id="Adobe_OpacityMaskFilter_00000182517521995444398980000017923518105288202375_" width="6.7" height="8" x="265" y="222.3" filterUnits="userSpaceOnUse"><feColorMatrix values="1 0 0 0 0 0 1 0 0 0 0 0 1 0 0 0 0 0 1 0"/></filter></defs><mask id="Q_00000103256833611650602880000009783735861645506210_" width="6.7" height="8" x="265" y="222.3" maskUnits="userSpaceOnUse"><g style="filter:url(#Adobe_OpacityMaskFilter_00000182517521995444398980000017923518105288202375_)"><path id="P_00000098203968207066908410000014257785659594636704_" d="M393 0H171c-21.6 0-41.7 11.6-50.1 30.3L9.9 222.8c-13.1 18.8-13.1 41.9 0 60.7l89.3 244.9c3.9 8.7 77.4 13.5 94.6 4.7 21.7-11.2-4.2-26.6 7.5-26.6l191.7-.2c21.6 0 41.7-11.6 52.5-30.3l111-192.5a60.91 60.91 0 0 0 0-60.7l-111-192.5C434.6 11.5 414.6 0 393 0z" class="st1"/></g></mask><circle cx="268.3" cy="226.3" r="3.7" style="mask:url(#Q_00000103256833611650602880000009783735861645506210_);fill:#e8c6ac" transform="rotate(90 268.345 226.279)"/></g><g transform="rotate(5 816.309 5247.002)"><defs><filter id="Adobe_OpacityMaskFilter_00000110443210102092281660000007085950498019167641_" width="6.7" height="8" x="279.2" y="185.9" filterUnits="userSpaceOnUse"><feColorMatrix values="1 0 0 0 0 0 1 0 0 0 0 0 1 0 0 0 0 0 1 0"/></filter></defs><mask id="S_00000032625410643695279180000010785840341712264576_" width="6.7" height="8" x="279.2" y="185.9" maskUnits="userSpaceOnUse"><g style="filter:url(#Adobe_OpacityMaskFilter_00000110443210102092281660000007085950498019167641_)"><path id="R_00000147216578399967422310000012942165898676523940_" d="M393 0H171c-21.6 0-41.7 11.6-50.1 30.3L9.9 222.8c-13.1 18.8-13.1 41.9 0 60.7l89.3 244.9c3.9 8.7 77.4 13.5 94.6 4.7 21.7-11.2-4.2-26.6 7.5-26.6l191.7-.2c21.6 0 41.7-11.6 52.5-30.3l111-192.5a60.91 60.91 0 0 0 0-60.7l-111-192.5C434.6 11.5 414.6 0 393 0z" class="st1"/></g></mask><circle cx="282.6" cy="189.9" r="3.7" style="mask:url(#S_00000032625410643695279180000010785840341712264576_);fill:#e8c6ac" transform="rotate(90 282.56 189.888)"/></g><g transform="rotate(5 816.309 5247.002)"><defs><filter id="Adobe_OpacityMaskFilter_00000056405102819062308460000017605990514858025364_" width="6.7" height="8" x="292.3" y="196.4" filterUnits="userSpaceOnUse"><feColorMatrix values="1 0 0 0 0 0 1 0 0 0 0 0 1 0 0 0 0 0 1 0"/></filter></defs><mask id="U_00000059272144741643015950000014070227616735447724_" width="6.7" height="8" x="292.3" y="196.4" maskUnits="userSpaceOnUse"><g style="filter:url(#Adobe_OpacityMaskFilter_00000056405102819062308460000017605990514858025364_)"><path id="T_00000111902325881558898480000014431449471918694067_" d="M393 0H171c-21.6 0-41.7 11.6-50.1 30.3L9.9 222.8c-13.1 18.8-13.1 41.9 0 60.7l89.3 244.9c3.9 8.7 77.4 13.5 94.6 4.7 21.7-11.2-4.2-26.6 7.5-26.6l191.7-.2c21.6 0 41.7-11.6 52.5-30.3l111-192.5a60.91 60.91 0 0 0 0-60.7l-111-192.5C434.6 11.5 414.6 0 393 0z" class="st1"/></g></mask><circle cx="295.6" cy="200.4" r="3.7" style="mask:url(#U_00000059272144741643015950000014070227616735447724_);fill:#e8c6ac" transform="rotate(90 295.61 200.432)"/></g><g transform="rotate(5 816.309 5247.002)"><defs><filter id="Adobe_OpacityMaskFilter_00000048482899540301672340000011082121605052378777_" width="4.3" height="5.2" x="268.9" y="197.3" filterUnits="userSpaceOnUse"><feColorMatrix values="1 0 0 0 0 0 1 0 0 0 0 0 1 0 0 0 0 0 1 0"/></filter></defs><mask id="W_00000183227692649211441880000008821036443138896521_" width="4.3" height="5.2" x="268.9" y="197.3" maskUnits="userSpaceOnUse"><g style="filter:url(#Adobe_OpacityMaskFilter_00000048482899540301672340000011082121605052378777_)"><path id="V_00000088109435842723211970000010966533764280973996_" d="M393 0H171c-21.6 0-41.7 11.6-50.1 30.3L9.9 222.8c-13.1 18.8-13.1 41.9 0 60.7l89.3 244.9c3.9 8.7 77.4 13.5 94.6 4.7 21.7-11.2-4.2-26.6 7.5-26.6l191.7-.2c21.6 0 41.7-11.6 52.5-30.3l111-192.5a60.91 60.91 0 0 0 0-60.7l-111-192.5C434.6 11.5 414.6 0 393 0z" class="st1"/></g></mask><circle cx="271.1" cy="199.9" r="2.4" style="mask:url(#W_00000183227692649211441880000008821036443138896521_);fill:#e8c6ac" transform="rotate(90 271.095 199.919)"/></g><g transform="rotate(5 816.309 5247.002)"><defs><filter id="Adobe_OpacityMaskFilter_00000075163024035688550220000003680205715516405149_" width="4.3" height="5.2" x="302.4" y="230.9" filterUnits="userSpaceOnUse"><feColorMatrix values="1 0 0 0 0 0 1 0 0 0 0 0 1 0 0 0 0 0 1 0"/></filter></defs><mask id="Y_00000147909852083865057450000005314751114272593540_" width="4.3" height="5.2" x="302.4" y="230.9" maskUnits="userSpaceOnUse"><g style="filter:url(#Adobe_OpacityMaskFilter_00000075163024035688550220000003680205715516405149_)"><path id="X_00000010310125906171396820000011068185645432843421_" d="M393 0H171c-21.6 0-41.7 11.6-50.1 30.3L9.9 222.8c-13.1 18.8-13.1 41.9 0 60.7l89.3 244.9c3.9 8.7 77.4 13.5 94.6 4.7 21.7-11.2-4.2-26.6 7.5-26.6l191.7-.2c21.6 0 41.7-11.6 52.5-30.3l111-192.5a60.91 60.91 0 0 0 0-60.7l-111-192.5C434.6 11.5 414.6 0 393 0z" class="st1"/></g></mask><circle cx="304.6" cy="233.5" r="2.4" style="mask:url(#Y_00000147909852083865057450000005314751114272593540_);fill:#e8c6ac" transform="rotate(90 304.606 233.464)"/></g><g transform="rotate(5 816.309 5247.002)"><defs><filter id="Adobe_OpacityMaskFilter_00000059269517086716270140000012549574940593727900_" width="6.7" height="8" x="284.1" y="233" filterUnits="userSpaceOnUse"><feColorMatrix values="1 0 0 0 0 0 1 0 0 0 0 0 1 0 0 0 0 0 1 0"/></filter></defs><mask id="aa_00000127758147557636680940000014387991532943726776_" width="6.7" height="8" x="284.1" y="233" maskUnits="userSpaceOnUse"><g style="filter:url(#Adobe_OpacityMaskFilter_00000059269517086716270140000012549574940593727900_)"><path id="Z_00000141455321768304411080000017787019124173049489_" d="M393 0H171c-21.6 0-41.7 11.6-50.1 30.3L9.9 222.8c-13.1 18.8-13.1 41.9 0 60.7l89.3 244.9c3.9 8.7 77.4 13.5 94.6 4.7 21.7-11.2-4.2-26.6 7.5-26.6l191.7-.2c21.6 0 41.7-11.6 52.5-30.3l111-192.5a60.91 60.91 0 0 0 0-60.7l-111-192.5C434.6 11.5 414.6 0 393 0z" class="st1"/></g></mask><circle cx="287.4" cy="237" r="3.7" style="mask:url(#aa_00000127758147557636680940000014387991532943726776_);fill:#e8c6ac" transform="rotate(90 287.408 236.963)"/></g><g transform="rotate(5 816.309 5247.002)"><defs><filter id="Adobe_OpacityMaskFilter_00000029010392978524114120000015710741590461133200_" width="4.3" height="5.2" x="249.8" y="226.4" filterUnits="userSpaceOnUse"><feColorMatrix values="1 0 0 0 0 0 1 0 0 0 0 0 1 0 0 0 0 0 1 0"/></filter></defs><mask id="ac_00000157286178307940013200000007227055108422357695_" width="4.3" height="5.2" x="249.8" y="226.4" maskUnits="userSpaceOnUse"><g style="filter:url(#Adobe_OpacityMaskFilter_00000029010392978524114120000015710741590461133200_)"><path id="ab_00000070828935780123967880000002619463905650187954_" d="M393 0H171c-21.6 0-41.7 11.6-50.1 30.3L9.9 222.8c-13.1 18.8-13.1 41.9 0 60.7l89.3 244.9c3.9 8.7 77.4 13.5 94.6 4.7 21.7-11.2-4.2-26.6 7.5-26.6l191.7-.2c21.6 0 41.7-11.6 52.5-30.3l111-192.5a60.91 60.91 0 0 0 0-60.7l-111-192.5C434.6 11.5 414.6 0 393 0z" class="st1"/></g></mask><circle cx="251.9" cy="229" r="2.4" style="mask:url(#ac_00000157286178307940013200000007227055108422357695_);fill:#e8c6ac" transform="rotate(90 251.939 228.985)"/></g><g transform="rotate(5 816.309 5247.002)"><defs><filter id="Adobe_OpacityMaskFilter_00000106123372522527557540000013696305595567994243_" width="4.3" height="5.2" x="311.4" y="224.9" filterUnits="userSpaceOnUse"><feColorMatrix values="1 0 0 0 0 0 1 0 0 0 0 0 1 0 0 0 0 0 1 0"/></filter></defs><mask id="ae_00000028288846788927355450000014118156344441172392_" width="4.3" height="5.2" x="311.4" y="224.9" maskUnits="userSpaceOnUse"><g style="filter:url(#Adobe_OpacityMaskFilter_00000106123372522527557540000013696305595567994243_)"><path id="ad_00000037657655508762064460000016863668115921394061_" d="M393 0H171c-21.6 0-41.7 11.6-50.1 30.3L9.9 222.8c-13.1 18.8-13.1 41.9 0 60.7l89.3 244.9c3.9 8.7 77.4 13.5 94.6 4.7 21.7-11.2-4.2-26.6 7.5-26.6l191.7-.2c21.6 0 41.7-11.6 52.5-30.3l111-192.5a60.91 60.91 0 0 0 0-60.7l-111-192.5C434.6 11.5 414.6 0 393 0z" class="st1"/></g></mask><circle cx="313.6" cy="227.4" r="2.4" style="mask:url(#ae_00000028288846788927355450000014118156344441172392_);fill:#e8c6ac" transform="rotate(90 313.601 227.446)"/></g><g transform="rotate(5 816.309 5247.002)"><defs><filter id="Adobe_OpacityMaskFilter_00000085231601227125142130000005096923066849180818_" width="3" height="3.5" x="271.1" y="210.5" filterUnits="userSpaceOnUse"><feColorMatrix values="1 0 0 0 0 0 1 0 0 0 0 0 1 0 0 0 0 0 1 0"/></filter></defs><mask id="ag_00000064321065447643156300000016424904719890607271_" width="3" height="3.5" x="271.1" y="210.5" maskUnits="userSpaceOnUse"><g style="filter:url(#Adobe_OpacityMaskFilter_00000085231601227125142130000005096923066849180818_)"><path id="af_00000039116136776306438860000000453185165496606105_" d="M393 0H171c-21.6 0-41.7 11.6-50.1 30.3L9.9 222.8c-13.1 18.8-13.1 41.9 0 60.7l89.3 244.9c3.9 8.7 77.4 13.5 94.6 4.7 21.7-11.2-4.2-26.6 7.5-26.6l191.7-.2c21.6 0 41.7-11.6 52.5-30.3l111-192.5a60.91 60.91 0 0 0 0-60.7l-111-192.5C434.6 11.5 414.6 0 393 0z" class="st1"/></g></mask><circle cx="272.5" cy="212.2" r="1.6" style="mask:url(#ag_00000064321065447643156300000016424904719890607271_);fill:#e8c6ac" transform="rotate(90 272.54 212.236)"/></g><g transform="rotate(5 816.309 5247.002)"><defs><filter id="Adobe_OpacityMaskFilter_00000137126111127993632330000002539758896859302832_" width="3" height="3.5" x="279.3" y="202.3" filterUnits="userSpaceOnUse"><feColorMatrix values="1 0 0 0 0 0 1 0 0 0 0 0 1 0 0 0 0 0 1 0"/></filter></defs><mask id="ai_00000042719519493800836090000006040867393780701620_" width="3" height="3.5" x="279.3" y="202.3" maskUnits="userSpaceOnUse"><g style="filter:url(#Adobe_OpacityMaskFilter_00000137126111127993632330000002539758896859302832_)"><path id="ah_00000126325392671614136350000000779674498337087389_" d="M393 0H171c-21.6 0-41.7 11.6-50.1 30.3L9.9 222.8c-13.1 18.8-13.1 41.9 0 60.7l89.3 244.9c3.9 8.7 77.4 13.5 94.6 4.7 21.7-11.2-4.2-26.6 7.5-26.6l191.7-.2c21.6 0 41.7-11.6 52.5-30.3l111-192.5a60.91 60.91 0 0 0 0-60.7l-111-192.5C434.6 11.5 414.6 0 393 0z" class="st1"/></g></mask><circle cx="280.7" cy="204" r="1.6" style="mask:url(#ai_00000042719519493800836090000006040867393780701620_);fill:#e8c6ac" transform="rotate(90 280.743 204.025)"/></g><g transform="rotate(5 816.309 5247.002)"><defs><filter id="Adobe_OpacityMaskFilter_00000071527434551715034110000016555380555634617734_" width="191.9" height="349.6" x="186.2" y="5.8" filterUnits="userSpaceOnUse"><feColorMatrix values="1 0 0 0 0 0 1 0 0 0 0 0 1 0 0 0 0 0 1 0"/></filter></defs><mask id="al_00000065056885725853933530000000748432589924331666_" width="191.9" height="349.6" x="186.2" y="5.8" maskUnits="userSpaceOnUse"><g style="filter:url(#Adobe_OpacityMaskFilter_00000071527434551715034110000016555380555634617734_)"><path id="ak_00000115502972244013018500000016579835591316902302_" d="M393 0H171c-21.6 0-41.7 11.6-50.1 30.3L9.9 222.8c-13.1 18.8-13.1 41.9 0 60.7l89.3 244.9c3.9 8.7 77.4 13.5 94.6 4.7 21.7-11.2-4.2-26.6 7.5-26.6l191.7-.2c21.6 0 41.7-11.6 52.5-30.3l111-192.5a60.91 60.91 0 0 0 0-60.7l-111-192.5C434.6 11.5 414.6 0 393 0z" class="st1"/></g></mask><path d="M184.9 338.1S172 190.7 170.1 165c-2.1-28-15.4-73.3 27.1-119.1 20.1-21.7 103-53 161.2-11.2 55.7 40.1 22 259.7 2.9 305.5l9.2-178L329 74l-41.6-7.3-92.8 37.8-9.7 233.6z" style="mask:url(#al_00000065056885725853933530000000748432589924331666_);fill:#fcb963"/></g><g transform="rotate(5 816.309 5247.002)"><defs><filter id="Adobe_OpacityMaskFilter_00000063612814026686396720000001327751642563935901_" width="184.4" height="173.3" x="183.9" y="39.8" filterUnits="userSpaceOnUse"><feColorMatrix values="1 0 0 0 0 0 1 0 0 0 0 0 1 0 0 0 0 0 1 0"/></filter></defs><mask id="an_00000000183370653893424730000014359008010465531058_" width="184.4" height="173.3" x="183.9" y="39.8" maskUnits="userSpaceOnUse"><g style="filter:url(#Adobe_OpacityMaskFilter_00000063612814026686396720000001327751642563935901_)"><path id="am_00000117647272025545542140000014843995571828145586_" d="M393 0H171c-21.6 0-41.7 11.6-50.1 30.3L9.9 222.8c-13.1 18.8-13.1 41.9 0 60.7l89.3 244.9c3.9 8.7 77.4 13.5 94.6 4.7 21.7-11.2-4.2-26.6 7.5-26.6l191.7-.2c21.6 0 41.7-11.6 52.5-30.3l111-192.5a60.91 60.91 0 0 0 0-60.7l-111-192.5C434.6 11.5 414.6 0 393 0z" class="st1"/></g></mask><path d="M350.8 88.7c-15.6-35.2-42.5-33.3-47.9-33.4-12.9 0-20.5 10-20.5 10.2-78.7-50.7-99.9 44.3-99.9 84.4v47.4c50.8-14.6 48.3-121.1 103.2-119.1 30.7-18 96.3 117.6 96.3 117.6s-15.5-71.9-31.2-107.1z" style="mask:url(#an_00000000183370653893424730000014359008010465531058_);fill:#ffd04f"/></g><g transform="rotate(5 816.309 5247.002)"><defs><filter id="Adobe_OpacityMaskFilter_00000182501407483483754670000011521441857456070321_" width="155.7" height="118.7" x="197.9" y="62.3" filterUnits="userSpaceOnUse"><feColorMatrix values="1 0 0 0 0 0 1 0 0 0 0 0 1 0 0 0 0 0 1 0"/></filter></defs><mask id="ap_00000127730605484260924340000003176545962756868757_" width="155.7" height="118.7" x="197.9" y="62.3" maskUnits="userSpaceOnUse"><g style="filter:url(#Adobe_OpacityMaskFilter_00000182501407483483754670000011521441857456070321_)"><path id="ao_00000110463649463234347970000004152003360183571898_" d="M393 0H171c-21.6 0-41.7 11.6-50.1 30.3L9.9 222.8c-13.1 18.8-13.1 41.9 0 60.7l89.3 244.9c3.9 8.7 77.4 13.5 94.6 4.7 21.7-11.2-4.2-26.6 7.5-26.6l191.7-.2c21.6 0 41.7-11.6 52.5-30.3l111-192.5a60.91 60.91 0 0 0 0-60.7l-111-192.5C434.6 11.5 414.6 0 393 0z" class="st1"/></g></mask><path d="M197.9 181c4.9-4 8.1-9.7 11.2-15.1 12.2-22.2 21-45.9 32.7-68.3 4-7.3 7.8-14.9 14-20.6 5.5-5.2 13.3-9 21-7 3.2.8 6.1 2.3 8.6 4.6l-1 .1c4.3-5.2 11.4-6.6 17.6-5.1 21.9 5.5 48.1 59.8 59.2 79.8-4.9-8.6-9.7-17.4-14.7-25.9-7.6-12.8-15.3-25.6-24.8-37-3.2-3.8-6.6-7.4-10.4-10.5-2.8-2.2-6-4.3-9.6-5.1-1.2-.2-2.4-.4-3.6-.5-4.9-.3-10.2 1.6-13.2 5.7-5.1-5.1-13-6.5-19.7-3.7-11.1 4.7-17.1 15.9-22.5 25.9-11.7 22.3-20.8 46-33.4 68-3.1 5.2-6.3 10.9-11.4 14.7z" style="mask:url(#ap_00000127730605484260924340000003176545962756868757_);fill:#ffdc83"/></g><path d="m482.3 252.6 2.6-.4 75.8-13.1 20.2-3.5c11.5-2 22.4 5.7 24.4 17.1l26.6 162.6c2.2 12.8-6.4 25-19.3 27.3l-6.1 1.1-81.7 14.1c-16.1 2.8-31.4-8-34.1-24l-17.1-98.1-2.5-14.2L465 277c-1.9-11.6 5.8-22.4 17.3-24.4" class="st69"/><path d="M503.8 424.2 628 402.7l-27.6-168.9-124.2 21.5 27.6 168.9z" style="fill:#e1e1e1"/><path d="m600.2 232.3 11.5 66.3-63.2-57.4 51.7-8.9z" class="st71"/><path d="m490.7 308.5-6.5-47.4c-.3-1.4.7-2.7 2.1-3l72.7-12.6 36-6.2c1.7-.2 2.5.7 2.8 1.7l24 147.7c.3 1.4-.7 2.7-2.1 3L511 410.5c-1.4.2-2.8-.7-3-2.1l-17.3-99.9zm82.5 122.7c-5.3.9-10.3-2.6-11.2-7.9-.9-5.3 2.6-10.3 7.9-11.2s10.3 2.6 11.2 7.9c.9 5.3-2.6 10.3-7.9 11.2m-84.4-188c-11.5 2-19.2 12.8-17.2 24.3l8.5 58.8 18.1 103.9c2.2 12.8 14.5 21.4 27.4 19.2l93.5-16.1c12.9-2.2 21.5-14.5 19.3-27.3L623 307.3l-11.1-64c-2-11.4-12.9-19.1-24.4-17.1l-20.2 3.5-75.8 13.1-2.7.4" style="fill:#005c70"/><path d="m492.2 332-.7-8.3 96 87.5-15.7-5.1-58.2 16-13.2-13.3-8.2-76.8z" class="st71"/><path d="M561.8 423.5c-.9-5.3 2.6-10.3 7.9-11.2 5.3-.9 10.3 2.6 11.2 7.9.9 5.3-2.6 10.3-7.9 11.2-5.3.8-10.2-2.7-11.2-7.9m12.5-23.8-63 10.9c-1.4.2-2.7-.7-3-2.1l-14-81.4-16.1-14.6 2.4 14.2 17.9 103.6c2.2 12.8 14.4 21.4 27.1 19.2l86.8-15.1-38.1-34.7z" style="fill:#00667d"/><path d="m504.4 307.8 37.3-5.9.9 5.6-37.3 5.9-.9-5.6z" class="st69"/><path d="m506.7 320.2 88.3-14 1.8 11.5-88.3 14-1.8-11.5z" class="st74"/><path d="m511.6 343.6 25.6-4.1.9 5.6-25.6 4.1-.9-5.6z" class="st69"/><path d="m513.8 356 40.4-6.4L556 361l-40.4 6.4-1.8-11.4z" class="st74"/><path d="m556.7 336.3 25.6-4.1.9 5.6-25.6 4.1-.9-5.6z" class="st69"/><path d="m558.9 348.7 40.4-6.4 1.8 11.5-40.4 6.4-1.8-11.5z" class="st74"/><path d="m498.7 271.7 37.3-5.9.9 5.6-37.3 5.9-.9-5.6z" class="st69"/><path d="m500.9 284.1 88.3-14 1.8 11.5-88.3 14-1.8-11.5z" class="st74"/><path d="m517.5 377.9 56.7-9 2.8 17.4-56.7 9-2.8-17.4z" class="st3"/><linearGradient id="SVGID_00000180347440334596543620000011391597393062907303_" x1="89.307" x2="89.716" y1="556.131" y2="556.1" gradientTransform="matrix(43.6992 3.8232 6.043 -69.0714 -6796.312 38419.477)" gradientUnits="userSpaceOnUse"><stop offset="0" style="stop-color:#f6e5d8"/><stop offset="1" style="stop-color:#ecd9ce"/></linearGradient><path d="M477.6 315.5c-12.2.3-24.2 7.7-23.9 41.2 0 3 .5 9.2 1.4 16.5 5.2 13.7 23.7 13 33.4 8.5s7.4-14 7.6-29.3c.1-15.2 1.3-37.5-18.5-36.9z" style="fill:url(#SVGID_00000180347440334596543620000011391597393062907303_)"/><path d="M468.5 373c-2.2-11.3.6-43 1.6-49 1-6.1 7.5-8.4 7.5-8.4-12.2.3-24.2 7.7-23.9 41.2 0 3 .5 9.2 1.4 16.5 3.9 10.2 15.2 12.4 24.7 11-2.7-.4-9.6-2.3-11.3-11.3z" style="fill:#f6e5d8"/></g><path d="m504.6 0-95.4 136.5C399 151 381.7 159.1 364 157.6l-209.2-18.3c-17.7-1.5-33.3-12.5-40.8-28.6L62.4 0h-1.1L113 111.1c7.7 16.4 23.6 27.6 41.6 29.2l209.2 18.3c1.5.1 2.9.2 4.4.2 16.5 0 32.1-8.1 41.7-21.7L505.8 0h-1.2z" class="st3"/></svg>