<svg xmlns="http://www.w3.org/2000/svg" xmlns:xlink="http://www.w3.org/1999/xlink" xml:space="preserve" id="Layer_1" x="0" y="0" style="enable-background:new 0 0 1023 518" version="1.1" viewBox="0 0 1023 518"><style>.st0{fill:#27a737}.st36{fill:#004752}.st38{fill:#c8c8c8}.st41{fill:#fff}</style><path d="m504.6 0-95.4 136.5C399 151 381.7 159.1 364 157.6l-209.2-18.3c-17.7-1.5-33.3-12.5-40.8-28.6L62.4 0h-1.1L113 111.1c7.7 16.4 23.6 27.6 41.6 29.2l209.2 18.3c1.5.1 2.9.2 4.4.2 16.5 0 32.1-8.1 41.7-21.7L505.8 0h-1.2zM852.9-14.7l-221-21c-21.5-2-42.6 7.5-52.8 25.2L450.3 168.9c-14.9 17.3-17.1 40.1-5.8 59.8l92.2 200.4c6.7 19.3 25.5 32.6 47 34.7l221 21c21.5 2 42.6-7.5 55.1-25l128.9-179.4c12.6-17.5 14.8-40.3 5.8-59.8L902.3 20.2c-9-19.6-27.8-32.9-49.4-34.9z" class="st0"/><path d="m856.6 463.7 77.9-108.5L532.6 56.1l-86.8 117.3c-10.8 15-12.7 34.6-2.6 51.6l95.9 208.5c5.4 16.5 21.6 28 40.1 29.7l230 21.8c18.5 1.9 36.6-6.3 47.4-21.3z" style="fill:#259631"/><defs><path id="SVGID_1_" d="m852.9-14.7-221-21c-21.5-2-42.6 7.5-52.8 25.2L450.3 168.9c-14.9 17.3-17.1 40.1-5.8 59.8l65.6 250.1c3.1 8.9 75.7 20.7 93.8 13.5 22.6-9-1.6-26.6 10-25.5l190.9 17.9c21.5 2 42.6-7.5 55.1-25l128.9-179.4c12.6-17.5 14.8-40.3 5.8-59.8L902.3 20.2c-9-19.6-27.8-32.9-49.4-34.9z"/></defs><clipPath id="SVGID_00000162326265674782203560000018266921566813000885_"><use xlink:href="#SVGID_1_" style="overflow:visible"/></clipPath><path d="M501.1 406.8s13.6 73.3 33.2 75.2c33.7 3.2 69.9-72.1 69.9-72.1L527 395.2l-25.9 11.6z" style="clip-path:url(#SVGID_00000162326265674782203560000018266921566813000885_);fill:#004152"/><defs><path id="SVGID_00000078012124513155321510000005252443171943220145_" d="m852.9-14.7-221-21c-21.5-2-42.6 7.5-52.8 25.2L450.3 168.9c-14.9 17.3-17.1 40.1-5.8 59.8l65.6 250.1c3.1 8.9 75.7 20.7 93.8 13.5 22.6-9-1.6-26.6 10-25.5l190.9 17.9c21.5 2 42.6-7.5 55.1-25l128.9-179.4c12.6-17.5 14.8-40.3 5.8-59.8L902.3 20.2c-9-19.6-27.8-32.9-49.4-34.9z"/></defs><clipPath id="SVGID_00000072991367587097365990000009871722742328670632_"><use xlink:href="#SVGID_00000078012124513155321510000005252443171943220145_" style="overflow:visible"/></clipPath><path d="M539.4 472.3c-15.3-1.4-26.9-46.3-31.3-66l-7.3 3.3s13.6 73.3 33.2 75.2c33.7 3.2 69.9-72.1 69.9-72.1l-1.1-.2c-11.9 21.2-38.3 62.2-63.4 59.8z" style="clip-path:url(#SVGID_00000072991367587097365990000009871722742328670632_);fill:#015163"/><defs><path id="SVGID_00000071556680123169152790000001299613033097806759_" d="m852.9-14.7-221-21c-21.5-2-42.6 7.5-52.8 25.2L450.3 168.9c-14.9 17.3-17.1 40.1-5.8 59.8l65.6 250.1c3.1 8.9 75.7 20.7 93.8 13.5 22.6-9-1.6-26.6 10-25.5l190.9 17.9c21.5 2 42.6-7.5 55.1-25l128.9-179.4c12.6-17.5 14.8-40.3 5.8-59.8L902.3 20.2c-9-19.6-27.8-32.9-49.4-34.9z"/></defs><clipPath id="SVGID_00000170972754711046046160000005783540296984412854_"><use xlink:href="#SVGID_00000071556680123169152790000001299613033097806759_" style="overflow:visible"/></clipPath><path d="M605.3 341.5s4.9-14.7 29.9-20.3c24.9-5.7 51.8-13.4 53.5-30.4.7-7.6.7-18.6 1.5-27.1-56.4-19.1-71.4-82.1-64.3-155.5 8-83.2 79.7-93.3 114.6-90 .2 0 .4 0 .6.1.2 0 .4 0 .6.1 34.9 3.3 73.5 27.9 65.5 111.1-7 72.2-4.7 114.3-62 123.7-.8 8.7-15.4 33.8-16.2 41.7-1.6 17.1 35 30.6 58.4 40.9 13.3 5.9 16.4 38.3 19.5 43.6 17.6-64.9 58.4-240.2 46.4-293.8-15.7-69.6-53.4-77-53.4-77l-53-17.2s-85.7-8.2-120.7 59.9c-29.7 57.8-27.2 244.1-25.7 299.1l4.8-8.9z" style="clip-path:url(#SVGID_00000170972754711046046160000005783540296984412854_);fill:#f99d1c"/><defs><path id="SVGID_00000007395575448394074070000011551666856192427942_" d="m852.9-14.7-221-21c-21.5-2-42.6 7.5-52.8 25.2L450.3 168.9c-14.9 17.3-17.1 40.1-5.8 59.8l65.6 250.1c3.1 8.9 75.7 20.7 93.8 13.5 22.6-9-1.6-26.6 10-25.5l190.9 17.9c21.5 2 42.6-7.5 55.1-25l128.9-179.4c12.6-17.5 14.8-40.3 5.8-59.8L902.3 20.2c-9-19.6-27.8-32.9-49.4-34.9z"/></defs><clipPath id="SVGID_00000182521755627435347640000002286076149209339275_"><use xlink:href="#SVGID_00000007395575448394074070000011551666856192427942_" style="overflow:visible"/></clipPath><linearGradient id="SVGID_00000085226582429579065570000014548653852082843011_" x1="600.904" x2="881.708" y1="146.82" y2="146.82" gradientTransform="matrix(.9955 .09527 .09527 -.9955 -22.857 450.497)" gradientUnits="userSpaceOnUse"><stop offset="0" style="stop-color:#fddfd8"/><stop offset="1" style="stop-color:#edcac7"/></linearGradient><path d="M807.5 357.2s-1.6-15.1-24.9-25.3c-23.3-10.2-44.1-20.4-42.5-37.3 1.6-16.9 4.3-44.7 4.3-44.7l-27.9-2.6-27.9-2.6s-2.7 27.7-4.3 44.7c-1.6 17-24 23-48.8 28.7-24.9 5.7-29.3 20.1-29.3 20.1l-17.9 33.3 29.7 36.3 9.1-6.4 6.8 90.9 58.4 5.7 58.4 5.4 29.5-97.8L815 509.5l41.7 4-49.2-156.3z" style="clip-path:url(#SVGID_00000182521755627435347640000002286076149209339275_);fill:url(#SVGID_00000085226582429579065570000014548653852082843011_)"/><defs><path id="SVGID_00000054249054881320587470000000875312171789819292_" d="m852.9-14.7-221-21c-21.5-2-42.6 7.5-52.8 25.2L450.3 168.9c-14.9 17.3-17.1 40.1-5.8 59.8l65.6 250.1c3.1 8.9 75.7 20.7 93.8 13.5 22.6-9-1.6-26.6 10-25.5l190.9 17.9c21.5 2 42.6-7.5 55.1-25l128.9-179.4c12.6-17.5 14.8-40.3 5.8-59.8L902.3 20.2c-9-19.6-27.8-32.9-49.4-34.9z"/></defs><clipPath id="SVGID_00000009560152246859302810000009472708538976661431_"><use xlink:href="#SVGID_00000054249054881320587470000000875312171789819292_" style="overflow:visible"/></clipPath><path d="m615.7 413.1-1.6 76.5L769 504.3l13.1-75.4 30.6 79.5 49.7 4.7-49.2-170s-1-3-8.7-7.4c-10.5-6-10.6-5.8-49.1-23.5 0 0-20.3 20.1-47.8 17.5-27.5-2.6-43.6-26.2-43.6-26.2-41.2 10.2-41.3 9.9-52.8 13.9-8.3 2.9-9.9 5.7-9.9 5.7L587 351.8l28.7 61.3z" style="clip-path:url(#SVGID_00000009560152246859302810000009472708538976661431_);fill:#98d0e8"/><defs><path id="SVGID_00000086690247955923184780000004992434958691054764_" d="m852.9-14.7-221-21c-21.5-2-42.6 7.5-52.8 25.2L450.3 168.9c-14.9 17.3-17.1 40.1-5.8 59.8l65.6 250.1c3.1 8.9 75.7 20.7 93.8 13.5 22.6-9-1.6-26.6 10-25.5l190.9 17.9c21.5 2 42.6-7.5 55.1-25l128.9-179.4c12.6-17.5 14.8-40.3 5.8-59.8L902.3 20.2c-9-19.6-27.8-32.9-49.4-34.9z"/></defs><clipPath id="SVGID_00000176756206757400894680000013764309750763242389_"><use xlink:href="#SVGID_00000086690247955923184780000004992434958691054764_" style="overflow:visible"/></clipPath><path d="m862.5 513.1-49.2-170s-.6-1.7-4.1-4.4c0 0-18.3 10.1-27 90.2l30.6 79.5 49.7 4.7z" style="clip-path:url(#SVGID_00000176756206757400894680000013764309750763242389_);fill:#004152"/><defs><path id="SVGID_00000064332381968688959290000008037994225430831252_" d="m852.9-14.7-221-21c-21.5-2-42.6 7.5-52.8 25.2L450.3 168.9c-14.9 17.3-17.1 40.1-5.8 59.8l65.6 250.1c3.1 8.9 75.7 20.7 93.8 13.5 22.6-9-1.6-26.6 10-25.5l190.9 17.9c21.5 2 42.6-7.5 55.1-25l128.9-179.4c12.6-17.5 14.8-40.3 5.8-59.8L902.3 20.2c-9-19.6-27.8-32.9-49.4-34.9z"/></defs><clipPath id="SVGID_00000052098858002001114720000016595941545956272037_"><use xlink:href="#SVGID_00000064332381968688959290000008037994225430831252_" style="overflow:visible"/></clipPath><path d="M809.2 338.7s-2.7 1.5-6.6 8l50.6 165.6 9.3.9-49.2-170s-.6-1.8-4.1-4.5z" style="clip-path:url(#SVGID_00000052098858002001114720000016595941545956272037_);fill:#015163"/><defs><path id="SVGID_00000144337157389205206670000010370133740966980767_" d="m852.9-14.7-221-21c-21.5-2-42.6 7.5-52.8 25.2L450.3 168.9c-14.9 17.3-17.1 40.1-5.8 59.8l65.6 250.1c3.1 8.9 75.7 20.7 93.8 13.5 22.6-9-1.6-26.6 10-25.5l190.9 17.9c21.5 2 42.6-7.5 55.1-25l128.9-179.4c12.6-17.5 14.8-40.3 5.8-59.8L902.3 20.2c-9-19.6-27.8-32.9-49.4-34.9z"/></defs><clipPath id="SVGID_00000084507838975871160770000013725560733117290128_"><use xlink:href="#SVGID_00000144337157389205206670000010370133740966980767_" style="overflow:visible"/></clipPath><path d="M809.2 338.7c-1.2-.9-2.6-1.9-4.5-3-10.5-6-10.6-5.8-49.1-23.5 0 0-3.4 3.4-9.4 7.2l56.3 27.2c3.3-5.8 6.7-7.9 6.7-7.9z" style="clip-path:url(#SVGID_00000084507838975871160770000013725560733117290128_);fill:#9ed5e8"/><defs><path id="SVGID_00000019670945665156454230000017602816786128057754_" d="m852.9-14.7-221-21c-21.5-2-42.6 7.5-52.8 25.2L450.3 168.9c-14.9 17.3-17.1 40.1-5.8 59.8l65.6 250.1c3.1 8.9 75.7 20.7 93.8 13.5 22.6-9-1.6-26.6 10-25.5l190.9 17.9c21.5 2 42.6-7.5 55.1-25l128.9-179.4c12.6-17.5 14.8-40.3 5.8-59.8L902.3 20.2c-9-19.6-27.8-32.9-49.4-34.9z"/></defs><clipPath id="SVGID_00000167362471775455093080000013211844034484941733_"><use xlink:href="#SVGID_00000019670945665156454230000017602816786128057754_" style="overflow:visible"/></clipPath><path d="M606.5 319.4c1.3-.7 2.9-1.3 5-2.1 11.5-3.9 11.5-3.7 52.8-13.9 0 0 2.7 4 7.8 8.9l-60.5 16.1c-2.2-6.2-5.1-9-5.1-9z" style="clip-path:url(#SVGID_00000167362471775455093080000013211844034484941733_);fill:#9ed5e8"/><defs><path id="SVGID_00000044162932330492080700000016106509281196041600_" d="m852.9-14.7-221-21c-21.5-2-42.6 7.5-52.8 25.2L450.3 168.9c-14.9 17.3-17.1 40.1-5.8 59.8l65.6 250.1c3.1 8.9 75.7 20.7 93.8 13.5 22.6-9-1.6-26.6 10-25.5l190.9 17.9c21.5 2 42.6-7.5 55.1-25l128.9-179.4c12.6-17.5 14.8-40.3 5.8-59.8L902.3 20.2c-9-19.6-27.8-32.9-49.4-34.9z"/></defs><clipPath id="SVGID_00000013161852839448035730000007713504402794142117_"><use xlink:href="#SVGID_00000044162932330492080700000016106509281196041600_" style="overflow:visible"/></clipPath><path d="M737.4 360.1c-14.6-11.2-42.5-20.3-62-8.6-19.4 11.7-14.1 49.3 9.1 79.1 16.2 20.9-6.4 38.2-30.4 28-21-8.9-33.4 6.4-19 33.7l98.3 9.3c.2-3 0-6.2-.9-9.5-4.9-18.3-25.9-66.8-25.9-66.8s47.1 16.7 56.9 5.4c9.8-11.4 0-50.6-26.1-70.6z" style="clip-path:url(#SVGID_00000013161852839448035730000007713504402794142117_);fill:#abdced"/><defs><path id="SVGID_00000054253450714370334070000016014950830968905868_" d="m852.9-14.7-221-21c-21.5-2-42.6 7.5-52.8 25.2L450.3 168.9c-14.9 17.3-17.1 40.1-5.8 59.8l65.6 250.1c3.1 8.9 75.7 20.7 93.8 13.5 22.6-9-1.6-26.6 10-25.5l190.9 17.9c21.5 2 42.6-7.5 55.1-25l128.9-179.4c12.6-17.5 14.8-40.3 5.8-59.8L902.3 20.2c-9-19.6-27.8-32.9-49.4-34.9z"/></defs><clipPath id="SVGID_00000049181724088685188580000013298371544907856002_"><use xlink:href="#SVGID_00000054253450714370334070000016014950830968905868_" style="overflow:visible"/></clipPath><path d="M834 129c-8 82.8-44.1 147.5-120.2 140.3-76.1-7.2-97.6-78.3-89.6-161 8-82.8 79.6-84.6 114.3-81.3C773.3 30.3 842 46.3 834 129z" style="clip-path:url(#SVGID_00000049181724088685188580000013298371544907856002_);fill:#fddfd8"/><defs><path id="SVGID_00000126310847928395662290000004704493941975178643_" d="m852.9-14.7-221-21c-21.5-2-42.6 7.5-52.8 25.2L450.3 168.9c-14.9 17.3-17.1 40.1-5.8 59.8l65.6 250.1c3.1 8.9 75.7 20.7 93.8 13.5 22.6-9-1.6-26.6 10-25.5l190.9 17.9c21.5 2 42.6-7.5 55.1-25l128.9-179.4c12.6-17.5 14.8-40.3 5.8-59.8L902.3 20.2c-9-19.6-27.8-32.9-49.4-34.9z"/></defs><clipPath id="SVGID_00000103232563869847640900000014444139679318862523_"><use xlink:href="#SVGID_00000126310847928395662290000004704493941975178643_" style="overflow:visible"/></clipPath><path d="M699.4 169.7c-1.1 11.4-11.4 19.7-23 18.6-11.6-1.1-20.1-11.2-19-22.6s11.4-19.7 23-18.6c11.6 1.1 20.1 11.2 19 22.6z" style="clip-path:url(#SVGID_00000103232563869847640900000014444139679318862523_);fill:#82b034"/><defs><path id="SVGID_00000149384011355274245310000014959902568864757918_" d="m852.9-14.7-221-21c-21.5-2-42.6 7.5-52.8 25.2L450.3 168.9c-14.9 17.3-17.1 40.1-5.8 59.8l65.6 250.1c3.1 8.9 75.7 20.7 93.8 13.5 22.6-9-1.6-26.6 10-25.5l190.9 17.9c21.5 2 42.6-7.5 55.1-25l128.9-179.4c12.6-17.5 14.8-40.3 5.8-59.8L902.3 20.2c-9-19.6-27.8-32.9-49.4-34.9z"/></defs><clipPath id="SVGID_00000069363501945274041890000006399023695674908345_"><use xlink:href="#SVGID_00000149384011355274245310000014959902568864757918_" style="overflow:visible"/></clipPath><path d="M694 169.2c-.8 7.9-7.9 13.7-15.9 13s-13.9-7.8-13.1-15.7c.8-7.9 7.9-13.7 15.9-13 8 .7 13.9 7.8 13.1 15.7z" style="clip-path:url(#SVGID_00000069363501945274041890000006399023695674908345_);fill:#2a1d01"/><defs><path id="SVGID_00000147203099061542379170000009474309227316890285_" d="m852.9-14.7-221-21c-21.5-2-42.6 7.5-52.8 25.2L450.3 168.9c-14.9 17.3-17.1 40.1-5.8 59.8l65.6 250.1c3.1 8.9 75.7 20.7 93.8 13.5 22.6-9-1.6-26.6 10-25.5l190.9 17.9c21.5 2 42.6-7.5 55.1-25l128.9-179.4c12.6-17.5 14.8-40.3 5.8-59.8L902.3 20.2c-9-19.6-27.8-32.9-49.4-34.9z"/></defs><clipPath id="SVGID_00000143615773666227438870000014139003575237710989_"><use xlink:href="#SVGID_00000147203099061542379170000009474309227316890285_" style="overflow:visible"/></clipPath><path d="M674.2 159.8c-.2 2.3-2.3 4-4.6 3.7-2.3-.2-4-2.3-3.8-4.5.2-2.3 2.3-4 4.6-3.7 2.3.2 4 2.2 3.8 4.5z" style="clip-path:url(#SVGID_00000143615773666227438870000014139003575237710989_);fill:#fff"/><defs><path id="SVGID_00000150094053127322713610000010258832763446759809_" d="m852.9-14.7-221-21c-21.5-2-42.6 7.5-52.8 25.2L450.3 168.9c-14.9 17.3-17.1 40.1-5.8 59.8l65.6 250.1c3.1 8.9 75.7 20.7 93.8 13.5 22.6-9-1.6-26.6 10-25.5l190.9 17.9c21.5 2 42.6-7.5 55.1-25l128.9-179.4c12.6-17.5 14.8-40.3 5.8-59.8L902.3 20.2c-9-19.6-27.8-32.9-49.4-34.9z"/></defs><clipPath id="SVGID_00000147183390934248831440000014721427659624224956_"><use xlink:href="#SVGID_00000150094053127322713610000010258832763446759809_" style="overflow:visible"/></clipPath><path d="M673.4 213.2c13.5 10 28.4 16.8 44 18.1 15.7 1.5 31.3-3.1 46.9-9.4-6.1 5.9-13.5 10.6-21.6 13.7-8.1 3.2-17.1 4.5-26 3.8-8.9-.8-17.5-3.6-25-8.2-7.4-4.7-13.9-10.7-18.3-18z" style="clip-path:url(#SVGID_00000147183390934248831440000014721427659624224956_);fill:#f6a8b9"/><defs><path id="SVGID_00000086660032469314260420000008829709959132008102_" d="m852.9-14.7-221-21c-21.5-2-42.6 7.5-52.8 25.2L450.3 168.9c-14.9 17.3-17.1 40.1-5.8 59.8l65.6 250.1c3.1 8.9 75.7 20.7 93.8 13.5 22.6-9-1.6-26.6 10-25.5l190.9 17.9c21.5 2 42.6-7.5 55.1-25l128.9-179.4c12.6-17.5 14.8-40.3 5.8-59.8L902.3 20.2c-9-19.6-27.8-32.9-49.4-34.9z"/></defs><clipPath id="SVGID_00000136387700586263752280000016600270331476993675_"><use xlink:href="#SVGID_00000086660032469314260420000008829709959132008102_" style="overflow:visible"/></clipPath><path d="M750.7 174.6c-1.1 11.4 7.4 21.5 19 22.6 11.6 1.1 21.9-7.2 23-18.6 1.1-11.4-7.4-21.5-19-22.6-11.6-1.1-21.9 7.2-23 18.6z" style="clip-path:url(#SVGID_00000136387700586263752280000016600270331476993675_);fill:#82b034"/><defs><path id="SVGID_00000129919280831955066870000015912918087715222664_" d="m852.9-14.7-221-21c-21.5-2-42.6 7.5-52.8 25.2L450.3 168.9c-14.9 17.3-17.1 40.1-5.8 59.8l65.6 250.1c3.1 8.9 75.7 20.7 93.8 13.5 22.6-9-1.6-26.6 10-25.5l190.9 17.9c21.5 2 42.6-7.5 55.1-25l128.9-179.4c12.6-17.5 14.8-40.3 5.8-59.8L902.3 20.2c-9-19.6-27.8-32.9-49.4-34.9z"/></defs><clipPath id="SVGID_00000081639907319609621800000001017892957493882009_"><use xlink:href="#SVGID_00000129919280831955066870000015912918087715222664_" style="overflow:visible"/></clipPath><path d="M756.1 175.1c-.8 7.9 5.1 15 13.1 15.7 8 .8 15.1-5.1 15.9-13s-5.1-15-13.1-15.7c-8-.7-15.1 5.1-15.9 13z" style="clip-path:url(#SVGID_00000081639907319609621800000001017892957493882009_);fill:#2a1d01"/><defs><path id="SVGID_00000056406671905443950190000009152818916145704116_" d="m852.9-14.7-221-21c-21.5-2-42.6 7.5-52.8 25.2L450.3 168.9c-14.9 17.3-17.1 40.1-5.8 59.8l65.6 250.1c3.1 8.9 75.7 20.7 93.8 13.5 22.6-9-1.6-26.6 10-25.5l190.9 17.9c21.5 2 42.6-7.5 55.1-25l128.9-179.4c12.6-17.5 14.8-40.3 5.8-59.8L902.3 20.2c-9-19.6-27.8-32.9-49.4-34.9z"/></defs><clipPath id="SVGID_00000113334071019121236100000002890209189807755142_"><use xlink:href="#SVGID_00000056406671905443950190000009152818916145704116_" style="overflow:visible"/></clipPath><path d="M757.7 167.7c-.2 2.3 1.5 4.3 3.8 4.5 2.3.2 4.4-1.5 4.6-3.7.2-2.3-1.5-4.3-3.8-4.5-2.3-.2-4.4 1.4-4.6 3.7z" style="clip-path:url(#SVGID_00000113334071019121236100000002890209189807755142_);fill:#fff"/><defs><path id="SVGID_00000044900541916484777610000015481304377375445680_" d="m852.9-14.7-221-21c-21.5-2-42.6 7.5-52.8 25.2L450.3 168.9c-14.9 17.3-17.1 40.1-5.8 59.8l65.6 250.1c3.1 8.9 75.7 20.7 93.8 13.5 22.6-9-1.6-26.6 10-25.5l190.9 17.9c21.5 2 42.6-7.5 55.1-25l128.9-179.4c12.6-17.5 14.8-40.3 5.8-59.8L902.3 20.2c-9-19.6-27.8-32.9-49.4-34.9z"/></defs><clipPath id="SVGID_00000183928104951916393030000014257451564114218934_"><use xlink:href="#SVGID_00000044900541916484777610000015481304377375445680_" style="overflow:visible"/></clipPath><circle cx="729.2" cy="191" r="3.5" style="clip-path:url(#SVGID_00000183928104951916393030000014257451564114218934_);fill:#e8c6ac"/><defs><path id="SVGID_00000157267923831736481590000014039285859820048055_" d="m852.9-14.7-221-21c-21.5-2-42.6 7.5-52.8 25.2L450.3 168.9c-14.9 17.3-17.1 40.1-5.8 59.8l65.6 250.1c3.1 8.9 75.7 20.7 93.8 13.5 22.6-9-1.6-26.6 10-25.5l190.9 17.9c21.5 2 42.6-7.5 55.1-25l128.9-179.4c12.6-17.5 14.8-40.3 5.8-59.8L902.3 20.2c-9-19.6-27.8-32.9-49.4-34.9z"/></defs><clipPath id="SVGID_00000029025146053347539670000014139689357755167654_"><use xlink:href="#SVGID_00000157267923831736481590000014039285859820048055_" style="overflow:visible"/></clipPath><circle cx="707.3" cy="196.8" r="3.7" style="clip-path:url(#SVGID_00000029025146053347539670000014139689357755167654_);fill:#e8c6ac"/><defs><path id="SVGID_00000034085355065670225570000011119729464374004671_" d="m852.9-14.7-221-21c-21.5-2-42.6 7.5-52.8 25.2L450.3 168.9c-14.9 17.3-17.1 40.1-5.8 59.8l65.6 250.1c3.1 8.9 75.7 20.7 93.8 13.5 22.6-9-1.6-26.6 10-25.5l190.9 17.9c21.5 2 42.6-7.5 55.1-25l128.9-179.4c12.6-17.5 14.8-40.3 5.8-59.8L902.3 20.2c-9-19.6-27.8-32.9-49.4-34.9z"/></defs><clipPath id="SVGID_00000032612354153968315180000005143990928498475424_"><use xlink:href="#SVGID_00000034085355065670225570000011119729464374004671_" style="overflow:visible"/></clipPath><circle cx="724.9" cy="162.2" r="3.7" style="clip-path:url(#SVGID_00000032612354153968315180000005143990928498475424_);fill:#e8c6ac"/><defs><path id="SVGID_00000018205470966026923860000018219851906366130049_" d="m852.9-14.7-221-21c-21.5-2-42.6 7.5-52.8 25.2L450.3 168.9c-14.9 17.3-17.1 40.1-5.8 59.8l65.6 250.1c3.1 8.9 75.7 20.7 93.8 13.5 22.6-9-1.6-26.6 10-25.5l190.9 17.9c21.5 2 42.6-7.5 55.1-25l128.9-179.4c12.6-17.5 14.8-40.3 5.8-59.8L902.3 20.2c-9-19.6-27.8-32.9-49.4-34.9z"/></defs><clipPath id="SVGID_00000140733839302462856380000002738528898417940151_"><use xlink:href="#SVGID_00000018205470966026923860000018219851906366130049_" style="overflow:visible"/></clipPath><circle cx="736.9" cy="173.8" r="3.7" style="clip-path:url(#SVGID_00000140733839302462856380000002738528898417940151_);fill:#e8c6ac"/><defs><path id="SVGID_00000162340749830701248250000003045065119391442106_" d="m852.9-14.7-221-21c-21.5-2-42.6 7.5-52.8 25.2L450.3 168.9c-14.9 17.3-17.1 40.1-5.8 59.8l65.6 250.1c3.1 8.9 75.7 20.7 93.8 13.5 22.6-9-1.6-26.6 10-25.5l190.9 17.9c21.5 2 42.6-7.5 55.1-25l128.9-179.4c12.6-17.5 14.8-40.3 5.8-59.8L902.3 20.2c-9-19.6-27.8-32.9-49.4-34.9z"/></defs><clipPath id="SVGID_00000033341305931808585900000007277868348072465816_"><use xlink:href="#SVGID_00000162340749830701248250000003045065119391442106_" style="overflow:visible"/></clipPath><circle cx="712.5" cy="171" r="2.4" style="clip-path:url(#SVGID_00000033341305931808585900000007277868348072465816_);fill:#e8c6ac"/><defs><path id="SVGID_00000180360036461230059340000012081368185096897412_" d="m852.9-14.7-221-21c-21.5-2-42.6 7.5-52.8 25.2L450.3 168.9c-14.9 17.3-17.1 40.1-5.8 59.8l65.6 250.1c3.1 8.9 75.7 20.7 93.8 13.5 22.6-9-1.6-26.6 10-25.5l190.9 17.9c21.5 2 42.6-7.5 55.1-25l128.9-179.4c12.6-17.5 14.8-40.3 5.8-59.8L902.3 20.2c-9-19.6-27.8-32.9-49.4-34.9z"/></defs><clipPath id="SVGID_00000166649470041583418890000017476349438224586372_"><use xlink:href="#SVGID_00000180360036461230059340000012081368185096897412_" style="overflow:visible"/></clipPath><circle cx="742.7" cy="207.3" r="2.4" style="clip-path:url(#SVGID_00000166649470041583418890000017476349438224586372_);fill:#e8c6ac"/><defs><path id="SVGID_00000160891442757781735970000001495577253934889121_" d="m852.9-14.7-221-21c-21.5-2-42.6 7.5-52.8 25.2L450.3 168.9c-14.9 17.3-17.1 40.1-5.8 59.8l65.6 250.1c3.1 8.9 75.7 20.7 93.8 13.5 22.6-9-1.6-26.6 10-25.5l190.9 17.9c21.5 2 42.6-7.5 55.1-25l128.9-179.4c12.6-17.5 14.8-40.3 5.8-59.8L902.3 20.2c-9-19.6-27.8-32.9-49.4-34.9z"/></defs><clipPath id="SVGID_00000156571819271003457120000010365017730034350509_"><use xlink:href="#SVGID_00000160891442757781735970000001495577253934889121_" style="overflow:visible"/></clipPath><circle cx="725.3" cy="209.1" r="3.7" style="clip-path:url(#SVGID_00000156571819271003457120000010365017730034350509_);fill:#e8c6ac"/><defs><path id="SVGID_00000052785062042409412490000007095176221852013195_" d="m852.9-14.7-221-21c-21.5-2-42.6 7.5-52.8 25.2L450.3 168.9c-14.9 17.3-17.1 40.1-5.8 59.8l65.6 250.1c3.1 8.9 75.7 20.7 93.8 13.5 22.6-9-1.6-26.6 10-25.5l190.9 17.9c21.5 2 42.6-7.5 55.1-25l128.9-179.4c12.6-17.5 14.8-40.3 5.8-59.8L902.3 20.2c-9-19.6-27.8-32.9-49.4-34.9z"/></defs><clipPath id="SVGID_00000091738000150482791480000015028006078780662705_"><use xlink:href="#SVGID_00000052785062042409412490000007095176221852013195_" style="overflow:visible"/></clipPath><circle cx="690.7" cy="197.9" r="2.4" style="clip-path:url(#SVGID_00000091738000150482791480000015028006078780662705_);fill:#e8c6ac"/><defs><path id="SVGID_00000028313123723645286510000016470884746705492364_" d="m852.9-14.7-221-21c-21.5-2-42.6 7.5-52.8 25.2L450.3 168.9c-14.9 17.3-17.1 40.1-5.8 59.8l65.6 250.1c3.1 8.9 75.7 20.7 93.8 13.5 22.6-9-1.6-26.6 10-25.5l190.9 17.9c21.5 2 42.6-7.5 55.1-25l128.9-179.4c12.6-17.5 14.8-40.3 5.8-59.8L902.3 20.2c-9-19.6-27.8-32.9-49.4-34.9z"/></defs><clipPath id="SVGID_00000103961851964097739990000015689036535316893628_"><use xlink:href="#SVGID_00000028313123723645286510000016470884746705492364_" style="overflow:visible"/></clipPath><circle cx="752.2" cy="202.2" r="2.4" style="clip-path:url(#SVGID_00000103961851964097739990000015689036535316893628_);fill:#e8c6ac"/><defs><path id="SVGID_00000026849297147606137110000005466852570560520332_" d="m852.9-14.7-221-21c-21.5-2-42.6 7.5-52.8 25.2L450.3 168.9c-14.9 17.3-17.1 40.1-5.8 59.8l65.6 250.1c3.1 8.9 75.7 20.7 93.8 13.5 22.6-9-1.6-26.6 10-25.5l190.9 17.9c21.5 2 42.6-7.5 55.1-25l128.9-179.4c12.6-17.5 14.8-40.3 5.8-59.8L902.3 20.2c-9-19.6-27.8-32.9-49.4-34.9z"/></defs><clipPath id="SVGID_00000164484880515434304090000013072536281269076393_"><use xlink:href="#SVGID_00000026849297147606137110000005466852570560520332_" style="overflow:visible"/></clipPath><circle cx="712.8" cy="183.3" r="1.6" style="clip-path:url(#SVGID_00000164484880515434304090000013072536281269076393_);fill:#e8c6ac"/><defs><path id="SVGID_00000053504195142003046050000005039575514422669200_" d="m852.9-14.7-221-21c-21.5-2-42.6 7.5-52.8 25.2L450.3 168.9c-14.9 17.3-17.1 40.1-5.8 59.8l65.6 250.1c3.1 8.9 75.7 20.7 93.8 13.5 22.6-9-1.6-26.6 10-25.5l190.9 17.9c21.5 2 42.6-7.5 55.1-25l128.9-179.4c12.6-17.5 14.8-40.3 5.8-59.8L902.3 20.2c-9-19.6-27.8-32.9-49.4-34.9z"/></defs><clipPath id="SVGID_00000034071136844134629460000002453047417277457041_"><use xlink:href="#SVGID_00000053504195142003046050000005039575514422669200_" style="overflow:visible"/></clipPath><circle cx="721.8" cy="176" r="1.6" style="clip-path:url(#SVGID_00000034071136844134629460000002453047417277457041_);fill:#e8c6ac"/><defs><path id="SVGID_00000084512832360447787580000009484619881944097956_" d="m852.9-14.7-221-21c-21.5-2-42.6 7.5-52.8 25.2L450.3 168.9c-14.9 17.3-17.1 40.1-5.8 59.8l65.6 250.1c3.1 8.9 75.7 20.7 93.8 13.5 22.6-9-1.6-26.6 10-25.5l190.9 17.9c21.5 2 42.6-7.5 55.1-25l128.9-179.4c12.6-17.5 14.8-40.3 5.8-59.8L902.3 20.2c-9-19.6-27.8-32.9-49.4-34.9z"/></defs><clipPath id="SVGID_00000031195416150793439280000005203780048903468681_"><use xlink:href="#SVGID_00000084512832360447787580000009484619881944097956_" style="overflow:visible"/></clipPath><defs><path id="SVGID_00000072280203448142872180000000647201785275423414_" d="m852.9-14.7-221-21c-21.5-2-42.6 7.5-52.8 25.2L450.3 168.9c-14.9 17.3-17.1 40.1-5.8 59.8l65.6 250.1c3.1 8.9 75.7 20.7 93.8 13.5 22.6-9-1.6-26.6 10-25.5l190.9 17.9c21.5 2 42.6-7.5 55.1-25l128.9-179.4c12.6-17.5 14.8-40.3 5.8-59.8L902.3 20.2c-9-19.6-27.8-32.9-49.4-34.9z"/></defs><clipPath id="SVGID_00000115488801667028223210000010585013235799140505_"><use xlink:href="#SVGID_00000072280203448142872180000000647201785275423414_" style="overflow:visible"/></clipPath><path d="M613.5 299.2s1.2-146.7 1.7-172.2c.6-27.7-8.3-73.7 38.3-114.9 22.1-19.5 107.6-42.6 161.6 4.2 51.6 44.8-2.8 258.3-26.2 301.7L815 143.3l-32.9-90.9-40.7-11.1-96 28.5-31.9 229.4z" style="clip-path:url(#SVGID_00000115488801667028223210000010585013235799140505_);fill:#fcb963"/><defs><path id="SVGID_00000078723933269998986100000016574556689989073291_" d="m852.9-14.7-221-21c-21.5-2-42.6 7.5-52.8 25.2L450.3 168.9c-14.9 17.3-17.1 40.1-5.8 59.8l65.6 250.1c3.1 8.9 75.7 20.7 93.8 13.5 22.6-9-1.6-26.6 10-25.5l190.9 17.9c21.5 2 42.6-7.5 55.1-25l128.9-179.4c12.6-17.5 14.8-40.3 5.8-59.8L902.3 20.2c-9-19.6-27.8-32.9-49.4-34.9z"/></defs><clipPath id="SVGID_00000125569615914537575130000013356002935873878405_"><use xlink:href="#SVGID_00000078723933269998986100000016574556689989073291_" style="overflow:visible"/></clipPath><path d="M802.5 68.8C790.3 32.7 763.4 32 758 31.4c-12.8-1.3-21.3 7.9-21.4 8.1-73.4-57.4-103.6 34.3-107.5 73.9l-4.5 46.8c52-9.6 59.6-114.9 114.1-107.7 32.2-15.1 84.7 124.9 84.7 124.9s-8.7-72.4-20.9-108.6z" style="clip-path:url(#SVGID_00000125569615914537575130000013356002935873878405_);fill:#ffd04f"/><defs><path id="SVGID_00000140009329799964309340000018135972855841841823_" d="m852.9-14.7-221-21c-21.5-2-42.6 7.5-52.8 25.2L450.3 168.9c-14.9 17.3-17.1 40.1-5.8 59.8l65.6 250.1c3.1 8.9 75.7 20.7 93.8 13.5 22.6-9-1.6-26.6 10-25.5l190.9 17.9c21.5 2 42.6-7.5 55.1-25l128.9-179.4c12.6-17.5 14.8-40.3 5.8-59.8L902.3 20.2c-9-19.6-27.8-32.9-49.4-34.9z"/></defs><clipPath id="SVGID_00000060731873956862960420000008679959609717068958_"><use xlink:href="#SVGID_00000140009329799964309340000018135972855841841823_" style="overflow:visible"/></clipPath><g style="clip-path:url(#SVGID_00000060731873956862960420000008679959609717068958_)"><path d="M641.5 145.4c5.2-3.5 9-8.8 12.6-13.8 14.2-20.7 25.3-43.3 39-64.3 4.6-6.8 9.2-14 15.9-19 6-4.6 14.1-7.6 21.6-4.9 3.1 1.1 5.9 2.8 8.1 5.3h-1c4.8-4.8 12-5.4 18-3.4 21.3 7.5 42.2 63.5 51.3 84.3-4.1-9-8-18-12.2-27-6.3-13.4-12.8-26.7-21.2-38.9-2.8-4-5.8-7.9-9.3-11.3-2.6-2.5-5.5-4.8-9-6-1-.3-2.5-.7-3.5-.8-4.9-.8-10.3.6-13.7 4.4-4.6-5.5-12.4-7.7-19.3-5.5-11.5 3.6-18.5 14-24.8 23.5-13.8 20.9-25.1 43.4-39.7 63.9-3.6 4.9-7.4 10.2-12.8 13.5z" style="fill:#ffdc83"/></g><path d="m482.4 248.8 2.6-.4 75.6-12.4 20.2-3.3c11.4-1.9 22.2 5.8 24.1 17.2L630 411.4c2.1 12.7-6.6 24.8-19.4 26.9l-6 1-81.6 13.4c-16 2.6-31.2-8.2-33.8-24.1L473 331.1l-2.3-14.1-5.7-44.3c-1.8-11.4 6-22.1 17.4-23.9" class="st36"/><path d="m502.4 419.2 124-20.3-26.2-167.6-124 20.3z" style="fill:#e1e1e1"/><path d="m600.2 231 10.9 66-62.9-57.6z" class="st38"/><path d="m489.9 305-6.1-47c-.2-1.4.7-2.7 2.2-3l72.5-11.9 35.9-5.9c1.7-.2 2.5.7 2.7 1.7l22.6 146.7c.2 1.4-.7 2.7-2.2 3l-108.2 17.7c-1.4.2-2.7-.7-3-2.1L489.9 305zM571 427.4c-5.3.8-10.3-2.7-11.1-7.9-.9-5.2 2.7-10.2 8-11 5.3-.8 10.3 2.7 11.1 7.9.9 5.2-2.7 10.1-8 11m-82.5-187.1c-11.4 1.9-19.2 12.6-17.3 24l8 58.4 17.1 103.2c2.1 12.7 14.2 21.4 27.1 19.3l93.3-15.3c12.8-2.1 21.6-14.2 19.4-26.9l-14.5-98-10.6-63.6c-1.9-11.3-12.7-19-24.1-17.2l-20.2 3.3-75.6 12.4-2.6.4" style="fill:#005c70"/><path d="m490.6 328.7-.6-8.2 95.2 87-15.7-5.1-58.1 15.3-13.1-13.2z" class="st38"/><path d="M559.8 419.5c-.9-5.2 2.7-10.2 8-11 5.3-.8 10.3 2.7 11.1 7.9.9 5.2-2.7 10.2-8 11-5.2.9-10.2-2.7-11.1-7.9m12.8-23.5-63.3 10.3c-1.4.2-2.7-.7-3-2.1l-13.4-81.1-16-14.6 2.3 14.1 17.1 103.2c2.1 12.7 14.2 21.4 27.1 19.3l87.2-14.3-38-34.8z" style="fill:#00667d"/><path d="m503.3 304.4 37.3-5.6.9 5.6-37.3 5.5z" class="st36"/><path d="m505.5 316.7 88.3-13.2 1.8 11.4-88.4 13.2z" class="st41"/><path d="m510.2 339.8 25.7-3.8.8 5.6-25.6 3.8z" class="st36"/><path d="m512.3 352.2 40.4-6.1 1.7 11.4-40.4 6z" class="st41"/><path d="m555.4 333 25.6-3.8.8 5.5-25.6 3.8z" class="st36"/><path d="m557.5 345.3 40.4-6 1.7 11.4-40.4 6z" class="st41"/><path d="m497.9 268.6 37.3-5.6.8 5.5-37.3 5.6z" class="st36"/><path d="m500 280.8 88.4-13.1 1.7 11.4-88.3 13.1z" class="st41"/><path d="m515.8 373.9 56.7-8.5 2.7 17.3-56.7 8.5z" class="st0"/><linearGradient id="SVGID_00000124868099307736764240000011999745404065026181_" x1="458.039" x2="503.346" y1="152.095" y2="152.095" gradientTransform="scale(1 -1) rotate(-8.192 -3000.181 -52.206)" gradientUnits="userSpaceOnUse"><stop offset="0" style="stop-color:#f6e5d8"/><stop offset="1" style="stop-color:#ecd9ce"/></linearGradient><path d="M476 311.9c-12.3.2-24.5 7.4-24.4 40.5 0 2.9.5 9.1 1.3 16.3 5.2 13.6 23.9 13 33.7 8.7 9.8-4.3 7.6-13.8 7.9-28.9.3-15 1.6-37-18.5-36.6z" style="fill:url(#SVGID_00000124868099307736764240000011999745404065026181_)"/><path d="M466.5 368.6c-2.1-11.2.9-42.5 1.9-48.5 1-6 7.7-8.3 7.7-8.3-12.3.2-24.5 7.4-24.4 40.5 0 2.9.5 9.1 1.3 16.3 3.9 10.1 15.3 12.4 24.9 11.1-2.8-.3-9.7-2.1-11.4-11.1z" style="fill:#f6e5d8"/></svg>