<svg xmlns="http://www.w3.org/2000/svg" xml:space="preserve" id="Layer_1" x="0" y="0" style="enable-background:new 0 0 1023 518" version="1.1" viewBox="0 0 1023 518"><style>.st4{fill:#003f4d}.st5{fill:#002f3e}.st9{fill:#efd6c3}.st10{fill:#259631}.st11{fill:#27a737}.st13{fill:#f7e3d1}.st14{fill:#edc867}.st16{fill:#fad482}.st17{fill:#5ab462}.st18{fill:#ffe7b7}.st19{fill:#4c9bbb}.st20{fill:#282012}.st21{fill:#fff}.st23{fill:#4e4d4d}.st26{fill:#f2ebe4}.st27{fill:#e3d3c8}</style><path d="m505-.6-95.8 137C399 151 381.7 159.1 364 157.6l-209.2-18.3c-17.7-1.5-33.3-12.5-40.8-28.6L62.2-.6h-1.1l52 111.6c7.7 16.4 23.6 27.6 41.6 29.2l209.2 18.3c1.5.1 2.9.2 4.4.2 16.5 0 32.1-8.1 41.7-21.7L506.2-.6H505z" style="fill:#b52065"/><path d="M649.6 511.2s.7-7 .8-8.8.3-3.9.3-3.9-1.2 5.9-1.4 7.7c0 2 .3 5 .3 5zm8.2 8.4s.7-7 .8-8.8.3-3.9.3-3.9-1.2 5.9-1.4 7.7c0 2 .3 5 .3 5zm-17.1-14s.7-7 .8-8.8.3-3.9.3-3.9-1.2 5.9-1.4 7.7c-.1 2 .3 5 .3 5zm28.8 11.7s-.8 1.8-.9 2.9c-.1 1.1 0 1.6 0 1.6s-.2-2.9 2.1-3.6c2.4-.8 13.4-2.6 13.9-3.1s.6-1 .6-1l-15.7 3.2z" style="fill:#af9769"/><path d="M862.6-20.4 615.9-39.2c-13.8-1.1-27.1 5.3-34.9 16.8L441.3 181.7c-7.8 11.4-9 26.1-3 38.7l107 223.1c6 12.5 18.2 20.8 32 21.9L824 484.2c13.8 1.1 27.1-5.3 34.9-16.8l139.7-204.2c7.8-11.4 9-26.1 3-38.7l-107-223c-6-12.4-18.2-20.8-32-21.9z" style="fill:#c7236e"/><path d="m858.9 467.4 79.2-115.8L527.5 55.8l-86.2 125.9c-7.8 11.4-9 26.1-3 38.7l107 223.1c6 12.5 18.2 20.8 32 21.9L824 484.2c13.8 1 27.1-5.4 34.9-16.8z" style="fill:#b52467"/><path d="m663.456 471.57 3.19-41.678 80.864 6.188-3.19 41.679z" class="st4"/><path d="m648.578 470.232 3.19-41.679 80.864 6.188-3.19 41.679z" class="st5"/><path d="M575.9 78.5h283.4v421.3H575.9z" style="fill:#0090d0" transform="matrix(.0763 -.9971 .9971 .0763 374.464 982.593)"/><path d="m517.8 138.8-16.6 217.4 23.5 49.1 359.2 27.5c10.3-16.9 24.3-40.1 39-65.2l1.9-25.1-267.9-193-139.1-10.7z" style="fill:#0086c1"/><path d="m928.4 180.3-18.7 244.5-398.9-30.5 18.7-244.5 398.9 30.5m2.4-32.1-398.9-30.5c-17.3-1.3-32.4 12-33.7 29.7l-18.7 244.5c-1.4 17.7 11.5 33.1 28.8 34.5l398.9 30.5c17.3 1.3 32.4-12 33.7-29.7l18.7-244.5c1.4-17.7-11.5-33.2-28.8-34.5z" class="st5"/><path d="m674.6 160.9 253.8 19.4-11.9 156 29.7 23.2 13.5-176.8c1.4-17.7-11.5-33.1-28.8-34.5l-307.1-23.5 50.8 36.2z" class="st4"/><path d="M551.5 350.5s-15.9-8-10.6-10.4 23 5.7 25.8 8.4c2.8 2.7 9.1 7 9.1 7l-24.3-5z" class="st9"/><path d="M786 379.5c6.6 6 6.9 16.1 7.7 26.5.8 10.3-5.5 14.8-5.5 14.8s-79.9 8.9-116.5-13.3-49.5-29.1-49.5-29.1-33 8.3-56 6.5c-23-1.8-36.9-18.4-30.4-25.5 6.5-7.1 33.6-14.7 46.9-13.4 13.4 1.3 49.3 12.3 49.3 12.3l126.3 17.1c0-.3 21.1-1.9 27.7 4.1z" class="st9"/><path d="m839.7 370.6-2.2 47.9-34.8-2.7z" class="st10"/><path d="M814.2 242.7s42.5 24 47.1 48-6.3 95.5-28.1 113.3c-21.8 17.8-43.5 33-43.5 33s5.2-24.7-10.7-32l-27.2-12.7 46-35.6-.7-46.8" class="st11"/><path d="M727.8 243.9s-32.3-2.3-45 16.9c0 0-17.1 53.8-19.7 75.8-2.6 22 5.7 46.1 5.7 46.1l100.8 17.8 49.1-67.9-3.7-85.4-47.7 35.3-4.2-26.8-35.3-11.8z" class="st11"/><path d="M728.7 232.4s.2-7.7 18.4-11.4c18.2-3.6 60.9 1.2 60.9 1.2l-5.7 17.6-26.4 3.5-38 5.6-9.2-16.5z" style="fill:#0e7333"/><path d="M804.6 249.9c-13.8-7.7-10.9-10.4-10.7-22.1.3-15.2.8-40 .8-40l-25.7-.5h-.7l-25.7-.5s-.5 24.8-.8 40c-.1 7.4 3.7 13.1-2 17.7-5.9 4.8-4.6 38.4-4.6 38.4 0-.1 73.4-30.8 69.4-33z" class="st9"/><path d="M862.6 78c3.1 74-27.2 136.1-91 138.8-63.8 2.7-101.9-57.2-105-131.2-3.1-74 33.1-83.2 96.9-85.8s96 4.2 99.1 78.2z" class="st13"/><path d="M857.9 134.3s-3-70.4-17.4-82.2c-15.8-12.9-63.6-14.6-77.7-13.2-14.2 1.3-59 4.4-73.9 15.1C674 64.8 675 136.7 675 136.7s-22.4-68.9-9.4-112.9C678.1-19 827.5-41.3 848 9.3c28.7 70.6 9.9 125 9.9 125z" class="st14"/><path d="m695.4 255.3.1.4c-.1-.1-.1-.3-.1-.4z" style="fill:#941915"/><path d="M712.7 45.3s-13.6-15.3-25.9-8.7c-12.3 6.6 2.3 34.1-3.4 42.3 0 0 7.8-11.7 8.2-22.1.4-10.4 3.8-13.9 8.2-10.9 4.5 2.9 12.9-.6 12.9-.6z" class="st16"/><path d="M698 380.3c-1.4-1.6-16.4-24.1-23.6-29.7-3.9-2.9-8.9-3.3-13-5.6-7.3 1.8-10.9 8.5-17 12-.5 1.2-.6 2.7 1.1 4.3 2.1 1.3 4.1 2.7 6 4.1 4.2 3.1 5.5 9 8.5 13.2 4.4 6 8.6 20.9 11 21.9 0 0 8.7-3.3 15.3-7.6 6.6-4.3 11.7-12.6 11.7-12.6z" class="st17"/><path d="M650.3 352.1s6.4 2.3 9.2 5.1c2.9 2.8 6.4 7.5 6.4 7.5s-5.9-9.7-8.3-11.6c-2.5-1.9-5.2-2.9-5.2-2.9l-2.1 1.9zM681.7 395.6s-5.4-4.1-7.3-7.6c-1.9-3.6-2.2-3.2-2.2-3.2s1 5 2.8 7.6c1.8 2.6 3.7 4.7 3.7 4.7l3-1.5z" class="st11"/><path d="M705.2 41.3c-3.2-.5-6.3-.9-9.3-.9-1.5 0-3 .1-4.5.3-.7.1-1.5.3-2 .5-.6.2-1.2.6-1.7 1-1 .9-1.6 2.3-2.1 3.7-.4 1.5-.6 3-.7 4.6-.2 3.2.2 6.3.5 9.5h-.3c-.7-3.1-1.4-6.3-1.6-9.6-.1-1.6 0-3.3.3-5 .3-1.7 1-3.4 2.2-4.8.6-.7 1.4-1.3 2.2-1.7.9-.4 1.7-.7 2.5-.9 1.7-.4 3.4-.5 5.1-.4 1.7.2 3.4.5 4.9 1.1 1.6.6 3.1 1.3 4.4 2.3l.1.3z" class="st18"/><path d="M743 125.1c.4 10.2-7.6 18.8-17.8 19.2-10.3.4-19-7.5-19.4-17.6-.4-10.2 7.6-18.8 17.8-19.2 10.2-.4 18.9 7.5 19.4 17.6z" class="st19"/><path d="M738.1 125.3c.3 7.1-5.2 13.1-12.3 13.4-7.1.3-13.1-5.2-13.4-12.3-.3-7.1 5.2-13.1 12.3-13.4 7.2-.2 13.1 5.3 13.4 12.3z" class="st20"/><path d="M719.6 119.4c.1 2.1-1.5 3.8-3.6 3.9-2.1.1-3.8-1.5-3.9-3.6-.1-2.1 1.5-3.8 3.6-3.9 2.1 0 3.8 1.6 3.9 3.6z" class="st21"/><path d="M733.1 171.8c11.6 6.4 23.9 10.1 36.2 9.5 12.4-.5 24-5.8 35.5-12.5-4.1 5.3-9.3 9.8-15.3 13-6 3.4-12.8 5.3-19.8 5.7-7 .3-14-.9-20.3-3.8-6.4-2.6-12.1-6.6-16.3-11.9z" style="fill:#a38277"/><path d="M792.9 123c.4 10.2 9.1 18.1 19.4 17.6 10.3-.4 18.3-9 17.8-19.2s-9.1-18-19.4-17.6c-10.3.5-18.3 9.1-17.8 19.2z" class="st19"/><path d="M797.6 122.8c.3 7.1 6.3 12.6 13.4 12.3 7.1-.3 12.6-6.3 12.3-13.4-.3-7.1-6.3-12.6-13.4-12.3-7 .3-12.6 6.4-12.3 13.4z" class="st20"/><path d="M798.1 116.1c.1 2.1 1.8 3.6 3.9 3.6s3.6-1.8 3.6-3.9c-.1-2.1-1.8-3.6-3.9-3.6-2.1.1-3.7 1.9-3.6 3.9z" class="st21"/><path d="m807.9 222.2 12.1 22.3-46.8 55.7-17.4-34.7s24.6-17.6 34.8-23.5c10.3-5.8 17.3-19.8 17.3-19.8zM729.9 229.9s-6.4 13.3-9.9 17.6c-3.5 4.2-9.5 11.8-16.2 14.7l-6.8 2.9s15.1-.6 23.7-6.6 11.7-5.7 12.3-5.8 1.8 30.1 1.8 30.1 3.8-35.2 2.8-41.7l-1-6.5-6.7-4.7zM759.8 391.4s41.5-30.8 42.4-31.3c.9-.4 1.1-39.2 1.1-39.2s1.7 32-6.7 38.8c-8.3 6.7-36.8 31.7-36.8 31.7zM696.8 383l5.3-69.6s-6.3 29.1-6.8 40.7c-.4 11.7 1.5 28.9 1.5 28.9z" class="st10"/><path d="M621.4 272.9c-.2-2.9-.8-5.6-1.7-8.3-1.8-5.8-4.7-11.3-8.5-15.7-7.8-9.1-17.8-13.6-27.9-14.3-9.5-1.2-19.6.9-28.6 7.3-13.7 9.7-22.2 28.8-16 45 1.7 4.5 4.4 8.7 6.9 12.8 3.2 5.3 5.1 10.6 7.6 16.2 3 6.9 13.5 5.6 20.2 6.3 6.7.9 16.5 4.8 21.1-1.2 3.8-4.9 6.9-9.6 11.3-13.9 3.5-3.4 7.1-6.7 9.8-10.7 2.7-3.8 4.4-8.1 5.2-12.5.1-.5.2-.9.2-1.4 0-.3.1-.6.1-.8.6-2.8.6-5.8.3-8.8z" class="st14"/><circle cx="578.7" cy="275.1" r="25" class="st16"/><path d="M574.2 336.5c-.4-.1-.6-.4-.5-.7l13.9-57.6c.1-.3.4-.5.7-.5.3.1.5.4.5.7L574.9 336c-.1.3-.4.5-.7.5zM570.2 336c-.3 0-.5-.3-.5-.6l-.3-59.4c0-.3.3-.6.6-.6s.6.3.6.6l.3 59.4c.1.3-.2.6-.7.6.1 0 0 0 0 0z" class="st23"/><path d="M585 280.5c-.2 0-.4-.2-.4-.2-.2-.2-.2-.6-.1-1.7.1-.5.2-.9.4-1.2-.2-.5-.6-.6-.8-.6-.1 0-.5.1-.7.4.1.3.1.8.1 1.2 0 .9-.2 1.4-.5 1.7-.2.1-.3.2-.5.2s-.4-.2-.4-.2c-.2-.2-.2-.6-.1-1.7.1-.5.2-.9.4-1.2-.2-.5-.6-.6-.8-.6-.1 0-.5.1-.7.4.1.3.1.8.1 1.2 0 .9-.2 1.4-.5 1.7-.2.1-.3.2-.5.2s-.4-.2-.4-.2c-.2-.2-.2-.6-.1-1.7.1-.5.2-.9.4-1.2-.2-.5-.6-.6-.8-.6-.1 0-.5.1-.7.4.1.3.1.8.1 1.2 0 .9-.2 1.4-.5 1.7-.2.1-.3.2-.5.2s-.4-.2-.4-.2c-.2-.2-.2-.6-.1-1.7.1-.5.2-.9.4-1.2-.2-.5-.6-.6-.8-.6-.1 0-.5.1-.7.4.1.3.1.8.1 1.2 0 .9-.2 1.4-.5 1.7-.2.1-.3.2-.5.2s-.4-.2-.4-.2c-.2-.2-.2-.6-.1-1.7.1-.5.2-.9.4-1.2-.2-.5-.6-.6-.8-.6-.1 0-.5.1-.7.4.1.3.1.8.1 1.2 0 .9-.2 1.4-.5 1.7-.2.1-.3.2-.5.2s-.4-.2-.4-.2c-.2-.2-.2-.6-.1-1.7.1-.5.2-.9.4-1.2-.2-.5-.6-.6-.8-.6-.3 0-1 .2-1.2 1.6 0 .2-.3.4-.5.4s-.4-.3-.4-.5c.3-2 1.6-2.4 2.2-2.4.6.1 1 .3 1.3.7.4-.3.9-.4 1.2-.4.6.1 1 .3 1.3.7.4-.3.9-.4 1.2-.4.6.1 1 .3 1.3.7.4-.3.9-.4 1.2-.4.6.1 1 .3 1.3.7.4-.3.9-.4 1.2-.4.6.1 1 .3 1.3.7.4-.3.9-.4 1.2-.4.6.1 1 .3 1.3.7.4-.3.9-.4 1.2-.4 1.2.1 1.8 1.1 1.7 2.8 0 .2-.2.5-.5.4-.2 0-.5-.2-.4-.5.1-1.8-.6-1.9-1-1.9-.1 0-.5.1-.7.4.1.3.1.8.1 1.2 0 .9-.2 1.4-.5 1.7 0-.3-.2-.2-.4-.3z" style="fill:#f1f1f1"/><path d="M569 357.8c5.3.6 8.2-1.7 11-4.6 1-1.1-4.9-1.3-10.4-1.9-5.7-.7-10.7-2-9.9-.4 1.8 3.2 5.3 6.3 9.3 6.9z" class="st5"/><ellipse cx="570.1" cy="350.1" class="st4" rx="6.8" ry="6" transform="matrix(.0763 -.9971 .9971 .0763 177.585 891.855)"/><path d="M589.9 331.6c.2-1.6 2-2.4 2.1-3.5.1-1.2-1.2-3.7-3.1-4-1.8-.2-8.7-1.1-15.4-1.9-.2 0-.4 0-.5-.1-6.7-.8-13.6-1.7-15.4-1.9-1.9-.2-3.8 1.9-3.9 3.1s1.4 2.3 1.2 4c-.2 1.7-1.8 1-2.1 3.2-.3 2.2 1.2 3.2 1.1 4.2s-1.8 1.5-2 3.2c-.2 1.8 1.9 3.4 1.8 4.4-.1 1.1 2.8 7.3 7.7 7.9.9.1 2.6.3 5.8.7 0 0 2.2.3 4.9.6 3.3.4 5.8.7 6.8.8 5.3.7 8.3-4.8 8.4-5.9.1-1.1 2.6-2.1 2.8-3.9.2-1.8-1.3-2.6-1.2-3.6s1.8-1.6 2.1-3.8c.4-2-1.3-1.8-1.1-3.5z" style="fill:#ebe0d8"/><path d="M573.1 322.5c5.9.7 15.8 2 16.5 2.4.8.4 2.3 2 1.9 2.7-.6.8-35.4-3.8-36.5-4.2-1.1-.5 1.3-2.7 2.1-2.6.8-.1 9 .8 16 1.7z" class="st26"/><path d="M572.3 328.7c5.9.7 15.8 1.7 16.7 1.6 1.4-.2 3.5-1.8 1.9-2-17.9-1.7-20.2-1.9-36-4.4-1.2-.2.7 2.2 1.4 2.4.8.2 9 1.5 16 2.4zM571.4 336.1c5.9.7 15.8 1.7 16.7 1.6 1.4-.2 3.5-1.8 1.9-2-17.9-1.7-20.2-1.9-36-4.4-1.2-.2.7 2.2 1.4 2.4s9 1.5 16 2.4zM570.4 343.5c5.9.7 15.8 1.7 16.7 1.6 1.4-.2 3.5-1.8 1.9-2-17.9-1.7-20.2-1.9-36-4.4-1.2-.2.7 2.2 1.4 2.4.9.2 9 1.5 16 2.4z" class="st27"/><path d="M570.3 350.8c4.5.6 7.9 1.7 10.4.8 2.8-.9 7.1-4.7 3.7-4.9-11.4-.6-14.4-.5-27.8-3.2-3.5-.7 1 4.6 4.1 6 2.2.9 4.2.6 9.6 1.3zM572.1 329.9c5.9.7 16.4 2 17.1 2.5.8.4 1.9 2.2 1.3 2.6-1.5 1.1-35.7-3.8-36.8-4.3s1.4-2.6 2.2-2.6c.8.1 9.2.9 16.2 1.8zM571.2 337.4c5.9.7 16.8 2.1 17.5 2.5.8.4 1.6 2.1.9 2.6-1.5 1.1-35.7-3.8-36.8-4.3s.9-2.7 1.7-2.7c.7.1 9.7 1 16.7 1.9z" class="st26"/><path d="M580.8 323.5c.2 1.3.4 2.4.5 3.4 1.4.2 2.7.3 3.9.4-.1-1-.3-2.1-.5-3.3-1.1-.1-2.5-.3-3.9-.5zM580.2 330.9c.2 1.3.4 2.5.6 3.6 1.4.2 2.7.3 3.9.4-.2-1-.3-2.2-.6-3.5-1.2-.2-2.5-.3-3.9-.5zM579.1 338.4c.2 1.4.4 2.6.5 3.6 1.4.2 2.7.3 3.9.4-.1-1-.3-2.2-.4-3.4-1.3-.2-2.6-.4-4-.6z" class="st21"/><circle cx="558.7" cy="255.5" r="6.2" class="st21"/><circle cx="549.5" cy="265.9" r="2.8" class="st21" transform="matrix(.0763 -.9971 .9971 .0763 242.424 793.492)"/><path d="M779.3 398.8c6.6 6 15 13.1 15.8 23.4.8 10.3-1.1 12.6-5.5 14.8-4.4 2.2-79.9 8.9-116.5-13.3s-49.5-29.1-49.5-29.1-33 8.3-56 6.5c-23-1.8-36.9-18.4-30.4-25.5 6.5-7 33.6-14.7 46.9-13.4 13.3 1.3 49.3 12.3 49.3 12.3l126.3 17.1c.1-.2 13 1.3 19.6 7.2z" class="st13"/><path d="M819.6 26.1s9.5 5.3 7.8 8.4 4.6-5.1 4.6-5.1l1.6 6.8 4.5-12.7" class="st14"/><path d="m798.98 29.653 10.772-18.838 17.362 9.928-10.772 18.838z" class="st14"/><path d="M582.7 362s-15.9-8-10.6-10.4c5.3-2.4 23 5.7 25.8 8.4 2.8 2.7 9.1 7 9.1 7l-24.3-5z" class="st13"/><path d="M807.1 38s.7-14.3 2.3-24c4.5-25.8 13.6-32.9 19.9-33.5 10.3-.9 12.7 7.7 12.7 7.7s5.2 1.3 10.6 11.1c5.4 9.8 8.5 38.7 8.5 38.7S853 14.7 848 12.3c-5.1-2.4-15.9 4.3-22.4 12.9-6.5 8.5-9.7 14.7-9.7 14.7l2.7-15.8L807.1 38z" class="st16"/><path d="M809.1 30.7c-.1-2.3.3-4.6.7-6.7s1.1-4.3 1.9-6.4 1.8-4.1 3-5.9c1.2-1.9 2.5-3.7 3.8-5.5 1.3-1.8 2.6-3.6 4.1-5.3 1.5-1.7 3-3.3 4.7-4.8 1.7-1.5 3.5-2.8 5.5-3.9s4.1-1.9 6.3-2.3c.1 0 .3.1.3.3 0 .1-.1.3-.2.3-4 1.5-7.2 4.4-9.9 7.6-1.3 1.6-2.5 3.3-3.7 5.1-1.2 1.7-2.2 3.6-3.2 5.5-1 1.8-1.9 3.8-2.7 5.8-.8 1.9-1.7 3.8-2.8 5.7-2.1 3.7-4.3 7.4-7.2 10.9-.1.1-.3.2-.4.1-.2-.4-.2-.5-.2-.5z" class="st18"/><path d="M810-11.9c-2.1-4-16.1-39.6-51.8-35.9 0 0-10.6-5.5-27.8 1.1s-20.8 15.9-20.8 15.9-12.7-3.7-26.9 4.1c-12 6.6-29.8 17.3-25.5 55.3 1.3 11-6.9 17.5-6.9 17.5s12.5 2.8 15.1-12.8c1.4-8.3 9.9-15.3 14.3-18.4 9.8-6.9 20.5-6.7 28.1 2.4 7.5 9 14.2 25.5 14.2 25.5s14.2-2.3 36.4-3.2c16.6 19.5 46.7.8 46.7.8s7-48.2 4.9-52.3z" class="st16"/><path d="M792.6 31.2c-.1-3.3-.5-6.7-.9-10.1-.4-3.4-1-6.8-1.7-10.1-1.3-6.7-3.1-13.3-5.5-19.7-1.2-3.2-2.6-6.4-4-9.4-1.5-3.1-3.2-6-5.1-8.9-1.9-2.9-4-5.6-6.3-8.1s-4.9-4.9-7.6-7c2.9 2 5.6 4.1 8.1 6.5 2.5 2.4 4.8 5 6.9 7.8 2.1 2.8 4 5.7 5.8 8.7 1.7 3 3.3 6.1 4.8 9.3 2.9 6.4 5.2 13.1 7 19.8.9 3.4 1.7 6.8 2.4 10.3.7 3.5 1.3 6.9 1.6 10.5.2 1.6-1 2.9-2.5 3.1-1.6.2-2.9-1-3.1-2.5.2 0 .2 0 .1-.2zM735.5 26.3C731.1 16.8 727 7.5 722-.8c-2.5-4.1-5.1-8-8.1-11.4-1.5-1.7-3.1-3.1-4.9-4.4-1.8-1.2-3.8-2.1-5.9-2.7-1.1-.2-2.1-.5-3.2-.5-1.1-.1-2.2-.1-3.3-.1-2.4.2-4.8.5-7 1.1-4.7 1-9.1 3.1-13 6C668.7-7 663.2 2.1 660.8 12c-.1.2-.3.4-.6.3-.2-.1-.4-.3-.3-.5.5-5.2 2-10.3 4.2-15.2 2.3-4.8 5.4-9.3 9.5-13 4.1-3.7 9-6.6 14.2-8.3 2.6-.9 5.3-1.5 8-2 1.5-.2 2.9-.4 4.4-.3 1.5-.1 3 .2 4.5.3 2.9.6 5.8 1.5 8.5 2.8 2.7 1.4 5.1 3.1 7.3 5 2.1 2 4.1 4.1 5.7 6.4s3 4.7 4.2 7.2c2.3 5 3.9 10.2 5 15.4 1 5.3 1.6 10.5 1.2 15.9 0 .3-.3.4-.5.4-.4.2-.5.1-.6-.1z" class="st18"/><path d="M822.7 411.8c-1.5-1.7-17.5-25.7-25.2-31.7-4.2-3.1-9.5-3.5-13.9-6-7.8 2-11.6 9.1-18.1 12.9-.6 1.3-.6 2.9 1.1 4.6 2.2 1.4 4.4 2.9 6.4 4.4 4.5 3.3 5.9 9.6 9.1 14.1 4.6 6.4 9.1 22.3 11.8 23.3 0 0 9.3-3.4 16.3-8.1 7.1-4.6 12.5-13.5 12.5-13.5z" class="st10"/><path d="M748.7 39.6c0-1.3 0-2.7-.1-4.1-.1-1.4-.2-2.8-.2-4.2-.2-2.8-.5-5.6-.9-8.4-.7-5.6-1.8-11.1-3.2-16.6-.7-2.7-1.5-5.4-2.6-8-1-2.6-2.1-5.3-3.4-7.7-2.6-5-5.9-9.7-10.2-13.6 4.8 3.2 8.9 7.5 12.2 12.3 1.7 2.4 3.2 4.9 4.6 7.5s2.6 5.2 3.8 8c2.3 5.4 4.2 11 5.7 16.7.8 2.9 1.5 5.7 2.1 8.6.3 1.4.6 2.9.8 4.4.3 1.5.5 2.9.7 4.5l-9.3.6z" class="st14"/><path d="M822.2 412.6c-1.5-1.7-17.5-25.7-25.2-31.7-4.2-3.1-9.5-3.5-13.9-6-7.8 2-11.6 9.1-18.1 12.9-.6 1.3-.6 2.9 1.1 4.6 2.2 1.4 4.4 2.9 6.4 4.4 4.5 3.3 5.9 9.6 9.1 14.1 4.6 6.4 9.1 22.3 11.8 23.3 0 0 9.3-3.4 16.3-8.1 7.1-4.5 12.5-13.5 12.5-13.5z" class="st17"/><path d="M771.2 382.5s6.8 2.5 9.8 5.5c3 3 6.9 8 6.9 8s-6.2-10.3-8.9-12.4c-2.6-2.1-5.5-3.1-5.5-3.1l-2.3 2zM804.8 429s-5.8-4.3-7.8-8.1-2.4-3.4-2.4-3.4 1 5.4 3 8.1c1.9 2.8 4 5 4 5l3.2-1.6z" class="st11"/></svg>