<svg xmlns="http://www.w3.org/2000/svg" xmlns:xlink="http://www.w3.org/1999/xlink" xml:space="preserve" id="Laag_1" x="0" y="0" style="enable-background:new 0 0 1023 518" version="1.1" viewBox="0 0 1023 518"><style>.st0{fill:#27a737}.st3{fill:#fff}.st58{fill:#292b2e}.st62{fill:#4a4d4f}.st63{fill:#f0f0f0}.st65{fill:#edd1c2}.st66{fill:#4a8aab}.st67{fill:#291c00}.st68{fill:#7a7069}.st69{fill:#e3c9ba}.st70{fill:#0094d9}.st71{fill:#a3d6e0}.st72{fill:#6ec9eb}.st73{fill:#126b99}.st74{fill:#5e4d30}.st76{fill:#ffe899}.st77{fill:#6e5738}.st78{fill:#6b5438}.st79{fill:#856645}.st80{fill:#997040}</style><path d="M851.9-16.9 630.7-36.3c-21.5-1.9-42.5 7.9-52.6 25.9L450.8 171.8c-14.7 17.6-16.7 40.6-5.3 60.5l93.8 201.5c6.8 19.4 25.7 32.7 47.3 34.6l221.1 19.3c21.5 1.9 42.5-7.9 54.9-25.7L990 279.9c12.4-17.8 14.4-40.8 5.3-60.5L901.5 17.9c-9.1-19.7-28-33-49.6-34.8z" class="st0"/><path d="m859.1 466.1 77.1-110.2L531.7 57.3l-85.9 119.1c-10.6 15.2-12.4 35-2.2 52.1l97.7 209.6c5.5 16.6 21.8 28.1 40.3 29.7l230.3 20.1c18.5 1.8 36.5-6.6 47.2-21.8z" style="fill:#259631"/><defs><path id="SVGID_1_" d="M851.9-16.9 630.7-36.3c-21.5-1.9-42.5 7.9-52.6 25.9L450.8 171.8c-14.7 17.6-16.7 40.6-5.3 60.5l93.8 201.5c6.8 19.4 25.7 32.7 47.3 34.6l221.1 19.3c21.5 1.9 42.5-7.9 54.9-25.7L990 279.9c12.4-17.8 14.4-40.8 5.3-60.5L901.5 17.9c-9.1-19.7-28-33-49.6-34.8z"/></defs><clipPath id="SVGID_00000023976171263414756320000002648549929930526373_"><use xlink:href="#SVGID_1_" style="overflow:visible"/></clipPath><g style="clip-path:url(#SVGID_00000023976171263414756320000002648549929930526373_)"><path d="m233.5-106.2 106.2-128.1 955 791.9-106.2 128.1-955-791.9z" class="st3"/><path d="m1712.3 468.4 3.8-21.7 1.9-11.1c.6-3.4 2.3-6.3-1.3-8.9-4.7-3-12.1-5.1-18-5.9-10.7-1.1-20.7.6-31-.2-9.2-.6-17.6-5.3-26.9-5.4-8.4-.2-17 .5-25.8-.3l-6.9-.6 10.4-59.2h8.2l6-8.1c-1.6-1.7-5.5-2.9-5.5-2.9l-.5-1.5-1.7-1.6-1.6.2-2.3-1V335l3.5-1.1.3-2-4.4-1.6-.5-1.5-2.5-.4 5-28.4.9.2c1 .2 1.8-.2 1.9-.8s-.6-1.2-1.6-1.4l-.9-.2.2-1 .9.2c1 .2 1.8-.2 1.9-.8s-.6-1.2-1.6-1.4l-.9-.2 4.1-23.7 1 .2-.3 1.4 1.8.3 1-.9.5-3v-.2l-.8-.6-2.8-.5-1.6-.3-1.2-.2-1.6-.3-2.8-.5-.9.3v.2l-.5 3 .7 1.2 1.8.3.3-1.4 1 .2-4.1 23.7-.9-.2c-1-.2-1.8.2-1.9.8s.6 1.2 1.6 1.4l.9.2-.2 1-.9-.2c-1-.2-1.8.2-1.9.8s.6 1.2 1.6 1.4l.9.2-5 28.4-5.4-.9-.4 2-3.3 1.6 2.6 2.2-1 5.9-6.6-1.1-2.2 1.4-6.8-1.2-1.9 1.2 2.7 8.6 12.2 5.3-10.8 61.7c-9.1.3-11.6.4-21.2-3.1-6.8-2.4-7.5-.8-14.1-.2-4.1.5-6.8-.2-11.1-1-13.7-2.6-25.2-3.9-38.7-4.8-6-.3-10.9.3-17 .2-3 .1-9.2-.7-12.7-.2l-3.1-.5c-.3-.1-.7-.2-1-.2l.1.1-12.3-2.2 1.9-10.6-40.7-7.1-1.9 10.6-11.2-1.9 8.2-46.7-22.7-4 3.4-19.2-29-5.1-46.7-.2-2.1 11.9-41.7-2.9-.6 3.5-22.7-4 .8-4.8-9-3.7-11.4-2-1.8 2.5-9.8-1.7h-9.6l-.8 4.8-2.2-.4.6-3.4-10.1-2 .5-2.6-8.5-1.5-7.3-1.3-.5 2.9-.4 2.4-.2 1.1 3.8.7-.4 2.5-8-1.4-.7 3.8-16.5-2.9-.8 4.4-12-2.1-1.4 8.2c-6.6-1.6-13-4.2-19.8-4.3h-1.5l5.1-29.2-2.2-.4 4.5-25.9-12.5-2.2.5-3-6.8-1.2 4.7-6.4c-1.1-1.1-3.2-2.1-4.4-2.5l10.1-58-44.5-7.8-17.8 101.6-30.3-5.3 6-34.6-13.8-2.4.5-3-8.2-5.6-3.6-.6-.8 4.4-2.2-.4-.6 3.5-8.9-1.6-8.1 46.3-2 .8-3.3 19.1 2.8-78.7-2.5-.8 13.8-79-36.6-53-32-5.6-19.8 113.4-20.5-3.6-6.7 49.7-4.2-.7 3.4-19.2-29-5.1-46.8-.2-.5 3c-4.7-1.4-9.5-2.7-14.5-2.8-8.4-.2-17 .5-25.8-.3l-6.9-.6 10.4-59.2h8.2l6-8.1c-1.6-1.7-5.5-2.9-5.5-2.9l-.5-1.5-1.7-1.6-1.6.2-2.3-1v-5.2l3.5-1.1.3-2-4.4-1.6-.5-1.5-2.5-.4 5-28.4.9.2c1 .2 1.8-.2 1.9-.8s-.6-1.2-1.6-1.4l-.9-.2.2-1 .9.2c1 .2 1.8-.2 1.9-.8s-.6-1.2-1.6-1.4l-.9-.2 4.1-23.7 1 .2-.3 1.4 1.8.3 1-.9.5-3v-.2l-.8-.6-2.8-.5-1.6-.3-1.2-.2-1.6-.3-2.8-.5-.9.3v.2l-.5 3 .7 1.2 1.8.3.3-1.4 1 .2-4.1 23.7-.9-.2c-1-.2-1.8.2-1.9.8s.6 1.2 1.6 1.4l.9.2-.2 1-.9-.2c-1-.2-1.8.2-1.9.8s.6 1.2 1.6 1.4l.9.2-5 28.4-5.4-.9-.4 2-3.3 1.6 2.6 2.2-1 5.9-6.6-1.1-2.2 1.4-6.6-1.4-1.9 1.2 2.7 8.6 12.2 5.3-10.8 61.7c-9.1.3-11.6.4-21.2-3.1-6.8-2.4-7.5-.8-14.1-.2-4.1.5-6.8-.2-11.1-1-13.7-2.6-25.2-3.9-38.7-4.8-6-.3-10.9.3-17 .2-3 .1-9.2-.7-12.7-.2l-3.1-.5c-.3-.1-.7-.2-1-.2l.1.1-9-1.6 1.6-9.1-2.2-.4 4.5-25.9-12.5-2.2.5-3-8-1.4 11.7-66.7-44.5-7.8-10.1 58-10.6-1.9 3.4-19.2-29-5.1-44.5-.2 11.9-68-36.6-53L424 5l-19.8 113.4-20.5-3.6-2.1 15.9-1.2-.2h-9.6l-.8 4.8-2.2-.4.6-3.4-10.5-1.8.5-2.6-8.5-1.5-7.3-1.3-.5 2.9-.4 2.4-.2 1.1 3.8.7-.4 2.5-8-1.4-.7 3.8-16.5-2.9-.8 4.4-12-2.1-1.4 8.2c-6.6-1.6-13-4.2-19.8-4.3h-1.5l5.1-29.2-2.2-.4 4.5-25.9-12.5-2.2.5-3-6.8-1.2 4.7-6.4c-1.1-1.1-3.2-2.1-4.4-2.5l10.1-58L238.7 3l-17.8 101.6-30.3-5.3 6-34.6-13.8-2.4.5-3-8.2-5.6-3.6-.6-.8 4.4-2.2-.4-.6 3.5L159 59l-8.1 46.3-2 .8-3.3 19.1 2.8-78.7-2.6-.7 13.8-79-36.6-53-32-5.6L71.1 21.4l-20.5-3.6-6.7 49.7-4.2-.7 3.4-19.2-29-5.1-46.8-.2-2.1 11.9-41.7-2.9-.6 3.5-22.7-4 .8-4.8-9-3.7-11.4-2-1.8 2.5-9.8-1.7h-9.6l-.8 4.8-2.2-.4.6-3.4-10.5-1.8.5-2.6-8.5-1.5-7.3-1.3-.5 2.9-.4 2.4-.2 1.1 3.8.7-.4 2.5-8-1.4-.7 3.8-16.5-2.9-.8 4.4-12-2.1-3.3 18.8-21.4-3.7 7-40.3-2.2-.4 4.5-25.9-12.5-2.2.5-3-8-1.4 11.7-66.7-44.5-7.8-17.8 101.6-30.3-5.3 6-34.6-13.8-2.4.5-3-8.2-5.6-3.6-.6-.8 4.4-2.2-.4-.6 3.5-8.9-1.6-8.1 46.3-2 .8-3.3 19.1 2.8-78.7-2.6-.7 13.8-79-36.6-53-32-5.6L-440.1-68l-20.5-3.6-18.1 134.7 23.8 4.2L-313 90.1l-42.9 381.5 854.4 96.1-10.2 90.3 1248.3 140.3 32.2-320.7-56.5-9.2z" style="opacity:.1;fill:#1d1d1b;enable-background:new"/><defs><path id="SVGID_00000139256245090169382010000002649192516761915837_" d="M328.4 52.7h482.5v354.6H328.4z" transform="rotate(-80.085 569.673 229.987)"/></defs><clipPath id="SVGID_00000088090412103778058610000005640217695410045087_"><use xlink:href="#SVGID_00000139256245090169382010000002649192516761915837_" style="overflow:visible"/></clipPath><path d="M635 4.3c-35-20.8-80.8-20.3-122.7 7.2S437 123.7 459.6 180.3s-26.1 56.6-26.1 56.6 16.3 12.9 29.7 2.9c0 0-2.4 23.6-18.7 44.7-21 27.3-17.8 46.9-7.5 91.5 4.8 21 21.2 47 6.7 54.6l88.9-21.6 98-33.9-37.4-43.1 15.7-209.3L635 4.3z" style="clip-path:url(#SVGID_00000088090412103778058610000005640217695410045087_);fill:#281d0a"/><defs><path id="SVGID_00000166654363145576643740000000076143861092421553_" d="M328.4 52.7h482.5v354.6H328.4z" transform="rotate(-80.085 569.673 229.987)"/></defs><clipPath id="SVGID_00000129901819389265516110000015644676631429446584_"><use xlink:href="#SVGID_00000166654363145576643740000000076143861092421553_" style="overflow:visible"/></clipPath><path d="M585.8 2.6s32.4-8.3 61.8-3.9 71 35.1 84 84.6-31.8 138.9-30.6 154.6c1.1 15.7 12.5 21.5 19.7 15.8 0 0-7.8 18-29.2 3.4 0 0-5.1 11.5-.9 36.2s.8 52.8-4.4 78.2c-10.6 51.5-68.9 70.8-65.6 82.9 3.3 12.2 12.5 8.4 12.5 8.4s-5.6 9.9-18.9 2.1-13.8-45-13.8-45l-101.9-19.4-3.4-51.7L585.8 2.6z" style="clip-path:url(#SVGID_00000129901819389265516110000015644676631429446584_);fill:#281d0a"/><defs><path id="SVGID_00000068657293905217990590000008210317030258200469_" d="m575.6 236.7-26.9-4.7-7.2 41.4c-2.7 15.7-17.9 20.8-41.3 24.3s-28.6 16.7-28.6 16.7L368.2 439.7l36.9 6.5 66.5-70s26.4 18.3 28.9 86.7l70.4 12.3c26.9-62.5 59.9-69.7 59.9-69.7l27.6 85 32.2 5.6L644.7 348s8.3-9.9-12.6-21.1c-20.8-11.2-39.5-28.3-36.8-44l7.2-41.4-26.9-4.8z"/></defs><clipPath id="SVGID_00000046328511661485179610000000388400757887157950_"><use xlink:href="#SVGID_00000068657293905217990590000008210317030258200469_" style="overflow:visible"/></clipPath><linearGradient id="SVGID_00000104684015543335803000000013615884166357321659_" x1="493.224" x2="495.824" y1="602.461" y2="602.461" gradientTransform="scale(90.6763 -90.6763) rotate(80.085 611.054 8.664)" gradientUnits="userSpaceOnUse"><stop offset="0" style="stop-color:#caaa6e"/><stop offset="1" style="stop-color:#a58c5b"/></linearGradient><path d="m368.2 439.7 40.6-232.2L731 263.9 690.5 496l-322.3-56.3z" style="clip-path:url(#SVGID_00000046328511661485179610000000388400757887157950_);fill:url(#SVGID_00000104684015543335803000000013615884166357321659_)"/><defs><path id="SVGID_00000003098090828740021210000015381537242829480069_" d="M328.4 52.7h482.5v354.6H328.4z" transform="rotate(-80.085 569.673 229.987)"/></defs><clipPath id="SVGID_00000029022429618711417080000003816843236132069505_"><use xlink:href="#SVGID_00000003098090828740021210000015381537242829480069_" style="overflow:visible"/></clipPath><path d="M692.7 134.3c-13.4 76.7-51.6 134.6-121.5 122.3-69.9-12.2-84.7-80.1-71.3-156.8 13.4-76.7 41.8-79.9 111.8-67.7 69.9 12.2 94.4 25.5 81 102.2" style="clip-path:url(#SVGID_00000029022429618711417080000003816843236132069505_);fill:#caaa6e"/><defs><path id="SVGID_00000086653521356258147920000002645207294309170564_" d="M328.4 52.7h482.5v354.6H328.4z" transform="rotate(-80.085 569.673 229.987)"/></defs><clipPath id="SVGID_00000062878584727059718160000007675576760257546404_"><use xlink:href="#SVGID_00000086653521356258147920000002645207294309170564_" style="overflow:visible"/></clipPath><path d="M562.9 157.6c-1.8 10.5-12 17.6-22.6 15.7-10.7-1.9-17.8-11.9-15.9-22.5 1.8-10.5 12-17.6 22.6-15.7s17.7 11.9 15.9 22.5" style="clip-path:url(#SVGID_00000062878584727059718160000007675576760257546404_);fill:#c88e2f"/><defs><path id="SVGID_00000064341644482716258990000003362928065662839685_" d="M328.4 52.7h482.5v354.6H328.4z" transform="rotate(-80.085 569.673 229.987)"/></defs><clipPath id="SVGID_00000000220252507812016940000005574465936995888286_"><use xlink:href="#SVGID_00000064341644482716258990000003362928065662839685_" style="overflow:visible"/></clipPath><path d="M557.9 156.7c-1.3 7.4-8.3 12.3-15.6 11-7.4-1.3-12.3-8.3-11-15.7 1.3-7.3 8.3-12.3 15.6-11 7.4 1.3 12.3 8.4 11 15.7" style="clip-path:url(#SVGID_00000000220252507812016940000005574465936995888286_);fill:#3e2c09"/><defs><path id="SVGID_00000073705405466208364090000018410361654267965325_" d="M328.4 52.7h482.5v354.6H328.4z" transform="rotate(-80.085 569.673 229.987)"/></defs><clipPath id="SVGID_00000065792501214250167690000016098282047086112928_"><use xlink:href="#SVGID_00000073705405466208364090000018410361654267965325_" style="overflow:visible"/></clipPath><path d="M540.2 146.5c-.4 2.1-2.4 3.6-4.5 3.2s-3.6-2.4-3.2-4.5 2.4-3.5 4.5-3.2 3.6 2.4 3.2 4.5" style="clip-path:url(#SVGID_00000065792501214250167690000016098282047086112928_);fill:#fff"/><defs><path id="SVGID_00000168807425824168379490000012023739540727283630_" d="M328.4 52.7h482.5v354.6H328.4z" transform="rotate(-80.085 569.673 229.987)"/></defs><clipPath id="SVGID_00000007398477509000738690000010183097934336087199_"><use xlink:href="#SVGID_00000168807425824168379490000012023739540727283630_" style="overflow:visible"/></clipPath><path d="M537.8 201.4c11.8 10.3 25.1 17.7 39.4 20 14.4 2.5 29.2-.6 44.2-5.4-6.1 5.1-13.2 8.9-21 11.2-7.8 2.4-16.2 2.9-24.4 1.6-8.1-1.4-16-4.6-22.5-9.5-6.6-4.7-12.2-10.8-15.7-17.9" style="clip-path:url(#SVGID_00000007398477509000738690000010183097934336087199_);fill:#3e2c09"/><defs><path id="SVGID_00000117667969851540423790000004806465386997759167_" d="M503.2 182.4c-1.7 9.9 4.9 19.3 14.8 21.1 9.9 1.7 19.3-4.9 21.1-14.8 1.7-9.9-4.9-19.3-14.8-21.1-9.9-1.7-19.4 4.9-21.1 14.8"/></defs><clipPath id="SVGID_00000119803750411444535370000013429936350581057453_"><use xlink:href="#SVGID_00000117667969851540423790000004806465386997759167_" style="overflow:visible"/></clipPath><radialGradient id="SVGID_00000009592649263564397900000007612223169751857567_" cx="462.236" cy="601.623" r="2.601" gradientTransform="scale(7.0042 -7.0042) rotate(-9.916 -3352.132 2523.032)" gradientUnits="userSpaceOnUse"><stop offset="0" style="stop-color:#c88c66"/><stop offset="1" style="stop-color:#caaa6e"/></radialGradient><path d="m506.3 164.5 35.9 6.3-6.3 35.8-35.8-6.2 6.2-35.9z" style="clip-path:url(#SVGID_00000119803750411444535370000013429936350581057453_);fill:url(#SVGID_00000009592649263564397900000007612223169751857567_)"/><defs><path id="SVGID_00000047746493027822818210000001750530404304567472_" d="M617.8 202.5c-1.7 9.9 4.9 19.3 14.8 21.1 9.9 1.7 19.3-4.9 21.1-14.8 1.7-9.9-4.9-19.3-14.8-21.1s-19.4 4.8-21.1 14.8"/></defs><clipPath id="SVGID_00000015340623103953665010000011207688940751698832_"><use xlink:href="#SVGID_00000047746493027822818210000001750530404304567472_" style="overflow:visible"/></clipPath><radialGradient id="SVGID_00000072259293994075956060000017148158528287686586_" cx="472.459" cy="601.625" r="2.6" gradientTransform="matrix(6.8996 1.2061 1.2061 -6.8996 -3349.65 3786.744)" gradientUnits="userSpaceOnUse"><stop offset="0" style="stop-color:#c88c66"/><stop offset="1" style="stop-color:#caaa6e"/></radialGradient><path d="m620.9 184.5 35.9 6.3-6.3 35.9-35.8-6.3 6.2-35.9z" style="clip-path:url(#SVGID_00000015340623103953665010000011207688940751698832_);fill:url(#SVGID_00000072259293994075956060000017148158528287686586_)"/><defs><path id="SVGID_00000052826763719754469290000014970485397350380208_" d="M328.4 52.7h482.5v354.6H328.4z" transform="rotate(-80.085 569.673 229.987)"/></defs><clipPath id="SVGID_00000054239544781186274930000006251351399003890316_"><use xlink:href="#SVGID_00000052826763719754469290000014970485397350380208_" style="overflow:visible"/></clipPath><path d="M614.6 166.6c-1.8 10.5 5.3 20.6 16 22.5s20.8-5.2 22.6-15.7-5.3-20.6-16-22.4c-10.7-2-20.8 5.1-22.6 15.6" style="clip-path:url(#SVGID_00000054239544781186274930000006251351399003890316_);fill:#c88e2f"/><defs><path id="SVGID_00000137130259156514575330000001589249963514933139_" d="M328.4 52.7h482.5v354.6H328.4z" transform="rotate(-80.085 569.673 229.987)"/></defs><clipPath id="SVGID_00000160886578030807452190000016625629401778076559_"><use xlink:href="#SVGID_00000137130259156514575330000001589249963514933139_" style="overflow:visible"/></clipPath><path d="M619.5 167.5c-1.3 7.4 3.6 14.4 11 15.7s14.4-3.6 15.6-11c1.3-7.3-3.6-14.4-11-15.6-7.3-1.4-14.3 3.5-15.6 10.9" style="clip-path:url(#SVGID_00000160886578030807452190000016625629401778076559_);fill:#3e2c09"/><defs><path id="SVGID_00000044178889059897414010000006810700409437836976_" d="M328.4 52.7h482.5v354.6H328.4z" transform="rotate(-80.085 569.673 229.987)"/></defs><clipPath id="SVGID_00000028284032529459878360000005361527963476411017_"><use xlink:href="#SVGID_00000044178889059897414010000006810700409437836976_" style="overflow:visible"/></clipPath><path d="M621.5 160.7c-.4 2.1 1.1 4.2 3.2 4.5 2.1.4 4.2-1.1 4.5-3.2.4-2.1-1.1-4.1-3.2-4.5-2.1-.3-4.1 1.1-4.5 3.2" style="clip-path:url(#SVGID_00000028284032529459878360000005361527963476411017_);fill:#fff"/><defs><path id="SVGID_00000065795411373739552790000003580424231805245367_" d="M328.4 52.7h482.5v354.6H328.4z" transform="rotate(-80.085 569.673 229.987)"/></defs><clipPath id="SVGID_00000057868836588324078200000013251492896396752793_"><use xlink:href="#SVGID_00000065795411373739552790000003580424231805245367_" style="overflow:visible"/></clipPath><path d="M533.3 285.2s-3.5 33.5 27.4 38.1c27.9 4.1 38.5-25.8 38.5-25.8" style="clip-path:url(#SVGID_00000057868836588324078200000013251492896396752793_);fill:none;stroke:#231c1e;stroke-width:.402;stroke-linecap:round;stroke-miterlimit:10"/><defs><path id="SVGID_00000073717010005346135210000011271181819486664336_" d="M328.4 52.7h482.5v354.6H328.4z" transform="rotate(-80.085 569.673 229.987)"/></defs><clipPath id="SVGID_00000166643516455374375960000016500741943137804204_"><use xlink:href="#SVGID_00000073717010005346135210000011271181819486664336_" style="overflow:visible"/></clipPath><path d="m378.6 432.2 86-57.3c7.5 15.4 14.1 54.5 12.7 83.8L591 478.6c9.1-22.4 21-84 21-84l38.8 94.5 48.6 8.5-62.8-171.9-26.6-19.1s-14.3 52.2-52.8 48.5c-46.6-4.4-36.3-64.1-36.3-64.1s-45.2 16.9-48.4 17.3c-3.2.5-107.3 129.8-107.3 129.8 26.1-1.6 13.4-5.9 13.4-5.9" style="clip-path:url(#SVGID_00000166643516455374375960000016500741943137804204_);fill:#fef3f7"/><defs><path id="SVGID_00000121972741868422478440000009732795963558455185_" d="M328.4 52.7h482.5v354.6H328.4z" transform="rotate(-80.085 569.673 229.987)"/></defs><clipPath id="SVGID_00000145769791240622833110000005809805578652212881_"><use xlink:href="#SVGID_00000121972741868422478440000009732795963558455185_" style="overflow:visible"/></clipPath><path d="m416.6 448.2 48-53.5s4.7 41.5 5.1 62.8l52.3 9.1 19.4-103.9c-39.5-10-32.8-71.8-32.8-71.8s-34.3 7.4-35.2 9.3c-1.6 3.6-81.7 93.9-119.9 136.9l63.1 11.1z" style="clip-path:url(#SVGID_00000145769791240622833110000005809805578652212881_);fill:#687167"/><defs><path id="SVGID_00000075144652904483553020000013173456768525354638_" d="M328.4 52.7h482.5v354.6H328.4z" transform="rotate(-80.085 569.673 229.987)"/></defs><clipPath id="SVGID_00000090990885076737426990000016229231551316681122_"><use xlink:href="#SVGID_00000075144652904483553020000013173456768525354638_" style="overflow:visible"/></clipPath><path d="M598.2 479.9c6.3-20 21-57.7 21-57.7l26.7 66 56.9 9.9c-19.2-58.5-54.9-167.8-55-171.6l-29.1-16.4s-14.7 60.4-55.2 56.4l-17 104.3 51.7 9.1z" style="clip-path:url(#SVGID_00000090990885076737426990000016229231551316681122_);fill:#687167"/><defs><path id="SVGID_00000122709848986839705180000012290399925029177506_" d="M328.4 52.7h482.5v354.6H328.4z" transform="rotate(-80.085 569.673 229.987)"/></defs><clipPath id="SVGID_00000075149643086522063500000016077145795167960229_"><use xlink:href="#SVGID_00000122709848986839705180000012290399925029177506_" style="overflow:visible"/></clipPath><path d="m559.3 473.1 15-93.5c5.3-.6 42.4-6.4 55.9-58.8.1-.4-.1-.8-.5-.9s-.8.1-.9.5c-14.2 55-54.7 57.7-55.1 57.8h-.6L558 472.9l1.3.2z" style="clip-path:url(#SVGID_00000075149643086522063500000016077145795167960229_);fill:#fff"/><defs><path id="SVGID_00000022560437780091056520000007880988913125280934_" d="M328.4 52.7h482.5v354.6H328.4z" transform="rotate(-80.085 569.673 229.987)"/></defs><clipPath id="SVGID_00000131334778757600476960000013973030347632313532_"><use xlink:href="#SVGID_00000022560437780091056520000007880988913125280934_" style="overflow:visible"/></clipPath><path d="m576.7 476.1 13.8-100.7-1.5-.3-13.8 100.8 1.5.2z" style="clip-path:url(#SVGID_00000131334778757600476960000013973030347632313532_);fill:#fef3f7"/><defs><path id="SVGID_00000059303185359465276010000004970128214436770460_" d="M328.4 52.7h482.5v354.6H328.4z" transform="rotate(-80.085 569.673 229.987)"/></defs><clipPath id="SVGID_00000160884509937271877500000006554000707404394169_"><use xlink:href="#SVGID_00000059303185359465276010000004970128214436770460_" style="overflow:visible"/></clipPath><path d="m526 371.1-17.7 93 1.5.3 17.9-94.2-.6-.2c-.4-.2-37.6-16.4-32.3-73 0-.4-.3-.8-.7-.8s-.8.3-.8.7c-5.1 53.8 27.9 71.9 32.7 74.2" style="clip-path:url(#SVGID_00000160884509937271877500000006554000707404394169_);fill:#fff"/><defs><path id="SVGID_00000063594167645908040240000017995011118087695799_" d="M328.4 52.7h482.5v354.6H328.4z" transform="rotate(-80.085 569.673 229.987)"/></defs><clipPath id="SVGID_00000000194452350622120220000005796612189422916264_"><use xlink:href="#SVGID_00000063594167645908040240000017995011118087695799_" style="overflow:visible"/></clipPath><path d="m513.9 362-1.5-.3-21.2 99.5 1.5.2 21.2-99.4z" style="clip-path:url(#SVGID_00000000194452350622120220000005796612189422916264_);fill:#fef3f7"/><defs><path id="SVGID_00000091719092313159049380000000372013196650547849_" d="M328.4 52.7h482.5v354.6H328.4z" transform="rotate(-80.085 569.673 229.987)"/></defs><clipPath id="SVGID_00000148649445299371657450000013978194676407716992_"><use xlink:href="#SVGID_00000091719092313159049380000000372013196650547849_" style="overflow:visible"/></clipPath><path d="M554.9 353c6 1 8.6-2.6 9.4-7 .8-4.9-2.7-12.3-3.6-17-.7-3.7-.6-5.6-.6-5.6s-.4 1.3-2.2 4.6c-2.6 4.5-8.9 11-9.5 16.2-.6 4 .9 7.9 6.5 8.8" style="clip-path:url(#SVGID_00000148649445299371657450000013978194676407716992_);fill:#542f82"/><defs><path id="SVGID_00000096774235366185848660000015282364530926397116_" d="M328.4 52.7h482.5v354.6H328.4z" transform="rotate(-80.085 569.673 229.987)"/></defs><clipPath id="SVGID_00000131341412867842865200000012729680841893641366_"><use xlink:href="#SVGID_00000096774235366185848660000015282364530926397116_" style="overflow:visible"/></clipPath><path d="M561.8 323.7c-.2 1-1.1 1.6-2.1 1.5-1-.2-1.6-1.1-1.5-2.1s1.1-1.6 2.1-1.5c1 .2 1.7 1.1 1.5 2.1" style="clip-path:url(#SVGID_00000131341412867842865200000012729680841893641366_);fill:#542f82"/><defs><path id="SVGID_00000086682152340093969810000001261547066830079916_" d="M328.4 52.7h482.5v354.6H328.4z" transform="rotate(-80.085 569.673 229.987)"/></defs><clipPath id="SVGID_00000100347914381624666000000006324790227482456200_"><use xlink:href="#SVGID_00000086682152340093969810000001261547066830079916_" style="overflow:visible"/></clipPath><path d="M561.8 323.7c-.2 1-1.1 1.6-2.1 1.5-1-.2-1.6-1.1-1.5-2.1s1.1-1.6 2.1-1.5c1 .2 1.7 1.1 1.5 2.1z" style="clip-path:url(#SVGID_00000100347914381624666000000006324790227482456200_);fill:none;stroke:#231f20;stroke-width:.402;stroke-miterlimit:10"/><defs><path id="SVGID_00000051342543582397326970000004414706230143233946_" d="M328.4 52.7h482.5v354.6H328.4z" transform="rotate(-80.085 569.673 229.987)"/></defs><clipPath id="SVGID_00000114047919733397268490000003578703008172079274_"><use xlink:href="#SVGID_00000051342543582397326970000004414706230143233946_" style="overflow:visible"/></clipPath><path d="M559.3 332.7c-2.5 1.8-7.7 10.5-6.8 14.7.9 4.1 5.2 4.7 6.7 4.1 1.6-.6 3.9-2.7 3.8-7.9-.1-5.1-2-9.5-2.5-10.3-.4-.8-.5-1.1-1.2-.6" style="clip-path:url(#SVGID_00000114047919733397268490000003578703008172079274_);fill:#6f2c87"/><defs><path id="SVGID_00000002346670207082473460000004268732205214363037_" d="M328.4 52.7h482.5v354.6H328.4z" transform="rotate(-80.085 569.673 229.987)"/></defs><clipPath id="SVGID_00000063603065201509569630000007225307344884280975_"><use xlink:href="#SVGID_00000002346670207082473460000004268732205214363037_" style="overflow:visible"/></clipPath><path d="M552.8 347.8c-.1.8-.9 1.3-1.7 1.2s-1.3-.9-1.2-1.7.9-1.3 1.7-1.2 1.3.9 1.2 1.7" style="clip-path:url(#SVGID_00000063603065201509569630000007225307344884280975_);fill:#fff"/><defs><path id="SVGID_00000029763260613940404170000008159638193463315116_" d="M328.4 52.7h482.5v354.6H328.4z" transform="rotate(-80.085 569.673 229.987)"/></defs><clipPath id="SVGID_00000084506338018652879430000009972584194509551796_"><use xlink:href="#SVGID_00000029763260613940404170000008159638193463315116_" style="overflow:visible"/></clipPath><path d="M554.9 350c-.1.4-.5.8-1 .7-.4-.1-.7-.5-.7-1 .1-.4.5-.8 1-.7.4.1.7.5.7 1" style="clip-path:url(#SVGID_00000084506338018652879430000009972584194509551796_);fill:#fff"/><defs><path id="SVGID_00000010288791732032103800000003826553010253205643_" d="M328.4 52.7h482.5v354.6H328.4z" transform="rotate(-80.085 569.673 229.987)"/></defs><clipPath id="SVGID_00000028299143936347157250000012989823476230506893_"><use xlink:href="#SVGID_00000010288791732032103800000003826553010253205643_" style="overflow:visible"/></clipPath><path d="M573.3 341.6c4.1.7 5.9-1.8 6.4-4.8.6-3.3-1.8-8.4-2.4-11.5-.5-2.5-.4-3.8-.4-3.8s-.2.9-1.5 3.1c-1.8 3.1-6 7.5-6.4 11-.4 2.7.6 5.3 4.3 6" style="clip-path:url(#SVGID_00000028299143936347157250000012989823476230506893_);fill:#542f82"/><defs><path id="SVGID_00000059992943781048420290000012446416727406214831_" d="M328.4 52.7h482.5v354.6H328.4z" transform="rotate(-80.085 569.673 229.987)"/></defs><clipPath id="SVGID_00000159454520832822045120000009747507964167759527_"><use xlink:href="#SVGID_00000059992943781048420290000012446416727406214831_" style="overflow:visible"/></clipPath><path d="M578 321.7c-.1.7-.8 1.1-1.4 1-.7-.1-1.1-.8-1-1.4s.8-1.1 1.4-1c.7.1 1.2.7 1 1.4" style="clip-path:url(#SVGID_00000159454520832822045120000009747507964167759527_);fill:#542f82"/><defs><path id="SVGID_00000178195720206887675160000004935582418873782161_" d="M328.4 52.7h482.5v354.6H328.4z" transform="rotate(-80.085 569.673 229.987)"/></defs><clipPath id="SVGID_00000070098101307110662530000000133079124797198486_"><use xlink:href="#SVGID_00000178195720206887675160000004935582418873782161_" style="overflow:visible"/></clipPath><path d="M578 321.7c-.1.7-.8 1.1-1.4 1-.7-.1-1.1-.8-1-1.4s.8-1.1 1.4-1c.7.1 1.2.7 1 1.4z" style="clip-path:url(#SVGID_00000070098101307110662530000000133079124797198486_);fill:none;stroke:#231f20;stroke-width:.402;stroke-miterlimit:10"/><defs><path id="SVGID_00000181046402216726579000000007512833511673490848_" d="M328.4 52.7h482.5v354.6H328.4z" transform="rotate(-80.085 569.673 229.987)"/></defs><clipPath id="SVGID_00000183956423587258850190000001000198644298407305_"><use xlink:href="#SVGID_00000181046402216726579000000007512833511673490848_" style="overflow:visible"/></clipPath><path d="M576.3 327.8c-1.7 1.2-5.2 7.1-4.6 9.9s3.5 3.2 4.6 2.8 2.6-1.8 2.6-5.3-1.4-6.5-1.7-7-.4-.8-.9-.4" style="clip-path:url(#SVGID_00000183956423587258850190000001000198644298407305_);fill:#6f2c87"/><defs><path id="SVGID_00000026156728175483080820000003862458217397342609_" d="M328.4 52.7h482.5v354.6H328.4z" transform="rotate(-80.085 569.673 229.987)"/></defs><clipPath id="SVGID_00000001658816981283454730000011969232702075175833_"><use xlink:href="#SVGID_00000026156728175483080820000003862458217397342609_" style="overflow:visible"/></clipPath><path d="M571.9 338c-.1.5-.6.9-1.1.8s-.9-.6-.8-1.1.6-.9 1.1-.8c.6.1.9.6.8 1.1" style="clip-path:url(#SVGID_00000001658816981283454730000011969232702075175833_);fill:#fff"/><defs><path id="SVGID_00000116942617495662930590000016048234178278314128_" d="M328.4 52.7h482.5v354.6H328.4z" transform="rotate(-80.085 569.673 229.987)"/></defs><clipPath id="SVGID_00000098910820532820472530000001117365749117205940_"><use xlink:href="#SVGID_00000116942617495662930590000016048234178278314128_" style="overflow:visible"/></clipPath><path d="M573.3 339.5c-.1.3-.3.5-.6.5-.3-.1-.5-.3-.5-.6.1-.3.3-.5.6-.5.4 0 .6.3.5.6" style="clip-path:url(#SVGID_00000098910820532820472530000001117365749117205940_);fill:#fff"/><defs><path id="SVGID_00000152228680316606703690000001392400065597712284_" d="M328.4 52.7h482.5v354.6H328.4z" transform="rotate(-80.085 569.673 229.987)"/></defs><clipPath id="SVGID_00000008144614072288767280000002034268955384005036_"><use xlink:href="#SVGID_00000152228680316606703690000001392400065597712284_" style="overflow:visible"/></clipPath><path d="M541.5 336.9c4.1.7 5.9-1.8 6.4-4.8.6-3.3-1.8-8.4-2.4-11.5-.5-2.5-.4-3.8-.4-3.8s-.2.9-1.5 3.1c-1.8 3.1-6 7.5-6.4 11-.5 2.7.5 5.3 4.3 6" style="clip-path:url(#SVGID_00000008144614072288767280000002034268955384005036_);fill:#542f82"/><defs><path id="SVGID_00000006702300048492562240000010007599831979781777_" d="M328.4 52.7h482.5v354.6H328.4z" transform="rotate(-80.085 569.673 229.987)"/></defs><clipPath id="SVGID_00000140724000722853308010000011718845675398142394_"><use xlink:href="#SVGID_00000006702300048492562240000010007599831979781777_" style="overflow:visible"/></clipPath><path d="M546.2 317c-.1.7-.8 1.1-1.4 1-.7-.1-1.1-.8-1-1.4s.8-1.1 1.4-1 1.1.7 1 1.4" style="clip-path:url(#SVGID_00000140724000722853308010000011718845675398142394_);fill:#542f82"/><defs><path id="SVGID_00000116214486707276810030000012387728376616825990_" d="M328.4 52.7h482.5v354.6H328.4z" transform="rotate(-80.085 569.673 229.987)"/></defs><clipPath id="SVGID_00000148638287262982416010000000931146771956015032_"><use xlink:href="#SVGID_00000116214486707276810030000012387728376616825990_" style="overflow:visible"/></clipPath><path d="M546.2 317c-.1.7-.8 1.1-1.4 1-.7-.1-1.1-.8-1-1.4s.8-1.1 1.4-1 1.1.7 1 1.4z" style="clip-path:url(#SVGID_00000148638287262982416010000000931146771956015032_);fill:none;stroke:#231f20;stroke-width:.402;stroke-miterlimit:10"/><defs><path id="SVGID_00000144313345829719001190000016768774769044737942_" d="M328.4 52.7h482.5v354.6H328.4z" transform="rotate(-80.085 569.673 229.987)"/></defs><clipPath id="SVGID_00000023263180185970610040000006584794034840549021_"><use xlink:href="#SVGID_00000144313345829719001190000016768774769044737942_" style="overflow:visible"/></clipPath><path d="M544.5 323.1c-1.7 1.2-5.2 7.1-4.6 9.9s3.5 3.2 4.6 2.8 2.6-1.8 2.6-5.3-1.4-6.5-1.7-7c-.4-.5-.5-.8-.9-.4" style="clip-path:url(#SVGID_00000023263180185970610040000006584794034840549021_);fill:#6f2c87"/><defs><path id="SVGID_00000174564214564913664830000009430396881757444236_" d="M328.4 52.7h482.5v354.6H328.4z" transform="rotate(-80.085 569.673 229.987)"/></defs><clipPath id="SVGID_00000073717668802245775010000009335636488227524231_"><use xlink:href="#SVGID_00000174564214564913664830000009430396881757444236_" style="overflow:visible"/></clipPath><path d="M540 333.3c-.1.5-.6.9-1.1.8s-.9-.6-.8-1.1.6-.9 1.1-.8c.6.1.9.6.8 1.1" style="clip-path:url(#SVGID_00000073717668802245775010000009335636488227524231_);fill:#fff"/><defs><path id="SVGID_00000155842890145624665370000016164897335732023714_" d="M328.4 52.7h482.5v354.6H328.4z" transform="rotate(-80.085 569.673 229.987)"/></defs><clipPath id="SVGID_00000099659715987312609550000005444099750110563507_"><use xlink:href="#SVGID_00000155842890145624665370000016164897335732023714_" style="overflow:visible"/></clipPath><path d="M541.4 334.8c-.1.3-.3.5-.6.5-.3-.1-.5-.3-.5-.6.1-.3.3-.5.6-.5s.6.3.5.6" style="clip-path:url(#SVGID_00000099659715987312609550000005444099750110563507_);fill:#fff"/><defs><path id="SVGID_00000083800045787845188620000003063313549985432716_" d="M328.4 52.7h482.5v354.6H328.4z" transform="rotate(-80.085 569.673 229.987)"/></defs><clipPath id="SVGID_00000051349653189907068440000014448302815248583836_"><use xlink:href="#SVGID_00000083800045787845188620000003063313549985432716_" style="overflow:visible"/></clipPath><path d="M533.9 316.5c2.4.4 3.4-1 3.7-2.8.3-1.9-1-4.9-1.4-6.7-.3-1.5-.3-2.2-.3-2.2s-.1.5-.9 1.8c-1 1.8-3.5 4.3-3.7 6.4-.2 1.6.4 3.1 2.6 3.5" style="clip-path:url(#SVGID_00000051349653189907068440000014448302815248583836_);fill:#542f82"/><defs><path id="SVGID_00000092435147218560221330000011826313430514385815_" d="M328.4 52.7h482.5v354.6H328.4z" transform="rotate(-80.085 569.673 229.987)"/></defs><clipPath id="SVGID_00000134941155423122685460000006732738974287829122_"><use xlink:href="#SVGID_00000092435147218560221330000011826313430514385815_" style="overflow:visible"/></clipPath><path d="M535.6 308.5c-1 .7-3 4.1-2.7 5.8.4 1.6 2 1.8 2.6 1.6s1.5-1.1 1.5-3.1-.8-3.7-1-4c-.1-.3-.1-.5-.4-.3" style="clip-path:url(#SVGID_00000134941155423122685460000006732738974287829122_);fill:#6f2c87"/><defs><path id="SVGID_00000057865110963819879250000016403871637548005288_" d="M328.4 52.7h482.5v354.6H328.4z" transform="rotate(-80.085 569.673 229.987)"/></defs><clipPath id="SVGID_00000047771580577264343450000016995192573227363718_"><use xlink:href="#SVGID_00000057865110963819879250000016403871637548005288_" style="overflow:visible"/></clipPath><path d="M533.1 314.5c-.1.3-.3.5-.6.5-.3-.1-.5-.3-.5-.6.1-.3.3-.5.6-.5s.5.3.5.6" style="clip-path:url(#SVGID_00000047771580577264343450000016995192573227363718_);fill:#fff"/><defs><path id="SVGID_00000177442265010127809900000007662080797313619604_" d="M328.4 52.7h482.5v354.6H328.4z" transform="rotate(-80.085 569.673 229.987)"/></defs><clipPath id="SVGID_00000064341993638619314100000012245841713858555039_"><use xlink:href="#SVGID_00000177442265010127809900000007662080797313619604_" style="overflow:visible"/></clipPath><path d="M533.9 315.3c0 .2-.2.3-.4.3s-.3-.2-.3-.4.2-.3.4-.3c.2.1.3.2.3.4" style="clip-path:url(#SVGID_00000064341993638619314100000012245841713858555039_);fill:#fff"/><defs><path id="SVGID_00000015352750801041479840000015074366852168756909_" d="M328.4 52.7h482.5v354.6H328.4z" transform="rotate(-80.085 569.673 229.987)"/></defs><clipPath id="SVGID_00000049192798864919557160000013932770791586846386_"><use xlink:href="#SVGID_00000015352750801041479840000015074366852168756909_" style="overflow:visible"/></clipPath><path d="M586.8 325.8c2.4.4 3.4-1 3.7-2.8.3-1.9-1-4.9-1.4-6.7-.3-1.5-.3-2.2-.3-2.2s-.1.5-.9 1.8c-1 1.8-3.5 4.3-3.7 6.4-.1 1.6.4 3.1 2.6 3.5" style="clip-path:url(#SVGID_00000049192798864919557160000013932770791586846386_);fill:#542f82"/><defs><path id="SVGID_00000134968349832140970260000016530420826934858393_" d="M328.4 52.7h482.5v354.6H328.4z" transform="rotate(-80.085 569.673 229.987)"/></defs><clipPath id="SVGID_00000034802139836596464720000004046263939618612131_"><use xlink:href="#SVGID_00000134968349832140970260000016530420826934858393_" style="overflow:visible"/></clipPath><path d="M588.6 317.8c-1 .7-3 4.1-2.7 5.8.4 1.6 2 1.8 2.6 1.6s1.5-1.1 1.5-3.1-.8-3.7-1-4c-.1-.4-.2-.5-.4-.3" style="clip-path:url(#SVGID_00000034802139836596464720000004046263939618612131_);fill:#6f2c87"/><defs><path id="SVGID_00000067922837798588812200000017794352247872504453_" d="M328.4 52.7h482.5v354.6H328.4z" transform="rotate(-80.085 569.673 229.987)"/></defs><clipPath id="SVGID_00000111161922712461108910000003116847271148122501_"><use xlink:href="#SVGID_00000067922837798588812200000017794352247872504453_" style="overflow:visible"/></clipPath><path d="M586 323.7c-.1.3-.3.5-.6.5-.3-.1-.5-.3-.5-.6.1-.3.3-.5.6-.5.4 0 .6.3.5.6" style="clip-path:url(#SVGID_00000111161922712461108910000003116847271148122501_);fill:#fff"/><defs><path id="SVGID_00000147905095416382633480000005092098968444824726_" d="M328.4 52.7h482.5v354.6H328.4z" transform="rotate(-80.085 569.673 229.987)"/></defs><clipPath id="SVGID_00000000214467158154541030000003661057742371081872_"><use xlink:href="#SVGID_00000147905095416382633480000005092098968444824726_" style="overflow:visible"/></clipPath><path d="M586.8 324.6c0 .2-.2.3-.4.3s-.3-.2-.3-.4.2-.3.4-.3.3.2.3.4" style="clip-path:url(#SVGID_00000000214467158154541030000003661057742371081872_);fill:#fff"/><defs><path id="SVGID_00000027586467211032341150000010693480195364147641_" d="M328.4 52.7h482.5v354.6H328.4z" transform="rotate(-80.085 569.673 229.987)"/></defs><clipPath id="SVGID_00000168095779992040451810000007690937090042983572_"><use xlink:href="#SVGID_00000027586467211032341150000010693480195364147641_" style="overflow:visible"/></clipPath><path d="M637.1 93.9s12.5-.9 20.9 9.1c8.3 10 7.5 36.9-10.6 38.4 0 0 26.2 9.2 34.5-21.6 8.1-30.5-37.8-44-44.8-25.9" style="clip-path:url(#SVGID_00000168095779992040451810000007690937090042983572_);fill:#3a2c1c"/><defs><path id="SVGID_00000114065005661019020340000018440517616566064262_" d="M328.4 52.7h482.5v354.6H328.4z" transform="rotate(-80.085 569.673 229.987)"/></defs><clipPath id="SVGID_00000073715431691024212320000005797937187489560224_"><use xlink:href="#SVGID_00000114065005661019020340000018440517616566064262_" style="overflow:visible"/></clipPath><path d="m638.6 38.2-1.5 55.7s17.3-1.6 29.9 6 23.4 20.8 0 58.8c-14.4 23.3-39.9 77.7-28.7 113.9 9.4 30.3 45.7 19.1 45.7 19.1s-35.7 3.6-27.8-23.7 100.3-148.8 48.4-212.1c-27.2-33.1-66-17.7-66-17.7" style="clip-path:url(#SVGID_00000073715431691024212320000005797937187489560224_);fill:#3a2c1c"/><defs><path id="SVGID_00000065787382431661927760000014606750166031585695_" d="M328.4 52.7h482.5v354.6H328.4z" transform="rotate(-80.085 569.673 229.987)"/></defs><clipPath id="SVGID_00000085933001804797041150000015120126300805673381_"><use xlink:href="#SVGID_00000065787382431661927760000014606750166031585695_" style="overflow:visible"/></clipPath><path d="m642.2 39.8-5.1 54.1s-12.4-22.3-39-11.5c-26.7 10.8-22.1 46.9-76 45.3 0 0-11.8 49.8-42.6 49-30.8-.7-38.1-16.7-38.1-16.7s11.1 12 30.7-3.1c19.7-15.1 12.4-93 54.7-131.3 42.3-38.3 112.8-6.3 115.4 14.2" style="clip-path:url(#SVGID_00000085933001804797041150000015120126300805673381_);fill:#3a2c1c"/><defs><path id="SVGID_00000111893181336767954470000011123842870535032504_" d="M328.4 52.7h482.5v354.6H328.4z" transform="rotate(-80.085 569.673 229.987)"/></defs><clipPath id="SVGID_00000167372261920486870590000008569641359108808882_"><use xlink:href="#SVGID_00000111893181336767954470000011123842870535032504_" style="overflow:visible"/></clipPath><path d="M637.1 93.9c-.5-7.8-4.7-14.8-10.5-19.4-2.9-2.4-6.2-4.2-9.6-5.7-3.5-1.5-7.1-2.6-10.7-3.4-7.4-1.6-15-2.4-22.3-1.4-3.7.5-7.3 1.3-10.7 2.7s-6.6 3.2-9.4 5.5c-5.8 4.5-9.9 10.8-12.8 17.7-.7 1.7-1.3 3.5-1.9 5.3-.5 1.7-1 3.8-1.7 5.6-1.3 3.8-3.1 7.4-5.4 10.8-4.5 6.7-11.4 12-19.3 13.7-3.9.8-8 .9-11.9 0-1.9-.5-3.8-1.1-5.6-1.9-1.8-.9-3.4-1.9-5-3 3.4 1.9 7.1 3.2 10.8 3.7 3.8.5 7.6.2 11.1-.9 7.2-2.1 13.1-7.3 17-13.5 2-3.1 3.5-6.6 4.6-10.1.6-1.8 1-3.5 1.5-5.5.5-1.9 1.1-3.8 1.9-5.7 2.9-7.5 7.5-14.5 13.9-19.7 3.2-2.6 6.8-4.6 10.6-6.1s7.8-2.4 11.8-2.8c8.1-.8 16.1.2 23.7 2.3 7.6 2 15.2 5.4 21 10.9 5.7 5.2 9.5 13.1 8.9 20.9" style="clip-path:url(#SVGID_00000167372261920486870590000008569641359108808882_);fill:#745b45"/><defs><path id="SVGID_00000013159687278458219260000016309588469281076641_" d="M328.4 52.7h482.5v354.6H328.4z" transform="rotate(-80.085 569.673 229.987)"/></defs><clipPath id="SVGID_00000014592985643407142240000015785593248138733470_"><use xlink:href="#SVGID_00000013159687278458219260000016309588469281076641_" style="overflow:visible"/></clipPath><path d="M642.3 92.5c3.5-2.9 7.8-4.8 12.2-5.9 4.5-1 9.2-1.2 13.8-.5s9.1 1.9 13.3 3.9 8.1 4.9 11.2 8.6 5.2 8.2 6.2 12.9.8 9.6-.1 14.3c-.9 4.6-2.5 9.1-4.5 13.3-1 2.1-2.1 4.2-3.2 6.1l-3.3 5.9c-8.7 15.8-17.2 31.7-25.4 47.7-4.1 8-8.1 16.1-11.7 24.3-1.8 4.1-3.6 8.2-5.1 12.5-.8 2.1-1.4 4.3-2 6.4-.5 2.2-1 4.4-.5 6.6-.7-2.2-.5-4.5-.2-6.8s.9-4.5 1.4-6.7c1.2-4.4 2.7-8.7 4.2-12.9 3.2-8.5 6.8-16.8 10.6-25 7.6-16.4 15.9-32.5 24.5-48.4 2.1-4 4.5-7.9 6.4-11.8s3.4-8 4.3-12.2c.9-4.2 1.1-8.5.4-12.6s-2.4-8.1-5-11.4c-2.6-3.4-6-6.1-9.8-8.1-3.8-2.1-8-3.5-12.3-4.4s-8.8-1.1-13.1-.5c-2.2.3-4.4.8-6.5 1.6-1.9.8-4 1.8-5.8 3.1" style="clip-path:url(#SVGID_00000014592985643407142240000015785593248138733470_);fill:#745b45"/><defs><path id="SVGID_00000057841755083330735950000016118269935166761387_" d="M328.4 52.7h482.5v354.6H328.4z" transform="rotate(-80.085 569.673 229.987)"/></defs><clipPath id="SVGID_00000098192785717704497170000004370074710309134265_"><use xlink:href="#SVGID_00000057841755083330735950000016118269935166761387_" style="overflow:visible"/></clipPath><path d="M642.5 79.1c.2-4.4-.1-8.8-.8-13.2-.7-4.3-1.8-8.6-3.4-12.6-1.7-4-3.8-7.8-6.5-11.1s-5.9-6.1-9.5-8.4c-3.6-2.2-7.6-3.8-11.7-4.9s-8.4-1.8-12.6-2c-8.5-.3-16.9 1.6-24.3 5.7s-13.8 10-18.8 17c-5.1 6.9-8.9 14.7-11.8 22.9-.7 2.1-1.3 4.1-2 6.2-.7 2.2-1.4 4.3-2.3 6.4-1.8 4.2-4.4 8.2-7.9 11.2-3.5 3.1-8.2 4.7-12.8 4.7-4.6-.1-9-1.5-12.8-3.8 4 1.8 8.4 2.8 12.7 2.5s8.3-2.1 11.3-5.1c3-2.9 5.1-6.7 6.6-10.7.8-2 1.4-4 1.9-6.1.6-2.1 1.1-4.3 1.8-6.5 2.6-8.6 6.5-16.9 11.7-24.3 5.3-7.4 12-13.9 20.2-18.4 8.1-4.4 17.5-6.5 26.7-5.9 4.6.3 9.1 1.1 13.5 2.4s8.6 3.2 12.5 5.8c3.8 2.6 7.2 5.8 9.9 9.5s4.8 7.8 6.2 12.1 2.3 8.7 2.7 13.2c.3 4.5.2 9-.5 13.4" style="clip-path:url(#SVGID_00000098192785717704497170000004370074710309134265_);fill:#745b45"/><path d="M897.3 364.1c.1-1.5-2.3-11.7-2.3-11.7s-5-7.4-40.7-13.7-42.9-.9-42.9-.9-5.8 8.7-6.2 10.2l32 48.1s3.8-3.8 8.7-9.4c2.7 6.9 5 11.7 5 11.7l46.4-34.3zM713.6 422.9s-11.7.8-14.4 4.1 1 13.2 10.2 20c9.2 6.7 20.3 15.1 24.5 13.2 4.2-1.8 1-16.7 1-16.7l-21.3-20.6zM954.8 465.1s10.7 4.7 12.1 8.7-5.4 12.1-16.3 15.3-24.9 7.9-27.4 4.9c-1.5-1.8 4.6-16.8 4.6-16.8l27-12.1z" class="st58"/><defs><path id="SVGID_00000177452939016246323210000017224270165537216130_" d="m863 294.9-28.5-5-7.7 43.8c-2.9 16.6-25.3 20.9-50.1 24.6C752 362 746.6 376 746.6 376L620.7 524.9l31.5 13.2 97.5-96.3-6.4 85.2 146.1 25.5c20.9-75.7 25.1-88.1 25.1-88.1l32.3 98.1 34.9 6.1.4-2.4-36.9-154.5s-.8-15.2-22.8-27.1-41.7-24.4-38.8-41l7.7-43.8-28.3-4.9z"/></defs><clipPath id="SVGID_00000020383334239031155970000007656571851376527263_"><use xlink:href="#SVGID_00000177452939016246323210000017224270165537216130_" style="overflow:visible"/></clipPath><g style="clip-path:url(#SVGID_00000020383334239031155970000007656571851376527263_)"><defs><path id="SVGID_00000024681086295800709260000004959895828327469224_" d="M684.2 246.1h275.9v363.3H684.2z" transform="rotate(-80.085 822.113 427.723)"/></defs><clipPath id="SVGID_00000182508479991708578630000005541181805566118792_"><use xlink:href="#SVGID_00000024681086295800709260000004959895828327469224_" style="overflow:visible"/></clipPath></g><path id="SVGID_00000011020132796929180100000013993102546649166239_" d="m863 294.9-28.5-5-7.7 43.8c-2.9 16.6-25.3 20.9-50.1 24.6C752 362 746.6 376 746.6 376L620.7 524.9l31.5 13.2 97.5-96.3-6.4 85.2 146.1 25.5c20.9-75.7 25.1-88.1 25.1-88.1l32.3 98.1 34.9 6.1.4-2.4-36.9-154.5s-.8-15.2-22.8-27.1-41.7-24.4-38.8-41l7.7-43.8-28.3-4.9z" style="fill:#ddc3b6"/><defs><path id="SVGID_00000134234745173628315590000018025404316213159854_" d="m863 294.9-28.5-5-7.7 43.8c-2.9 16.6-25.3 20.9-50.1 24.6C752 362 746.6 376 746.6 376L620.7 524.9l31.5 13.2 97.5-96.3-6.4 85.2 146.1 25.5c20.9-75.7 25.1-88.1 25.1-88.1l32.3 98.1 34.9 6.1.4-2.4-36.9-154.5s-.8-15.2-22.8-27.1-41.7-24.4-38.8-41l7.7-43.8-28.3-4.9z"/></defs><clipPath id="SVGID_00000102503495025416053780000005229004714124091781_"><use xlink:href="#SVGID_00000134234745173628315590000018025404316213159854_" style="overflow:visible"/></clipPath><path d="M742.2 396.4c1 1.4 1.6 3.1 1.8 4.9s-.2 3.6-1 4.8c-.2.3-.5.6-.9.9-.3.3-.7.6-1.1.8-.7.4-1.6.7-2.5.7s-1.8-.2-2.7-.8c-.8-.5-1.5-1.4-1.5-2.4v-.4l-.5-.1-.2.3c-.3.6-.4 1.4-.2 2.1.1.7.5 1.4.9 2 .9 1.2 2.1 2.1 3.6 2.5s3.1.4 4.6 0c.7-.2 1.4-.5 2.1-.8.7-.4 1.2-.7 1.9-1.3 1.3-1.1 2.1-2.5 2.7-3.9s.9-2.9 1-4.4c.2-3-.6-6.1-2.2-8.7l-.6-.9c-3.2.5-6 1.2-8.6 2.1 1.4.5 2.5 1.4 3.4 2.6" class="st62"/><path d="M747.5 415c-1.1.7-2.3 1.3-3.5 1.5-1.3.2-2.5.2-3.7 0s-2.4-.7-3.5-1.2-2.2-1.2-3.1-1.9l-1.5-1.1-.8 2.1c-.5 1.4-1.3 2.6-2.3 3.4-.8.5-1.7.9-2.6 1.1-.7-2.1-1.2-4.2-1.5-6.4-.5-3.8-.6-7.8.2-11.4-2.7 2.2-4.4 4.4-5.4 5.9.1 2.1.4 4.2.9 6.3.4 2 1 3.9 1.8 5.7-.5-.1-1.1-.1-1.6-.2-1.5-.3-3.1-.5-5.4-1.5-.7-.3-1.7-.8-2.6-1.4l-4.6 5.4c1.1.6 2.3 1.2 3.2 1.5 2.4.8 6.9 1.9 8.9 1.9 1.6 0 3.1-.1 4.7-.5.5.9 1 1.7 1.5 2.6.2.4.4.7.5 1.1-2.7.6-6.4.8-10.9.6-9.2-.4-16.4 3.1-19.9 9.1-1.9 3.2-3 7.3-3.7 11-2.6-.4-4.9-.7-6.8-.8l-5.1 6 4.2-.3s2.9 0 7 .2c-.3 3.2-.3 5.4-.3 5.4-2.7-1.2-8.1-2.1-10.5 3.8-3.1 7.7 7.4 9.2 7.4 9.2-2.9-1.5-4.7-6.1-2.4-6.9 4-1.4 5.9.8 4.7 5.7-1.2 5.1-7.5 6.8-10.8 7.3 0-.6 0-1.3-.1-1.9 0-.4-.1-.7-.2-1.1.8-.4 1.5-.8 2.2-1.4-.7.4-1.5.7-2.2.9-.3-1.6-.8-3.2-1.5-4.7-.4-1-.8-1.8-1.2-2.8-.4-.9-.7-1.8-1-2.8-.4-1.2-.8-2.4-1.1-3.7l-3.4 4c.2.4.4.9.7 1.3.5.9 1 1.9 1.6 2.8.5.9 1.2 1.8 1.7 2.6.8 1.1 1.4 2.3 1.9 3.6h-.2c-1.6.1-3.2-.3-4.7-.8l-1.3-.5.3 1.6c.4 2.4.4 4.9-.2 7.1-.3 1.1-.8 2-1.5 2.6-.7.7-1.6 1.3-2.5 1.7-1.9.8-4 .9-5.9.3-1.9-.5-3.6-1.7-5.1-3.1l-.5-.5-4.6 5.4.7.5c2.5 1.7 5.4 3 8.6 3.3 3.1.3 6.3-.4 8.9-2.1 1.3-.8 2.4-1.9 3.3-3.2.9-1.4 1.4-2.9 1.5-4.3.2-2.4-.1-4.7-.8-6.8 1.3.1 2.6.1 3.8-.2l.3-.1c.1.2.2.5.2.7.2.6.3 1.2.4 1.8h-.3.3c.6 3.2.3 6.7-.8 9.9 1.7-2.9 2.6-6.4 2.6-9.9 13.9-.2 16.7-8.9 17.5-17.1l11.4-.4-11.1-3.2c.1-1.2.1-2.4.2-3.5 2 .2 4.1.5 6.2.9l.6.1.4.1c.7.1 1.4.2 2 .3 1.1.2 2.3.4 3.5.7 1.7.4 3.4.9 5.1 1.4 3.4 1 6.7 2.2 10 3.6-3.1-1.8-6.3-3.4-9.6-4.9-.6-.3-1.3-.6-1.9-.8 6.9-1.2 10.1-6.1 10.1-12.8 0 0-2.2 7.4-7.5 8.8-3.1.8-10.8-.5-18.3-1.9 2-7.4 6.4-9.7 9-9.6 2.8.1 5.4 1.6 4.1 4.4-1.3 2.9-6.3 1.9-6.3 1.9 3.6 2.3 10.1 1.2 11.3-4.1s-3.4-6.9-3.4-6.9c1.9-1.4 11.4-1.6 15.2-3.8.9 2.7 1.5 5.5 1.4 8.4-.1 4.5-1.8 9.2-5.3 12.3l-.3.2.4.5.3-.2c4-2.9 6.4-7.8 6.8-12.8.4-3.6-.2-7.1-1.2-10.5 1.5-2.3 1.3-4.9 1.3-4.9-.4 1-1.1 1.7-2.2 2.3-.2-.5-.4-1-.6-1.4-.3-.8-.7-1.5-1.1-2.3 1.3-.6 2.5-1.4 3.5-2.4 1.1-1.2 1.7-2.5 2.1-3.9.7.3 1.4.5 2.1.7 1.4.3 2.7.5 4.1.6 1.4 0 2.8-.2 4.1-.7 1.6-.8 2.7-1.6 3.7-2.5" class="st62"/><path d="m825.4 541.4 81.5-172.8s-12.6-6.3-15.3-10.7c0 0-13.8 15.8-39.6 11.3s-33.4-24.1-33.4-24.1c-4 3.2-18 4.9-18 4.9l-17.9 184 42.7 7.4z" class="st63"/><path d="m837.9 463.4.4 1 .7-.8-1.1-.2zM832.2 462.4l.3 1 .7-.8-1-.2z" class="st63"/><path d="M808.4 360.1c.1.1 14.3 16.2 39.4 20.6 12.7 2.2 25.5-1.4 35.2-5.4 9.7-4.1 16.2-8.7 16.2-8.7l-1.3-1.9-.3.2c-1.4 1-8.2 5.4-17.3 9-9.2 3.7-20.8 6.5-32.1 4.6-12.1-2.1-21.7-7.1-28.2-11.5-3.2-2.2-5.7-4.3-7.4-5.8-.8-.8-1.5-1.4-1.9-1.8l-.5-.5-.1-.2-1.7 1.4z" style="fill:#d1d1d4"/><path d="M986.9 186.6C972.7 267.7 932.3 329 858.4 316c-74-12.9-89.6-84.8-75.4-165.9s84.9-79.7 118.6-73.8c33.7 6 99.5 29.2 85.3 110.3" class="st65"/><path d="M851.9 216.6c-1.9 11.1-12.7 18.6-23.9 16.6-11.3-2-18.8-12.6-16.9-23.7s12.7-18.6 23.9-16.6c11.3 1.9 18.8 12.5 16.9 23.7" class="st66"/><path d="M846.6 215.6c-1.4 7.8-8.8 13-16.5 11.6-7.8-1.4-13-8.8-11.6-16.6s8.8-13 16.5-11.6c7.8 1.4 13 8.9 11.6 16.6" class="st67"/><path d="M827.9 204.8c-.4 2.2-2.5 3.8-4.8 3.4s-3.8-2.6-3.4-4.8 2.5-3.7 4.8-3.4c2.3.5 3.8 2.6 3.4 4.8" class="st3"/><path d="M823 257.6c12.5 10.9 26.5 18.7 41.7 21.2 15.2 2.7 30.9-.7 46.7-5.7-6.4 5.4-14 9.4-22.2 11.8-8.2 2.5-17.1 3.1-25.8 1.7-8.6-1.5-16.9-4.9-23.8-10s-12.9-11.5-16.6-19" class="st68"/><path d="M901.8 225.3c-1.9 11.1 5.6 21.8 16.9 23.7 11.3 2 22-5.5 23.9-16.6s-5.6-21.8-16.9-23.7c-11.2-2-22 5.4-23.9 16.6" class="st66"/><path d="M907 226.2c-1.4 7.8 3.9 15.2 11.6 16.6 7.8 1.4 15.2-3.9 16.5-11.6 1.4-7.8-3.8-15.2-11.6-16.5-7.7-1.5-15.1 3.7-16.5 11.5" class="st67"/><path d="M909.1 219c-.4 2.2 1.1 4.4 3.4 4.8s4.4-1.1 4.8-3.4c.4-2.2-1.1-4.4-3.4-4.8-2.3-.3-4.4 1.2-4.8 3.4" class="st3"/><path d="M822.5 254.1c5.9-1.5 16.3 12.1 42.8 16.7s40.9-4.6 45.9-1.2 4.8 12.8-10.4 24.4c-12.8 9.7-32.8 6.5-40.5 5.1-7.7-1.3-27.6-5.1-36.3-18.6-10.3-15.9-7.4-24.9-1.5-26.4m35.9 61.9c74 12.9 114.3-48.3 128.5-129.4.5-2.9.9-5.7 1.2-8.5l-12.4-2.2c-4.1 58.1-30.3 92-40.5 95.3s-10.6-2.9-18.4-8.8c-7.5-5.8-38.9-11.8-47.7-13.4-8.8-1.5-40.4-6.5-49.4-3.6-9.3 2.9-11.8 8.6-20.3 2S777.8 200 793.7 144l-9.2-1.6c-.6 2.4-1.1 5-1.5 7.6-14.3 81.3 1.4 153.1 75.4 166" class="st69"/><path d="M808 341.2c-6.3 8.7 28.1 104.6 28.1 104.6l-16.7 97-80.1 3.4 8.1-99.6-14.1 14.3s1.7-.9.3-5c-1.7-5-23.3-26.6-32-28.5-2.6-.6-3 .3-3 .3l55.7-68.5 53.7-18z" class="st70"/><path d="M903.7 363.3c3 10.3-67.7 82.4-67.7 82.4l-21.2 93.8 78.9 13.8 21.1-77.6 8.4 18.2s-.9-1.2 1.5-4.8c3.3-4.1 30.9-17.1 39.8-15.9 2.6.3 2.7 1.3 2.7 1.3L938 391.3l-34.3-28z" class="st70"/><path d="m761.1 545.2 36-.7c3.1-44.3 9.8-148.3 9.8-203.2l-37.9 13c.6 26.5-.2 101.7-7.9 190.9M875.1 550.1l-35.7-6.2c12.1-42.8 42.9-132.1 61.5-183.8l26.9 22.6c-9.7 24.7-29.6 80.9-52.7 167.4" class="st71"/><path d="m796.5 544.2 8.4-149.9h1.1l-8.4 150-1.1-.1zM760.6 545.6l1.1.1c.1-1.2 9-135.7 7.7-191.6l-1.1.4c.2 56.1-7.6 188.2-7.7 191.1M839.9 544l-1-.3 44.9-137.9 1 .4L839.9 544zM928.1 382.9l-.9-.8c-21.5 54.6-53 166.6-53.3 167.7l.5.1.5.1c.8-2.4 31.8-112.8 53.2-167.1" class="st72"/><path d="m894.9 352.4 18.1 16.2-5.7 19.7-12.2-2.2 6.4 13.8-65.4 45.8 58.8-93.3z" class="st70"/><path d="m811.3 337.8-22.5 9-1.4 20.5 12.2 2.1-10.6 10.8 47.1 65.5-24.8-107.9z" class="st70"/><path d="m836.1 445.7-.9-1.2-16.5 95.8 2.2.3 16.5-95.8-1.3.9z" class="st73"/><path d="m811.3 337.8-22.5 9-1.4 20.5 27.9-12-4-17.5zM894.9 352.4l18.1 16.2-5.7 19.7-22.2-20.8 9.8-15.1z" class="st71"/><path d="M788.8 346.8c.2 6.9.1 13.7-.1 20.5l-1.1-1.4c5.2.6 10.4 1.4 15.6 2.1-4.1 4.6-8.5 9.1-12.7 13.6l.2-2.8c15.9 21.7 31.5 43.7 45.4 66.8-17.5-20.5-33.4-42.2-48.9-64.3l-1.1-1.5c4.1-3.9 8.1-7.9 12.2-11.8l1 3c-4.4-.9-8.9-1.9-13.3-2.9.8-6.9 1.7-14.1 2.8-21.3M913 368.6c-1.4 7.1-3 14.1-4.8 21.2-4.5-.5-9-1.2-13.5-1.8l2-2.5c2.6 5 4.9 10.2 7.4 15.2l-1.5 1.1c-21.6 15.5-43.5 30.7-66.5 44.1 20.4-17.1 42.1-32.6 64-47.6l-.7 2.7c-2.5-5.7-5-11.4-7.4-17.1 5.1 1.1 10.3 2.1 15.4 3.3l-1.5.9c2.2-6.7 4.6-13.2 7.1-19.5" class="st73"/><path d="M992.3 178.9c1.4-9.9 3-20 2.1-29.5-.5-5.9-2.7-11.4-4.4-17-2.6-8.7-5.8-17.9-11.7-25.4-3.1-3.9-7.6-7.7-11.8-11.2-5.5-4.6-11-11-18.6-14.8-6.1-3-13.8-4.7-21.4-7.1-5.3-2.1-9.2-4.7-17.6-6.2-1.2-.2-8.9-.3-10.1-.5-8.4-1.5-15.3-2-21-1.8-8.5-.3-16.5-3.1-23.6-2.2-10.7 1.4-20 8.2-28.1 12-5.9 2.8-14.4 6.7-19.1 10.6-10.4 8.7-16.8 20-22 32.7-3 7.2-3 15.4-4.7 23.4-10.2 48.3-1.2 78.4-1.2 78.4 11.3-5.6 6.2-32.1 7.6-48.7 1.5-16.5 24.5-44.2 39.2-47.2 12.2-2.5 40.3 14.1 63.5 18.1 23.2 4.1 55.2-2 65.9 4.5 12.8 7.8 25.1 41.7 20.9 57.7s-18.1 39.2-9.3 48.4c0 0 18.6-25.3 25.4-74.2" class="st74"/><path d="M824.6 339.9c-2.7 2.8-3.9 6.3-3.6 10.5.7 9 4.3 38.4 23.9 41.8l.6.1c14.1 2 26.6-8.1 37.2-30.1 2.1-4.4 2.2-8.6.2-12.5 0 0-.5-.9.6-5.1 0 0 1.6 2.3 2.3 3.6 2.5 4.9 2.5 10.1-.1 15.4-11.3 23.4-25 34.1-40.7 31.9-.2 0-.5-.1-.7-.1-21.9-3.8-25.9-35.2-26.6-44.8-.4-5.6 1.4-10.2 5.3-13.7 1.1-1 2.4-1.9 3.8-2.7 0 0-.1.4-.3 1.1-.1.5-.3 1.1-.5 1.7l-.2.5c-.5 1.3-1.2 2.4-1.2 2.4" style="fill:#edbd0a"/><path d="m826.1 336.9-.3.2-.4.1-.3-.2c-.2-.2-.1-.6.1-.8.4-.3.9-.6 1.3-.9m58.1 14.5-.4-.3c-.1-.3-.3-.7-.4-1-.2-.3-.3-.6-.5-.9s-.1-.6.2-.8.6-.1.8.2.4.6.5 1c.2.3.3.7.5 1.1.1.3 0 .6-.3.7h-.4zm-62.5-9-.2-.1c-.3-.2-.3-.5-.2-.8.4-.7.8-1.3 1.3-1.8.2-.2.5-.3.8-.1.2.2.3.5.1.8-.4.5-.9 1.1-1.2 1.7-.1.3-.3.3-.6.3m63.4 13.8c-.3 0-.4-.3-.5-.5 0-.7-.1-1.4-.2-2.1-.1-.3.1-.6.4-.6s.6.1.6.4c.1.7.2 1.5.2 2.3 0 .3-.2.6-.5.5zm-65.2-9.2c-.3-.1-.5-.4-.4-.7.2-.7.4-1.5.7-2.2.1-.3.4-.4.7-.3s.4.4.3.7c-.2.7-.5 1.3-.6 2-.1.3-.4.5-.7.5m64.7 14.1c-.3-.1-.5-.4-.4-.7.1-.5.2-.9.3-1.4 0-.2.1-.5.1-.7 0-.3.3-.5.6-.5.3.1.5.3.5.6 0 .2-.1.5-.1.7l-.3 1.5c-.2.3-.4.5-.7.5m-65.1-9.3c-.2 0-.4-.3-.5-.5v-2.3c0-.3.3-.5.6-.5s.5.3.5.6c-.1.7-.1 1.4 0 2.1 0 .3-.2.6-.6.6zm63.3 13.8c-.4-.1-.5-.5-.3-.7l.6-1.2c.1-.2.2-.5.3-.7.1-.3.4-.4.7-.3s.4.4.3.7-.2.5-.3.7c-.2.4-.4.8-.6 1.3-.3.1-.5.3-.7.2m-62.8-8.9c-.2 0-.4-.2-.4-.5-.1-.8-.2-1.5-.2-2.2 0-.3.2-.6.5-.6s.6.2.6.5c.1.7.1 1.4.2 2.2 0 .3-.2.6-.5.6h-.2zm60.5 13.3-.2-.1c-.3-.1-.4-.5-.2-.7.3-.6.7-1.3 1-1.9.1-.3.5-.4.7-.2.3.1.4.5.2.7-.3.7-.7 1.3-1 1.9-.1.2-.3.3-.5.3m-59.8-8.4c-.2 0-.4-.2-.4-.4-.1-.7-.2-1.5-.4-2.2 0-.3.2-.6.5-.6s.6.2.6.5c.1.7.2 1.4.4 2.1.1.3-.1.6-.4.6h-.3zm57.3 12.6-.2-.1c-.3-.2-.3-.5-.2-.8.4-.6.7-1.2 1.1-1.9.2-.3.5-.4.7-.2.3.2.3.5.2.7-.4.6-.8 1.3-1.1 1.9-.1.4-.3.5-.5.4m-56.3-7.8c-.2 0-.4-.2-.4-.4-.2-.7-.3-1.4-.5-2.2-.1-.3.1-.6.4-.6.3-.1.6.1.6.4.1.7.3 1.4.5 2.1.1.3-.1.6-.4.7h-.2zm53.6 11.9-.2-.1c-.2-.2-.3-.5-.1-.8l1.2-1.8c.2-.3.5-.3.8-.2.3.2.3.5.2.8l-1.2 1.8-.7.3zm-52.4-7.1-.4-.4-.6-2.1c-.1-.3.1-.6.4-.7s.6.1.7.4l.6 2.1c.1.3-.1.6-.4.7h-.3zm49.4 11-.2-.1c-.2-.2-.3-.5-.1-.8.5-.6.9-1.1 1.3-1.7.2-.2.5-.3.8-.1.2.2.3.5.1.8-.5.6-.9 1.2-1.4 1.7l-.5.2zm-47.8-6.4-.4-.3c-.3-.7-.5-1.4-.8-2.1-.1-.3.1-.6.3-.7.3-.1.6.1.7.3.2.7.5 1.4.7 2 .1.3 0 .6-.3.7l-.2.1zm44.6 10.1-.3-.1c-.2-.2-.2-.6 0-.8.5-.5 1-1 1.5-1.6.2-.2.5-.2.8 0 .2.2.2.5 0 .8-.5.6-1 1.1-1.5 1.6l-.5.1zm-42.6-5.6-.4-.3c-.3-.7-.6-1.3-.9-2-.1-.3 0-.6.3-.7s.6 0 .7.3c.3.7.6 1.3.9 2 .1.3 0 .6-.2.7h-.4zm38.9 8.9-.3-.2c-.2-.2-.2-.6.1-.8.5-.4 1.1-.9 1.6-1.4.2-.2.6-.2.8 0s.2.6 0 .8c-.6.5-1.1 1-1.7 1.4l-.5.2zm-36.4-4.6-.4-.2c-.4-.6-.8-1.2-1.2-1.9-.2-.3-.1-.6.2-.7.3-.2.6-.1.7.2.4.6.7 1.2 1.1 1.8.2.3.1.6-.2.8h-.2zm32.4 7.4-.4-.3c-.2-.3-.1-.6.2-.7.6-.4 1.2-.7 1.8-1.2.2-.2.6-.1.8.1s.1.6-.1.8c-.6.4-1.2.8-1.9 1.2l-.4.1zm-29.4-3.5-.3-.2c-.5-.5-1-1.1-1.4-1.7-.2-.2-.1-.6.1-.8s.6-.2.8.1c.5.6.9 1.1 1.4 1.6.2.2.2.6 0 .8l-.6.2zm25 5.6-.4-.3c-.1-.3 0-.6.3-.7.7-.2 1.3-.5 2-.8.3-.1.6 0 .7.3s0 .6-.3.7l-2.1.9-.2-.1zm-21.3-2.4-.2-.1c-.6-.4-1.2-.9-1.8-1.4-.2-.2-.3-.5-.1-.8.2-.2.5-.3.8-.1.5.5 1.1.9 1.7 1.3.2.2.3.5.1.8l-.5.3zm16.6 3.7c-.2 0-.4-.2-.4-.5s.2-.6.5-.6c.7-.1 1.4-.3 2.1-.4.3-.1.6.1.7.4s-.1.6-.4.7c-.7.2-1.5.3-2.2.4h-.3zm-12.4-1.3c-.8-.3-1.5-.6-2.1-1-.3-.1-.4-.5-.2-.7.1-.3.5-.4.7-.2.6.3 1.3.6 1.9.9.3.1.4.4.3.7-.1.2-.3.3-.6.3m7.5 1.6c-.3 0-.5-.3-.5-.6s.3-.5.6-.5h2.1c.3 0 .6.2.6.5s-.2.6-.5.6h-2.3zm-3.1-.4c-.6-.1-1.2-.2-1.8-.4-.3-.1-.5-.4-.4-.7s.4-.5.7-.4c.5.1 1.1.3 1.7.4l.4.1c.3.1.5.3.5.6s-.3.5-.6.5l-.5-.1z" class="st76"/><path d="M807.2 131.5c1.4-.9-.5-6.6 1.5-7.2 2-.7 4.4 2 6.2 1.6s1.1-6.6 2.5-7.1 1.4.3 3 .8c1.5.5 1.2-4.1 2.3-4.1 1.2 0 1.2 3.1 3 3.1s1.2-7.1 2.8-7.4 1.6 3.9 3.1 4.3 2.2-5 3.1-5c.9.1-.4 7.9 1.7 8.4s4.6-4.8 6.1-4.5 2.1 6.9 3.8 7.2 3.7-4.2 4.9-3.8-.5 4.5.7 5.1 1.4-.5 2.1-.8c.3 1.2.3 3 1.7 3.4 1.5.4 4.9-1.2 6.7-.6 1.7.5 1.7 5.7 3.6 6.3 2 .6 2.6-2.3 3.3-2.1s-.2 3 .9 3.2 1.8-2.3 2.8-2.1 2.9 5.2 4.6 5.4c1.7.1 4.2-6.2 5.9-6s2.8 7.2 4.8 7.5c1.9.3 2.3-4.2 3.3-4.1s-.1 4 .8 4.1c.9.2 1.4-1.9 2.5-1.7s.8 4.2 2.5 4.6c1.8.4 5.3-6.1 7.3-5.8 1.9.3 2.1 4.4 4.3 4.9s3.9-2.6 5.2-2.4.6 2.5 2.3 2.8 3.2-3.9 5.6-3.7 2.5 4.3 4.9 4.6 3.5-3.4 4.9-3.3c1.3.2 1.2-3 2.3-2.8s2.2 4 4 4.3c1.8.2 4-2.7 4.9-2.4.9.2.8 2.2 1.9 2.4s3.9-2.7 5-2.5.4 4.4 1.3 4.6 1.2-2.4 2.3-2c1.1.3 3.4-.1 4.9.1s.3 3 2.3 3.3c2 .4 3-2.6 4.3-2.1s-2.7 5.4-2 6.5c.6 1.1 3.9 2.1 5.6 3.4.8.6-.5.7-.1 1.8s3.2 3.4 3.7 4.1c.5.8 4.4 16.3 5.6 16.6s2.8-2.4 3.2-3.4c.3-1 2.2-5.3 2.1-6.2 0-.9-3-.1-3.5-.9-.4-.8 4.7-3 4.3-4.2-.4-1.1-3.2-.6-4.9-1-.4-.1-.9-.2-1.3-.5-1.3-1.2 2.6-2.6 2.5-3.6s-2.6-.5-3-1.3c-.3-.8 2-2.1 1.3-3.1-.7-.9-6.2 2.2-7 1.3s2.7-7.1 2.4-8.3-3.1.7-3.9.4c-.7-.3-.6-4.7-1-5-.4-.4-.9 2.5-2 1.3s1.6-6.4 1.3-7-.6 1.2-1 .6 1-1.5.4-1.9c-.5-.5-1.4 3.3-1.9 3-.6-.3.6-3.6-.1-4.1-.7-.4-1.4 4.8-2.7 4.6-1.4-.2 2-5.3.7-6.2s-4.7 5.1-5.4 4.6c-.7-.6 3.8-14.1 3.8-14.1s-8 16.1-8.9 16 1-6.4-.8-6.8c-1.8-.3-2.9 5.3-3.8 5.3s.4-2.9-.6-3.1-2.3 2.5-3 2.2 2.1-5.7.9-6.3-3.5 4.5-4.9 4.1 2.1-17.7 2.1-17.7-5.8 14.2-7.3 14.5.1-2.6-1.6-2.9-1.6 4.1-2.8 4.1-1.4-7.8-2.4-7.9-2.9 5.9-3.9 5.9.1-3.2-1-3.4-1.7 2.5-2.5 2.4c-.9 0-2.7 1.1-3.5.9-.8-.1-.2-2.3-1.3-2.6-1.1-.4-.2 4.7-3.2 4.5-3.1-.2 3.2-25 3.2-25s-9.4 18.7-11.5 18.4-1.9-4.2-2.9-6.3c-.2 2.3.7 6.8-1.6 6.7s-3.1-7.9-4.4-12c-1 2-1.2 6.5-3 6-1.8-.6-.1-8.2-1.4-8.4-1.3-.1-2.4 4.7-3.4 4.8s-.1-2.6-1-2.9-2.2 5.7-3.4 5.7.7-9.2 0-13.8c-3.3 5.4-6 17.9-7.8 17.4-1.8-.6-1.8-9.9-2.6-10.3-.8-.5-2 5.2-3.4 5.2-1.4-.1 2-9.1.4-9.7-1.6-.5-3.9 6.6-5.8 6.4-1.9-.1-2.6-14.3-3.9-21.4-1.7 6.9-1.7 20.4-2.8 20.2s-.6-2.2-.9-3.3c-1.1 1.1-1.9 3.6-2.9 3.7-.9.1.6-4.6.9-7-1.9 1.9-2.7 7-4 7-1.4-.1-3.8-10.5-4.2-15.3-.8 4.6-.5 13.1-2.4 12.9-1.8-.2-1.8-4.2-2.7-6.3-.4 1.4.9 4.3-1.2 4.2s-4.4-4.5-6.2-7c.4 1.8 1 5.2 0 5.6s-2.2-.1-2.6-1c-.4 1.3.3 3.5-1.1 4-1.4.4-2.7-3.5-4-5.2-.8 2.2.3 6.4-.9 7-1.2.5-2 .8-2.7.2-.8 1.8-1.1 5.1-1.8 5.7s-4.2-5.7-5.9-8.7c-.8 2 .8 6-.7 6.4s-1.4 1.3-2.5.7c-.3 1.2 1.5 2.7.1 3.7s-2.1.5-3.7-1.5c0 1 1.2 2.5.1 2.9-1.2.4-3.3-3-5-4.6.4.9.8 1.9.7 2.8-.1 1-1 1.9-2 1.7-.1 3.2 2 9.1 1.3 9.6s-1.2-1.2-1.9-1.3c-.8-.1.1 2.8-.4 3.7-.5.9-1.8.8-1.6 1.9 1.1 4.6-3.4 9.3-3.2 10.8s6.4-6 6.9-9.8c1.1.4 1.9 1.3 3.3.4" class="st77"/><path d="M785.2 210.7c.2-.5.3-1.1.4-1.6.3-2 .2-3.9.1-5.6s-.3-3.4-.3-4.8c.1-1.7.5-3.7.8-5.9.4-3.5.2-7 .1-10.3-.2-3.3-.3-6.5.2-9.5 0-.3.1-.6.1-.9.3-1.7.7-3.4 1.1-5.3.3-1.7.5-3.4.4-5.2-.1-.9-.1-1.5-.1-1.7v-.1l.6-.9c.9-1.2 1.5-2.7 1.8-4.1.2-1.2.2-2.4 0-3.6l-2.2.5.1 2.3h2.8l.6-1.4c.1-.4.8-1.1 1.8-2 .5-.4 1-1 1.5-1.6.5-.7 1-1.5 1.2-2.5l.1-.4V145.2h-.1.1-.1.1l-.9-.1.8.3v-.1l-.9-.1.8.3-1.2-.4.8 1c.2-.2.3-.3.4-.6l-1.2-.4.8 1-1-1.3-.3 1.6c.6.1 1.1-.1 1.3-.3l-1-1.3-.3 1.6.3-1.7-.6 1.6.3.1.3-1.7-.6 1.6.8-2.1.7-2.2-.5 1.5 1.5-.6c-.1-.3-.5-.8-1-.9l-.5 1.5 1.5-.6-1.1.5 1.2.2c0-.2 0-.4-.1-.7l-1.1.5 1.2.2-1.2-.2.8.8c.2-.2.3-.4.3-.6l-1.2-.2.8.8.1-.1-.1.1-.4-.3.3.4.1-.1-.4-.3.3.4.2-.1c.2-.1.4-.1.7-.3.5-.2.9-.4 1.4-.9.5-.4 1-1.1 1.2-2v-.4l-4.6-.2 1.2.1-1.1-.2v.1l1.2.1-1.1-.2 1 .2-.7-.8s-.2.2-.3.6l1 .2-.7-.8.2.2-.1-.2.2.2-.1-.2h-.1c-.2.1-.5.2-.9.3-.4.2-1 .5-1.5 1-.5.6-.8 1.2-.9 1.8s-.1 1.2.2 1.8c.3.7.9 1.4 1.8 1.7l1.6-4.3-.5-.2c-1-.2-1.8.2-2.3.6s-.9.9-1.1 1.6l2.2.7-2.1-.8c-.1.2-.1.5-.2.6-.1.7-.1 1.2-.1 1.2l2.3.2-2.3-.3v.1c0 .1-.1.3-.3.6-.3.4-.9 1-1.7 1.7-.7.7-1.7 1.6-2.2 3l2.1.8-.1-2.3h-1.3l-2.7.1.6 2.7c.1.6.1 1.3 0 1.9-.1.8-.5 1.6-.9 2.2-.2.3-.7.8-1.1 1.7-.2.4-.3.9-.4 1.3-.2 1.2 0 2.2 0 2.8.1 1.3 0 2.7-.3 4.1-.3 1.7-.7 3.4-1.1 5.3-.1.3-.1.7-.2 1-.5 3.6-.3 7-.2 10.3.2 3.3.3 6.5 0 9.5-.2 1.9-.7 3.9-.8 6.2-.1 1.9.1 3.7.3 5.4.1 1.6.2 3.1 0 4.4-.1.4-.1.7-.3 1l4 1.3zM970.3 242.4c0-.3.1-.7.1-1 .2-1.3.8-2.7 1.5-4.2s1.5-3.1 2.1-4.9c.7-2.2.9-4.3 1.4-6.1.7-3 1.9-5.9 3.2-9s2.6-6.3 3.3-9.8c.1-.3.1-.7.2-1 .3-1.9.5-3.7.8-5.4.3-1.5.6-2.8 1.1-4 .3-.6.7-1.4 1-2.7.1-.4.1-.8.1-1.3-.1-1-.4-1.6-.5-2-.2-.7-.3-1.6-.1-2.4.1-.6.3-1.2.7-1.8l1.4-2.3-2.6-1c-.4-.2-.8-.3-1.2-.5l-.8 2.1 2.3-.1c-.1-2-1-3.4-1.5-4.4-.3-.5-.5-1-.6-1.3s-.1-.5-.1-.6h-.2l.2.1h-.2l.2.1c0-.1.2-.5.3-1.2l.1-.6c0-.7-.2-1.3-.5-1.8-.3-.6-1-1.2-2-1.4-.2 0-.4-.1-.6 0v4.6c.9 0 1.8-.4 2.2-1 .5-.5.7-1.1.8-1.7s.1-1.3-.2-2v-.1.1c-.3-.7-.8-1.2-1.1-1.5s-.6-.5-.7-.6l-.1-.1-.4.3.5-.1-.1-.1-.4.3.5-.1-1.1.4 1.2.2v-.6l-1.1.4 1.2.2-1.5-.3 1.4.5.1-.3-1.5-.3 1.4.5-4.3-1.6c-.1.2-.1.4-.1.5-.2.9.1 1.7.4 2.3s.7 1 1.1 1.3c.3.3.6.5.7.6l.1.1.4-.3-.4.2.1.1.4-.3-.4.2 1-.5-1.1-.2c0 .2 0 .4.1.7l1-.5-1.1-.2 1.2.2-.9-.8c-.2.3-.3.5-.3.6l1.2.2-.9-.8 1.2 1.1v-1.6c-.5 0-1 .3-1.2.5l1.2 1.1v-1.6 2.3l.1 2.3-.1-1.8-.3 1.7h.4l-.1-1.8-.3 1.7.3-1.6-1.4.9c.1.2.5.6 1.1.7l.3-1.6-1.4.9 1.1-.7h-1.3c0 .3.1.5.2.7l1.1-.7h-1.3 2.3l-2.3-.1h.5l-.5-.1v.1h.5l-.5-.1h.1-.1.1-.1s-.1.3-.3.8l2.2.6-2.2-.6-.1.4c-.2 1 0 2 .2 2.8.4 1.2.9 2.1 1.3 2.8.4.8.6 1.3.6 1.6v1.5l1.4.5c.4.2.8.3 1.2.5l.8-2.1-1.9-1.2c-.6 1.1-1.1 2.2-1.3 3.4-.3 1.5-.2 3 .3 4.5.2.7.3 1 .3 1v.1c0 .2-.3.8-.7 1.6-.8 1.7-1.2 3.4-1.4 5.1-.3 1.9-.5 3.7-.8 5.4-.1.3-.1.6-.2.9-.6 3-1.8 5.9-3.1 9s-2.6 6.2-3.4 9.7c-.5 2.1-.7 4.1-1.3 5.8-.4 1.4-1.2 2.8-1.9 4.4s-1.5 3.3-1.8 5.3c-.1.5-.2 1.1-.2 1.7l4.3.2z" class="st78"/><path d="M864.2 120.5c.2-4.3.6-8.6 1-12.9s1.1-8.5 1.4-12.8c.7-8.5.8-17.2-.5-25.7h.2c1 4.2 1.5 8.5 1.9 12.8.3 4.3.3 8.7.2 13-.2 4.3-.3 8.7-1 12.9-.7 4.3-1.6 8.5-3 12.6l-.2.1zM900.6 129.1c-.2-2.5 0-4.9.3-7.4.3-2.4 1.1-4.8 1.8-7.1s1.4-4.7 2.1-7c.8-2.3 1.6-4.6 2.5-6.9l.2.1c-.6 2.4-1.1 4.7-1.6 7.1s-1 4.7-1.5 7.1-.7 4.8-1.3 7.1-1.3 4.7-2.2 7h-.3zM922 111.8c.4-2.5 1.2-4.8 2.2-7 .9-2.3 2.3-4.3 3.5-6.4s2.5-4.2 3.8-6.2 2.7-4 4.2-6l.2.1c-1.2 2.1-2.3 4.3-3.4 6.4s-2.2 4.3-3.2 6.5c-1.1 2.2-1.9 4.5-3.1 6.6s-2.4 4.2-4 6.2l-.2-.2z" class="st79"/><path d="M854 119.4zm4.6-17.4c.2-4.4.3-8.8.3-13.2-.1-4.4-.2-8.7-.5-13.1h-.3c-.3 4.4-.5 8.7-.8 13.1-.3 4.3-.7 8.7-1.2 13-.3 2.1-.6 4.3-1 6.4l-1.1 6.3c-.2.9-.3 1.8-.6 2.6-.1-.2-.1-.5-.3-.8l-.2-.3-.1-.1-.1-.2c-.1-.1-.2-.2-.5-.2h-.3l-.2.1-.2.2-.2.3c-.2.3-.3.6-.4.9-.2.6-.3 1.1-.4 1.7l.3.1c.2-.4.5-.7.7-1.1v.6c0 .6 0 1.1.2 1.9l.1.3c.1.1.1.2.3.4l.2.2.5.2c.2.1.3.1.6.1l.4-.1.2-.1c.3-.2.3-.2.4-.3l.2-.3.3-.5c.4-.6.6-1.1.9-1.7.5-1.1.8-2.2 1.1-3.3 1.4-4.2 1.4-8.7 1.7-13.1M896.1 121.9l-1.6 4.8c-.2.6-.4 1.2-.7 1.8l-.5-.5c-.2-.2-.5-.3-.7-.3-.2-.1-.3-.1-.5-.1H891.5c-.6.1-1 .3-1.3.5l-.3.2c.1-.7.2-1.4.4-2.1.7-3.3.7-13.1.7-13.1-.7 2.4-2.9 7.1-3.8 9.4-.4 1.2-.8 2.3-1.3 3.5l-.2.5c-.2-.3-.4-.7-.8-1.1-.2-.2-.7-.6-1.4-.7-.4 0-.7.1-1 .2-.2.1-.4.2-.6.4-.4.3-.5.6-.7.8.1-.6.2-1.3.3-2l1.3-7.3c.4-2.5.8-4.9 1.1-7.4.6-5 1.2-10 .8-15-.1 2.5-.5 4.9-1 7.4-.4 2.4-1 4.9-1.5 7.3-1.1 4.9-2.3 9.6-3.4 14.5-.3 1.2-.6 2.5-.5 4.1 0 .4.1.8.2 1.3.1.2.2.5.4.8s.6.6 1.1.8 1.1 0 1.4-.1c.4-.2.6-.4.9-.6.2-.2.3-.4.5-.6l.2-.3.1.6c.1.3.1.6.4 1.2.1.2.2.3.4.6.1.1.3.3.6.4s.7.2 1 .1c.6-.1.9-.4 1-.5l.2-.2v-.1l.1.3.2.3.3.3.3.2c.2.1.5.2.9.3.4 0 .7-.1 1-.2.5-.3.8-.5 1-.8.4-.5.6-.8.8-1.1l.2-.3.5.5c.2.2.5.4.7.5h.1l.3.1c.3.1.6.1.9 0 .5-.2.6-.4.8-.6.2-.3.4-.6.5-.8.4-.9.6-1.8.8-2.6.4-1.7.7-3.4 1.1-5 .7-3.3 1.4-6.6 2.6-9.9-1.4 3.1-2.6 6.3-3.7 9.6M937.9 100.9c-1.3 1.9-2.6 3.9-3.8 5.9-2.4 4-4.7 8.1-6.8 12.3-1.1 2.1-2.1 4.2-3.1 6.4-.5 1.1-1 2.1-1.4 3.4-.2.6-.3 1.1-.5 1.5 0-.2-.1-.4-.2-.7s-.3-.6-.7-1c-.5-.4-1.3-.5-1.7-.4-.8.2-1.2.6-1.5.8-.2.2-.4.4-.6.5v-.1l.5-6.1-3.4 5c-.5.7-1.1 1.5-1.6 2.1-.3.3-.5.6-.8.8-.1-.3-.1-.6-.2-.9-.1-.9-.2-1.8-.2-2.7 0-1.9.2-3.7.5-5.6s.7-3.8 1.1-5.7c-1 1.7-1.8 3.5-2.4 5.4-.7 1.9-1.1 3.8-1.4 5.8-.1 1-.2 2-.1 3.1 0 .5.1 1.1.2 1.7.1.3.2.6.4 1 .1.2.2.4.4.6s.5.5 1 .6c.2.1.5 0 .7 0l.4-.1c.2-.1.4-.1.5-.2.3-.2.6-.3.8-.5.3-.2.5-.4.7-.6l.2.2c.2.2.4.5.8.6.3.1.8.2 1 .1.6-.1.8-.3 1.1-.4.2-.1.4-.3.5-.4.3-.3.5-.5.8-.7l.3-.3c0 .3.1.5.2 1 .2.5.5 1.2 1.4 1.6.5.2 1 .1 1.4 0s.7-.3.9-.5c.4-.4.6-.7.8-1.1.4-.7.6-1.3.8-1.9s.3-1.3.5-1.7c.3-1 .7-2.1 1.1-3.2.9-2.1 1.8-4.3 2.7-6.4 1.9-4.2 3.9-8.4 5.9-12.6 2.1-4.1 4.2-8.3 6.9-12.1-1.4 1.6-2.8 3.6-4.1 5.5M874.6 125.6c0 .4-.1.8-.6 1-.2.1-.6.1-.9-.2-.2-.2-.3-.6-.3-.8 0-.8.1-1.5 0-2l-.1-.3-.1-.1h.3c.3-.1 0 0-.1.3-.1.2-.1.3-.3.6l-.3.5c-.2.3-.4.6-.7 1-.1.1-.2.3-.5.5-.1.1-.3.2-.7.3s-.8-.1-1-.2c-.4-.3-.5-.6-.6-.8s-.2-.4-.2-.7c-.1-.5 0-1 0-1.3l.1-.3h.1l.3.2h-.1l-.4.1-.5.2c-.2 0-.4.2-.8 0l-.3-.3v-.5l.1-.6.1.1-.2-.1h.3v.1l.2.5.1.2.1.1-.1-.1.1-.2.4-.3.5-.4c.2-.1.4-.3.9-.2.3 0 .6.2.7.5l.2.5c.1.3.1.5.1.7 0 .4 0 .6.1.7l.1.3c-.1-.1-.3-.2-.5-.1l-.2.1.2-.2c.2-.2.3-.4.5-.7l.3-.4.2-.3.3-.6c.2-.2.4-.5.8-.7.5-.2.9-.1 1.3 0 .3.2.6.4.8.7l.2.4.1.4c0 .2.1.5.1.7 0 .9-.4 1.6-.6 2.1l-.1.2.1.1c-.1-.3.3-.4.5-.7M942.7 134l.2-.1-.2.1zm17.6-27.9c-1.5 1.3-2.8 2.7-3.9 4.3-1.2 1.6-2.2 3.2-3.2 4.8-2 3.3-3.7 6.8-5.4 10.3l-2.5 5.2c-.3.6-.5 1.2-.8 1.9-.1-.2-.2-.3-.4-.6l-.4-.4c-.2-.2-.6-.3-.8-.3-.6 0-.8.1-1.1.2-.8.4-1.1.8-1.4 1.2l-.9 1.2c-.3.4-.6.7-.6.8s-.4 0-.8-.2c-.3-.3-.7-.6-1-1l-.3.1c.1.5.3 1 .6 1.5.1.2.3.5.6.7.2.2.6.4 1.1.4s.9-.3 1.1-.4c.2-.2.5-.3.7-.5l1.1-.9.1-.1.3 1c.1.2.1.5.2.8s.2.5.5 1l.2.2.3.3c.1.1.4.2.7.3s.7.1 1-.1c.3-.1.5-.2.6-.4l.3-.3.2-.3.3-.5.2-.3c.2-.5.4-.9.6-1.4.4-.9.7-1.8 1-2.7.6-1.8 1.2-3.6 1.9-5.4 1.3-3.6 2.8-7.1 4.4-10.6 1.6-3.4 3.4-6.8 6-9.7l-.5-.1zM967.5 141.8c-.2 1-.4 2.1-.5 3-.1.5-.1 1 0 1.1v-.1l-.2-.2H967.1l.4.1c1.1.3 2.2.8 3.1 1.7.2.2.5.5.7.8s.4.8.3 1.4c-.1.5-.2.7-.3 1s-.2.5-.4.8c-.1.2-.2.5-.3.6l-.1.3-.2-.2.2.1.7.3c.5.2 1 .5 1.4.7.5.3.9.5 1.4 1l.2.3.1.2v.3c-.1.2-.2.4-.2.5-.2.3-.4.4-.5.6h-.1l.1.1c.2.1.4.3.7.5.2.2.5.4.5.8s-.2.7-.3.9-.3.4-.3.6.1.4.3.5l-.1.2c-.2-.1-.5-.4-.5-.7s.2-.6.3-.8c.3-.5.2-.7-.2-.9-.2-.1-.4-.2-.7-.3-.1 0-.3-.1-.5-.4s-.1-.6 0-.8c.2-.3.3-.5.4-.7l.1-.2v.1h-.1c-.3-.2-.8-.5-1.2-.7-.5-.2-.9-.4-1.4-.5l-.7-.2h-.2l-.3-.1c-.3-.1-.5-.5-.6-.8-.1-.6 0-.9.1-1.2s.2-.5.3-.8c.1-.2.2-.5.2-.7l.1-.5c0 .1-.2-.2-.5-.4-.6-.5-1.5-.9-2.3-1.2l-.3-.1-.4-.1c-.3-.1-.6-.3-.8-.6l-.2-.4-.1-.4c0-.9.2-1.4.4-1.9.5-1 1.1-1.9 1.8-2.7l.4.1zM842.4 110.7c-.2 1.1-.6 2.1-1.1 3-.3.5-.6 1-1.3 1.4l-.4.1-.5.1c-.4 0-.7-.1-1-.3l-.3-.3-.3-.2c-.7-.5-1.6-1-2.3-1.2-.4-.1-.7-.1-.6-.1l-.4.4c-.1.2-.3.4-.4.6s-.3.4-.5.7c-.2.2-.4.5-.9.8-.3.1-.7.1-1 0l-.3-.2-.1-.1-.6-.4c-.4-.3-.8-.6-1.3-.8-.4-.2-.9-.5-1.2-.6h-.1l.1-.1-.1.1c-.1.2-.2.4-.3.7-.1.1-.3.4-.6.4s-.5-.1-.6-.2c-.2-.1-.4-.3-.6-.4-.4-.2-.6-.1-.9.4-.1.2-.3.5-.5.7-.3.2-.6.2-.9 0l.1-.2c.2.1.5 0 .6-.1s.2-.4.3-.6.2-.5.5-.8c.4-.2.7-.1 1-.1.3.1.5.2.8.3h.1-.1c.1-.1.1-.4.2-.7.1-.2.1-.3.3-.5l.3-.2h.5c.7.1 1.1.3 1.6.6.5.2 1 .5 1.4.7l.7.4.2.1h-.3l.2-.3.3-.6c.1-.2.2-.5.4-.7.2-.3.3-.5.6-.8.4-.4.9-.5 1.3-.5s.7 0 1.1.1c1.3.3 2.3.8 3.2 1.6l.3.3.2.2.1.1-.3-.1h-.1c.2 0 .6-.3.9-.6.7-.7 1.4-1.4 2.1-2.2l.5.1zM781.2 213c.9-.4 1.3-1.5 1.6-2.4.3-1 .4-2 .5-3 .1-2 0-4.1 0-6.2l-.1-12.4c0-4.1 0-8.3.2-12.4.1-2.1.2-4.1.4-6.2s.4-4.1.9-6.3c.2-1.1.6-2 .9-3s.6-2 .8-2.9c.3-1 .5-2 .7-2.9.1-.5.1-.9.1-1.4v-1.6c0-.8.5-1.6.9-2 .4-.5.9-.8 1.4-1.2l.6-.4.1-.1.1-.2c.2-.3.4-.8.7-1.2.4-.9.9-1.8 1.3-2.8s1-1.9 1.7-2.9c.4-.5.7-.9 1.4-1.4.2-.1.4-.2.7-.3h.2-.2l-.2.1.1-.3.3-.7.2-.5.2-.3.3-.3c.1-.1.4-.3.7-.3h.6l.4.2.6.3s.1 0-.3.1l-.3.2-.2.5c0-.2 0-.5-.1-.7-.1-.5-.1-1.1-.1-1.7 0-.3 0-.7.3-1.2.1-.2.5-.6.9-.6h.5l.4.1c.6.2 1.1.6 1.5.9.2.1.4.3.5.3H802.1l-.1.1-.1.1c0-.1 0-.4.1-.7v-.7c0-.9-.5-1.7-1-2.6-1.1-1.7-2.5-3.2-3.9-4.7l.1-.2c1.6 1.3 3.2 2.6 4.6 4.3.7.8 1.3 1.8 1.5 3 0 .3.1.6.1.9v.9c0 .2 0 .4-.3.8l-.6.3c-.2 0-.3 0-.5-.1l-.8-.4c-.4-.3-.8-.5-1.2-.6h.1l.2-.1.1-.1v.3c0 .4.1.9.2 1.4 0 .3.1.5.1.8v.4c0 .2-.1.5-.3.6l-.5.3c-.3.1-.6.1-.7.1l-.3-.1c-.3-.1-.6-.2-.8-.3l-.3-.1h.2l.4-.1c.2-.2 0 0 0 .2l-.2.7c-.1.3-.2.6-.6 1l-.5.3-.4.1c-.2.1-.5.5-.8.9-1.1 1.5-1.8 3.4-2.7 5.3-.2.5-.5 1-.8 1.5l-.3.4-.4.4c-.3.2-.5.3-.7.5-.8.5-1.4 1.1-1.4 1.5v1.6c0 .6-.1 1.1-.2 1.7-.2 1.1-.5 2.1-.8 3.1s-.6 2-1 3c-.3 1-.7 2-1 2.9-.5 1.9-.8 3.9-1 5.9s-.4 4.1-.5 6.1c-.3 4.1-.4 8.2-.5 12.3l-.3 12.4c-.1 2.1-.1 4.1-.2 6.2-.1 1-.3 2.1-.6 3.1-.4 1-.8 2-1.9 2.5h-.4zM967.6 245.8c-.7-.7-.9-1.7-.9-2.5 0-.9.1-1.8.3-2.7.4-1.8 1-3.4 1.5-5.1l3.3-10.1c2.2-6.7 4.4-13.5 6.1-20.3.2-.9.4-1.7.6-2.6s.3-1.7.5-2.6.2-1.7.2-2.5v-2.7c.1-1.8.1-3.6.4-5.4.1-.9.4-1.9.8-2.8l.1-.3.1-.2v-.4c0-.2-.1-.5-.2-.8-.2-.3-.4-.6-.6-1-.1-.2-.3-.4-.4-.6s-.3-.7-.4-.9c-.2-1-.3-1.9-.3-2.8-.1-1.8-.1-3.5-.5-5.1-.1-.4-.2-.8-.4-1l-.1-.1-.4-.3c-.3-.5-.3-.8-.3-1v-1.3c0-.2-.1-.3.1-.1H976c-.1 0-.3 0-.5-.1l-.3-.3v-.5c.2-.5.5-.8.7-1.2s.4-.8.6-1.1l.1-.5-.4-.2v-.2c.2 0 .6 0 .7.3s.1.5 0 .8c-.1.5-.3.9-.4 1.3-.2.4-.4.9-.5 1.2v-.1l-.1-.1h.2l.6-.1h.4c.1 0 .2-.1.6.1.3.1.4.4.5.6l.1.5c.1.5 0 1 .1 1.3l.1.2-.1-.1.3.2.4.4c.4.5.5.9.7 1.4.7 1.8.8 3.7 1 5.4.1.9.2 1.8.4 2.5l.1.3.3.5c.3.4.6.8.8 1.2.2.5.5 1 .5 1.7 0 .3 0 .7-.1 1l-.1.2-.1.2-.1.3c-.3.7-.5 1.5-.6 2.3-.2 1.7-.4 3.4-.5 5.2l-.1 2.6c-.1.9-.1 1.9-.4 2.8-.2.9-.3 1.8-.6 2.7-.2.9-.4 1.7-.7 2.6-1.9 6.9-4.4 13.5-6.8 20.2L969 236c-.6 1.7-1.3 3.3-1.7 5-.2.8-.4 1.7-.4 2.6 0 .8.1 1.8.7 2.4v-.2z" class="st80"/></g><path d="M635 4.3c-35-20.8-80.8-20.3-122.7 7.2S437 123.7 459.6 180.3s-26.1 56.6-26.1 56.6 16.3 12.9 29.7 2.9l27.7-42.8 1.4-70.6 42.4-73.9L635.3 6.3" style="fill:#281d0a"/><path d="m576.7 476.1 13.8-100.7-1.5-.3-13.8 100.8 1.5.2z" style="fill:#fef3f7"/><path d="M552.8 347.8c-.1.8-.9 1.3-1.7 1.2s-1.3-.9-1.2-1.7.9-1.3 1.7-1.2 1.3.9 1.2 1.7M554.9 350c-.1.4-.5.8-1 .7-.4-.1-.7-.5-.7-1 .1-.4.5-.8 1-.7.4.1.7.5.7 1M540 333.3c-.1.5-.6.9-1.1.8s-.9-.6-.8-1.1.6-.9 1.1-.8c.6.1.9.6.8 1.1" class="st3"/><path d="m642.2 39.8-5.1 54.1s-12.4-22.3-39-11.5c-26.7 10.8-22.1 46.9-76 45.3 0 0-11.8 49.8-42.6 49-30.8-.7-38.1-16.7-38.1-16.7s11.1 12 30.7-3.1c19.7-15.1 12.4-93 54.7-131.3s112.8-6.3 115.4 14.2" style="fill:#3a2c1c"/><path d="M637.1 93.9c-.5-7.8-4.7-14.8-10.5-19.4-2.9-2.4-6.2-4.2-9.6-5.7-3.5-1.5-7.1-2.6-10.7-3.4-7.4-1.6-15-2.4-22.3-1.4-3.7.5-7.3 1.3-10.7 2.7s-6.6 3.2-9.4 5.5c-5.8 4.5-9.9 10.8-12.8 17.7-.7 1.7-1.3 3.5-1.9 5.3-.5 1.7-1 3.8-1.7 5.6-1.3 3.8-3.1 7.4-5.4 10.8-4.5 6.7-11.4 12-19.3 13.7-3.9.8-8 .9-11.9 0-1.9-.5-3.8-1.1-5.6-1.9-1.8-.9-3.4-1.9-5-3 3.4 1.9 7.1 3.2 10.8 3.7 3.8.5 7.6.2 11.1-.9 7.2-2.1 13.1-7.3 17-13.5 2-3.1 3.5-6.6 4.6-10.1.6-1.8 1-3.5 1.5-5.5.5-1.9 1.1-3.8 1.9-5.7 2.9-7.5 7.5-14.5 13.9-19.7 3.2-2.6 6.8-4.6 10.6-6.1s7.8-2.4 11.8-2.8c8.1-.8 16.1.2 23.7 2.3 7.6 2 15.2 5.4 21 10.9 5.7 5.2 9.5 13.1 8.9 20.9" style="fill:#745b45"/><path d="M986.9 186.6C972.7 267.7 932.3 329 858.4 316c-74-12.9-89.6-84.8-75.4-165.9s84.9-79.7 118.6-73.8c33.7 6 99.5 29.2 85.3 110.3" class="st65"/><path d="M851.9 216.6c-1.9 11.1-12.7 18.6-23.9 16.6-11.3-2-18.8-12.6-16.9-23.7s12.7-18.6 23.9-16.6c11.3 1.9 18.8 12.5 16.9 23.7" class="st66"/><path d="M846.6 215.6c-1.4 7.8-8.8 13-16.5 11.6-7.8-1.4-13-8.8-11.6-16.6s8.8-13 16.5-11.6c7.8 1.4 13 8.9 11.6 16.6" class="st67"/><path d="M827.9 204.8c-.4 2.2-2.5 3.8-4.8 3.4s-3.8-2.6-3.4-4.8 2.5-3.7 4.8-3.4c2.3.5 3.8 2.6 3.4 4.8" class="st3"/><path d="M823 257.6c12.5 10.9 26.5 18.7 41.7 21.2 15.2 2.7 30.9-.7 46.7-5.7-6.4 5.4-14 9.4-22.2 11.8-8.2 2.5-17.1 3.1-25.8 1.7-8.6-1.5-16.9-4.9-23.8-10s-12.9-11.5-16.6-19" class="st68"/><path d="M901.8 225.3c-1.9 11.1 5.6 21.8 16.9 23.7 11.3 2 22-5.5 23.9-16.6s-5.6-21.8-16.9-23.7c-11.2-2-22 5.4-23.9 16.6" class="st66"/><path d="M907 226.2c-1.4 7.8 3.9 15.2 11.6 16.6 7.8 1.4 15.2-3.9 16.5-11.6 1.4-7.8-3.8-15.2-11.6-16.5-7.7-1.5-15.1 3.7-16.5 11.5" class="st67"/><path d="M909.1 219c-.4 2.2 1.1 4.4 3.4 4.8s4.4-1.1 4.8-3.4c.4-2.2-1.1-4.4-3.4-4.8-2.3-.3-4.4 1.2-4.8 3.4" class="st3"/><path d="M822.5 254.1c5.9-1.5 16.3 12.1 42.8 16.7s40.9-4.6 45.9-1.2 4.8 12.8-10.4 24.4c-12.8 9.7-32.8 6.5-40.5 5.1-7.7-1.3-27.6-5.1-36.3-18.6-10.3-15.9-7.4-24.9-1.5-26.4m35.9 61.9c74 12.9 114.3-48.3 128.5-129.4.5-2.9.9-5.7 1.2-8.5l-12.4-2.2c-4.1 58.1-30.3 92-40.5 95.3s-10.6-2.9-18.4-8.8c-7.5-5.8-38.9-11.8-47.7-13.4-8.8-1.5-40.4-6.5-49.4-3.6-9.3 2.9-11.8 8.6-20.3 2S777.8 200 793.7 144l-9.2-1.6c-.6 2.4-1.1 5-1.5 7.6-14.3 81.3 1.4 153.1 75.4 166" class="st69"/><path d="m811.3 337.8-22.5 9-1.4 20.5 27.9-12-4-17.5z" class="st71"/><path d="M992.3 178.9c1.4-9.9 3-20 2.1-29.5-.5-5.9-2.7-11.4-4.4-17-2.6-8.7-5.8-17.9-11.7-25.4-3.1-3.9-7.6-7.7-11.8-11.2-5.5-4.6-11-11-18.6-14.8-6.1-3-13.8-4.7-21.4-7.1-5.3-2.1-9.2-4.7-17.6-6.2-1.2-.2-8.9-.3-10.1-.5-8.4-1.5-15.3-2-21-1.8-8.5-.3-16.5-3.1-23.6-2.2-10.7 1.4-20 8.2-28.1 12-5.9 2.8-14.4 6.7-19.1 10.6-10.4 8.7-16.8 20-22 32.7-3 7.2-3 15.4-4.7 23.4-10.2 48.3-1.2 78.4-1.2 78.4 11.3-5.6 6.2-32.1 7.6-48.7 1.5-16.5 24.5-44.2 39.2-47.2 12.2-2.5 40.3 14.1 63.5 18.1 23.2 4.1 55.2-2 65.9 4.5 12.8 7.8 25.1 41.7 20.9 57.7s-18.1 39.2-9.3 48.4c0 0 18.6-25.3 25.4-74.2" class="st74"/><path d="m826.1 336.9-.3.2-.4.1-.3-.2c-.2-.2-.1-.6.1-.8.4-.3.9-.6 1.3-.9m58.1 14.5-.4-.3c-.1-.3-.3-.7-.4-1-.2-.3-.3-.6-.5-.9s-.1-.6.2-.8.6-.1.8.2.4.6.5 1c.2.3.3.7.5 1.1.1.3 0 .6-.3.7h-.4zm-62.5-9-.2-.1c-.3-.2-.3-.5-.2-.8.4-.7.8-1.3 1.3-1.8.2-.2.5-.3.8-.1.2.2.3.5.1.8-.4.5-.9 1.1-1.2 1.7-.1.3-.3.3-.6.3m63.4 13.8c-.3 0-.4-.3-.5-.5 0-.7-.1-1.4-.2-2.1-.1-.3.1-.6.4-.6s.6.1.6.4c.1.7.2 1.5.2 2.3 0 .3-.2.6-.5.5zm-65.2-9.2c-.3-.1-.5-.4-.4-.7.2-.7.4-1.5.7-2.2.1-.3.4-.4.7-.3s.4.4.3.7c-.2.7-.5 1.3-.6 2-.1.3-.4.5-.7.5m64.7 14.1c-.3-.1-.5-.4-.4-.7.1-.5.2-.9.3-1.4 0-.2.1-.5.1-.7 0-.3.3-.5.6-.5.3.1.5.3.5.6 0 .2-.1.5-.1.7l-.3 1.5c-.2.3-.4.5-.7.5m-65.1-9.3c-.2 0-.4-.3-.5-.5v-2.3c0-.3.3-.5.6-.5s.5.3.5.6c-.1.7-.1 1.4 0 2.1 0 .3-.2.6-.6.6zm63.3 13.8c-.4-.1-.5-.5-.3-.7l.6-1.2c.1-.2.2-.5.3-.7.1-.3.4-.4.7-.3s.4.4.3.7-.2.5-.3.7c-.2.4-.4.8-.6 1.3-.3.1-.5.3-.7.2m-62.8-8.9c-.2 0-.4-.2-.4-.5-.1-.8-.2-1.5-.2-2.2 0-.3.2-.6.5-.6s.6.2.6.5c.1.7.1 1.4.2 2.2 0 .3-.2.6-.5.6h-.2zm60.5 13.3-.2-.1c-.3-.1-.4-.5-.2-.7.3-.6.7-1.3 1-1.9.1-.3.5-.4.7-.2.3.1.4.5.2.7-.3.7-.7 1.3-1 1.9-.1.2-.3.3-.5.3m-59.8-8.4c-.2 0-.4-.2-.4-.4-.1-.7-.2-1.5-.4-2.2 0-.3.2-.6.5-.6s.6.2.6.5c.1.7.2 1.4.4 2.1.1.3-.1.6-.4.6h-.3zm57.3 12.6-.2-.1c-.3-.2-.3-.5-.2-.8.4-.6.7-1.2 1.1-1.9.2-.3.5-.4.7-.2.3.2.3.5.2.7-.4.6-.8 1.3-1.1 1.9-.1.4-.3.5-.5.4m-56.3-7.8c-.2 0-.4-.2-.4-.4-.2-.7-.3-1.4-.5-2.2-.1-.3.1-.6.4-.6.3-.1.6.1.6.4.1.7.3 1.4.5 2.1.1.3-.1.6-.4.7h-.2zm53.6 11.9-.2-.1c-.2-.2-.3-.5-.1-.8l1.2-1.8c.2-.3.5-.3.8-.2.3.2.3.5.2.8l-1.2 1.8-.7.3zm-52.4-7.1-.4-.4-.6-2.1c-.1-.3.1-.6.4-.7s.6.1.7.4l.6 2.1c.1.3-.1.6-.4.7h-.3zm1.6 4.6-.4-.3c-.3-.7-.5-1.4-.8-2.1-.1-.3.1-.6.3-.7.3-.1.6.1.7.3.2.7.5 1.4.7 2 .1.3 0 .6-.3.7l-.2.1z" class="st76"/><path d="M807.2 131.5c1.4-.9-.5-6.6 1.5-7.2 2-.7 4.4 2 6.2 1.6s1.1-6.6 2.5-7.1 1.4.3 3 .8c1.5.5 1.2-4.1 2.3-4.1 1.2 0 1.2 3.1 3 3.1s1.2-7.1 2.8-7.4 1.6 3.9 3.1 4.3 2.2-5 3.1-5c.9.1-.4 7.9 1.7 8.4s4.6-4.8 6.1-4.5 2.1 6.9 3.8 7.2 3.7-4.2 4.9-3.8-.5 4.5.7 5.1 1.4-.5 2.1-.8c.3 1.2.3 3 1.7 3.4 1.5.4 4.9-1.2 6.7-.6 1.7.5 1.7 5.7 3.6 6.3 2 .6 2.6-2.3 3.3-2.1s-.2 3 .9 3.2 1.8-2.3 2.8-2.1 2.9 5.2 4.6 5.4c1.7.1 4.2-6.2 5.9-6s2.8 7.2 4.8 7.5c1.9.3 2.3-4.2 3.3-4.1s-.1 4 .8 4.1c.9.2 1.4-1.9 2.5-1.7s.8 4.2 2.5 4.6c1.8.4 5.3-6.1 7.3-5.8 1.9.3 2.1 4.4 4.3 4.9s3.9-2.6 5.2-2.4.6 2.5 2.3 2.8 3.2-3.9 5.6-3.7 2.5 4.3 4.9 4.6 3.5-3.4 4.9-3.3c1.3.2 1.2-3 2.3-2.8s2.2 4 4 4.3c1.8.2 4-2.7 4.9-2.4.9.2.8 2.2 1.9 2.4s3.9-2.7 5-2.5.4 4.4 1.3 4.6 1.2-2.4 2.3-2c1.1.3 3.4-.1 4.9.1s.3 3 2.3 3.3c2 .4 3-2.6 4.3-2.1s-2.7 5.4-2 6.5c.6 1.1 3.9 2.1 5.6 3.4.8.6-.5.7-.1 1.8s3.2 3.4 3.7 4.1c.5.8 4.4 16.3 5.6 16.6s2.8-2.4 3.2-3.4c.3-1 2.2-5.3 2.1-6.2 0-.9-3-.1-3.5-.9-.4-.8 4.7-3 4.3-4.2-.4-1.1-3.2-.6-4.9-1-.4-.1-.9-.2-1.3-.5-1.3-1.2 2.6-2.6 2.5-3.6s-2.6-.5-3-1.3c-.3-.8 2-2.1 1.3-3.1-.7-.9-6.2 2.2-7 1.3s2.7-7.1 2.4-8.3-3.1.7-3.9.4c-.7-.3-.6-4.7-1-5-.4-.4-.9 2.5-2 1.3s1.6-6.4 1.3-7-.6 1.2-1 .6 1-1.5.4-1.9c-.5-.5-1.4 3.3-1.9 3-.6-.3.6-3.6-.1-4.1-.7-.4-1.4 4.8-2.7 4.6-1.4-.2 2-5.3.7-6.2s-4.7 5.1-5.4 4.6c-.7-.6 3.8-14.1 3.8-14.1s-8 16.1-8.9 16 1-6.4-.8-6.8c-1.8-.3-2.9 5.3-3.8 5.3s.4-2.9-.6-3.1-2.3 2.5-3 2.2 2.1-5.7.9-6.3-3.5 4.5-4.9 4.1 2.1-17.7 2.1-17.7-5.8 14.2-7.3 14.5.1-2.6-1.6-2.9-1.6 4.1-2.8 4.1-1.4-7.8-2.4-7.9-2.9 5.9-3.9 5.9.1-3.2-1-3.4-1.7 2.5-2.5 2.4c-.9 0-2.7 1.1-3.5.9-.8-.1-.2-2.3-1.3-2.6-1.1-.4-.2 4.7-3.2 4.5-3.1-.2 3.2-25 3.2-25s-9.4 18.7-11.5 18.4-1.9-4.2-2.9-6.3c-.2 2.3.7 6.8-1.6 6.7s-3.1-7.9-4.4-12c-1 2-1.2 6.5-3 6-1.8-.6-.1-8.2-1.4-8.4-1.3-.1-2.4 4.7-3.4 4.8s-.1-2.6-1-2.9-2.2 5.7-3.4 5.7.7-9.2 0-13.8c-3.3 5.4-6 17.9-7.8 17.4-1.8-.6-1.8-9.9-2.6-10.3-.8-.5-2 5.2-3.4 5.2-1.4-.1 2-9.1.4-9.7-1.6-.5-3.9 6.6-5.8 6.4-1.9-.1-2.6-14.3-3.9-21.4-1.7 6.9-1.7 20.4-2.8 20.2s-.6-2.2-.9-3.3c-1.1 1.1-1.9 3.6-2.9 3.7-.9.1.6-4.6.9-7-1.9 1.9-2.7 7-4 7-1.4-.1-3.8-10.5-4.2-15.3-.8 4.6-.5 13.1-2.4 12.9-1.8-.2-1.8-4.2-2.7-6.3-.4 1.4.9 4.3-1.2 4.2s-4.4-4.5-6.2-7c.4 1.8 1 5.2 0 5.6s-2.2-.1-2.6-1c-.4 1.3.3 3.5-1.1 4-1.4.4-2.7-3.5-4-5.2-.8 2.2.3 6.4-.9 7-1.2.5-2 .8-2.7.2-.8 1.8-1.1 5.1-1.8 5.7s-4.2-5.7-5.9-8.7c-.8 2 .8 6-.7 6.4s-1.4 1.3-2.5.7c-.3 1.2 1.5 2.7.1 3.7s-2.1.5-3.7-1.5c0 1 1.2 2.5.1 2.9-1.2.4-3.3-3-5-4.6.4.9.8 1.9.7 2.8-.1 1-1 1.9-2 1.7-.1 3.2 2 9.1 1.3 9.6s-1.2-1.2-1.9-1.3c-.8-.1.1 2.8-.4 3.7-.5.9-1.8.8-1.6 1.9 1.1 4.6-3.4 9.3-3.2 10.8s6.4-6 6.9-9.8c1.1.4 1.9 1.3 3.3.4" class="st77"/><path d="M785.2 210.7c.2-.5.3-1.1.4-1.6.3-2 .2-3.9.1-5.6s-.3-3.4-.3-4.8c.1-1.7.5-3.7.8-5.9.4-3.5.2-7 .1-10.3-.2-3.3-.3-6.5.2-9.5 0-.3.1-.6.1-.9.3-1.7.7-3.4 1.1-5.3.3-1.7.5-3.4.4-5.2-.1-.9-.1-1.5-.1-1.7v-.1l.6-.9c.9-1.2 1.5-2.7 1.8-4.1.2-1.2.2-2.4 0-3.6l-2.2.5.1 2.3h2.8l.6-1.4c.1-.4.8-1.1 1.8-2 .5-.4 1-1 1.5-1.6.5-.7 1-1.5 1.2-2.5l.1-.4V145.2h-.1.1-.1.1l-.9-.1.8.3v-.1l-.9-.1.8.3-1.2-.4.8 1c.2-.2.3-.3.4-.6l-1.2-.4.8 1-1-1.3-.3 1.6c.6.1 1.1-.1 1.3-.3l-1-1.3-.3 1.6.3-1.7-.6 1.6.3.1.3-1.7-.6 1.6.8-2.1.7-2.2-.5 1.5 1.5-.6c-.1-.3-.5-.8-1-.9l-.5 1.5 1.5-.6-1.1.5 1.2.2c0-.2 0-.4-.1-.7l-1.1.5 1.2.2-1.2-.2.8.8c.2-.2.3-.4.3-.6l-1.2-.2.8.8.1-.1-.1.1-.4-.3.3.4.1-.1-.4-.3.3.4.2-.1c.2-.1.4-.1.7-.3.5-.2.9-.4 1.4-.9.5-.4 1-1.1 1.2-2v-.4l-4.6-.2 1.2.1-1.1-.2v.1l1.2.1-1.1-.2 1 .2-.7-.8s-.2.2-.3.6l1 .2-.7-.8.2.2-.1-.2.2.2-.1-.2h-.1c-.2.1-.5.2-.9.3-.4.2-1 .5-1.5 1-.5.6-.8 1.2-.9 1.8s-.1 1.2.2 1.8c.3.7.9 1.4 1.8 1.7l1.6-4.3-.5-.2c-1-.2-1.8.2-2.3.6s-.9.9-1.1 1.6l2.2.7-2.1-.8c-.1.2-.1.5-.2.6-.1.7-.1 1.2-.1 1.2l2.3.2-2.3-.3v.1c0 .1-.1.3-.3.6-.3.4-.9 1-1.7 1.7-.7.7-1.7 1.6-2.2 3l2.1.8-.1-2.3h-1.3l-2.7.1.6 2.7c.1.6.1 1.3 0 1.9-.1.8-.5 1.6-.9 2.2-.2.3-.7.8-1.1 1.7-.2.4-.3.9-.4 1.3-.2 1.2 0 2.2 0 2.8.1 1.3 0 2.7-.3 4.1-.3 1.7-.7 3.4-1.1 5.3-.1.3-.1.7-.2 1-.5 3.6-.3 7-.2 10.3.2 3.3.3 6.5 0 9.5-.2 1.9-.7 3.9-.8 6.2-.1 1.9.1 3.7.3 5.4.1 1.6.2 3.1 0 4.4-.1.4-.1.7-.3 1l4 1.3zM970.3 242.4c0-.3.1-.7.1-1 .2-1.3.8-2.7 1.5-4.2s1.5-3.1 2.1-4.9c.7-2.2.9-4.3 1.4-6.1.7-3 1.9-5.9 3.2-9s2.6-6.3 3.3-9.8c.1-.3.1-.7.2-1 .3-1.9.5-3.7.8-5.4.3-1.5.6-2.8 1.1-4 .3-.6.7-1.4 1-2.7.1-.4.1-.8.1-1.3-.1-1-.4-1.6-.5-2-.2-.7-.3-1.6-.1-2.4.1-.6.3-1.2.7-1.8l1.4-2.3-2.6-1c-.4-.2-.8-.3-1.2-.5l-.8 2.1 2.3-.1c-.1-2-1-3.4-1.5-4.4-.3-.5-.5-1-.6-1.3s-.1-.5-.1-.6h-.2l.2.1h-.2l.2.1c0-.1.2-.5.3-1.2l.1-.6c0-.7-.2-1.3-.5-1.8-.3-.6-1-1.2-2-1.4-.2 0-.4-.1-.6 0v4.6c.9 0 1.8-.4 2.2-1 .5-.5.7-1.1.8-1.7s.1-1.3-.2-2v-.1.1c-.3-.7-.8-1.2-1.1-1.5s-.6-.5-.7-.6l-.1-.1-.4.3.5-.1-.1-.1-.4.3.5-.1-1.1.4 1.2.2v-.6l-1.1.4 1.2.2-1.5-.3 1.4.5.1-.3-1.5-.3 1.4.5-4.3-1.6c-.1.2-.1.4-.1.5-.2.9.1 1.7.4 2.3s.7 1 1.1 1.3c.3.3.6.5.7.6l.1.1.4-.3-.4.2.1.1.4-.3-.4.2 1-.5-1.1-.2c0 .2 0 .4.1.7l1-.5-1.1-.2 1.2.2-.9-.8c-.2.3-.3.5-.3.6l1.2.2-.9-.8 1.2 1.1v-1.6c-.5 0-1 .3-1.2.5l1.2 1.1v-1.6 2.3l.1 2.3-.1-1.8-.3 1.7h.4l-.1-1.8-.3 1.7.3-1.6-1.4.9c.1.2.5.6 1.1.7l.3-1.6-1.4.9 1.1-.7h-1.3c0 .3.1.5.2.7l1.1-.7h-1.3 2.3l-2.3-.1h.5l-.5-.1v.1h.5l-.5-.1h.1-.1.1-.1s-.1.3-.3.8l2.2.6-2.2-.6-.1.4c-.2 1 0 2 .2 2.8.4 1.2.9 2.1 1.3 2.8.4.8.6 1.3.6 1.6v1.5l1.4.5c.4.2.8.3 1.2.5l.8-2.1-1.9-1.2c-.6 1.1-1.1 2.2-1.3 3.4-.3 1.5-.2 3 .3 4.5.2.7.3 1 .3 1v.1c0 .2-.3.8-.7 1.6-.8 1.7-1.2 3.4-1.4 5.1-.3 1.9-.5 3.7-.8 5.4-.1.3-.1.6-.2.9-.6 3-1.8 5.9-3.1 9s-2.6 6.2-3.4 9.7c-.5 2.1-.7 4.1-1.3 5.8-.4 1.4-1.2 2.8-1.9 4.4s-1.5 3.3-1.8 5.3c-.1.5-.2 1.1-.2 1.7l4.3.2z" class="st78"/><path d="M864.2 120.5c.2-4.3.6-8.6 1-12.9s1.1-8.5 1.4-12.8c.7-8.5.8-17.2-.5-25.7h.2c1 4.2 1.5 8.5 1.9 12.8.3 4.3.3 8.7.2 13-.2 4.3-.3 8.7-1 12.9-.7 4.3-1.6 8.5-3 12.6l-.2.1zM900.6 129.1c-.2-2.5 0-4.9.3-7.4.3-2.4 1.1-4.8 1.8-7.1s1.4-4.7 2.1-7c.8-2.3 1.6-4.6 2.5-6.9l.2.1c-.6 2.4-1.1 4.7-1.6 7.1s-1 4.7-1.5 7.1-.7 4.8-1.3 7.1-1.3 4.7-2.2 7h-.3zM922 111.8c.4-2.5 1.2-4.8 2.2-7 .9-2.3 2.3-4.3 3.5-6.4s2.5-4.2 3.8-6.2 2.7-4 4.2-6l.2.1c-1.2 2.1-2.3 4.3-3.4 6.4s-2.2 4.3-3.2 6.5c-1.1 2.2-1.9 4.5-3.1 6.6s-2.4 4.2-4 6.2l-.2-.2z" class="st79"/><path d="M854 119.4zm4.6-17.4c.2-4.4.3-8.8.3-13.2-.1-4.4-.2-8.7-.5-13.1h-.3c-.3 4.4-.5 8.7-.8 13.1-.3 4.3-.7 8.7-1.2 13-.3 2.1-.6 4.3-1 6.4l-1.1 6.3c-.2.9-.3 1.8-.6 2.6-.1-.2-.1-.5-.3-.8l-.2-.3-.1-.1-.1-.2c-.1-.1-.2-.2-.5-.2h-.3l-.2.1-.2.2-.2.3c-.2.3-.3.6-.4.9-.2.6-.3 1.1-.4 1.7l.3.1c.2-.4.5-.7.7-1.1v.6c0 .6 0 1.1.2 1.9l.1.3c.1.1.1.2.3.4l.2.2.5.2c.2.1.3.1.6.1l.4-.1.2-.1c.3-.2.3-.2.4-.3l.2-.3.3-.5c.4-.6.6-1.1.9-1.7.5-1.1.8-2.2 1.1-3.3 1.4-4.2 1.4-8.7 1.7-13.1M896.1 121.9l-1.6 4.8c-.2.6-.4 1.2-.7 1.8l-.5-.5c-.2-.2-.5-.3-.7-.3-.2-.1-.3-.1-.5-.1H891.5c-.6.1-1 .3-1.3.5l-.3.2c.1-.7.2-1.4.4-2.1.7-3.3.7-13.1.7-13.1-.7 2.4-2.9 7.1-3.8 9.4-.4 1.2-.8 2.3-1.3 3.5l-.2.5c-.2-.3-.4-.7-.8-1.1-.2-.2-.7-.6-1.4-.7-.4 0-.7.1-1 .2-.2.1-.4.2-.6.4-.4.3-.5.6-.7.8.1-.6.2-1.3.3-2l1.3-7.3c.4-2.5.8-4.9 1.1-7.4.6-5 1.2-10 .8-15-.1 2.5-.5 4.9-1 7.4-.4 2.4-1 4.9-1.5 7.3-1.1 4.9-2.3 9.6-3.4 14.5-.3 1.2-.6 2.5-.5 4.1 0 .4.1.8.2 1.3.1.2.2.5.4.8s.6.6 1.1.8 1.1 0 1.4-.1c.4-.2.6-.4.9-.6.2-.2.3-.4.5-.6l.2-.3.1.6c.1.3.1.6.4 1.2.1.2.2.3.4.6.1.1.3.3.6.4s.7.2 1 .1c.6-.1.9-.4 1-.5l.2-.2v-.1l.1.3.2.3.3.3.3.2c.2.1.5.2.9.3.4 0 .7-.1 1-.2.5-.3.8-.5 1-.8.4-.5.6-.8.8-1.1l.2-.3.5.5c.2.2.5.4.7.5h.1l.3.1c.3.1.6.1.9 0 .5-.2.6-.4.8-.6.2-.3.4-.6.5-.8.4-.9.6-1.8.8-2.6.4-1.7.7-3.4 1.1-5 .7-3.3 1.4-6.6 2.6-9.9-1.4 3.1-2.6 6.3-3.7 9.6M937.9 100.9c-1.3 1.9-2.6 3.9-3.8 5.9-2.4 4-4.7 8.1-6.8 12.3-1.1 2.1-2.1 4.2-3.1 6.4-.5 1.1-1 2.1-1.4 3.4-.2.6-.3 1.1-.5 1.5 0-.2-.1-.4-.2-.7s-.3-.6-.7-1c-.5-.4-1.3-.5-1.7-.4-.8.2-1.2.6-1.5.8-.2.2-.4.4-.6.5v-.1l.5-6.1-3.4 5c-.5.7-1.1 1.5-1.6 2.1-.3.3-.5.6-.8.8-.1-.3-.1-.6-.2-.9-.1-.9-.2-1.8-.2-2.7 0-1.9.2-3.7.5-5.6s.7-3.8 1.1-5.7c-1 1.7-1.8 3.5-2.4 5.4-.7 1.9-1.1 3.8-1.4 5.8-.1 1-.2 2-.1 3.1 0 .5.1 1.1.2 1.7.1.3.2.6.4 1 .1.2.2.4.4.6s.5.5 1 .6c.2.1.5 0 .7 0l.4-.1c.2-.1.4-.1.5-.2.3-.2.6-.3.8-.5.3-.2.5-.4.7-.6l.2.2c.2.2.4.5.8.6.3.1.8.2 1 .1.6-.1.8-.3 1.1-.4.2-.1.4-.3.5-.4.3-.3.5-.5.8-.7l.3-.3c0 .3.1.5.2 1 .2.5.5 1.2 1.4 1.6.5.2 1 .1 1.4 0s.7-.3.9-.5c.4-.4.6-.7.8-1.1.4-.7.6-1.3.8-1.9s.3-1.3.5-1.7c.3-1 .7-2.1 1.1-3.2.9-2.1 1.8-4.3 2.7-6.4 1.9-4.2 3.9-8.4 5.9-12.6 2.1-4.1 4.2-8.3 6.9-12.1-1.4 1.6-2.8 3.6-4.1 5.5M874.6 125.6c0 .4-.1.8-.6 1-.2.1-.6.1-.9-.2-.2-.2-.3-.6-.3-.8 0-.8.1-1.5 0-2l-.1-.3-.1-.1h.3c.3-.1 0 0-.1.3-.1.2-.1.3-.3.6l-.3.5c-.2.3-.4.6-.7 1-.1.1-.2.3-.5.5-.1.1-.3.2-.7.3s-.8-.1-1-.2c-.4-.3-.5-.6-.6-.8s-.2-.4-.2-.7c-.1-.5 0-1 0-1.3l.1-.3h.1l.3.2h-.1l-.4.1-.5.2c-.2 0-.4.2-.8 0l-.3-.3v-.5l.1-.6.1.1-.2-.1h.3v.1l.2.5.1.2.1.1-.1-.1.1-.2.4-.3.5-.4c.2-.1.4-.3.9-.2.3 0 .6.2.7.5l.2.5c.1.3.1.5.1.7 0 .4 0 .6.1.7l.1.3c-.1-.1-.3-.2-.5-.1l-.2.1.2-.2c.2-.2.3-.4.5-.7l.3-.4.2-.3.3-.6c.2-.2.4-.5.8-.7.5-.2.9-.1 1.3 0 .3.2.6.4.8.7l.2.4.1.4c0 .2.1.5.1.7 0 .9-.4 1.6-.6 2.1l-.1.2.1.1c-.1-.3.3-.4.5-.7M942.7 134l.2-.1-.2.1zm17.6-27.9c-1.5 1.3-2.8 2.7-3.9 4.3-1.2 1.6-2.2 3.2-3.2 4.8-2 3.3-3.7 6.8-5.4 10.3l-2.5 5.2c-.3.6-.5 1.2-.8 1.9-.1-.2-.2-.3-.4-.6l-.4-.4c-.2-.2-.6-.3-.8-.3-.6 0-.8.1-1.1.2-.8.4-1.1.8-1.4 1.2l-.9 1.2c-.3.4-.6.7-.6.8s-.4 0-.8-.2c-.3-.3-.7-.6-1-1l-.3.1c.1.5.3 1 .6 1.5.1.2.3.5.6.7.2.2.6.4 1.1.4s.9-.3 1.1-.4c.2-.2.5-.3.7-.5l1.1-.9.1-.1.3 1c.1.2.1.5.2.8s.2.5.5 1l.2.2.3.3c.1.1.4.2.7.3s.7.1 1-.1c.3-.1.5-.2.6-.4l.3-.3.2-.3.3-.5.2-.3c.2-.5.4-.9.6-1.4.4-.9.7-1.8 1-2.7.6-1.8 1.2-3.6 1.9-5.4 1.3-3.6 2.8-7.1 4.4-10.6 1.6-3.4 3.4-6.8 6-9.7l-.5-.1zM967.5 141.8c-.2 1-.4 2.1-.5 3-.1.5-.1 1 0 1.1v-.1l-.2-.2H967.1l.4.1c1.1.3 2.2.8 3.1 1.7.2.2.5.5.7.8s.4.8.3 1.4c-.1.5-.2.7-.3 1s-.2.5-.4.8c-.1.2-.2.5-.3.6l-.1.3-.2-.2.2.1.7.3c.5.2 1 .5 1.4.7.5.3.9.5 1.4 1l.2.3.1.2v.3c-.1.2-.2.4-.2.5-.2.3-.4.4-.5.6h-.1l.1.1c.2.1.4.3.7.5.2.2.5.4.5.8s-.2.7-.3.9-.3.4-.3.6.1.4.3.5l-.1.2c-.2-.1-.5-.4-.5-.7s.2-.6.3-.8c.3-.5.2-.7-.2-.9-.2-.1-.4-.2-.7-.3-.1 0-.3-.1-.5-.4s-.1-.6 0-.8c.2-.3.3-.5.4-.7l.1-.2v.1h-.1c-.3-.2-.8-.5-1.2-.7-.5-.2-.9-.4-1.4-.5l-.7-.2h-.2l-.3-.1c-.3-.1-.5-.5-.6-.8-.1-.6 0-.9.1-1.2s.2-.5.3-.8c.1-.2.2-.5.2-.7l.1-.5c0 .1-.2-.2-.5-.4-.6-.5-1.5-.9-2.3-1.2l-.3-.1-.4-.1c-.3-.1-.6-.3-.8-.6l-.2-.4-.1-.4c0-.9.2-1.4.4-1.9.5-1 1.1-1.9 1.8-2.7l.4.1zM842.4 110.7c-.2 1.1-.6 2.1-1.1 3-.3.5-.6 1-1.3 1.4l-.4.1-.5.1c-.4 0-.7-.1-1-.3l-.3-.3-.3-.2c-.7-.5-1.6-1-2.3-1.2-.4-.1-.7-.1-.6-.1l-.4.4c-.1.2-.3.4-.4.6s-.3.4-.5.7c-.2.2-.4.5-.9.8-.3.1-.7.1-1 0l-.3-.2-.1-.1-.6-.4c-.4-.3-.8-.6-1.3-.8-.4-.2-.9-.5-1.2-.6h-.1l.1-.1-.1.1c-.1.2-.2.4-.3.7-.1.1-.3.4-.6.4s-.5-.1-.6-.2c-.2-.1-.4-.3-.6-.4-.4-.2-.6-.1-.9.4-.1.2-.3.5-.5.7-.3.2-.6.2-.9 0l.1-.2c.2.1.5 0 .6-.1s.2-.4.3-.6.2-.5.5-.8c.4-.2.7-.1 1-.1.3.1.5.2.8.3h.1-.1c.1-.1.1-.4.2-.7.1-.2.1-.3.3-.5l.3-.2h.5c.7.1 1.1.3 1.6.6.5.2 1 .5 1.4.7l.7.4.2.1h-.3l.2-.3.3-.6c.1-.2.2-.5.4-.7.2-.3.3-.5.6-.8.4-.4.9-.5 1.3-.5s.7 0 1.1.1c1.3.3 2.3.8 3.2 1.6l.3.3.2.2.1.1-.3-.1h-.1c.2 0 .6-.3.9-.6.7-.7 1.4-1.4 2.1-2.2l.5.1zM781.2 213c.9-.4 1.3-1.5 1.6-2.4.3-1 .4-2 .5-3 .1-2 0-4.1 0-6.2l-.1-12.4c0-4.1 0-8.3.2-12.4.1-2.1.2-4.1.4-6.2s.4-4.1.9-6.3c.2-1.1.6-2 .9-3s.6-2 .8-2.9c.3-1 .5-2 .7-2.9.1-.5.1-.9.1-1.4v-1.6c0-.8.5-1.6.9-2 .4-.5.9-.8 1.4-1.2l.6-.4.1-.1.1-.2c.2-.3.4-.8.7-1.2.4-.9.9-1.8 1.3-2.8s1-1.9 1.7-2.9c.4-.5.7-.9 1.4-1.4.2-.1.4-.2.7-.3h.2-.2l-.2.1.1-.3.3-.7.2-.5.2-.3.3-.3c.1-.1.4-.3.7-.3h.6l.4.2.6.3s.1 0-.3.1l-.3.2-.2.5c0-.2 0-.5-.1-.7-.1-.5-.1-1.1-.1-1.7 0-.3 0-.7.3-1.2.1-.2.5-.6.9-.6h.5l.4.1c.6.2 1.1.6 1.5.9.2.1.4.3.5.3H802.1l-.1.1-.1.1c0-.1 0-.4.1-.7v-.7c0-.9-.5-1.7-1-2.6-1.1-1.7-2.5-3.2-3.9-4.7l.1-.2c1.6 1.3 3.2 2.6 4.6 4.3.7.8 1.3 1.8 1.5 3 0 .3.1.6.1.9v.9c0 .2 0 .4-.3.8l-.6.3c-.2 0-.3 0-.5-.1l-.8-.4c-.4-.3-.8-.5-1.2-.6h.1l.2-.1.1-.1v.3c0 .4.1.9.2 1.4 0 .3.1.5.1.8v.4c0 .2-.1.5-.3.6l-.5.3c-.3.1-.6.1-.7.1l-.3-.1c-.3-.1-.6-.2-.8-.3l-.3-.1h.2l.4-.1c.2-.2 0 0 0 .2l-.2.7c-.1.3-.2.6-.6 1l-.5.3-.4.1c-.2.1-.5.5-.8.9-1.1 1.5-1.8 3.4-2.7 5.3-.2.5-.5 1-.8 1.5l-.3.4-.4.4c-.3.2-.5.3-.7.5-.8.5-1.4 1.1-1.4 1.5v1.6c0 .6-.1 1.1-.2 1.7-.2 1.1-.5 2.1-.8 3.1s-.6 2-1 3c-.3 1-.7 2-1 2.9-.5 1.9-.8 3.9-1 5.9s-.4 4.1-.5 6.1c-.3 4.1-.4 8.2-.5 12.3l-.3 12.4c-.1 2.1-.1 4.1-.2 6.2-.1 1-.3 2.1-.6 3.1-.4 1-.8 2-1.9 2.5h-.4zM967.6 245.8c-.7-.7-.9-1.7-.9-2.5 0-.9.1-1.8.3-2.7.4-1.8 1-3.4 1.5-5.1l3.3-10.1c2.2-6.7 4.4-13.5 6.1-20.3.2-.9.4-1.7.6-2.6s.3-1.7.5-2.6.2-1.7.2-2.5v-2.7c.1-1.8.1-3.6.4-5.4.1-.9.4-1.9.8-2.8l.1-.3.1-.2v-.4c0-.2-.1-.5-.2-.8-.2-.3-.4-.6-.6-1-.1-.2-.3-.4-.4-.6s-.3-.7-.4-.9c-.2-1-.3-1.9-.3-2.8-.1-1.8-.1-3.5-.5-5.1-.1-.4-.2-.8-.4-1l-.1-.1-.4-.3c-.3-.5-.3-.8-.3-1v-1.3c0-.2-.1-.3.1-.1H976c-.1 0-.3 0-.5-.1l-.3-.3v-.5c.2-.5.5-.8.7-1.2s.4-.8.6-1.1l.1-.5-.4-.2v-.2c.2 0 .6 0 .7.3s.1.5 0 .8c-.1.5-.3.9-.4 1.3-.2.4-.4.9-.5 1.2v-.1l-.1-.1h.2l.6-.1h.4c.1 0 .2-.1.6.1.3.1.4.4.5.6l.1.5c.1.5 0 1 .1 1.3l.1.2-.1-.1.3.2.4.4c.4.5.5.9.7 1.4.7 1.8.8 3.7 1 5.4.1.9.2 1.8.4 2.5l.1.3.3.5c.3.4.6.8.8 1.2.2.5.5 1 .5 1.7 0 .3 0 .7-.1 1l-.1.2-.1.2-.1.3c-.3.7-.5 1.5-.6 2.3-.2 1.7-.4 3.4-.5 5.2l-.1 2.6c-.1.9-.1 1.9-.4 2.8-.2.9-.3 1.8-.6 2.7-.2.9-.4 1.7-.7 2.6-1.9 6.9-4.4 13.5-6.8 20.2L969 236c-.6 1.7-1.3 3.3-1.7 5-.2.8-.4 1.7-.4 2.6 0 .8.1 1.8.7 2.4v-.2z" class="st80"/><path d="m504.6 0-95.4 136.5C399 151 381.7 159.1 364 157.6l-209.2-18.3c-17.7-1.5-33.3-12.5-40.8-28.6L62.4 0h-1.1L113 111.1c7.7 16.4 23.6 27.6 41.6 29.2l209.2 18.3c1.5.1 2.9.2 4.4.2 16.5 0 32.1-8.1 41.7-21.7L505.8 0h-1.2z" class="st0"/></svg>