<svg xmlns="http://www.w3.org/2000/svg" xml:space="preserve" id="Layer_1" x="0" y="0" style="enable-background:new 0 0 1023 518" version="1.1" viewBox="0 0 1023 518"><style>.st0{fill:#0095da}.st2{fill:#fff}.st4{fill:#606060}.st9{fill:#77ccf2}.st10{fill:#2a1d01}.st11{fill:#5292a8}</style><path d="m992.7 247.7-94-201.4c-9-19.8-28.1-33.1-49.6-35L720.7 0H592.2c-7.1 4.4-13 10.3-17 17.6L447.5 200c-14.6 17.5-16.6 40.5-5.3 60.3l94 201.4c6.9 19.4 25.7 32.6 47.3 34.5l221.3 19.4c21.6 1.9 42.7-7.9 54.9-25.6l127.8-182c12.5-17.7 14.5-40.7 5.2-60.3z" class="st0"/><g id="Visual-_x2F_-Community-_x2F_-UserCentriCities"><g id="Beeldmerk" transform="rotate(5 -3042.268 5399.297)"><g id="Community_User-CentriCities_beeldmerk_RGB"><path id="Path_00000022539923410411753740000013296277872474913968_" d="m414.2 172.8 67.3-116.3L52.3-205.7l-75 126.3c-9.2 16-9.2 35.9 2.4 52.2L95.3 173.1c7.1 16 24 26.1 42.7 26.1h231.4c18.4-.3 35.6-10.1 44.8-26.4z" style="fill:#0085c0"/><circle id="Oval" cx="68.9" cy="-192.7" r="22.2" class="st2"/><path id="Rectangle_00000117648725859814646160000007869222945725916317_" d="M185.3-96.9 58.9-185.2 72-204l126.4 88.4z" class="st2"/><circle id="Oval_00000060725015485175523540000004643450713183241638_" cx="466.1" cy="39.7" r="22.2" class="st2" transform="rotate(-45.001 466.071 39.672)"/><path id="Rectangle_00000134251772396012791220000004957430873783559359_" d="m340.2-51.8 131.5 80.6-11.9 19.5-131.5-80.6z" class="st2"/><g id="Group_00000005231992975804465400000016843764744327844283_" transform="translate(86.315 101.88)"><path id="Path_00000147917050981809532990000008735295700707623610_" d="M239.1-320.8H95.8c-13.9 0-27 7.4-32.3 19.6L-7.9-176.9c-8.6 12.2-8.6 27.1 0 39.3L63.5-13.3C68.9-1.1 81.9 6.3 95.9 6.3h143.3c13.9 0 27-7.4 33.8-19.6l71.5-124.3c7.1-12.2 7.1-27.1 0-39.3L273-301.2c-7.2-12.2-19.9-19.6-33.9-19.6z" style="fill:#002f3d"/><path id="Shape" d="M239.1-320.8c13.9 0 27 7.4 33.8 19.6l71.5 124.3c7.1 12.2 7.1 27.1 0 39.3L272.9-13.3C265.8-1.1 253 6.3 239.1 6.3H95.8c-13.9 0-27-7.4-32.3-19.6L-7.9-137.7c-8.6-12.2-8.6-27.1 0-39.3l71.5-124.3c5.3-12.2 18.4-19.6 32.3-19.6l143.2.1m0-14.9H95.8c-19.9 0-37.7 10.7-45.4 27.7l-71.2 123.1c-11.6 17-11.6 38.1 0 55l71 123.1c8 16.7 25.8 27.7 45.4 27.7h143.3c19.3 0 37.1-10.4 46.6-27.1L357-130.5c9.5-16.7 9.5-37.5 0-54.1L285.4-309c-9.2-16.3-27-26.7-46.3-26.7z" class="st2"/></g><path id="Rectangle_00000102535099068225721030000000807095717123229625_" d="m391.7-152.7 72.1-44.1 7.8 12.7-72.2 44z" class="st2"/><ellipse id="Oval_00000053528051990458123900000017624676420683737012_" cx="150.1" cy="59.9" class="st4" rx="11" ry="20.8" transform="rotate(112.538 150.128 59.88)"/><ellipse id="Oval_00000005956436411554570100000015730361573545921969_" cx="349.5" cy="62.4" class="st4" rx="23.4" ry="11" transform="rotate(155.965 349.496 62.42)"/><linearGradient id="Path_00000067952871166143005570000010648638730621186442_" x1="-343.358" x2="-342.358" y1="301.937" y2="301.937" gradientTransform="matrix(239.6346 -18.4989 -20.9654 -211.4423 88743.797 57487.387)" gradientUnits="userSpaceOnUse"><stop offset="0" style="stop-color:#fedec8"/><stop offset="1" style="stop-color:#eacdba"/></linearGradient><path id="Path_00000020367879050312810000000006436006931064185483_" d="M338.6-15.5s-3.3-13.7-25.2-21.1C291.4-44 279-52.4 279-67.9v-41.4h-50.4v41.4c0 15.8-12.5 24.1-34.4 31.3-22 7.4-25.2 21.1-25.2 21.1l-35.3 75 17.2 30.1c2.4 5.1 5.9 9.5 10.7 12.8l29.1-66.7h126.8l30.3 67.3c5-3.3 9.5-7.7 12.8-13.4L373.9 66l-35.3-81.5z" style="fill:url(#Path_00000067952871166143005570000010648638730621186442_)"/><path id="Path_00000165914616869819262740000004889478128600128675_" d="M348.4-220.9c0 76.2-27 138.4-96.7 138.4s-94.3-63.1-94.3-139.3c0-49.1 26.5-72.9 53.9-83.5l63.5-5.5c32.6 6.4 73.6 28.8 73.6 89.9z" style="fill:#fedec8"/><path id="Path_00000061433463046386261870000011941341089411366279_" d="M333.1-30.9c-1.5-1.2-42.7-16.2-42.7-16.2C286-40.2 270.5-28 250.7-28S215.4-40.6 211-47.1c0 0-40.9 15-42.7 16.2-1.5 1.2-36.5 80.8-37.7 83.8.3-.3 1.5-1.8 6.8-1.5 6.5.3 38.3 11.7 35.9 21.5l11-20.6 9.5 57.7H308l9.5-57.7 11 20.6C326 63 358 51.7 364.3 51.4c5.6-.3 6.5 1.2 6.8 1.5-1.5-3-36.5-82.3-38-83.8z" style="fill:#ebebec"/><path id="Path_00000121996637602267548220000011939463510427138232_" d="M211.2-130.5c13.1 8 27.3 12.7 41.6 12.7s28.2-5.6 41.9-12.7c-5.1 5.9-11.3 10.6-18.4 14.2-7.1 3.5-15.2 5.6-23.2 5.6s-16.3-1.8-23.5-5.3c-7.4-3.3-14-8-18.4-14.5z" style="fill:#c42c76"/><path id="Path_00000141432852356555492290000006633555859781245348_" d="M229.6-171.6c0 10.1-8.3 18.4-18.4 18.4-10.3 0-18.4-8.3-18.4-18.4 0-10.1 8.3-18.4 18.4-18.4 10 .3 18.4 8.4 18.4 18.4z" class="st9"/><path id="Path_00000036961451799916379500000013854961214799525776_" d="M225.3-170.9c0 7.6-6.1 13.4-13.4 13.4-7.6 0-13.4-6.1-13.4-13.4 0-7.3 6.1-13.4 13.4-13.4 7.3 0 13.4 6.1 13.4 13.4z" class="st10"/><path id="Path_00000105417112445754308240000007953452797355775123_" d="M205.5-176.5c0 1.9-1.6 3.5-3.5 3.5s-3.5-1.6-3.5-3.5 1.6-3.5 3.5-3.5c1.9-.1 3.5 1.6 3.5 3.5z" class="st2"/><path id="Path_00000166634411156486019860000011542077103503091337_" d="M276.3-171.6c0 10.1 8.3 18.4 18.4 18.4 10.3 0 18.4-8.3 18.4-18.4 0-10.1-8.3-18.4-18.4-18.4-10.1.3-18.4 8.4-18.4 18.4z" class="st9"/><path id="Path_00000023241194995840122900000005937848390900776351_" d="M280.5-170.9c0 7.6 6.1 13.4 13.4 13.4 7.6 0 13.4-6.1 13.4-13.4s-6.1-13.4-13.4-13.4c-7.3 0-13.4 6.1-13.4 13.4z" class="st10"/><path id="Path_00000061439962611270250370000008793805497889706150_" d="M281.9-176.5c0 1.9 1.6 3.5 3.5 3.5s3.5-1.6 3.5-3.5-1.6-3.5-3.5-3.5-3.5 1.6-3.5 3.5z" class="st2"/><g id="Group_00000142150492812802071220000005491202405166368135_" transform="translate(169.8 298.565)"><path id="Path_00000024707392154080973500000004831786110346367627_" d="M-29.4-270c0 .9.9 1.8 1.8 1.8s1.8-.9 1.8-1.8-.9-1.8-1.8-1.8c-.6 0-.9.3-1.2.6s-.6.6-.6 1.2z" class="st11"/><path id="Path_00000005265788553074755400000003277676538514461605_" d="M-27.6-256c-.9 0-1.8.9-1.8 1.8s.9 1.8 1.8 1.8 1.8-.9 1.8-1.8c0-1-.9-1.8-1.8-1.8z" class="st11"/><path id="Path_00000084523520695548600970000002783426349760853939_" d="M-11.5-308.4c.9 0 1.8-.9 1.8-1.8 0-.6-.6-1.5-1.2-1.5-.6 1.2-.9 2.1-1.5 3.3h.9z" class="st11"/><path id="Path_00000176762347867126480390000013243456318702892951_" d="M-11.5-295.9c-.9 0-1.8.9-1.8 1.8s.9 1.8 1.8 1.8 1.8-.9 1.8-1.8c-.1-.9-.9-1.8-1.8-1.8z" class="st11"/><path id="Path_00000164485890922257287010000000259119936656549775_" d="M-11.5-279.8c-.9 0-1.8.9-1.8 1.8s.9 1.8 1.8 1.8 1.8-.9 1.8-1.8c-.1-.9-.9-1.8-1.8-1.8z" class="st11"/><path id="Path_00000044860969409864348660000013691045883098086573_" d="M-11.5-263.8c-.9 0-1.8.9-1.8 1.8s.9 1.8 1.8 1.8 1.8-.9 1.8-1.8c-.1-1.2-.9-1.8-1.8-1.8z" class="st11"/><path id="Path_00000173138948262961017220000013716704136747187614_" d="M-11.5-248c-.9 0-1.8.9-1.8 1.8s.9 1.8 1.8 1.8 1.8-.9 1.8-1.8-.9-1.8-1.8-1.8z" class="st11"/><path id="Path_00000001659589740977674450000002570512559997344177_" d="M4.2-332.2h.6c.6 0 1.2-.3 1.5-.9-.9.4-1.5.7-2.1.9z" class="st11"/><path id="Path_00000022546645961510826990000003673343309316193942_" d="M4.5-319.7c-.9 0-1.8.9-1.8 1.8s.9 1.8 1.8 1.8 1.8-.9 1.8-1.8-.6-1.8-1.8-1.8z" class="st11"/><path id="Path_00000180337314052811626760000009489553156226229949_" d="M4.5-303.9c-.9 0-1.8.9-1.8 1.8s.9 1.8 1.8 1.8 1.8-.9 1.8-1.8-.6-1.8-1.8-1.8z" class="st11"/><path id="Path_00000089533868306923634100000007976374125134922153_" d="M4.5-287.9c-.9 0-1.8.9-1.8 1.8s.9 1.8 1.8 1.8 1.8-.9 1.8-1.8-.6-1.8-1.8-1.8z" class="st11"/><path id="Path_00000106138437034141485860000005562991744011030657_" d="M4.5-271.8c-.9 0-1.8.9-1.8 1.8s.9 1.8 1.8 1.8 1.8-.9 1.8-1.8c0-1.2-.6-1.8-1.8-1.8z" class="st11"/><circle id="Oval_00000165919159425926827040000004230765291814421891_" cx="4.5" cy="-254.3" r="1.8" class="st11" transform="rotate(90 4.51 -254.26)"/><path id="Path_00000101093669122928296190000015518968035497882295_" d="M3.6-239.7c-.6.3-.9.9-.9 1.5v.3" class="st11"/><path id="Path_00000101074055476203956440000004573265174310056591_" d="M20.9-327.7c-.9 0-1.8.9-1.8 1.8s.9 1.8 1.8 1.8 1.8-.9 1.8-1.8-1-1.8-1.8-1.8z" class="st11"/><path id="Path_00000059283638376096993830000008652794976926603686_" d="M20.9-311.6c-.9 0-1.8.9-1.8 1.8s.9 1.8 1.8 1.8 1.8-.9 1.8-1.8c-.1-1.2-1-1.8-1.8-1.8z" class="st11"/><path id="Path_00000022548379980524288400000009857420105884561330_" d="M20.9-295.9c-.9 0-1.8.9-1.8 1.8s.9 1.8 1.8 1.8 1.8-.9 1.8-1.8-1-1.8-1.8-1.8z" class="st11"/><path id="Path_00000129906844412766293860000008772104559283541912_" d="M20.9-279.8c-.9 0-1.8.9-1.8 1.8s.9 1.8 1.8 1.8 1.8-.9 1.8-1.8-1-1.8-1.8-1.8z" class="st11"/><circle id="Oval_00000035491818368215196610000017365929469095362751_" cx="20.9" cy="-262.3" r="1.8" class="st11" transform="rotate(90 20.858 -262.286)"/><path id="Path_00000016065373104645182300000004391531239304389250_" d="M20.9-248c-.9 0-1.8.9-1.8 1.8s.9 1.8 1.8 1.8 1.8-.9 1.8-1.8c-.1-.9-1-1.8-1.8-1.8z" class="st11"/><path id="Path_00000122705298994714932660000010872866465889447321_" d="M20.9-232c-.9 0-1.8.9-1.8 1.8s.9 1.8 1.8 1.8 1.8-.9 1.8-1.8-1-1.8-1.8-1.8z" class="st11"/><path id="Path_00000100380055424003392430000005731250935338037942_" d="M20.9-215.9c-.6 0-1.2.3-1.5.9l.3 2.1c.3.3.6.3 1.2.3.9 0 1.8-.9 1.8-1.8s-1-1.5-1.8-1.5z" class="st11"/><path id="Path_00000078030658137085102420000000444720954099351196_" d="m21.7-199.9.3 2.7c.3-.3.3-.6.3-1.2.3-.6-.3-1.2-.6-1.5z" class="st11"/><path id="Path_00000119835318543231475540000008139464393932739254_" d="M36.9-335.7c-.9 0-1.8.9-1.8 1.8s.9 1.8 1.8 1.8 1.8-.9 1.8-1.8-.9-1.8-1.8-1.8z" class="st11"/><path id="Path_00000182516564104273634130000013742111523121030807_" d="M36.9-319.7c-.9 0-1.8.9-1.8 1.8s.9 1.8 1.8 1.8 1.8-.9 1.8-1.8-.9-1.8-1.8-1.8z" class="st11"/><path id="Path_00000059310691350288215800000000671035031796512956_" d="M36.9-303.9c-.9 0-1.8.9-1.8 1.8s.9 1.8 1.8 1.8 1.8-.9 1.8-1.8-.9-1.8-1.8-1.8z" class="st11"/><path id="Path_00000038370726866644413110000012073949805520894889_" d="M36.9-287.9c-.9 0-1.8.9-1.8 1.8s.9 1.8 1.8 1.8 1.8-.9 1.8-1.8-.9-1.8-1.8-1.8z" class="st11"/><path id="Path_00000096053620370292236750000018294195480605370785_" d="M36.9-271.8c-.9 0-1.8.9-1.8 1.8s.9 1.8 1.8 1.8 1.8-.9 1.8-1.8c0-1.2-.9-1.8-1.8-1.8z" class="st11"/><path id="Path_00000109729217315294526060000017847620452244429705_" d="M36.9-256c-.9 0-1.8.9-1.8 1.8s.9 1.8 1.8 1.8 1.8-.9 1.8-1.8c0-1-.9-1.8-1.8-1.8z" class="st11"/><path id="Path_00000046307809619129711870000006667645976362699914_" d="M36.9-240c-.9 0-1.8.9-1.8 1.8s.9 1.8 1.8 1.8 1.8-.9 1.8-1.8-.9-1.8-1.8-1.8z" class="st11"/><path id="Path_00000053542610097048627310000014632751453684977811_" d="M36.9-223.9c-.9 0-1.8.9-1.8 1.8s.9 1.8 1.8 1.8 1.8-.9 1.8-1.8c0-1.2-.9-1.8-1.8-1.8z" class="st11"/><path id="Path_00000170274283366673258680000008272931237475663516_" d="M36.9-208.2c-.9 0-1.8.9-1.8 1.8s.9 1.8 1.8 1.8 1.8-.9 1.8-1.8-.9-1.8-1.8-1.8z" class="st11"/><path id="Path_00000160169661828202312510000014309914827024367776_" d="M36.9-192.1c-.9 0-1.8.9-1.8 1.8s.9 1.8 1.8 1.8 1.8-.9 1.8-1.8-.9-1.8-1.8-1.8z" class="st11"/><path id="Path_00000047040580512481857020000010740967444539304836_" d="M53-311.6c-.9 0-1.8.9-1.8 1.8s.9 1.8 1.8 1.8 1.8-.9 1.8-1.8c-.1-1.2-1-1.8-1.8-1.8z" class="st11"/><path id="Path_00000066501153020511247920000015007808516046154657_" d="M53-295.9c-.9 0-1.8.9-1.8 1.8s.9 1.8 1.8 1.8 1.8-.9 1.8-1.8-1-1.8-1.8-1.8z" class="st11"/><path id="Path_00000025444504534779416910000006173712210103844783_" d="M53-279.8c-.9 0-1.8.9-1.8 1.8s.9 1.8 1.8 1.8 1.8-.9 1.8-1.8-1-1.8-1.8-1.8z" class="st11"/><path id="Path_00000052823035063792960350000011109781010877747134_" d="M53-263.8c-.9 0-1.8.9-1.8 1.8s.9 1.8 1.8 1.8 1.8-.9 1.8-1.8c-.1-1.2-1-1.8-1.8-1.8z" class="st11"/><path id="Path_00000121253659553129815030000011433961537089982889_" d="M53-248c-.9 0-1.8.9-1.8 1.8s.9 1.8 1.8 1.8 1.8-.9 1.8-1.8-1-1.8-1.8-1.8z" class="st11"/><path id="Path_00000160151383783710849250000002227281051791183790_" d="M53-232c-.9 0-1.8.9-1.8 1.8s.9 1.8 1.8 1.8 1.8-.9 1.8-1.8c-.1-.9-1-1.8-1.8-1.8z" class="st11"/><path id="Path_00000032622692058512134900000011808085123148447926_" d="M53-215.9c-.9 0-1.8.9-1.8 1.8s.9 1.8 1.8 1.8 1.8-.9 1.8-1.8c-.1-1.2-1-1.8-1.8-1.8z" class="st11"/><path id="Path_00000139262271464469384790000014262764789080323985_" d="M53-200.2c-.9 0-1.8.9-1.8 1.8s.9 1.8 1.8 1.8 1.8-.9 1.8-1.8-1-1.8-1.8-1.8z" class="st11"/><path id="Path_00000034800413453584182590000010283905085585057192_" d="M69-303.9c-.9 0-1.8.9-1.8 1.8s.9 1.8 1.8 1.8 1.8-.9 1.8-1.8-.9-1.8-1.8-1.8z" class="st11"/><path id="Path_00000175321889456574933980000003467252550236443271_" d="M69-287.9c-.9 0-1.8.9-1.8 1.8s.9 1.8 1.8 1.8 1.8-.9 1.8-1.8-.9-1.8-1.8-1.8z" class="st11"/><path id="Path_00000141430090324754033460000011570379711294526103_" d="M69-271.8c-.9 0-1.8.9-1.8 1.8s.9 1.8 1.8 1.8 1.8-.9 1.8-1.8c0-1.2-.9-1.8-1.8-1.8z" class="st11"/><path id="Path_00000123439443089200112250000002200829257529046151_" d="M69-256c-.9 0-1.8.9-1.8 1.8s.9 1.8 1.8 1.8 1.8-.9 1.8-1.8-.9-1.8-1.8-1.8z" class="st11"/><path id="Path_00000001633357979221661520000007454373448827294875_" d="M69-240c-.9 0-1.8.9-1.8 1.8s.9 1.8 1.8 1.8 1.8-.9 1.8-1.8-.9-1.8-1.8-1.8z" class="st11"/><path id="Path_00000171708638609102080170000014371360087023530939_" d="M69-223.9c-.9 0-1.8.9-1.8 1.8s.9 1.8 1.8 1.8 1.8-.9 1.8-1.8c0-1.2-.9-1.8-1.8-1.8z" class="st11"/><path id="Path_00000096761404327906099200000005126579497012301484_" d="M69-208.2c-.9 0-1.8.9-1.8 1.8s.9 1.8 1.8 1.8 1.8-.9 1.8-1.8-.9-1.8-1.8-1.8z" class="st11"/><path id="Path_00000119105137221496435670000014461102805352673161_" d="M69-192.1c-.9 0-1.8.9-1.8 1.8s.9 1.8 1.8 1.8 1.8-.9 1.8-1.8-.9-1.8-1.8-1.8z" class="st11"/><path id="Path_00000070079311012920083260000012575592881740028318_" d="M85.1-311.6c-.9 0-1.8.9-1.8 1.8s.9 1.8 1.8 1.8 1.8-.9 1.8-1.8c-.1-1.2-.7-1.8-1.8-1.8z" class="st11"/><path id="Path_00000130617574902899418110000000490933802688817342_" d="M85.1-295.9c-.9 0-1.8.9-1.8 1.8s.9 1.8 1.8 1.8 1.8-.9 1.8-1.8-.7-1.8-1.8-1.8z" class="st11"/><path id="Path_00000057113149022546369300000016744032198033937819_" d="M85.1-279.8c-.9 0-1.8.9-1.8 1.8s.9 1.8 1.8 1.8 1.8-.9 1.8-1.8-.7-1.8-1.8-1.8z" class="st11"/><path id="Path_00000145025809008781030420000016259089645686032277_" d="M85.1-263.8c-.9 0-1.8.9-1.8 1.8s.9 1.8 1.8 1.8 1.8-.9 1.8-1.8c-.1-1.2-.7-1.8-1.8-1.8z" class="st11"/><path id="Path_00000033367145458202513610000000958615736055079825_" d="M85.1-248c-.9 0-1.8.9-1.8 1.8s.9 1.8 1.8 1.8 1.8-.9 1.8-1.8c-.1-.9-.7-1.8-1.8-1.8z" class="st11"/><path id="Path_00000007422567049736627260000012710752653283865482_" d="M85.1-232c-.9 0-1.8.9-1.8 1.8s.9 1.8 1.8 1.8 1.8-.9 1.8-1.8-.7-1.8-1.8-1.8z" class="st11"/><path id="Path_00000093175080300595048390000000236953254959778201_" d="M85.1-215.9c-.9 0-1.8.9-1.8 1.8s.9 1.8 1.8 1.8 1.8-.9 1.8-1.8c-.1-1.2-.7-1.8-1.8-1.8z" class="st11"/><path id="Path_00000174573846189378704370000012148507576561167765_" d="M85.1-200.2c-.9 0-1.8.9-1.8 1.8s.9 1.8 1.8 1.8 1.8-.9 1.8-1.8-.7-1.8-1.8-1.8z" class="st11"/><path id="Path_00000011712125371854269520000012528343075170154913_" d="M101.4-319.7c-.9 0-1.8.9-1.8 1.8s.9 1.8 1.8 1.8 1.8-.9 1.8-1.8-.9-1.8-1.8-1.8z" class="st11"/><path id="Path_00000119821132644703751600000016301990531057143200_" d="M101.4-303.9c-.9 0-1.8.9-1.8 1.8s.9 1.8 1.8 1.8 1.8-.9 1.8-1.8-.9-1.8-1.8-1.8z" class="st11"/><path id="Path_00000129208081306549053530000003696671282529554840_" d="M101.4-287.9c-.9 0-1.8.9-1.8 1.8s.9 1.8 1.8 1.8 1.8-.9 1.8-1.8-.9-1.8-1.8-1.8z" class="st11"/><path id="Path_00000101064392018605546320000013367629984334622858_" d="M101.4-271.8c-.9 0-1.8.9-1.8 1.8s.9 1.8 1.8 1.8 1.8-.9 1.8-1.8c0-1.2-.9-1.8-1.8-1.8z" class="st11"/><circle id="Oval_00000067936017711181717320000016951526433547845802_" cx="101.4" cy="-254.3" r="1.8" class="st11" transform="rotate(90 101.403 -254.26)"/><path id="Path_00000021120917773898084950000003187387747727470001_" d="M101.4-240c-.9 0-1.8.9-1.8 1.8s.9 1.8 1.8 1.8 1.8-.9 1.8-1.8-.9-1.8-1.8-1.8z" class="st11"/><path id="Path_00000062909730200214026950000008412994948706762395_" d="M101.4-223.9c-.9 0-1.8.9-1.8 1.8s.9 1.8 1.8 1.8 1.8-.9 1.8-1.8c0-1.2-.9-1.8-1.8-1.8z" class="st11"/><path id="Path_00000142155007557962025380000011957149264286101893_" d="M101.4-208.2c-.9 0-1.8.9-1.8 1.8s.9 1.8 1.8 1.8 1.8-.9 1.8-1.8-.9-1.8-1.8-1.8z" class="st11"/><path id="Path_00000053508529333201771260000008732693002912947620_" d="M101.4-192.1c-.9 0-1.8.9-1.8 1.8s.9 1.8 1.8 1.8 1.8-.9 1.8-1.8-.9-1.8-1.8-1.8z" class="st11"/><path id="Path_00000033370651789277142660000006810404806656162988_" d="M117.5-327.7c-.9 0-1.8.9-1.8 1.8s.9 1.8 1.8 1.8 1.8-.9 1.8-1.8c-.1-.9-1-1.8-1.8-1.8z" class="st11"/><path id="Path_00000046312111437839869090000010740975085486290080_" d="M117.5-311.6c-.9 0-1.8.9-1.8 1.8s.9 1.8 1.8 1.8 1.8-.9 1.8-1.8c-.1-1.2-1-1.8-1.8-1.8z" class="st11"/><path id="Path_00000009555223344783830450000000716532875400453567_" d="M117.5-295.9c-.9 0-1.8.9-1.8 1.8s.9 1.8 1.8 1.8 1.8-.9 1.8-1.8c-.1-.9-1-1.8-1.8-1.8z" class="st11"/><path id="Path_00000004520549934313521990000016538128272149097146_" d="M117.5-279.8c-.9 0-1.8.9-1.8 1.8s.9 1.8 1.8 1.8 1.8-.9 1.8-1.8-1-1.8-1.8-1.8z" class="st11"/><circle id="Oval_00000168828984200714161290000017657245632061599622_" cx="117.5" cy="-262.3" r="1.8" class="st11" transform="rotate(90 117.452 -262.286)"/><path id="Path_00000160906473498079051270000012374757982765813901_" d="M117.5-248c-.9 0-1.8.9-1.8 1.8s.9 1.8 1.8 1.8 1.8-.9 1.8-1.8-1-1.8-1.8-1.8z" class="st11"/><path id="Path_00000183929992383912219430000005769066701038470302_" d="M117.5-232c-.9 0-1.8.9-1.8 1.8s.9 1.8 1.8 1.8 1.8-.9 1.8-1.8c-.1-.9-1-1.8-1.8-1.8z" class="st11"/><path id="Path_00000127729758306237708940000010713454903792762039_" d="M117.5-215.9c-.9 0-1.8.9-1.8 1.8s.9 1.8 1.8 1.8 1.8-.9 1.8-1.8c-.1-1.2-1-1.8-1.8-1.8z" class="st11"/><path id="Path_00000162345739854972105840000009082034189653890979_" d="M117.5-200.2c-.9 0-1.8.9-1.8 1.8s.9 1.8 1.8 1.8 1.8-.9 1.8-1.8-1-1.8-1.8-1.8z" class="st11"/><path id="Path_00000127722958568498724600000009703308963170254236_" d="M133.5-335.7c-.9 0-1.8.9-1.8 1.8s.9 1.8 1.8 1.8 1.8-.9 1.8-1.8-.9-1.8-1.8-1.8z" class="st11"/><path id="Path_00000069364341514812990830000000101238337956641446_" d="M133.5-319.7c-.9 0-1.8.9-1.8 1.8s.9 1.8 1.8 1.8 1.8-.9 1.8-1.8-.9-1.8-1.8-1.8z" class="st11"/><path id="Path_00000174560239490583713510000000885332165458656666_" d="M133.5-303.9c-.9 0-1.8.9-1.8 1.8s.9 1.8 1.8 1.8 1.8-.9 1.8-1.8-.9-1.8-1.8-1.8z" class="st11"/><path id="Path_00000003080869436346561640000012815337918791766438_" d="M133.5-287.9c-.9 0-1.8.9-1.8 1.8s.9 1.8 1.8 1.8 1.8-.9 1.8-1.8-.9-1.8-1.8-1.8z" class="st11"/><path id="Path_00000020382571624770923710000011617727000704701325_" d="M133.5-271.8c-.9 0-1.8.9-1.8 1.8s.9 1.8 1.8 1.8 1.8-.9 1.8-1.8c0-1.2-.9-1.8-1.8-1.8z" class="st11"/><path id="Path_00000132074949010885738820000010779143223585468549_" d="M133.5-256c-.9 0-1.8.9-1.8 1.8s.9 1.8 1.8 1.8 1.8-.9 1.8-1.8c0-1-.9-1.8-1.8-1.8z" class="st11"/><path id="Path_00000141441592033082397610000001684885303985233063_" d="M133.5-240c-.9 0-1.8.9-1.8 1.8s.9 1.8 1.8 1.8 1.8-.9 1.8-1.8-.9-1.8-1.8-1.8z" class="st11"/><path id="Path_00000137813777990224103720000004735995236247956613_" d="M133.5-223.9c-.9 0-1.8.9-1.8 1.8s.9 1.8 1.8 1.8 1.8-.9 1.8-1.8c0-1.2-.9-1.8-1.8-1.8z" class="st11"/><path id="Path_00000072977988045188376760000002856225621281992844_" d="M133.5-208.2c-.9 0-1.8.9-1.8 1.8s.9 1.8 1.8 1.8 1.8-.9 1.8-1.8-.9-1.8-1.8-1.8z" class="st11"/><path id="Path_00000034800725060861238690000017475322308033468600_" d="M133.5-192.1c-.9 0-1.8.9-1.8 1.8s.9 1.8 1.8 1.8 1.8-.9 1.8-1.8-.9-1.8-1.8-1.8z" class="st11"/><path id="Path_00000158019789121121471130000010638468030003739829_" d="M149.6-327.7c-.9 0-1.8.9-1.8 1.8s.9 1.8 1.8 1.8 1.8-.9 1.8-1.8-1-1.8-1.8-1.8z" class="st11"/><path id="Path_00000035508886539096969200000008854397033411266206_" d="M149.6-311.6c-.9 0-1.8.9-1.8 1.8s.9 1.8 1.8 1.8 1.8-.9 1.8-1.8c-.1-1.2-1-1.8-1.8-1.8z" class="st11"/><path id="Path_00000068639895699655388510000002126017137093148605_" d="M149.6-295.9c-.9 0-1.8.9-1.8 1.8s.9 1.8 1.8 1.8 1.8-.9 1.8-1.8-1-1.8-1.8-1.8z" class="st11"/><path id="Path_00000017475459019931132300000011908334557169585541_" d="M149.6-279.8c-.9 0-1.8.9-1.8 1.8s.9 1.8 1.8 1.8 1.8-.9 1.8-1.8-1-1.8-1.8-1.8z" class="st11"/><path id="Path_00000128456422867607304730000015959866839416309660_" d="M149.6-263.8c-.9 0-1.8.9-1.8 1.8s.9 1.8 1.8 1.8 1.8-.9 1.8-1.8c-.1-1.2-1-1.8-1.8-1.8z" class="st11"/><path id="Path_00000007394096143111191190000007859154579404943497_" d="M149.6-248c-.9 0-1.8.9-1.8 1.8s.9 1.8 1.8 1.8 1.8-.9 1.8-1.8c-.1-.9-1-1.8-1.8-1.8z" class="st11"/><path id="Path_00000148622556636545219740000000743569164145037233_" d="M165.6-319.7c-.9 0-1.8.9-1.8 1.8s.9 1.8 1.8 1.8 1.8-.9 1.8-1.8-.6-1.8-1.8-1.8z" class="st11"/><path id="Path_00000145022344587423716590000009505811323604455820_" d="M165.6-303.9c-.9 0-1.8.9-1.8 1.8s.9 1.8 1.8 1.8 1.8-.9 1.8-1.8-.6-1.8-1.8-1.8z" class="st11"/><path id="Path_00000026122159826151168700000003820799570051605654_" d="M165.6-287.9c-.9 0-1.8.9-1.8 1.8s.9 1.8 1.8 1.8 1.8-.9 1.8-1.8-.6-1.8-1.8-1.8z" class="st11"/><path id="Path_00000008109810221834740650000007344338895911359619_" d="M165.6-271.8c-.9 0-1.8.9-1.8 1.8s.9 1.8 1.8 1.8 1.8-.9 1.8-1.8c0-1.2-.6-1.8-1.8-1.8z" class="st11"/><path id="Path_00000156565169116731460860000001987889900534188954_" d="M165.6-256c-.9 0-1.8.9-1.8 1.8s.9 1.8 1.8 1.8 1.8-.9 1.8-1.8-.6-1.8-1.8-1.8z" class="st11"/><path id="Path_00000069362816831348330390000006821911400237450686_" d="M165.6-240c-.9 0-1.8.9-1.8 1.8s.6 1.5 1.5 1.8c.6-.6 1.5-.9 2.1-1.5v-.3c0-.9-.6-1.8-1.8-1.8z" class="st11"/><path id="Path_00000173142471166260703750000015548682395459652487_" d="M181.9-279.8c-.9 0-1.8.9-1.8 1.8s.9 1.8 1.8 1.8 1.8-.9 1.8-1.8-.9-1.8-1.8-1.8z" class="st11"/><path id="Path_00000017516874724000515270000014336245381344240782_" d="M181.9-263.8c-.9 0-1.8.9-1.8 1.8s.9 1.8 1.8 1.8 1.8-.9 1.8-1.8c0-1.2-.9-1.8-1.8-1.8z" class="st11"/><path id="Path_00000025418216950079830260000005775318595433951107_" d="M181.9-248c-.9 0-1.8.9-1.8 1.8s.6 1.8 1.5 1.8c.6-.3.9-.3 1.5-.6.3-.3.6-.6.6-1.2 0-.9-.9-1.8-1.8-1.8z" class="st11"/><path id="Path_00000147918698621732511800000016053162638304388744_" d="M196.8-255.7c-.6.3-.9.9-.9 1.5 0 .9.9 1.8 1.8 1.8h.3c-.3-1-.6-2.2-1.2-3.3z" class="st11"/><path id="Path_00000049196854961672861530000018359469940993017741_" d="M51.2-325.9c0 .9.9 1.8 1.8 1.8.3 0 .6 0 .9-.3l-2.7-1.5z" class="st11"/><path id="Path_00000016046082314343253720000005271992226459983505_" d="M67.5-319.1c-.3.3-.3.6-.3 1.2 0 .9.9 1.8 1.8 1.8s1.8-.9 1.8-1.8v-.6l-3.3-.6z" class="st11"/></g><path id="Path_00000029005522878958976330000006744257066737375393_" d="M201.3-44.2c8.1 9.2 25.5 25.5 48.6 25.5 24.6 0 43.2-13.8 51.9-25.2" style="fill:none;stroke:#d5d5d7"/><circle id="Oval_00000181773282928037474840000000594639630994289548_" cx="174.4" cy="60.5" r="1.4" class="st11" transform="rotate(-85 174.387 60.482)"/><path id="Rectangle_00000155857967004117222370000008229458604767915926_" d="M248.7 48.5h12.7v133h-12.7z" class="st2" transform="rotate(90 255.043 114.96)"/><path id="Rectangle_00000125563627016930518210000007940945563258656415_" d="M248.7 48.5h12.7v133h-12.7z" class="st2" transform="rotate(90 255.043 114.96)"/></g></g></g><path d="m504.6 0-95.4 136.5C399 151 381.7 159.1 364 157.6l-209.2-18.3c-17.7-1.5-33.3-12.5-40.8-28.6L62.4 0h-1.1L113 111.1c7.7 16.4 23.6 27.6 41.6 29.2l209.2 18.3c1.5.1 2.9.2 4.4.2 16.5 0 32.1-8.1 41.7-21.7L505.8 0h-1.2z" class="st0"/><path d="M809.1 21.7S807.2 8.8 797.6 0H656l-15.1 7.3 10.9 1L637 31.5l-3.6 3.9 5.7 2.6-11 24.1 8 .7-7.8 24.4-.4.9 5.1-.5.4 39.8s18.9-73 57-81.3c45.1-9.5 81.8 4.5 93.2 10.5 18.1 9.7 32.1 84.6 32.1 84.6s15.4-60.8 10.9-80.3c-4.4-19.5-17.5-39.2-17.5-39.2z" style="fill:#edc866"/><g id="Visual-_x2F_-Community-_x2F_-UserCentriCities_00000153701878412385771730000013755472464697185679_"><g id="Beeldmerk_00000152247332977999083130000003224783442608845474_" transform="rotate(5 -3042.268 5399.297)"><g id="Community_User-CentriCities_beeldmerk_RGB_00000096771720709778816720000010217542899390877859_"><path d="M262.6-261.4c12.6 1 26.8 3.7 42.1 9.5 5.8 5.4 17.8 19.1 27.7 46.7 0 0-6-30.3-25.5-50.3l15.5-26.1-19.8 22.7s-10.3-2.5-24.6-4.4l-26.7-12 1.5 4.4-25.9-6.4 8 7.9-17.9-2 3.9 2.3-21.4 3.5 11 1.5s-16.1 2.9-20.5 8.5c-4.5 5.5-19.1 42.1-19.1 42.1s22.6-39.7 33.3-42.6c1.5-.3 3.9-.7 6.9-1.1-2.8 1.5-5.4 3.2-7.7 5.2 0 .1 7.1-3.5 19.4-6.4 12.5-1.3 28.1-2.3 39.8-3z" style="fill:#c6a956"/><path d="m298.7-300.3-10.5-2.1-5.1-.9.3 5.2 7.8 1.5-19.7 1.5 12.5 3.3-.9 1.5c-5.8-1-13.5-2.3-14.8-2.7-1.2-.2 7.1 4.5 12 7.2l-.8 1.3h3.1c.7.4 1.2.6 1.2.6l-12.1-1.6 2 5.3-20.7-4.7s24.7 11 38.2 11.6l-1.2-11.3h4.4l9.6-14.9-13.4-9.1 8.1 8.3zm33.7 52.2-5.9-20.7c-.9 1.5-6.8 7.9-5 15.8 2.1 7.9 8 21 8 21l-2.1-19.6 5 3.5zm-158.1 13.8-3.2 17.8s8.6-29.9 11.3-39.6c0 0-9.4 16.7-9.4 18.4-.1 2 1.3 3.4 1.3 3.4z" style="fill:#efe08a"/></g></g></g></svg>